G75*
G70*
%OFA0B0*%
%FSLAX24Y24*%
%IPPOS*%
%LPD*%
%AMOC8*
5,1,8,0,0,1.08239X$1,22.5*
%
%ADD10C,0.0000*%
%ADD11C,0.0060*%
%ADD12R,0.0800X0.0200*%
%ADD13R,0.0200X0.0250*%
%ADD14C,0.0100*%
%ADD15C,0.0070*%
%ADD16C,0.0050*%
%ADD17R,0.0240X0.0340*%
%ADD18C,0.0080*%
%ADD19C,0.0020*%
D10*
X000151Y001901D02*
X000151Y028401D01*
X001310Y028401D02*
X001312Y028449D01*
X001318Y028497D01*
X001328Y028544D01*
X001341Y028590D01*
X001359Y028635D01*
X001379Y028679D01*
X001404Y028721D01*
X001432Y028760D01*
X001462Y028797D01*
X001496Y028831D01*
X001533Y028863D01*
X001571Y028892D01*
X001612Y028917D01*
X001655Y028939D01*
X001700Y028957D01*
X001746Y028971D01*
X001793Y028982D01*
X001841Y028989D01*
X001889Y028992D01*
X001937Y028991D01*
X001985Y028986D01*
X002033Y028977D01*
X002079Y028965D01*
X002124Y028948D01*
X002168Y028928D01*
X002210Y028905D01*
X002250Y028878D01*
X002288Y028848D01*
X002323Y028815D01*
X002355Y028779D01*
X002385Y028741D01*
X002411Y028700D01*
X002433Y028657D01*
X002453Y028613D01*
X002468Y028568D01*
X002480Y028521D01*
X002488Y028473D01*
X002492Y028425D01*
X002492Y028377D01*
X002488Y028329D01*
X002480Y028281D01*
X002468Y028234D01*
X002453Y028189D01*
X002433Y028145D01*
X002411Y028102D01*
X002385Y028061D01*
X002355Y028023D01*
X002323Y027987D01*
X002288Y027954D01*
X002250Y027924D01*
X002210Y027897D01*
X002168Y027874D01*
X002124Y027854D01*
X002079Y027837D01*
X002033Y027825D01*
X001985Y027816D01*
X001937Y027811D01*
X001889Y027810D01*
X001841Y027813D01*
X001793Y027820D01*
X001746Y027831D01*
X001700Y027845D01*
X001655Y027863D01*
X001612Y027885D01*
X001571Y027910D01*
X001533Y027939D01*
X001496Y027971D01*
X001462Y028005D01*
X001432Y028042D01*
X001404Y028081D01*
X001379Y028123D01*
X001359Y028167D01*
X001341Y028212D01*
X001328Y028258D01*
X001318Y028305D01*
X001312Y028353D01*
X001310Y028401D01*
X000151Y028401D02*
X000153Y028484D01*
X000159Y028567D01*
X000169Y028650D01*
X000183Y028732D01*
X000200Y028814D01*
X000222Y028894D01*
X000247Y028973D01*
X000276Y029051D01*
X000309Y029128D01*
X000346Y029203D01*
X000385Y029276D01*
X000429Y029347D01*
X000475Y029416D01*
X000525Y029483D01*
X000578Y029547D01*
X000634Y029609D01*
X000693Y029668D01*
X000755Y029724D01*
X000819Y029777D01*
X000886Y029827D01*
X000955Y029873D01*
X001026Y029917D01*
X001099Y029956D01*
X001174Y029993D01*
X001251Y030026D01*
X001329Y030055D01*
X001408Y030080D01*
X001488Y030102D01*
X001570Y030119D01*
X001652Y030133D01*
X001735Y030143D01*
X001818Y030149D01*
X001901Y030151D01*
X018401Y030151D01*
X017810Y028401D02*
X017812Y028449D01*
X017818Y028497D01*
X017828Y028544D01*
X017841Y028590D01*
X017859Y028635D01*
X017879Y028679D01*
X017904Y028721D01*
X017932Y028760D01*
X017962Y028797D01*
X017996Y028831D01*
X018033Y028863D01*
X018071Y028892D01*
X018112Y028917D01*
X018155Y028939D01*
X018200Y028957D01*
X018246Y028971D01*
X018293Y028982D01*
X018341Y028989D01*
X018389Y028992D01*
X018437Y028991D01*
X018485Y028986D01*
X018533Y028977D01*
X018579Y028965D01*
X018624Y028948D01*
X018668Y028928D01*
X018710Y028905D01*
X018750Y028878D01*
X018788Y028848D01*
X018823Y028815D01*
X018855Y028779D01*
X018885Y028741D01*
X018911Y028700D01*
X018933Y028657D01*
X018953Y028613D01*
X018968Y028568D01*
X018980Y028521D01*
X018988Y028473D01*
X018992Y028425D01*
X018992Y028377D01*
X018988Y028329D01*
X018980Y028281D01*
X018968Y028234D01*
X018953Y028189D01*
X018933Y028145D01*
X018911Y028102D01*
X018885Y028061D01*
X018855Y028023D01*
X018823Y027987D01*
X018788Y027954D01*
X018750Y027924D01*
X018710Y027897D01*
X018668Y027874D01*
X018624Y027854D01*
X018579Y027837D01*
X018533Y027825D01*
X018485Y027816D01*
X018437Y027811D01*
X018389Y027810D01*
X018341Y027813D01*
X018293Y027820D01*
X018246Y027831D01*
X018200Y027845D01*
X018155Y027863D01*
X018112Y027885D01*
X018071Y027910D01*
X018033Y027939D01*
X017996Y027971D01*
X017962Y028005D01*
X017932Y028042D01*
X017904Y028081D01*
X017879Y028123D01*
X017859Y028167D01*
X017841Y028212D01*
X017828Y028258D01*
X017818Y028305D01*
X017812Y028353D01*
X017810Y028401D01*
X018401Y030151D02*
X018484Y030149D01*
X018567Y030143D01*
X018650Y030133D01*
X018732Y030119D01*
X018814Y030102D01*
X018894Y030080D01*
X018973Y030055D01*
X019051Y030026D01*
X019128Y029993D01*
X019203Y029956D01*
X019276Y029917D01*
X019347Y029873D01*
X019416Y029827D01*
X019483Y029777D01*
X019547Y029724D01*
X019609Y029668D01*
X019668Y029609D01*
X019724Y029547D01*
X019777Y029483D01*
X019827Y029416D01*
X019873Y029347D01*
X019917Y029276D01*
X019956Y029203D01*
X019993Y029128D01*
X020026Y029051D01*
X020055Y028973D01*
X020080Y028894D01*
X020102Y028814D01*
X020119Y028732D01*
X020133Y028650D01*
X020143Y028567D01*
X020149Y028484D01*
X020151Y028401D01*
X020151Y001901D01*
X017810Y001901D02*
X017812Y001949D01*
X017818Y001997D01*
X017828Y002044D01*
X017841Y002090D01*
X017859Y002135D01*
X017879Y002179D01*
X017904Y002221D01*
X017932Y002260D01*
X017962Y002297D01*
X017996Y002331D01*
X018033Y002363D01*
X018071Y002392D01*
X018112Y002417D01*
X018155Y002439D01*
X018200Y002457D01*
X018246Y002471D01*
X018293Y002482D01*
X018341Y002489D01*
X018389Y002492D01*
X018437Y002491D01*
X018485Y002486D01*
X018533Y002477D01*
X018579Y002465D01*
X018624Y002448D01*
X018668Y002428D01*
X018710Y002405D01*
X018750Y002378D01*
X018788Y002348D01*
X018823Y002315D01*
X018855Y002279D01*
X018885Y002241D01*
X018911Y002200D01*
X018933Y002157D01*
X018953Y002113D01*
X018968Y002068D01*
X018980Y002021D01*
X018988Y001973D01*
X018992Y001925D01*
X018992Y001877D01*
X018988Y001829D01*
X018980Y001781D01*
X018968Y001734D01*
X018953Y001689D01*
X018933Y001645D01*
X018911Y001602D01*
X018885Y001561D01*
X018855Y001523D01*
X018823Y001487D01*
X018788Y001454D01*
X018750Y001424D01*
X018710Y001397D01*
X018668Y001374D01*
X018624Y001354D01*
X018579Y001337D01*
X018533Y001325D01*
X018485Y001316D01*
X018437Y001311D01*
X018389Y001310D01*
X018341Y001313D01*
X018293Y001320D01*
X018246Y001331D01*
X018200Y001345D01*
X018155Y001363D01*
X018112Y001385D01*
X018071Y001410D01*
X018033Y001439D01*
X017996Y001471D01*
X017962Y001505D01*
X017932Y001542D01*
X017904Y001581D01*
X017879Y001623D01*
X017859Y001667D01*
X017841Y001712D01*
X017828Y001758D01*
X017818Y001805D01*
X017812Y001853D01*
X017810Y001901D01*
X018401Y000151D02*
X018484Y000153D01*
X018567Y000159D01*
X018650Y000169D01*
X018732Y000183D01*
X018814Y000200D01*
X018894Y000222D01*
X018973Y000247D01*
X019051Y000276D01*
X019128Y000309D01*
X019203Y000346D01*
X019276Y000385D01*
X019347Y000429D01*
X019416Y000475D01*
X019483Y000525D01*
X019547Y000578D01*
X019609Y000634D01*
X019668Y000693D01*
X019724Y000755D01*
X019777Y000819D01*
X019827Y000886D01*
X019873Y000955D01*
X019917Y001026D01*
X019956Y001099D01*
X019993Y001174D01*
X020026Y001251D01*
X020055Y001329D01*
X020080Y001408D01*
X020102Y001488D01*
X020119Y001570D01*
X020133Y001652D01*
X020143Y001735D01*
X020149Y001818D01*
X020151Y001901D01*
X018401Y000151D02*
X001901Y000151D01*
X001310Y001901D02*
X001312Y001949D01*
X001318Y001997D01*
X001328Y002044D01*
X001341Y002090D01*
X001359Y002135D01*
X001379Y002179D01*
X001404Y002221D01*
X001432Y002260D01*
X001462Y002297D01*
X001496Y002331D01*
X001533Y002363D01*
X001571Y002392D01*
X001612Y002417D01*
X001655Y002439D01*
X001700Y002457D01*
X001746Y002471D01*
X001793Y002482D01*
X001841Y002489D01*
X001889Y002492D01*
X001937Y002491D01*
X001985Y002486D01*
X002033Y002477D01*
X002079Y002465D01*
X002124Y002448D01*
X002168Y002428D01*
X002210Y002405D01*
X002250Y002378D01*
X002288Y002348D01*
X002323Y002315D01*
X002355Y002279D01*
X002385Y002241D01*
X002411Y002200D01*
X002433Y002157D01*
X002453Y002113D01*
X002468Y002068D01*
X002480Y002021D01*
X002488Y001973D01*
X002492Y001925D01*
X002492Y001877D01*
X002488Y001829D01*
X002480Y001781D01*
X002468Y001734D01*
X002453Y001689D01*
X002433Y001645D01*
X002411Y001602D01*
X002385Y001561D01*
X002355Y001523D01*
X002323Y001487D01*
X002288Y001454D01*
X002250Y001424D01*
X002210Y001397D01*
X002168Y001374D01*
X002124Y001354D01*
X002079Y001337D01*
X002033Y001325D01*
X001985Y001316D01*
X001937Y001311D01*
X001889Y001310D01*
X001841Y001313D01*
X001793Y001320D01*
X001746Y001331D01*
X001700Y001345D01*
X001655Y001363D01*
X001612Y001385D01*
X001571Y001410D01*
X001533Y001439D01*
X001496Y001471D01*
X001462Y001505D01*
X001432Y001542D01*
X001404Y001581D01*
X001379Y001623D01*
X001359Y001667D01*
X001341Y001712D01*
X001328Y001758D01*
X001318Y001805D01*
X001312Y001853D01*
X001310Y001901D01*
X000151Y001901D02*
X000153Y001818D01*
X000159Y001735D01*
X000169Y001652D01*
X000183Y001570D01*
X000200Y001488D01*
X000222Y001408D01*
X000247Y001329D01*
X000276Y001251D01*
X000309Y001174D01*
X000346Y001099D01*
X000385Y001026D01*
X000429Y000955D01*
X000475Y000886D01*
X000525Y000819D01*
X000578Y000755D01*
X000634Y000693D01*
X000693Y000634D01*
X000755Y000578D01*
X000819Y000525D01*
X000886Y000475D01*
X000955Y000429D01*
X001026Y000385D01*
X001099Y000346D01*
X001174Y000309D01*
X001251Y000276D01*
X001329Y000247D01*
X001408Y000222D01*
X001488Y000200D01*
X001570Y000183D01*
X001652Y000169D01*
X001735Y000159D01*
X001818Y000153D01*
X001901Y000151D01*
D11*
X000551Y001901D02*
X000553Y001974D01*
X000559Y002047D01*
X000569Y002119D01*
X000583Y002191D01*
X000600Y002262D01*
X000622Y002332D01*
X000647Y002401D01*
X000676Y002468D01*
X000708Y002533D01*
X000744Y002597D01*
X000784Y002659D01*
X000826Y002718D01*
X000872Y002775D01*
X000921Y002829D01*
X000973Y002881D01*
X001027Y002930D01*
X001084Y002976D01*
X001143Y003018D01*
X001205Y003058D01*
X001269Y003094D01*
X001334Y003126D01*
X001401Y003155D01*
X001470Y003180D01*
X001540Y003202D01*
X001611Y003219D01*
X001683Y003233D01*
X001755Y003243D01*
X001828Y003249D01*
X001901Y003251D01*
X001974Y003249D01*
X002047Y003243D01*
X002119Y003233D01*
X002191Y003219D01*
X002262Y003202D01*
X002332Y003180D01*
X002401Y003155D01*
X002468Y003126D01*
X002533Y003094D01*
X002597Y003058D01*
X002659Y003018D01*
X002718Y002976D01*
X002775Y002930D01*
X002829Y002881D01*
X002881Y002829D01*
X002930Y002775D01*
X002976Y002718D01*
X003018Y002659D01*
X003058Y002597D01*
X003094Y002533D01*
X003126Y002468D01*
X003155Y002401D01*
X003180Y002332D01*
X003202Y002262D01*
X003219Y002191D01*
X003233Y002119D01*
X003243Y002047D01*
X003249Y001974D01*
X003251Y001901D01*
X003249Y001828D01*
X003243Y001755D01*
X003233Y001683D01*
X003219Y001611D01*
X003202Y001540D01*
X003180Y001470D01*
X003155Y001401D01*
X003126Y001334D01*
X003094Y001269D01*
X003058Y001205D01*
X003018Y001143D01*
X002976Y001084D01*
X002930Y001027D01*
X002881Y000973D01*
X002829Y000921D01*
X002775Y000872D01*
X002718Y000826D01*
X002659Y000784D01*
X002597Y000744D01*
X002533Y000708D01*
X002468Y000676D01*
X002401Y000647D01*
X002332Y000622D01*
X002262Y000600D01*
X002191Y000583D01*
X002119Y000569D01*
X002047Y000559D01*
X001974Y000553D01*
X001901Y000551D01*
X001828Y000553D01*
X001755Y000559D01*
X001683Y000569D01*
X001611Y000583D01*
X001540Y000600D01*
X001470Y000622D01*
X001401Y000647D01*
X001334Y000676D01*
X001269Y000708D01*
X001205Y000744D01*
X001143Y000784D01*
X001084Y000826D01*
X001027Y000872D01*
X000973Y000921D01*
X000921Y000973D01*
X000872Y001027D01*
X000826Y001084D01*
X000784Y001143D01*
X000744Y001205D01*
X000708Y001269D01*
X000676Y001334D01*
X000647Y001401D01*
X000622Y001470D01*
X000600Y001540D01*
X000583Y001611D01*
X000569Y001683D01*
X000559Y001755D01*
X000553Y001828D01*
X000551Y001901D01*
X000681Y003681D02*
X000908Y003908D01*
X000908Y003965D01*
X000851Y004021D01*
X000738Y004021D01*
X000681Y003965D01*
X000795Y004181D02*
X000908Y004295D01*
X000908Y004521D01*
X000851Y004681D02*
X000681Y004681D01*
X000681Y005021D01*
X000851Y005021D01*
X000908Y004965D01*
X000908Y004908D01*
X000851Y004851D01*
X000681Y004851D01*
X000851Y004851D02*
X000908Y004795D01*
X000908Y004738D01*
X000851Y004681D01*
X001049Y004681D02*
X001163Y004681D01*
X001106Y004681D02*
X001106Y004908D01*
X001049Y004908D01*
X001106Y005021D02*
X001106Y005078D01*
X001295Y004908D02*
X001295Y004681D01*
X001522Y004681D02*
X001522Y004851D01*
X001465Y004908D01*
X001295Y004908D01*
X001663Y004738D02*
X001720Y004795D01*
X001890Y004795D01*
X001890Y004851D02*
X001890Y004681D01*
X001720Y004681D01*
X001663Y004738D01*
X001720Y004908D02*
X001833Y004908D01*
X001890Y004851D01*
X002032Y004795D02*
X002145Y004908D01*
X002202Y004908D01*
X002339Y004908D02*
X002339Y004738D01*
X002395Y004681D01*
X002565Y004681D01*
X002565Y004624D02*
X002509Y004568D01*
X002452Y004568D01*
X002565Y004624D02*
X002565Y004908D01*
X002509Y004408D02*
X002395Y004408D01*
X002339Y004351D01*
X002339Y004238D01*
X002395Y004181D01*
X002509Y004181D01*
X002565Y004238D01*
X002565Y004351D01*
X002509Y004408D01*
X002707Y004408D02*
X002707Y004181D01*
X002636Y004021D02*
X002636Y003681D01*
X002523Y003681D02*
X002750Y003681D01*
X002891Y003681D02*
X003118Y003908D01*
X003118Y003965D01*
X003061Y004021D01*
X002948Y004021D01*
X002891Y003965D01*
X002934Y004181D02*
X002934Y004351D01*
X002877Y004408D01*
X002707Y004408D01*
X002636Y004021D02*
X002523Y003908D01*
X002381Y003851D02*
X002154Y003851D01*
X002013Y003965D02*
X001786Y003738D01*
X001786Y003681D01*
X001645Y003681D02*
X001418Y003681D01*
X001531Y003681D02*
X001531Y004021D01*
X001418Y003908D01*
X001276Y003965D02*
X001276Y003738D01*
X001220Y003681D01*
X001106Y003681D01*
X001049Y003738D01*
X001276Y003965D01*
X001220Y004021D01*
X001106Y004021D01*
X001049Y003965D01*
X001049Y003738D01*
X000908Y003681D02*
X000681Y003681D01*
X000795Y004181D02*
X000681Y004295D01*
X000681Y004521D01*
X001049Y004351D02*
X001049Y004238D01*
X001106Y004181D01*
X001220Y004181D01*
X001276Y004295D02*
X001049Y004295D01*
X001049Y004351D02*
X001106Y004408D01*
X001220Y004408D01*
X001276Y004351D01*
X001276Y004295D01*
X001418Y004295D02*
X001531Y004408D01*
X001588Y004408D01*
X001725Y004351D02*
X001781Y004408D01*
X001952Y004408D01*
X001895Y004295D02*
X001781Y004295D01*
X001725Y004351D01*
X001725Y004181D02*
X001895Y004181D01*
X001952Y004238D01*
X001895Y004295D01*
X002093Y004408D02*
X002150Y004408D01*
X002150Y004181D01*
X002206Y004181D02*
X002093Y004181D01*
X002013Y004021D02*
X002013Y003965D01*
X002013Y004021D02*
X001786Y004021D01*
X001418Y004181D02*
X001418Y004408D01*
X002032Y004681D02*
X002032Y004908D01*
X002150Y004578D02*
X002150Y004521D01*
X002891Y003681D02*
X003118Y003681D01*
X003259Y003851D02*
X003486Y003851D01*
X003628Y003738D02*
X003684Y003681D01*
X003798Y003681D01*
X003854Y003738D01*
X003854Y003795D01*
X003798Y003851D01*
X003741Y003851D01*
X003798Y003851D02*
X003854Y003908D01*
X003854Y003965D01*
X003798Y004021D01*
X003684Y004021D01*
X003628Y003965D01*
X003670Y004181D02*
X003443Y004181D01*
X003557Y004181D02*
X003557Y004521D01*
X003443Y004408D01*
X003500Y004681D02*
X003443Y004738D01*
X003500Y004795D01*
X003670Y004795D01*
X003670Y004851D02*
X003670Y004681D01*
X003500Y004681D01*
X003302Y004738D02*
X003302Y004851D01*
X003189Y004851D01*
X003302Y004738D02*
X003245Y004681D01*
X003132Y004681D01*
X003075Y004738D01*
X003075Y004965D01*
X003132Y005021D01*
X003245Y005021D01*
X003302Y004965D01*
X003500Y004908D02*
X003614Y004908D01*
X003670Y004851D01*
X003812Y004908D02*
X003868Y004908D01*
X003925Y004851D01*
X003982Y004908D01*
X004039Y004851D01*
X004039Y004681D01*
X003925Y004681D02*
X003925Y004851D01*
X003812Y004908D02*
X003812Y004681D01*
X003996Y004465D02*
X004053Y004521D01*
X004166Y004521D01*
X004223Y004465D01*
X003996Y004238D01*
X004053Y004181D01*
X004166Y004181D01*
X004223Y004238D01*
X004223Y004465D01*
X004237Y004681D02*
X004180Y004738D01*
X004180Y004851D01*
X004237Y004908D01*
X004350Y004908D01*
X004407Y004851D01*
X004407Y004795D01*
X004180Y004795D01*
X004237Y004681D02*
X004350Y004681D01*
X003996Y004465D02*
X003996Y004238D01*
X003868Y004238D02*
X003868Y004181D01*
X003812Y004181D01*
X003812Y004238D01*
X003868Y004238D01*
X004109Y004021D02*
X003996Y003908D01*
X004109Y004021D02*
X004109Y003681D01*
X003996Y003681D02*
X004223Y003681D01*
X006251Y003451D02*
X006251Y001851D01*
X006253Y001834D01*
X006257Y001817D01*
X006264Y001801D01*
X006274Y001787D01*
X006287Y001774D01*
X006301Y001764D01*
X006317Y001757D01*
X006334Y001753D01*
X006351Y001751D01*
X006951Y001751D01*
X006968Y001753D01*
X006985Y001757D01*
X007001Y001764D01*
X007015Y001774D01*
X007028Y001787D01*
X007038Y001801D01*
X007045Y001817D01*
X007049Y001834D01*
X007051Y001851D01*
X007051Y003451D01*
X007049Y003468D01*
X007045Y003485D01*
X007038Y003501D01*
X007028Y003515D01*
X007015Y003528D01*
X007001Y003538D01*
X006985Y003545D01*
X006968Y003549D01*
X006951Y003551D01*
X006351Y003551D01*
X006334Y003549D01*
X006317Y003545D01*
X006301Y003538D01*
X006287Y003528D01*
X006274Y003515D01*
X006264Y003501D01*
X006257Y003485D01*
X006253Y003468D01*
X006251Y003451D01*
X006401Y003051D02*
X006651Y002651D01*
X006901Y002651D01*
X006651Y002651D02*
X006651Y002401D01*
X006651Y002651D02*
X006401Y002651D01*
X006651Y002651D02*
X006651Y003251D01*
X006401Y003051D02*
X006901Y003051D01*
X006651Y002651D01*
X007251Y001851D02*
X007251Y003451D01*
X007253Y003468D01*
X007257Y003485D01*
X007264Y003501D01*
X007274Y003515D01*
X007287Y003528D01*
X007301Y003538D01*
X007317Y003545D01*
X007334Y003549D01*
X007351Y003551D01*
X007951Y003551D01*
X007968Y003549D01*
X007985Y003545D01*
X008001Y003538D01*
X008015Y003528D01*
X008028Y003515D01*
X008038Y003501D01*
X008045Y003485D01*
X008049Y003468D01*
X008051Y003451D01*
X008051Y001851D01*
X008049Y001834D01*
X008045Y001817D01*
X008038Y001801D01*
X008028Y001787D01*
X008015Y001774D01*
X008001Y001764D01*
X007985Y001757D01*
X007968Y001753D01*
X007951Y001751D01*
X007351Y001751D01*
X007334Y001753D01*
X007317Y001757D01*
X007301Y001764D01*
X007287Y001774D01*
X007274Y001787D01*
X007264Y001801D01*
X007257Y001817D01*
X007253Y001834D01*
X007251Y001851D01*
X007651Y002401D02*
X007651Y002651D01*
X007901Y002651D01*
X007651Y002651D02*
X007401Y002651D01*
X007651Y002651D02*
X007401Y003051D01*
X007901Y003051D01*
X007651Y002651D01*
X007651Y003251D01*
X008251Y003451D02*
X008251Y001851D01*
X008253Y001834D01*
X008257Y001817D01*
X008264Y001801D01*
X008274Y001787D01*
X008287Y001774D01*
X008301Y001764D01*
X008317Y001757D01*
X008334Y001753D01*
X008351Y001751D01*
X008951Y001751D01*
X008968Y001753D01*
X008985Y001757D01*
X009001Y001764D01*
X009015Y001774D01*
X009028Y001787D01*
X009038Y001801D01*
X009045Y001817D01*
X009049Y001834D01*
X009051Y001851D01*
X009051Y003451D01*
X009049Y003468D01*
X009045Y003485D01*
X009038Y003501D01*
X009028Y003515D01*
X009015Y003528D01*
X009001Y003538D01*
X008985Y003545D01*
X008968Y003549D01*
X008951Y003551D01*
X008351Y003551D01*
X008334Y003549D01*
X008317Y003545D01*
X008301Y003538D01*
X008287Y003528D01*
X008274Y003515D01*
X008264Y003501D01*
X008257Y003485D01*
X008253Y003468D01*
X008251Y003451D01*
X008401Y003051D02*
X008651Y002651D01*
X008901Y002651D01*
X008651Y002651D02*
X008651Y002401D01*
X008651Y002651D02*
X008401Y002651D01*
X008651Y002651D02*
X008651Y003251D01*
X008401Y003051D02*
X008901Y003051D01*
X008651Y002651D01*
X009251Y001851D02*
X009251Y003451D01*
X009253Y003468D01*
X009257Y003485D01*
X009264Y003501D01*
X009274Y003515D01*
X009287Y003528D01*
X009301Y003538D01*
X009317Y003545D01*
X009334Y003549D01*
X009351Y003551D01*
X009951Y003551D01*
X009968Y003549D01*
X009985Y003545D01*
X010001Y003538D01*
X010015Y003528D01*
X010028Y003515D01*
X010038Y003501D01*
X010045Y003485D01*
X010049Y003468D01*
X010051Y003451D01*
X010051Y001851D01*
X010049Y001834D01*
X010045Y001817D01*
X010038Y001801D01*
X010028Y001787D01*
X010015Y001774D01*
X010001Y001764D01*
X009985Y001757D01*
X009968Y001753D01*
X009951Y001751D01*
X009351Y001751D01*
X009334Y001753D01*
X009317Y001757D01*
X009301Y001764D01*
X009287Y001774D01*
X009274Y001787D01*
X009264Y001801D01*
X009257Y001817D01*
X009253Y001834D01*
X009251Y001851D01*
X009651Y002401D02*
X009651Y002651D01*
X009901Y002651D01*
X009651Y002651D02*
X009401Y002651D01*
X009651Y002651D02*
X009401Y003051D01*
X009901Y003051D01*
X009651Y002651D01*
X009651Y003251D01*
X010251Y003451D02*
X010251Y001851D01*
X010253Y001834D01*
X010257Y001817D01*
X010264Y001801D01*
X010274Y001787D01*
X010287Y001774D01*
X010301Y001764D01*
X010317Y001757D01*
X010334Y001753D01*
X010351Y001751D01*
X010951Y001751D01*
X010968Y001753D01*
X010985Y001757D01*
X011001Y001764D01*
X011015Y001774D01*
X011028Y001787D01*
X011038Y001801D01*
X011045Y001817D01*
X011049Y001834D01*
X011051Y001851D01*
X011051Y003451D01*
X011049Y003468D01*
X011045Y003485D01*
X011038Y003501D01*
X011028Y003515D01*
X011015Y003528D01*
X011001Y003538D01*
X010985Y003545D01*
X010968Y003549D01*
X010951Y003551D01*
X010351Y003551D01*
X010334Y003549D01*
X010317Y003545D01*
X010301Y003538D01*
X010287Y003528D01*
X010274Y003515D01*
X010264Y003501D01*
X010257Y003485D01*
X010253Y003468D01*
X010251Y003451D01*
X010401Y003051D02*
X010651Y002651D01*
X010901Y002651D01*
X010651Y002651D02*
X010651Y002401D01*
X010651Y002651D02*
X010401Y002651D01*
X010651Y002651D02*
X010651Y003251D01*
X010401Y003051D02*
X010901Y003051D01*
X010651Y002651D01*
X011401Y002651D02*
X011651Y002651D01*
X011901Y002651D01*
X011651Y002651D02*
X011651Y002401D01*
X011651Y002651D02*
X011401Y003051D01*
X011901Y003051D01*
X011651Y002651D01*
X011651Y003251D01*
X011951Y003551D02*
X011968Y003549D01*
X011985Y003545D01*
X012001Y003538D01*
X012015Y003528D01*
X012028Y003515D01*
X012038Y003501D01*
X012045Y003485D01*
X012049Y003468D01*
X012051Y003451D01*
X012051Y001851D01*
X012049Y001834D01*
X012045Y001817D01*
X012038Y001801D01*
X012028Y001787D01*
X012015Y001774D01*
X012001Y001764D01*
X011985Y001757D01*
X011968Y001753D01*
X011951Y001751D01*
X011351Y001751D01*
X011334Y001753D01*
X011317Y001757D01*
X011301Y001764D01*
X011287Y001774D01*
X011274Y001787D01*
X011264Y001801D01*
X011257Y001817D01*
X011253Y001834D01*
X011251Y001851D01*
X011251Y003451D01*
X011253Y003468D01*
X011257Y003485D01*
X011264Y003501D01*
X011274Y003515D01*
X011287Y003528D01*
X011301Y003538D01*
X011317Y003545D01*
X011334Y003549D01*
X011351Y003551D01*
X011951Y003551D01*
X012251Y003451D02*
X012251Y001851D01*
X012253Y001834D01*
X012257Y001817D01*
X012264Y001801D01*
X012274Y001787D01*
X012287Y001774D01*
X012301Y001764D01*
X012317Y001757D01*
X012334Y001753D01*
X012351Y001751D01*
X012951Y001751D01*
X012968Y001753D01*
X012985Y001757D01*
X013001Y001764D01*
X013015Y001774D01*
X013028Y001787D01*
X013038Y001801D01*
X013045Y001817D01*
X013049Y001834D01*
X013051Y001851D01*
X013051Y003451D01*
X013049Y003468D01*
X013045Y003485D01*
X013038Y003501D01*
X013028Y003515D01*
X013015Y003528D01*
X013001Y003538D01*
X012985Y003545D01*
X012968Y003549D01*
X012951Y003551D01*
X012351Y003551D01*
X012334Y003549D01*
X012317Y003545D01*
X012301Y003538D01*
X012287Y003528D01*
X012274Y003515D01*
X012264Y003501D01*
X012257Y003485D01*
X012253Y003468D01*
X012251Y003451D01*
X012401Y003051D02*
X012651Y002651D01*
X012901Y002651D01*
X012651Y002651D02*
X012651Y003251D01*
X012401Y003051D02*
X012901Y003051D01*
X012651Y002651D01*
X012401Y002651D01*
X012651Y002651D02*
X012651Y002401D01*
X013251Y001851D02*
X013251Y003451D01*
X013253Y003468D01*
X013257Y003485D01*
X013264Y003501D01*
X013274Y003515D01*
X013287Y003528D01*
X013301Y003538D01*
X013317Y003545D01*
X013334Y003549D01*
X013351Y003551D01*
X013951Y003551D01*
X013968Y003549D01*
X013985Y003545D01*
X014001Y003538D01*
X014015Y003528D01*
X014028Y003515D01*
X014038Y003501D01*
X014045Y003485D01*
X014049Y003468D01*
X014051Y003451D01*
X014051Y001851D01*
X014049Y001834D01*
X014045Y001817D01*
X014038Y001801D01*
X014028Y001787D01*
X014015Y001774D01*
X014001Y001764D01*
X013985Y001757D01*
X013968Y001753D01*
X013951Y001751D01*
X013351Y001751D01*
X013334Y001753D01*
X013317Y001757D01*
X013301Y001764D01*
X013287Y001774D01*
X013274Y001787D01*
X013264Y001801D01*
X013257Y001817D01*
X013253Y001834D01*
X013251Y001851D01*
X013651Y002401D02*
X013651Y002651D01*
X013901Y002651D01*
X013651Y002651D02*
X013651Y003251D01*
X013401Y003051D02*
X013651Y002651D01*
X013401Y002651D01*
X013651Y002651D02*
X013901Y003051D01*
X013401Y003051D01*
X013451Y004681D02*
X013508Y004738D01*
X013508Y004965D01*
X013451Y005021D01*
X013281Y005021D01*
X013281Y004681D01*
X013451Y004681D01*
X013649Y004681D02*
X013876Y004681D01*
X013763Y004681D02*
X013763Y005021D01*
X013649Y004908D01*
X012876Y004908D02*
X012876Y004965D01*
X012820Y005021D01*
X012706Y005021D01*
X012649Y004965D01*
X012508Y004965D02*
X012451Y005021D01*
X012281Y005021D01*
X012281Y004681D01*
X012451Y004681D01*
X012508Y004738D01*
X012508Y004965D01*
X012649Y004681D02*
X012876Y004908D01*
X012876Y004681D02*
X012649Y004681D01*
X011876Y004738D02*
X011820Y004681D01*
X011706Y004681D01*
X011649Y004738D01*
X011508Y004738D02*
X011508Y004965D01*
X011451Y005021D01*
X011281Y005021D01*
X011281Y004681D01*
X011451Y004681D01*
X011508Y004738D01*
X011649Y004965D02*
X011706Y005021D01*
X011820Y005021D01*
X011876Y004965D01*
X011876Y004908D01*
X011820Y004851D01*
X011876Y004795D01*
X011876Y004738D01*
X011820Y004851D02*
X011763Y004851D01*
X010876Y004851D02*
X010649Y004851D01*
X010820Y005021D01*
X010820Y004681D01*
X010508Y004738D02*
X010508Y004965D01*
X010451Y005021D01*
X010281Y005021D01*
X010281Y004681D01*
X010451Y004681D01*
X010508Y004738D01*
X009876Y004738D02*
X009820Y004681D01*
X009706Y004681D01*
X009649Y004738D01*
X009649Y004851D02*
X009763Y004908D01*
X009820Y004908D01*
X009876Y004851D01*
X009876Y004738D01*
X009649Y004851D02*
X009649Y005021D01*
X009876Y005021D01*
X009508Y004965D02*
X009508Y004738D01*
X009451Y004681D01*
X009281Y004681D01*
X009281Y005021D01*
X009451Y005021D01*
X009508Y004965D01*
X008876Y005021D02*
X008763Y004965D01*
X008649Y004851D01*
X008820Y004851D01*
X008876Y004795D01*
X008876Y004738D01*
X008820Y004681D01*
X008706Y004681D01*
X008649Y004738D01*
X008649Y004851D01*
X008508Y004738D02*
X008508Y004965D01*
X008451Y005021D01*
X008281Y005021D01*
X008281Y004681D01*
X008451Y004681D01*
X008508Y004738D01*
X007876Y004965D02*
X007649Y004738D01*
X007649Y004681D01*
X007508Y004738D02*
X007508Y004965D01*
X007451Y005021D01*
X007281Y005021D01*
X007281Y004681D01*
X007451Y004681D01*
X007508Y004738D01*
X007649Y005021D02*
X007876Y005021D01*
X007876Y004965D01*
X006876Y004965D02*
X006876Y004908D01*
X006820Y004851D01*
X006706Y004851D01*
X006649Y004908D01*
X006649Y004965D01*
X006706Y005021D01*
X006820Y005021D01*
X006876Y004965D01*
X006820Y004851D02*
X006876Y004795D01*
X006876Y004738D01*
X006820Y004681D01*
X006706Y004681D01*
X006649Y004738D01*
X006649Y004795D01*
X006706Y004851D01*
X006508Y004738D02*
X006508Y004965D01*
X006451Y005021D01*
X006281Y005021D01*
X006281Y004681D01*
X006451Y004681D01*
X006508Y004738D01*
X006606Y010181D02*
X006720Y010181D01*
X006776Y010238D01*
X006776Y010295D01*
X006720Y010351D01*
X006549Y010351D01*
X006549Y010238D01*
X006606Y010181D01*
X006549Y010351D02*
X006663Y010465D01*
X006776Y010521D01*
X006408Y010465D02*
X006351Y010521D01*
X006238Y010521D01*
X006181Y010465D01*
X006181Y010408D01*
X006238Y010351D01*
X006351Y010351D01*
X006408Y010295D01*
X006408Y010238D01*
X006351Y010181D01*
X006238Y010181D01*
X006181Y010238D01*
X005801Y011651D02*
X005803Y011696D01*
X005808Y011742D01*
X005816Y011786D01*
X005828Y011830D01*
X005844Y011873D01*
X005862Y011915D01*
X005884Y011955D01*
X005908Y011993D01*
X005935Y012029D01*
X005965Y012064D01*
X005998Y012095D01*
X006033Y012125D01*
X005931Y012581D02*
X006158Y012581D01*
X006299Y012581D02*
X006526Y012581D01*
X006668Y012581D02*
X006668Y012921D01*
X006838Y012921D01*
X006895Y012865D01*
X006895Y012638D01*
X006838Y012581D01*
X006668Y012581D01*
X006413Y012751D02*
X006299Y012751D01*
X006299Y012921D02*
X006299Y012581D01*
X006299Y012921D02*
X006526Y012921D01*
X005931Y012921D02*
X005931Y012581D01*
X005801Y011651D02*
X005803Y011606D01*
X005808Y011560D01*
X005816Y011516D01*
X005828Y011472D01*
X005844Y011429D01*
X005862Y011387D01*
X005884Y011347D01*
X005908Y011309D01*
X005935Y011273D01*
X005965Y011238D01*
X005998Y011207D01*
X006033Y011177D01*
X007001Y011651D02*
X006999Y011697D01*
X006994Y011743D01*
X006985Y011789D01*
X006973Y011834D01*
X006957Y011877D01*
X006938Y011919D01*
X006915Y011960D01*
X006890Y011999D01*
X006862Y012035D01*
X006831Y012070D01*
X006797Y012102D01*
X006761Y012131D01*
X007093Y012581D02*
X007206Y012581D01*
X007263Y012638D01*
X007263Y012695D01*
X007206Y012751D01*
X007036Y012751D01*
X007036Y012638D01*
X007093Y012581D01*
X007036Y012751D02*
X007150Y012865D01*
X007263Y012921D01*
X007001Y011651D02*
X006999Y011604D01*
X006993Y011556D01*
X006984Y011510D01*
X006971Y011464D01*
X006955Y011420D01*
X006935Y011376D01*
X006911Y011335D01*
X006885Y011296D01*
X006855Y011259D01*
X006822Y011224D01*
X006787Y011192D01*
X006750Y011163D01*
X008431Y012581D02*
X008658Y012581D01*
X008799Y012581D02*
X008799Y012921D01*
X009026Y012921D01*
X009168Y012921D02*
X009338Y012921D01*
X009395Y012865D01*
X009395Y012638D01*
X009338Y012581D01*
X009168Y012581D01*
X009168Y012921D01*
X008913Y012751D02*
X008799Y012751D01*
X008799Y012581D02*
X009026Y012581D01*
X009536Y012638D02*
X009593Y012581D01*
X009706Y012581D01*
X009763Y012638D01*
X009763Y012751D01*
X009706Y012808D01*
X009650Y012808D01*
X009536Y012751D01*
X009536Y012921D01*
X009763Y012921D01*
X008533Y012125D02*
X008498Y012095D01*
X008465Y012064D01*
X008435Y012029D01*
X008408Y011993D01*
X008384Y011955D01*
X008362Y011915D01*
X008344Y011873D01*
X008328Y011830D01*
X008316Y011786D01*
X008308Y011742D01*
X008303Y011696D01*
X008301Y011651D01*
X008303Y011606D01*
X008308Y011560D01*
X008316Y011516D01*
X008328Y011472D01*
X008344Y011429D01*
X008362Y011387D01*
X008384Y011347D01*
X008408Y011309D01*
X008435Y011273D01*
X008465Y011238D01*
X008498Y011207D01*
X008533Y011177D01*
X009501Y011651D02*
X009499Y011697D01*
X009494Y011743D01*
X009485Y011789D01*
X009473Y011834D01*
X009457Y011877D01*
X009438Y011919D01*
X009415Y011960D01*
X009390Y011999D01*
X009362Y012035D01*
X009331Y012070D01*
X009297Y012102D01*
X009261Y012131D01*
X009501Y011651D02*
X009499Y011604D01*
X009493Y011556D01*
X009484Y011510D01*
X009471Y011464D01*
X009455Y011420D01*
X009435Y011376D01*
X009411Y011335D01*
X009385Y011296D01*
X009355Y011259D01*
X009322Y011224D01*
X009287Y011192D01*
X009250Y011163D01*
X009276Y010521D02*
X009049Y010521D01*
X009049Y010351D01*
X009163Y010408D01*
X009220Y010408D01*
X009276Y010351D01*
X009276Y010238D01*
X009220Y010181D01*
X009106Y010181D01*
X009049Y010238D01*
X008908Y010238D02*
X008851Y010181D01*
X008738Y010181D01*
X008681Y010238D01*
X008738Y010351D02*
X008851Y010351D01*
X008908Y010295D01*
X008908Y010238D01*
X008738Y010351D02*
X008681Y010408D01*
X008681Y010465D01*
X008738Y010521D01*
X008851Y010521D01*
X008908Y010465D01*
X008431Y012581D02*
X008431Y012921D01*
X008563Y015431D02*
X008563Y015771D01*
X008393Y015601D01*
X008620Y015601D01*
X008762Y015488D02*
X008818Y015431D01*
X008932Y015431D01*
X008988Y015488D01*
X008988Y015545D01*
X008932Y015601D01*
X008875Y015601D01*
X008932Y015601D02*
X008988Y015658D01*
X008988Y015715D01*
X008932Y015771D01*
X008818Y015771D01*
X008762Y015715D01*
X009130Y015658D02*
X009243Y015771D01*
X009243Y015431D01*
X009130Y015431D02*
X009357Y015431D01*
X009498Y015488D02*
X009555Y015431D01*
X009668Y015431D01*
X009725Y015488D01*
X009725Y015545D01*
X009668Y015601D01*
X009612Y015601D01*
X009668Y015601D02*
X009725Y015658D01*
X009725Y015715D01*
X009668Y015771D01*
X009555Y015771D01*
X009498Y015715D01*
X008252Y015715D02*
X008252Y015771D01*
X008252Y015715D02*
X008138Y015601D01*
X008138Y015431D01*
X008138Y015601D02*
X008025Y015715D01*
X008025Y015771D01*
X007883Y015771D02*
X007883Y015431D01*
X007657Y015771D01*
X007657Y015431D01*
X007525Y015431D02*
X007411Y015431D01*
X007468Y015431D02*
X007468Y015771D01*
X007411Y015771D02*
X007525Y015771D01*
X007270Y015771D02*
X007043Y015771D01*
X007156Y015771D02*
X007156Y015431D01*
X006788Y015431D02*
X006788Y015771D01*
X006901Y015771D02*
X006674Y015771D01*
X006533Y015658D02*
X006533Y015431D01*
X006533Y015601D02*
X006306Y015601D01*
X006306Y015658D02*
X006420Y015771D01*
X006533Y015658D01*
X006306Y015658D02*
X006306Y015431D01*
X005151Y016301D02*
X005151Y018001D01*
X005149Y018018D01*
X005145Y018035D01*
X005138Y018051D01*
X005128Y018065D01*
X005115Y018078D01*
X005101Y018088D01*
X005085Y018095D01*
X005068Y018099D01*
X005051Y018101D01*
X004251Y018101D01*
X004234Y018099D01*
X004217Y018095D01*
X004201Y018088D01*
X004187Y018078D01*
X004174Y018065D01*
X004164Y018051D01*
X004157Y018035D01*
X004153Y018018D01*
X004151Y018001D01*
X004151Y016301D01*
X004153Y016284D01*
X004157Y016267D01*
X004164Y016251D01*
X004174Y016237D01*
X004187Y016224D01*
X004201Y016214D01*
X004217Y016207D01*
X004234Y016203D01*
X004251Y016201D01*
X005051Y016201D01*
X005068Y016203D01*
X005085Y016207D01*
X005101Y016214D01*
X005115Y016224D01*
X005128Y016237D01*
X005138Y016251D01*
X005145Y016267D01*
X005149Y016284D01*
X005151Y016301D01*
X004651Y017001D02*
X004651Y017051D01*
X004651Y017251D02*
X004651Y017301D01*
X003881Y017331D02*
X003654Y017331D01*
X003881Y017558D01*
X003881Y017615D01*
X003825Y017671D01*
X003711Y017671D01*
X003654Y017615D01*
X003400Y017671D02*
X003400Y017331D01*
X003513Y017331D02*
X003286Y017331D01*
X003145Y017388D02*
X003145Y017615D01*
X003088Y017671D01*
X002918Y017671D01*
X002918Y017331D01*
X003088Y017331D01*
X003145Y017388D01*
X003286Y017558D02*
X003400Y017671D01*
X002776Y017671D02*
X002549Y017671D01*
X002549Y017331D01*
X002776Y017331D01*
X002663Y017501D02*
X002549Y017501D01*
X002408Y017331D02*
X002181Y017331D01*
X002181Y017671D01*
X002181Y016871D02*
X002181Y016531D01*
X002181Y016701D02*
X002408Y016701D01*
X002549Y016701D02*
X002663Y016701D01*
X002549Y016531D02*
X002776Y016531D01*
X002918Y016531D02*
X003145Y016871D01*
X002918Y016871D02*
X003145Y016531D01*
X002776Y016871D02*
X002549Y016871D01*
X002549Y016531D01*
X002408Y016531D02*
X002408Y016871D01*
X002151Y015851D02*
X001801Y015851D01*
X002151Y015851D02*
X003151Y015851D01*
X003501Y015851D01*
X003851Y015051D02*
X003851Y014951D01*
X003951Y014951D01*
X003951Y014351D01*
X003851Y014351D01*
X003851Y014251D01*
X003501Y013451D02*
X003101Y013451D01*
X002151Y013451D01*
X001801Y013451D01*
X001838Y012921D02*
X001668Y012921D01*
X001668Y012581D01*
X001838Y012581D01*
X001895Y012638D01*
X001895Y012865D01*
X001838Y012921D01*
X002036Y012865D02*
X002036Y012808D01*
X002093Y012751D01*
X002206Y012751D01*
X002263Y012695D01*
X002263Y012638D01*
X002206Y012581D01*
X002093Y012581D01*
X002036Y012638D01*
X002036Y012695D01*
X002093Y012751D01*
X002206Y012751D02*
X002263Y012808D01*
X002263Y012865D01*
X002206Y012921D01*
X002093Y012921D01*
X002036Y012865D01*
X001526Y012921D02*
X001299Y012921D01*
X001299Y012581D01*
X001526Y012581D01*
X001413Y012751D02*
X001299Y012751D01*
X001158Y012581D02*
X000931Y012581D01*
X000931Y012921D01*
X001033Y012125D02*
X000998Y012095D01*
X000965Y012064D01*
X000935Y012029D01*
X000908Y011993D01*
X000884Y011955D01*
X000862Y011915D01*
X000844Y011873D01*
X000828Y011830D01*
X000816Y011786D01*
X000808Y011742D01*
X000803Y011696D01*
X000801Y011651D01*
X000803Y011606D01*
X000808Y011560D01*
X000816Y011516D01*
X000828Y011472D01*
X000844Y011429D01*
X000862Y011387D01*
X000884Y011347D01*
X000908Y011309D01*
X000935Y011273D01*
X000965Y011238D01*
X000998Y011207D01*
X001033Y011177D01*
X002001Y011651D02*
X001999Y011697D01*
X001994Y011743D01*
X001985Y011789D01*
X001973Y011834D01*
X001957Y011877D01*
X001938Y011919D01*
X001915Y011960D01*
X001890Y011999D01*
X001862Y012035D01*
X001831Y012070D01*
X001797Y012102D01*
X001761Y012131D01*
X002001Y011651D02*
X001999Y011604D01*
X001993Y011556D01*
X001984Y011510D01*
X001971Y011464D01*
X001955Y011420D01*
X001935Y011376D01*
X001911Y011335D01*
X001885Y011296D01*
X001855Y011259D01*
X001822Y011224D01*
X001787Y011192D01*
X001750Y011163D01*
X001720Y010521D02*
X001606Y010521D01*
X001549Y010465D01*
X001549Y010408D01*
X001606Y010351D01*
X001720Y010351D01*
X001776Y010295D01*
X001776Y010238D01*
X001720Y010181D01*
X001606Y010181D01*
X001549Y010238D01*
X001549Y010295D01*
X001606Y010351D01*
X001720Y010351D02*
X001776Y010408D01*
X001776Y010465D01*
X001720Y010521D01*
X001408Y010465D02*
X001351Y010521D01*
X001238Y010521D01*
X001181Y010465D01*
X001181Y010408D01*
X001238Y010351D01*
X001351Y010351D01*
X001408Y010295D01*
X001408Y010238D01*
X001351Y010181D01*
X001238Y010181D01*
X001181Y010238D01*
X003431Y012581D02*
X003658Y012581D01*
X003799Y012581D02*
X003799Y012921D01*
X004026Y012921D01*
X004168Y012921D02*
X004168Y012581D01*
X004338Y012581D01*
X004395Y012638D01*
X004395Y012865D01*
X004338Y012921D01*
X004168Y012921D01*
X003913Y012751D02*
X003799Y012751D01*
X003799Y012581D02*
X004026Y012581D01*
X004536Y012581D02*
X004536Y012638D01*
X004763Y012865D01*
X004763Y012921D01*
X004536Y012921D01*
X003533Y012125D02*
X003498Y012095D01*
X003465Y012064D01*
X003435Y012029D01*
X003408Y011993D01*
X003384Y011955D01*
X003362Y011915D01*
X003344Y011873D01*
X003328Y011830D01*
X003316Y011786D01*
X003308Y011742D01*
X003303Y011696D01*
X003301Y011651D01*
X003303Y011606D01*
X003308Y011560D01*
X003316Y011516D01*
X003328Y011472D01*
X003344Y011429D01*
X003362Y011387D01*
X003384Y011347D01*
X003408Y011309D01*
X003435Y011273D01*
X003465Y011238D01*
X003498Y011207D01*
X003533Y011177D01*
X004501Y011651D02*
X004499Y011697D01*
X004494Y011743D01*
X004485Y011789D01*
X004473Y011834D01*
X004457Y011877D01*
X004438Y011919D01*
X004415Y011960D01*
X004390Y011999D01*
X004362Y012035D01*
X004331Y012070D01*
X004297Y012102D01*
X004261Y012131D01*
X004501Y011651D02*
X004499Y011604D01*
X004493Y011556D01*
X004484Y011510D01*
X004471Y011464D01*
X004455Y011420D01*
X004435Y011376D01*
X004411Y011335D01*
X004385Y011296D01*
X004355Y011259D01*
X004322Y011224D01*
X004287Y011192D01*
X004250Y011163D01*
X004276Y010521D02*
X004049Y010521D01*
X003908Y010465D02*
X003851Y010521D01*
X003738Y010521D01*
X003681Y010465D01*
X003681Y010408D01*
X003738Y010351D01*
X003851Y010351D01*
X003908Y010295D01*
X003908Y010238D01*
X003851Y010181D01*
X003738Y010181D01*
X003681Y010238D01*
X004049Y010238D02*
X004049Y010181D01*
X004049Y010238D02*
X004276Y010465D01*
X004276Y010521D01*
X003431Y012581D02*
X003431Y012921D01*
X002551Y014651D02*
X002553Y014671D01*
X002559Y014689D01*
X002568Y014707D01*
X002580Y014722D01*
X002595Y014734D01*
X002613Y014743D01*
X002631Y014749D01*
X002651Y014751D01*
X002671Y014749D01*
X002689Y014743D01*
X002707Y014734D01*
X002722Y014722D01*
X002734Y014707D01*
X002743Y014689D01*
X002749Y014671D01*
X002751Y014651D01*
X002749Y014631D01*
X002743Y014613D01*
X002734Y014595D01*
X002722Y014580D01*
X002707Y014568D01*
X002689Y014559D01*
X002671Y014553D01*
X002651Y014551D01*
X002631Y014553D01*
X002613Y014559D01*
X002595Y014568D01*
X002580Y014580D01*
X002568Y014595D01*
X002559Y014613D01*
X002553Y014631D01*
X002551Y014651D01*
X001951Y014651D02*
X001953Y014703D01*
X001959Y014755D01*
X001969Y014807D01*
X001982Y014857D01*
X001999Y014907D01*
X002020Y014955D01*
X002045Y015001D01*
X002073Y015045D01*
X002104Y015087D01*
X002138Y015127D01*
X002175Y015164D01*
X002215Y015198D01*
X002257Y015229D01*
X002301Y015257D01*
X002347Y015282D01*
X002395Y015303D01*
X002445Y015320D01*
X002495Y015333D01*
X002547Y015343D01*
X002599Y015349D01*
X002651Y015351D01*
X002703Y015349D01*
X002755Y015343D01*
X002807Y015333D01*
X002857Y015320D01*
X002907Y015303D01*
X002955Y015282D01*
X003001Y015257D01*
X003045Y015229D01*
X003087Y015198D01*
X003127Y015164D01*
X003164Y015127D01*
X003198Y015087D01*
X003229Y015045D01*
X003257Y015001D01*
X003282Y014955D01*
X003303Y014907D01*
X003320Y014857D01*
X003333Y014807D01*
X003343Y014755D01*
X003349Y014703D01*
X003351Y014651D01*
X003349Y014599D01*
X003343Y014547D01*
X003333Y014495D01*
X003320Y014445D01*
X003303Y014395D01*
X003282Y014347D01*
X003257Y014301D01*
X003229Y014257D01*
X003198Y014215D01*
X003164Y014175D01*
X003127Y014138D01*
X003087Y014104D01*
X003045Y014073D01*
X003001Y014045D01*
X002955Y014020D01*
X002907Y013999D01*
X002857Y013982D01*
X002807Y013969D01*
X002755Y013959D01*
X002703Y013953D01*
X002651Y013951D01*
X002599Y013953D01*
X002547Y013959D01*
X002495Y013969D01*
X002445Y013982D01*
X002395Y013999D01*
X002347Y014020D01*
X002301Y014045D01*
X002257Y014073D01*
X002215Y014104D01*
X002175Y014138D01*
X002138Y014175D01*
X002104Y014215D01*
X002073Y014257D01*
X002045Y014301D01*
X002020Y014347D01*
X001999Y014395D01*
X001982Y014445D01*
X001969Y014495D01*
X001959Y014547D01*
X001953Y014599D01*
X001951Y014651D01*
X001451Y014351D02*
X001451Y014251D01*
X001451Y014351D02*
X001351Y014351D01*
X001351Y014951D01*
X001451Y014951D01*
X001451Y015051D01*
X001076Y014915D02*
X001076Y014688D01*
X001020Y014631D01*
X000906Y014631D01*
X000849Y014688D01*
X000906Y014801D02*
X001076Y014801D01*
X001076Y014915D02*
X001020Y014971D01*
X000906Y014971D01*
X000849Y014915D01*
X000849Y014858D01*
X000906Y014801D01*
X000708Y014745D02*
X000708Y014688D01*
X000651Y014631D01*
X000538Y014631D01*
X000481Y014688D01*
X000538Y014801D02*
X000651Y014801D01*
X000708Y014745D01*
X000708Y014915D02*
X000651Y014971D01*
X000538Y014971D01*
X000481Y014915D01*
X000481Y014858D01*
X000538Y014801D01*
X001401Y016551D02*
X001356Y016553D01*
X001310Y016558D01*
X001266Y016566D01*
X001222Y016578D01*
X001179Y016594D01*
X001137Y016612D01*
X001097Y016634D01*
X001059Y016658D01*
X001023Y016685D01*
X000988Y016715D01*
X000957Y016748D01*
X000927Y016783D01*
X001401Y016551D02*
X001446Y016553D01*
X001492Y016558D01*
X001536Y016566D01*
X001580Y016578D01*
X001623Y016594D01*
X001665Y016612D01*
X001705Y016634D01*
X001743Y016658D01*
X001779Y016685D01*
X001814Y016715D01*
X001845Y016748D01*
X001875Y016783D01*
X001401Y017751D02*
X001355Y017749D01*
X001309Y017744D01*
X001263Y017735D01*
X001218Y017723D01*
X001175Y017707D01*
X001133Y017688D01*
X001092Y017665D01*
X001053Y017640D01*
X001017Y017612D01*
X000982Y017581D01*
X000950Y017547D01*
X000921Y017511D01*
X001401Y017751D02*
X001448Y017749D01*
X001496Y017743D01*
X001542Y017734D01*
X001588Y017721D01*
X001632Y017705D01*
X001676Y017685D01*
X001717Y017661D01*
X001756Y017635D01*
X001793Y017605D01*
X001828Y017572D01*
X001860Y017537D01*
X001889Y017500D01*
X002181Y018531D02*
X002351Y018531D01*
X002408Y018588D01*
X002408Y018815D01*
X002351Y018871D01*
X002181Y018871D01*
X002181Y018531D01*
X002549Y018531D02*
X002776Y018531D01*
X002918Y018588D02*
X002918Y018815D01*
X002974Y018871D01*
X003088Y018871D01*
X003145Y018815D01*
X003145Y018588D02*
X003088Y018531D01*
X002974Y018531D01*
X002918Y018588D01*
X002663Y018701D02*
X002549Y018701D01*
X002549Y018871D02*
X002549Y018531D01*
X002549Y018871D02*
X002776Y018871D01*
X002776Y019331D02*
X002549Y019331D01*
X002549Y019671D01*
X002776Y019671D01*
X002918Y019671D02*
X002918Y019331D01*
X003088Y019331D01*
X003145Y019388D01*
X003145Y019615D01*
X003088Y019671D01*
X002918Y019671D01*
X002663Y019501D02*
X002549Y019501D01*
X002408Y019331D02*
X002181Y019331D01*
X002181Y019671D01*
X002238Y020531D02*
X002351Y020531D01*
X002408Y020588D01*
X002408Y020815D01*
X002351Y020871D01*
X002238Y020871D01*
X002181Y020815D01*
X002181Y020588D01*
X002238Y020531D01*
X002549Y020588D02*
X002606Y020531D01*
X002720Y020531D01*
X002776Y020588D01*
X002549Y020588D02*
X002549Y020815D01*
X002606Y020871D01*
X002720Y020871D01*
X002776Y020815D01*
X002918Y020871D02*
X003145Y020871D01*
X003031Y020871D02*
X003031Y020531D01*
X003088Y021331D02*
X002918Y021331D01*
X002918Y021671D01*
X003088Y021671D01*
X003145Y021615D01*
X003145Y021388D01*
X003088Y021331D01*
X003286Y021331D02*
X003513Y021331D01*
X003400Y021331D02*
X003400Y021671D01*
X003286Y021558D01*
X003654Y021615D02*
X003654Y021388D01*
X003881Y021615D01*
X003881Y021388D01*
X003825Y021331D01*
X003711Y021331D01*
X003654Y021388D01*
X003654Y021615D02*
X003711Y021671D01*
X003825Y021671D01*
X003881Y021615D01*
X004201Y021651D02*
X004201Y021801D01*
X004203Y021818D01*
X004207Y021835D01*
X004214Y021851D01*
X004224Y021865D01*
X004237Y021878D01*
X004251Y021888D01*
X004267Y021895D01*
X004284Y021899D01*
X004301Y021901D01*
X005001Y021901D01*
X005018Y021899D01*
X005035Y021895D01*
X005051Y021888D01*
X005065Y021878D01*
X005078Y021865D01*
X005088Y021851D01*
X005095Y021835D01*
X005099Y021818D01*
X005101Y021801D01*
X005101Y021651D01*
X005051Y021601D01*
X005051Y019701D01*
X005101Y019651D01*
X005101Y019501D01*
X005099Y019484D01*
X005095Y019467D01*
X005088Y019451D01*
X005078Y019437D01*
X005065Y019424D01*
X005051Y019414D01*
X005035Y019407D01*
X005018Y019403D01*
X005001Y019401D01*
X004301Y019401D01*
X004284Y019403D01*
X004267Y019407D01*
X004251Y019414D01*
X004237Y019424D01*
X004224Y019437D01*
X004214Y019451D01*
X004207Y019467D01*
X004203Y019484D01*
X004201Y019501D01*
X004201Y019651D01*
X004251Y019701D01*
X004251Y021601D01*
X004201Y021651D01*
X004601Y020695D02*
X004601Y020468D01*
X004431Y020638D01*
X004771Y020638D01*
X004771Y020326D02*
X004771Y020099D01*
X004771Y020213D02*
X004431Y020213D01*
X004544Y020099D01*
X004488Y019958D02*
X004601Y019958D01*
X004658Y019901D01*
X004658Y019731D01*
X004771Y019731D02*
X004431Y019731D01*
X004431Y019901D01*
X004488Y019958D01*
X004658Y019845D02*
X004771Y019958D01*
X005201Y019651D02*
X005251Y019701D01*
X005251Y021601D01*
X005201Y021651D01*
X005201Y021801D01*
X005203Y021818D01*
X005207Y021835D01*
X005214Y021851D01*
X005224Y021865D01*
X005237Y021878D01*
X005251Y021888D01*
X005267Y021895D01*
X005284Y021899D01*
X005301Y021901D01*
X006001Y021901D01*
X006018Y021899D01*
X006035Y021895D01*
X006051Y021888D01*
X006065Y021878D01*
X006078Y021865D01*
X006088Y021851D01*
X006095Y021835D01*
X006099Y021818D01*
X006101Y021801D01*
X006101Y021651D01*
X006051Y021601D01*
X006051Y019701D01*
X006101Y019651D01*
X006101Y019501D01*
X006099Y019484D01*
X006095Y019467D01*
X006088Y019451D01*
X006078Y019437D01*
X006065Y019424D01*
X006051Y019414D01*
X006035Y019407D01*
X006018Y019403D01*
X006001Y019401D01*
X005301Y019401D01*
X005284Y019403D01*
X005267Y019407D01*
X005251Y019414D01*
X005237Y019424D01*
X005224Y019437D01*
X005214Y019451D01*
X005207Y019467D01*
X005203Y019484D01*
X005201Y019501D01*
X005201Y019651D01*
X005431Y019731D02*
X005431Y019901D01*
X005488Y019958D01*
X005601Y019958D01*
X005658Y019901D01*
X005658Y019731D01*
X005771Y019731D02*
X005431Y019731D01*
X005658Y019845D02*
X005771Y019958D01*
X005771Y020099D02*
X005771Y020326D01*
X005771Y020213D02*
X005431Y020213D01*
X005544Y020099D01*
X005488Y020468D02*
X005431Y020524D01*
X005431Y020638D01*
X005488Y020695D01*
X005544Y020695D01*
X005601Y020638D01*
X005658Y020695D01*
X005714Y020695D01*
X005771Y020638D01*
X005771Y020524D01*
X005714Y020468D01*
X005601Y020581D02*
X005601Y020638D01*
X006251Y019701D02*
X006251Y021601D01*
X006201Y021651D01*
X006201Y021801D01*
X006203Y021818D01*
X006207Y021835D01*
X006214Y021851D01*
X006224Y021865D01*
X006237Y021878D01*
X006251Y021888D01*
X006267Y021895D01*
X006284Y021899D01*
X006301Y021901D01*
X007001Y021901D01*
X007018Y021899D01*
X007035Y021895D01*
X007051Y021888D01*
X007065Y021878D01*
X007078Y021865D01*
X007088Y021851D01*
X007095Y021835D01*
X007099Y021818D01*
X007101Y021801D01*
X007101Y021651D01*
X007051Y021601D01*
X007051Y019701D01*
X007101Y019651D01*
X007101Y019501D01*
X007099Y019484D01*
X007095Y019467D01*
X007088Y019451D01*
X007078Y019437D01*
X007065Y019424D01*
X007051Y019414D01*
X007035Y019407D01*
X007018Y019403D01*
X007001Y019401D01*
X006301Y019401D01*
X006284Y019403D01*
X006267Y019407D01*
X006251Y019414D01*
X006237Y019424D01*
X006224Y019437D01*
X006214Y019451D01*
X006207Y019467D01*
X006203Y019484D01*
X006201Y019501D01*
X006201Y019651D01*
X006251Y019701D01*
X006431Y019731D02*
X006431Y019901D01*
X006488Y019958D01*
X006601Y019958D01*
X006658Y019901D01*
X006658Y019731D01*
X006771Y019731D02*
X006431Y019731D01*
X006658Y019845D02*
X006771Y019958D01*
X006714Y020099D02*
X006658Y020099D01*
X006601Y020156D01*
X006601Y020270D01*
X006658Y020326D01*
X006714Y020326D01*
X006771Y020270D01*
X006771Y020156D01*
X006714Y020099D01*
X006601Y020156D02*
X006544Y020099D01*
X006488Y020099D01*
X006431Y020156D01*
X006431Y020270D01*
X006488Y020326D01*
X006544Y020326D01*
X006601Y020270D01*
X007201Y019651D02*
X007201Y019501D01*
X007203Y019484D01*
X007207Y019467D01*
X007214Y019451D01*
X007224Y019437D01*
X007237Y019424D01*
X007251Y019414D01*
X007267Y019407D01*
X007284Y019403D01*
X007301Y019401D01*
X008001Y019401D01*
X008018Y019403D01*
X008035Y019407D01*
X008051Y019414D01*
X008065Y019424D01*
X008078Y019437D01*
X008088Y019451D01*
X008095Y019467D01*
X008099Y019484D01*
X008101Y019501D01*
X008101Y019651D01*
X008051Y019701D01*
X008051Y021601D01*
X008101Y021651D01*
X008101Y021801D01*
X008099Y021818D01*
X008095Y021835D01*
X008088Y021851D01*
X008078Y021865D01*
X008065Y021878D01*
X008051Y021888D01*
X008035Y021895D01*
X008018Y021899D01*
X008001Y021901D01*
X007301Y021901D01*
X007284Y021899D01*
X007267Y021895D01*
X007251Y021888D01*
X007237Y021878D01*
X007224Y021865D01*
X007214Y021851D01*
X007207Y021835D01*
X007203Y021818D01*
X007201Y021801D01*
X007201Y021651D01*
X007251Y021601D01*
X007251Y019701D01*
X007201Y019651D01*
X007431Y019731D02*
X007431Y019901D01*
X007488Y019958D01*
X007601Y019958D01*
X007658Y019901D01*
X007658Y019731D01*
X007771Y019731D02*
X007431Y019731D01*
X007658Y019845D02*
X007771Y019958D01*
X007771Y020099D02*
X007714Y020099D01*
X007488Y020326D01*
X007431Y020326D01*
X007431Y020099D01*
X008201Y019651D02*
X008201Y019501D01*
X008203Y019484D01*
X008207Y019467D01*
X008214Y019451D01*
X008224Y019437D01*
X008237Y019424D01*
X008251Y019414D01*
X008267Y019407D01*
X008284Y019403D01*
X008301Y019401D01*
X009001Y019401D01*
X009018Y019403D01*
X009035Y019407D01*
X009051Y019414D01*
X009065Y019424D01*
X009078Y019437D01*
X009088Y019451D01*
X009095Y019467D01*
X009099Y019484D01*
X009101Y019501D01*
X009101Y019651D01*
X009051Y019701D01*
X009051Y021601D01*
X009101Y021651D01*
X009101Y021801D01*
X009099Y021818D01*
X009095Y021835D01*
X009088Y021851D01*
X009078Y021865D01*
X009065Y021878D01*
X009051Y021888D01*
X009035Y021895D01*
X009018Y021899D01*
X009001Y021901D01*
X008301Y021901D01*
X008284Y021899D01*
X008267Y021895D01*
X008251Y021888D01*
X008237Y021878D01*
X008224Y021865D01*
X008214Y021851D01*
X008207Y021835D01*
X008203Y021818D01*
X008201Y021801D01*
X008201Y021651D01*
X008251Y021601D01*
X008251Y019701D01*
X008201Y019651D01*
X008431Y019731D02*
X008431Y019901D01*
X008488Y019958D01*
X008601Y019958D01*
X008658Y019901D01*
X008658Y019731D01*
X008771Y019731D02*
X008431Y019731D01*
X008658Y019845D02*
X008771Y019958D01*
X008714Y020099D02*
X008771Y020156D01*
X008771Y020270D01*
X008714Y020326D01*
X008658Y020326D01*
X008601Y020270D01*
X008601Y020099D01*
X008714Y020099D01*
X008601Y020099D02*
X008488Y020213D01*
X008431Y020326D01*
X009201Y019651D02*
X009201Y019501D01*
X009203Y019484D01*
X009207Y019467D01*
X009214Y019451D01*
X009224Y019437D01*
X009237Y019424D01*
X009251Y019414D01*
X009267Y019407D01*
X009284Y019403D01*
X009301Y019401D01*
X010001Y019401D01*
X010018Y019403D01*
X010035Y019407D01*
X010051Y019414D01*
X010065Y019424D01*
X010078Y019437D01*
X010088Y019451D01*
X010095Y019467D01*
X010099Y019484D01*
X010101Y019501D01*
X010101Y019651D01*
X010051Y019701D01*
X010051Y021601D01*
X010101Y021651D01*
X010101Y021801D01*
X010099Y021818D01*
X010095Y021835D01*
X010088Y021851D01*
X010078Y021865D01*
X010065Y021878D01*
X010051Y021888D01*
X010035Y021895D01*
X010018Y021899D01*
X010001Y021901D01*
X009301Y021901D01*
X009284Y021899D01*
X009267Y021895D01*
X009251Y021888D01*
X009237Y021878D01*
X009224Y021865D01*
X009214Y021851D01*
X009207Y021835D01*
X009203Y021818D01*
X009201Y021801D01*
X009201Y021651D01*
X009251Y021601D01*
X009251Y019701D01*
X009201Y019651D01*
X009431Y019731D02*
X009431Y019901D01*
X009488Y019958D01*
X009601Y019958D01*
X009658Y019901D01*
X009658Y019731D01*
X009771Y019731D02*
X009431Y019731D01*
X009658Y019845D02*
X009771Y019958D01*
X009714Y020099D02*
X009771Y020156D01*
X009771Y020270D01*
X009714Y020326D01*
X009601Y020326D01*
X009544Y020270D01*
X009544Y020213D01*
X009601Y020099D01*
X009431Y020099D01*
X009431Y020326D01*
X010201Y019651D02*
X010201Y019501D01*
X010203Y019484D01*
X010207Y019467D01*
X010214Y019451D01*
X010224Y019437D01*
X010237Y019424D01*
X010251Y019414D01*
X010267Y019407D01*
X010284Y019403D01*
X010301Y019401D01*
X011001Y019401D01*
X011018Y019403D01*
X011035Y019407D01*
X011051Y019414D01*
X011065Y019424D01*
X011078Y019437D01*
X011088Y019451D01*
X011095Y019467D01*
X011099Y019484D01*
X011101Y019501D01*
X011101Y019651D01*
X011051Y019701D01*
X011051Y021601D01*
X011101Y021651D01*
X011101Y021801D01*
X011099Y021818D01*
X011095Y021835D01*
X011088Y021851D01*
X011078Y021865D01*
X011065Y021878D01*
X011051Y021888D01*
X011035Y021895D01*
X011018Y021899D01*
X011001Y021901D01*
X010301Y021901D01*
X010284Y021899D01*
X010267Y021895D01*
X010251Y021888D01*
X010237Y021878D01*
X010224Y021865D01*
X010214Y021851D01*
X010207Y021835D01*
X010203Y021818D01*
X010201Y021801D01*
X010201Y021651D01*
X010251Y021601D01*
X010251Y019701D01*
X010201Y019651D01*
X010431Y019731D02*
X010431Y019901D01*
X010488Y019958D01*
X010601Y019958D01*
X010658Y019901D01*
X010658Y019731D01*
X010771Y019731D02*
X010431Y019731D01*
X010658Y019845D02*
X010771Y019958D01*
X010601Y020099D02*
X010601Y020326D01*
X010431Y020270D02*
X010601Y020099D01*
X010771Y020270D02*
X010431Y020270D01*
X011201Y019651D02*
X011201Y019501D01*
X011203Y019484D01*
X011207Y019467D01*
X011214Y019451D01*
X011224Y019437D01*
X011237Y019424D01*
X011251Y019414D01*
X011267Y019407D01*
X011284Y019403D01*
X011301Y019401D01*
X012001Y019401D01*
X012018Y019403D01*
X012035Y019407D01*
X012051Y019414D01*
X012065Y019424D01*
X012078Y019437D01*
X012088Y019451D01*
X012095Y019467D01*
X012099Y019484D01*
X012101Y019501D01*
X012101Y019651D01*
X012051Y019701D01*
X012051Y021601D01*
X012101Y021651D01*
X012101Y021801D01*
X012099Y021818D01*
X012095Y021835D01*
X012088Y021851D01*
X012078Y021865D01*
X012065Y021878D01*
X012051Y021888D01*
X012035Y021895D01*
X012018Y021899D01*
X012001Y021901D01*
X011301Y021901D01*
X011284Y021899D01*
X011267Y021895D01*
X011251Y021888D01*
X011237Y021878D01*
X011224Y021865D01*
X011214Y021851D01*
X011207Y021835D01*
X011203Y021818D01*
X011201Y021801D01*
X011201Y021651D01*
X011251Y021601D01*
X011251Y019701D01*
X011201Y019651D01*
X011431Y019731D02*
X011431Y019901D01*
X011488Y019958D01*
X011601Y019958D01*
X011658Y019901D01*
X011658Y019731D01*
X011771Y019731D02*
X011431Y019731D01*
X011488Y020099D02*
X011431Y020156D01*
X011431Y020270D01*
X011488Y020326D01*
X011544Y020326D01*
X011601Y020270D01*
X011658Y020326D01*
X011714Y020326D01*
X011771Y020270D01*
X011771Y020156D01*
X011714Y020099D01*
X011771Y019958D02*
X011658Y019845D01*
X011601Y020213D02*
X011601Y020270D01*
X012201Y019651D02*
X012201Y019501D01*
X012203Y019484D01*
X012207Y019467D01*
X012214Y019451D01*
X012224Y019437D01*
X012237Y019424D01*
X012251Y019414D01*
X012267Y019407D01*
X012284Y019403D01*
X012301Y019401D01*
X013001Y019401D01*
X013018Y019403D01*
X013035Y019407D01*
X013051Y019414D01*
X013065Y019424D01*
X013078Y019437D01*
X013088Y019451D01*
X013095Y019467D01*
X013099Y019484D01*
X013101Y019501D01*
X013101Y019651D01*
X013051Y019701D01*
X013051Y021601D01*
X013101Y021651D01*
X013101Y021801D01*
X013099Y021818D01*
X013095Y021835D01*
X013088Y021851D01*
X013078Y021865D01*
X013065Y021878D01*
X013051Y021888D01*
X013035Y021895D01*
X013018Y021899D01*
X013001Y021901D01*
X012301Y021901D01*
X012284Y021899D01*
X012267Y021895D01*
X012251Y021888D01*
X012237Y021878D01*
X012224Y021865D01*
X012214Y021851D01*
X012207Y021835D01*
X012203Y021818D01*
X012201Y021801D01*
X012201Y021651D01*
X012251Y021601D01*
X012251Y019701D01*
X012201Y019651D01*
X012431Y019731D02*
X012431Y019901D01*
X012488Y019958D01*
X012601Y019958D01*
X012658Y019901D01*
X012658Y019731D01*
X012771Y019731D02*
X012431Y019731D01*
X012658Y019845D02*
X012771Y019958D01*
X012771Y020099D02*
X012544Y020326D01*
X012488Y020326D01*
X012431Y020270D01*
X012431Y020156D01*
X012488Y020099D01*
X012771Y020099D02*
X012771Y020326D01*
X013431Y020213D02*
X013771Y020213D01*
X013771Y020326D02*
X013771Y020099D01*
X013771Y019958D02*
X013658Y019845D01*
X013658Y019901D02*
X013658Y019731D01*
X013771Y019731D02*
X013431Y019731D01*
X013431Y019901D01*
X013488Y019958D01*
X013601Y019958D01*
X013658Y019901D01*
X013544Y020099D02*
X013431Y020213D01*
X013251Y019701D02*
X013251Y021601D01*
X013201Y021651D01*
X013201Y021801D01*
X013203Y021818D01*
X013207Y021835D01*
X013214Y021851D01*
X013224Y021865D01*
X013237Y021878D01*
X013251Y021888D01*
X013267Y021895D01*
X013284Y021899D01*
X013301Y021901D01*
X014001Y021901D01*
X014018Y021899D01*
X014035Y021895D01*
X014051Y021888D01*
X014065Y021878D01*
X014078Y021865D01*
X014088Y021851D01*
X014095Y021835D01*
X014099Y021818D01*
X014101Y021801D01*
X014101Y021651D01*
X014051Y021601D01*
X014051Y019701D01*
X014101Y019651D01*
X014101Y019501D01*
X014099Y019484D01*
X014095Y019467D01*
X014088Y019451D01*
X014078Y019437D01*
X014065Y019424D01*
X014051Y019414D01*
X014035Y019407D01*
X014018Y019403D01*
X014001Y019401D01*
X013301Y019401D01*
X013284Y019403D01*
X013267Y019407D01*
X013251Y019414D01*
X013237Y019424D01*
X013224Y019437D01*
X013214Y019451D01*
X013207Y019467D01*
X013203Y019484D01*
X013201Y019501D01*
X013201Y019651D01*
X013251Y019701D01*
X014201Y019651D02*
X014201Y019501D01*
X014203Y019484D01*
X014207Y019467D01*
X014214Y019451D01*
X014224Y019437D01*
X014237Y019424D01*
X014251Y019414D01*
X014267Y019407D01*
X014284Y019403D01*
X014301Y019401D01*
X015001Y019401D01*
X015018Y019403D01*
X015035Y019407D01*
X015051Y019414D01*
X015065Y019424D01*
X015078Y019437D01*
X015088Y019451D01*
X015095Y019467D01*
X015099Y019484D01*
X015101Y019501D01*
X015101Y019651D01*
X015051Y019701D01*
X015051Y021601D01*
X015101Y021651D01*
X015101Y021801D01*
X015099Y021818D01*
X015095Y021835D01*
X015088Y021851D01*
X015078Y021865D01*
X015065Y021878D01*
X015051Y021888D01*
X015035Y021895D01*
X015018Y021899D01*
X015001Y021901D01*
X014301Y021901D01*
X014284Y021899D01*
X014267Y021895D01*
X014251Y021888D01*
X014237Y021878D01*
X014224Y021865D01*
X014214Y021851D01*
X014207Y021835D01*
X014203Y021818D01*
X014201Y021801D01*
X014201Y021651D01*
X014251Y021601D01*
X014251Y019701D01*
X014201Y019651D01*
X014431Y019731D02*
X014431Y019901D01*
X014488Y019958D01*
X014601Y019958D01*
X014658Y019901D01*
X014658Y019731D01*
X014771Y019731D02*
X014431Y019731D01*
X014658Y019845D02*
X014771Y019958D01*
X014771Y020099D02*
X014771Y020326D01*
X014771Y020213D02*
X014431Y020213D01*
X014544Y020099D01*
X014544Y020468D02*
X014431Y020581D01*
X014771Y020581D01*
X014771Y020468D02*
X014771Y020695D01*
X015431Y020638D02*
X015431Y020524D01*
X015488Y020468D01*
X015431Y020638D02*
X015488Y020695D01*
X015544Y020695D01*
X015771Y020468D01*
X015771Y020695D01*
X015771Y020326D02*
X015771Y020099D01*
X015771Y020213D02*
X015431Y020213D01*
X015544Y020099D01*
X015488Y019958D02*
X015601Y019958D01*
X015658Y019901D01*
X015658Y019731D01*
X015771Y019731D02*
X015431Y019731D01*
X015431Y019901D01*
X015488Y019958D01*
X015658Y019845D02*
X015771Y019958D01*
X016051Y019701D02*
X016051Y021601D01*
X016101Y021651D01*
X016101Y021801D01*
X016099Y021818D01*
X016095Y021835D01*
X016088Y021851D01*
X016078Y021865D01*
X016065Y021878D01*
X016051Y021888D01*
X016035Y021895D01*
X016018Y021899D01*
X016001Y021901D01*
X015301Y021901D01*
X015284Y021899D01*
X015267Y021895D01*
X015251Y021888D01*
X015237Y021878D01*
X015224Y021865D01*
X015214Y021851D01*
X015207Y021835D01*
X015203Y021818D01*
X015201Y021801D01*
X015201Y021651D01*
X015251Y021601D01*
X015251Y019701D01*
X015201Y019651D01*
X015201Y019501D01*
X015203Y019484D01*
X015207Y019467D01*
X015214Y019451D01*
X015224Y019437D01*
X015237Y019424D01*
X015251Y019414D01*
X015267Y019407D01*
X015284Y019403D01*
X015301Y019401D01*
X016001Y019401D01*
X016018Y019403D01*
X016035Y019407D01*
X016051Y019414D01*
X016065Y019424D01*
X016078Y019437D01*
X016088Y019451D01*
X016095Y019467D01*
X016099Y019484D01*
X016101Y019501D01*
X016101Y019651D01*
X016051Y019701D01*
X016201Y019651D02*
X016201Y019501D01*
X016203Y019484D01*
X016207Y019467D01*
X016214Y019451D01*
X016224Y019437D01*
X016237Y019424D01*
X016251Y019414D01*
X016267Y019407D01*
X016284Y019403D01*
X016301Y019401D01*
X017001Y019401D01*
X017018Y019403D01*
X017035Y019407D01*
X017051Y019414D01*
X017065Y019424D01*
X017078Y019437D01*
X017088Y019451D01*
X017095Y019467D01*
X017099Y019484D01*
X017101Y019501D01*
X017101Y019651D01*
X017051Y019701D01*
X017051Y021601D01*
X017101Y021651D01*
X017101Y021801D01*
X017099Y021818D01*
X017095Y021835D01*
X017088Y021851D01*
X017078Y021865D01*
X017065Y021878D01*
X017051Y021888D01*
X017035Y021895D01*
X017018Y021899D01*
X017001Y021901D01*
X016301Y021901D01*
X016284Y021899D01*
X016267Y021895D01*
X016251Y021888D01*
X016237Y021878D01*
X016224Y021865D01*
X016214Y021851D01*
X016207Y021835D01*
X016203Y021818D01*
X016201Y021801D01*
X016201Y021651D01*
X016251Y021601D01*
X016251Y019701D01*
X016201Y019651D01*
X016431Y019731D02*
X016431Y019901D01*
X016488Y019958D01*
X016601Y019958D01*
X016658Y019901D01*
X016658Y019731D01*
X016771Y019731D02*
X016431Y019731D01*
X016658Y019845D02*
X016771Y019958D01*
X016714Y020099D02*
X016771Y020156D01*
X016771Y020270D01*
X016714Y020326D01*
X016488Y020326D01*
X016431Y020270D01*
X016431Y020156D01*
X016488Y020099D01*
X016544Y020099D01*
X016601Y020156D01*
X016601Y020326D01*
X017251Y019701D02*
X017251Y021601D01*
X017201Y021651D01*
X017201Y021801D01*
X017203Y021818D01*
X017207Y021835D01*
X017214Y021851D01*
X017224Y021865D01*
X017237Y021878D01*
X017251Y021888D01*
X017267Y021895D01*
X017284Y021899D01*
X017301Y021901D01*
X018001Y021901D01*
X018018Y021899D01*
X018035Y021895D01*
X018051Y021888D01*
X018065Y021878D01*
X018078Y021865D01*
X018088Y021851D01*
X018095Y021835D01*
X018099Y021818D01*
X018101Y021801D01*
X018101Y021651D01*
X018051Y021601D01*
X018051Y019701D01*
X018101Y019651D01*
X018101Y019501D01*
X018099Y019484D01*
X018095Y019467D01*
X018088Y019451D01*
X018078Y019437D01*
X018065Y019424D01*
X018051Y019414D01*
X018035Y019407D01*
X018018Y019403D01*
X018001Y019401D01*
X017301Y019401D01*
X017284Y019403D01*
X017267Y019407D01*
X017251Y019414D01*
X017237Y019424D01*
X017224Y019437D01*
X017214Y019451D01*
X017207Y019467D01*
X017203Y019484D01*
X017201Y019501D01*
X017201Y019651D01*
X017251Y019701D01*
X017431Y019731D02*
X017431Y019901D01*
X017488Y019958D01*
X017601Y019958D01*
X017658Y019901D01*
X017658Y019731D01*
X017771Y019731D02*
X017431Y019731D01*
X017658Y019845D02*
X017771Y019958D01*
X017771Y020099D02*
X017771Y020326D01*
X017771Y020213D02*
X017431Y020213D01*
X017544Y020099D01*
X017488Y020468D02*
X017431Y020524D01*
X017431Y020638D01*
X017488Y020695D01*
X017714Y020468D01*
X017771Y020524D01*
X017771Y020638D01*
X017714Y020695D01*
X017488Y020695D01*
X017488Y020468D02*
X017714Y020468D01*
X017671Y023156D02*
X017445Y023156D01*
X017558Y023156D02*
X017558Y023496D01*
X017445Y023383D01*
X017303Y023440D02*
X017246Y023496D01*
X017133Y023496D01*
X017076Y023440D01*
X017076Y023383D01*
X017133Y023326D01*
X017246Y023326D01*
X017303Y023270D01*
X017303Y023213D01*
X017246Y023156D01*
X017133Y023156D01*
X017076Y023213D01*
X016983Y024031D02*
X016870Y024031D01*
X016813Y024088D01*
X016813Y024201D01*
X016983Y024201D01*
X017040Y024145D01*
X017040Y024088D01*
X016983Y024031D01*
X016813Y024201D02*
X016926Y024315D01*
X017040Y024371D01*
X016671Y024315D02*
X016671Y024088D01*
X016615Y024031D01*
X016501Y024031D01*
X016445Y024088D01*
X016445Y024315D01*
X016501Y024371D01*
X016615Y024371D01*
X016671Y024315D01*
X016558Y024145D02*
X016671Y024031D01*
X017813Y023383D02*
X017926Y023496D01*
X017926Y023156D01*
X017813Y023156D02*
X018040Y023156D01*
X018501Y024031D02*
X018445Y024088D01*
X018445Y024315D01*
X018501Y024371D01*
X018615Y024371D01*
X018671Y024315D01*
X018671Y024088D01*
X018615Y024031D01*
X018501Y024031D01*
X018558Y024145D02*
X018671Y024031D01*
X018813Y024088D02*
X018870Y024031D01*
X018983Y024031D01*
X019040Y024088D01*
X019040Y024201D01*
X018983Y024258D01*
X018926Y024258D01*
X018813Y024201D01*
X018813Y024371D01*
X019040Y024371D01*
X019656Y024151D02*
X019996Y024151D01*
X019656Y023924D01*
X019996Y023924D01*
X019939Y023783D02*
X019713Y023783D01*
X019656Y023726D01*
X019656Y023613D01*
X019713Y023556D01*
X019939Y023556D01*
X019996Y023613D01*
X019996Y023726D01*
X019939Y023783D01*
X017051Y028401D02*
X017053Y028474D01*
X017059Y028547D01*
X017069Y028619D01*
X017083Y028691D01*
X017100Y028762D01*
X017122Y028832D01*
X017147Y028901D01*
X017176Y028968D01*
X017208Y029033D01*
X017244Y029097D01*
X017284Y029159D01*
X017326Y029218D01*
X017372Y029275D01*
X017421Y029329D01*
X017473Y029381D01*
X017527Y029430D01*
X017584Y029476D01*
X017643Y029518D01*
X017705Y029558D01*
X017769Y029594D01*
X017834Y029626D01*
X017901Y029655D01*
X017970Y029680D01*
X018040Y029702D01*
X018111Y029719D01*
X018183Y029733D01*
X018255Y029743D01*
X018328Y029749D01*
X018401Y029751D01*
X018474Y029749D01*
X018547Y029743D01*
X018619Y029733D01*
X018691Y029719D01*
X018762Y029702D01*
X018832Y029680D01*
X018901Y029655D01*
X018968Y029626D01*
X019033Y029594D01*
X019097Y029558D01*
X019159Y029518D01*
X019218Y029476D01*
X019275Y029430D01*
X019329Y029381D01*
X019381Y029329D01*
X019430Y029275D01*
X019476Y029218D01*
X019518Y029159D01*
X019558Y029097D01*
X019594Y029033D01*
X019626Y028968D01*
X019655Y028901D01*
X019680Y028832D01*
X019702Y028762D01*
X019719Y028691D01*
X019733Y028619D01*
X019743Y028547D01*
X019749Y028474D01*
X019751Y028401D01*
X019749Y028328D01*
X019743Y028255D01*
X019733Y028183D01*
X019719Y028111D01*
X019702Y028040D01*
X019680Y027970D01*
X019655Y027901D01*
X019626Y027834D01*
X019594Y027769D01*
X019558Y027705D01*
X019518Y027643D01*
X019476Y027584D01*
X019430Y027527D01*
X019381Y027473D01*
X019329Y027421D01*
X019275Y027372D01*
X019218Y027326D01*
X019159Y027284D01*
X019097Y027244D01*
X019033Y027208D01*
X018968Y027176D01*
X018901Y027147D01*
X018832Y027122D01*
X018762Y027100D01*
X018691Y027083D01*
X018619Y027069D01*
X018547Y027059D01*
X018474Y027053D01*
X018401Y027051D01*
X018328Y027053D01*
X018255Y027059D01*
X018183Y027069D01*
X018111Y027083D01*
X018040Y027100D01*
X017970Y027122D01*
X017901Y027147D01*
X017834Y027176D01*
X017769Y027208D01*
X017705Y027244D01*
X017643Y027284D01*
X017584Y027326D01*
X017527Y027372D01*
X017473Y027421D01*
X017421Y027473D01*
X017372Y027527D01*
X017326Y027584D01*
X017284Y027643D01*
X017244Y027705D01*
X017208Y027769D01*
X017176Y027834D01*
X017147Y027901D01*
X017122Y027970D01*
X017100Y028040D01*
X017083Y028111D01*
X017069Y028183D01*
X017059Y028255D01*
X017053Y028328D01*
X017051Y028401D01*
X014758Y029738D02*
X014702Y029681D01*
X014588Y029681D01*
X014532Y029738D01*
X014532Y029965D01*
X014588Y030021D01*
X014702Y030021D01*
X014758Y029965D01*
X014758Y029738D01*
X014390Y029681D02*
X014163Y029681D01*
X014163Y029738D01*
X014390Y029965D01*
X014390Y030021D01*
X014163Y030021D01*
X014022Y030021D02*
X013795Y030021D01*
X013795Y029681D01*
X014022Y029681D01*
X013908Y029851D02*
X013795Y029851D01*
X013663Y029681D02*
X013549Y029681D01*
X013606Y029681D02*
X013606Y030021D01*
X013549Y030021D02*
X013663Y030021D01*
X013408Y029965D02*
X013408Y029851D01*
X013351Y029795D01*
X013181Y029795D01*
X013181Y029681D02*
X013181Y030021D01*
X013351Y030021D01*
X013408Y029965D01*
X012408Y029851D02*
X012181Y029851D01*
X012295Y029738D02*
X012295Y029965D01*
X008158Y029851D02*
X007931Y029851D01*
X006008Y028931D02*
X005782Y028931D01*
X005895Y028931D02*
X005895Y029271D01*
X005782Y029158D01*
X005640Y029101D02*
X005583Y029045D01*
X005413Y029045D01*
X005413Y028931D02*
X005413Y029271D01*
X005583Y029271D01*
X005640Y029215D01*
X005640Y029101D01*
X005272Y029045D02*
X005272Y028988D01*
X005215Y028931D01*
X005102Y028931D01*
X005045Y028988D01*
X005102Y029101D02*
X005215Y029101D01*
X005272Y029045D01*
X005272Y029215D02*
X005215Y029271D01*
X005102Y029271D01*
X005045Y029215D01*
X005045Y029158D01*
X005102Y029101D01*
X004913Y028931D02*
X004799Y028931D01*
X004856Y028931D02*
X004856Y029271D01*
X004799Y029271D02*
X004913Y029271D01*
X004658Y029215D02*
X004658Y028988D01*
X004601Y028931D01*
X004431Y028931D01*
X004431Y029271D01*
X004601Y029271D01*
X004658Y029215D01*
X000551Y028401D02*
X000553Y028474D01*
X000559Y028547D01*
X000569Y028619D01*
X000583Y028691D01*
X000600Y028762D01*
X000622Y028832D01*
X000647Y028901D01*
X000676Y028968D01*
X000708Y029033D01*
X000744Y029097D01*
X000784Y029159D01*
X000826Y029218D01*
X000872Y029275D01*
X000921Y029329D01*
X000973Y029381D01*
X001027Y029430D01*
X001084Y029476D01*
X001143Y029518D01*
X001205Y029558D01*
X001269Y029594D01*
X001334Y029626D01*
X001401Y029655D01*
X001470Y029680D01*
X001540Y029702D01*
X001611Y029719D01*
X001683Y029733D01*
X001755Y029743D01*
X001828Y029749D01*
X001901Y029751D01*
X001974Y029749D01*
X002047Y029743D01*
X002119Y029733D01*
X002191Y029719D01*
X002262Y029702D01*
X002332Y029680D01*
X002401Y029655D01*
X002468Y029626D01*
X002533Y029594D01*
X002597Y029558D01*
X002659Y029518D01*
X002718Y029476D01*
X002775Y029430D01*
X002829Y029381D01*
X002881Y029329D01*
X002930Y029275D01*
X002976Y029218D01*
X003018Y029159D01*
X003058Y029097D01*
X003094Y029033D01*
X003126Y028968D01*
X003155Y028901D01*
X003180Y028832D01*
X003202Y028762D01*
X003219Y028691D01*
X003233Y028619D01*
X003243Y028547D01*
X003249Y028474D01*
X003251Y028401D01*
X003249Y028328D01*
X003243Y028255D01*
X003233Y028183D01*
X003219Y028111D01*
X003202Y028040D01*
X003180Y027970D01*
X003155Y027901D01*
X003126Y027834D01*
X003094Y027769D01*
X003058Y027705D01*
X003018Y027643D01*
X002976Y027584D01*
X002930Y027527D01*
X002881Y027473D01*
X002829Y027421D01*
X002775Y027372D01*
X002718Y027326D01*
X002659Y027284D01*
X002597Y027244D01*
X002533Y027208D01*
X002468Y027176D01*
X002401Y027147D01*
X002332Y027122D01*
X002262Y027100D01*
X002191Y027083D01*
X002119Y027069D01*
X002047Y027059D01*
X001974Y027053D01*
X001901Y027051D01*
X001828Y027053D01*
X001755Y027059D01*
X001683Y027069D01*
X001611Y027083D01*
X001540Y027100D01*
X001470Y027122D01*
X001401Y027147D01*
X001334Y027176D01*
X001269Y027208D01*
X001205Y027244D01*
X001143Y027284D01*
X001084Y027326D01*
X001027Y027372D01*
X000973Y027421D01*
X000921Y027473D01*
X000872Y027527D01*
X000826Y027584D01*
X000784Y027643D01*
X000744Y027705D01*
X000708Y027769D01*
X000676Y027834D01*
X000647Y027901D01*
X000622Y027970D01*
X000600Y028040D01*
X000583Y028111D01*
X000569Y028183D01*
X000559Y028255D01*
X000553Y028328D01*
X000551Y028401D01*
X000501Y024371D02*
X000615Y024371D01*
X000671Y024315D01*
X000671Y024088D01*
X000615Y024031D01*
X000501Y024031D01*
X000445Y024088D01*
X000445Y024315D01*
X000501Y024371D01*
X000558Y024145D02*
X000671Y024031D01*
X000813Y024088D02*
X000870Y024031D01*
X000983Y024031D01*
X001040Y024088D01*
X001040Y024145D01*
X000983Y024201D01*
X000926Y024201D01*
X000983Y024201D02*
X001040Y024258D01*
X001040Y024315D01*
X000983Y024371D01*
X000870Y024371D01*
X000813Y024315D01*
X000927Y022783D02*
X000957Y022748D01*
X000988Y022715D01*
X001023Y022685D01*
X001059Y022658D01*
X001097Y022634D01*
X001137Y022612D01*
X001179Y022594D01*
X001222Y022578D01*
X001266Y022566D01*
X001310Y022558D01*
X001356Y022553D01*
X001401Y022551D01*
X001446Y022553D01*
X001492Y022558D01*
X001536Y022566D01*
X001580Y022578D01*
X001623Y022594D01*
X001665Y022612D01*
X001705Y022634D01*
X001743Y022658D01*
X001779Y022685D01*
X001814Y022715D01*
X001845Y022748D01*
X001875Y022783D01*
X002181Y022815D02*
X002181Y022588D01*
X002238Y022531D01*
X002351Y022531D01*
X002408Y022588D01*
X002408Y022701D01*
X002295Y022701D01*
X002408Y022815D02*
X002351Y022871D01*
X002238Y022871D01*
X002181Y022815D01*
X002181Y023331D02*
X002408Y023331D01*
X002549Y023331D02*
X002776Y023331D01*
X002918Y023331D02*
X003088Y023331D01*
X003145Y023388D01*
X003145Y023615D01*
X003088Y023671D01*
X002918Y023671D01*
X002918Y023331D01*
X002663Y023501D02*
X002549Y023501D01*
X002549Y023671D02*
X002549Y023331D01*
X002663Y022871D02*
X002549Y022758D01*
X002549Y022531D01*
X002549Y022701D02*
X002776Y022701D01*
X002776Y022758D02*
X002776Y022531D01*
X002918Y022531D02*
X002918Y022871D01*
X003031Y022758D01*
X003145Y022871D01*
X003145Y022531D01*
X003286Y022531D02*
X003286Y022871D01*
X003513Y022871D01*
X003400Y022701D02*
X003286Y022701D01*
X003286Y022531D02*
X003513Y022531D01*
X003456Y023331D02*
X003513Y023388D01*
X003513Y023615D01*
X003456Y023671D01*
X003343Y023671D01*
X003286Y023615D01*
X003286Y023558D01*
X003343Y023501D01*
X003513Y023501D01*
X003456Y023331D02*
X003343Y023331D01*
X003286Y023388D01*
X002983Y024031D02*
X002983Y024371D01*
X002813Y024201D01*
X003040Y024201D01*
X002671Y024088D02*
X002671Y024315D01*
X002615Y024371D01*
X002501Y024371D01*
X002445Y024315D01*
X002445Y024088D01*
X002501Y024031D01*
X002615Y024031D01*
X002671Y024088D01*
X002671Y024031D02*
X002558Y024145D01*
X002549Y023671D02*
X002776Y023671D01*
X002181Y023671D02*
X002181Y023331D01*
X002663Y022871D02*
X002776Y022758D01*
X002776Y021671D02*
X002549Y021671D01*
X002549Y021331D01*
X002776Y021331D01*
X002663Y021501D02*
X002549Y021501D01*
X002408Y021331D02*
X002181Y021331D01*
X002181Y021671D01*
X001401Y020551D02*
X001356Y020553D01*
X001310Y020558D01*
X001266Y020566D01*
X001222Y020578D01*
X001179Y020594D01*
X001137Y020612D01*
X001097Y020634D01*
X001059Y020658D01*
X001023Y020685D01*
X000988Y020715D01*
X000957Y020748D01*
X000927Y020783D01*
X001401Y020551D02*
X001446Y020553D01*
X001492Y020558D01*
X001536Y020566D01*
X001580Y020578D01*
X001623Y020594D01*
X001665Y020612D01*
X001705Y020634D01*
X001743Y020658D01*
X001779Y020685D01*
X001814Y020715D01*
X001845Y020748D01*
X001875Y020783D01*
X001401Y021751D02*
X001355Y021749D01*
X001309Y021744D01*
X001263Y021735D01*
X001218Y021723D01*
X001175Y021707D01*
X001133Y021688D01*
X001092Y021665D01*
X001053Y021640D01*
X001017Y021612D01*
X000982Y021581D01*
X000950Y021547D01*
X000921Y021511D01*
X001401Y021751D02*
X001448Y021749D01*
X001496Y021743D01*
X001542Y021734D01*
X001588Y021721D01*
X001632Y021705D01*
X001676Y021685D01*
X001717Y021661D01*
X001756Y021635D01*
X001793Y021605D01*
X001828Y021572D01*
X001860Y021537D01*
X001889Y021500D01*
X000921Y023511D02*
X000950Y023547D01*
X000982Y023581D01*
X001017Y023612D01*
X001053Y023640D01*
X001092Y023665D01*
X001133Y023688D01*
X001175Y023707D01*
X001218Y023723D01*
X001263Y023735D01*
X001309Y023744D01*
X001355Y023749D01*
X001401Y023751D01*
X001448Y023749D01*
X001496Y023743D01*
X001542Y023734D01*
X001588Y023721D01*
X001632Y023705D01*
X001676Y023685D01*
X001717Y023661D01*
X001756Y023635D01*
X001793Y023605D01*
X001828Y023572D01*
X001860Y023537D01*
X001889Y023500D01*
X003400Y019671D02*
X003400Y019331D01*
X003513Y019331D02*
X003286Y019331D01*
X003286Y019558D02*
X003400Y019671D01*
X003654Y019558D02*
X003768Y019671D01*
X003768Y019331D01*
X003881Y019331D02*
X003654Y019331D01*
X005281Y018065D02*
X005281Y017838D01*
X005338Y017781D01*
X005451Y017781D01*
X005508Y017838D01*
X005649Y017781D02*
X005876Y017781D01*
X005763Y017781D02*
X005763Y018121D01*
X005649Y018008D01*
X005508Y018065D02*
X005451Y018121D01*
X005338Y018121D01*
X005281Y018065D01*
X005021Y015290D02*
X005021Y015063D01*
X005021Y015176D02*
X004681Y015176D01*
X004794Y015063D01*
X004738Y014921D02*
X004681Y014865D01*
X004681Y014751D01*
X004738Y014695D01*
X004964Y014695D01*
X005021Y014751D01*
X005021Y014865D01*
X004964Y014921D01*
X005021Y014562D02*
X005021Y014449D01*
X005021Y014506D02*
X004681Y014506D01*
X004681Y014562D02*
X004681Y014449D01*
X001401Y018551D02*
X001356Y018553D01*
X001310Y018558D01*
X001266Y018566D01*
X001222Y018578D01*
X001179Y018594D01*
X001137Y018612D01*
X001097Y018634D01*
X001059Y018658D01*
X001023Y018685D01*
X000988Y018715D01*
X000957Y018748D01*
X000927Y018783D01*
X001401Y018551D02*
X001446Y018553D01*
X001492Y018558D01*
X001536Y018566D01*
X001580Y018578D01*
X001623Y018594D01*
X001665Y018612D01*
X001705Y018634D01*
X001743Y018658D01*
X001779Y018685D01*
X001814Y018715D01*
X001845Y018748D01*
X001875Y018783D01*
X001401Y019751D02*
X001355Y019749D01*
X001309Y019744D01*
X001263Y019735D01*
X001218Y019723D01*
X001175Y019707D01*
X001133Y019688D01*
X001092Y019665D01*
X001053Y019640D01*
X001017Y019612D01*
X000982Y019581D01*
X000950Y019547D01*
X000921Y019511D01*
X001401Y019751D02*
X001448Y019749D01*
X001496Y019743D01*
X001542Y019734D01*
X001588Y019721D01*
X001632Y019705D01*
X001676Y019685D01*
X001717Y019661D01*
X001756Y019635D01*
X001793Y019605D01*
X001828Y019572D01*
X001860Y019537D01*
X001889Y019500D01*
X010931Y012921D02*
X010931Y012581D01*
X011158Y012581D01*
X011299Y012581D02*
X011299Y012921D01*
X011526Y012921D01*
X011668Y012921D02*
X011668Y012581D01*
X011838Y012581D01*
X011895Y012638D01*
X011895Y012865D01*
X011838Y012921D01*
X011668Y012921D01*
X011526Y012581D02*
X011299Y012581D01*
X011299Y012751D02*
X011413Y012751D01*
X012036Y012751D02*
X012263Y012751D01*
X012206Y012581D02*
X012206Y012921D01*
X012036Y012751D01*
X011033Y012125D02*
X010998Y012095D01*
X010965Y012064D01*
X010935Y012029D01*
X010908Y011993D01*
X010884Y011955D01*
X010862Y011915D01*
X010844Y011873D01*
X010828Y011830D01*
X010816Y011786D01*
X010808Y011742D01*
X010803Y011696D01*
X010801Y011651D01*
X010803Y011606D01*
X010808Y011560D01*
X010816Y011516D01*
X010828Y011472D01*
X010844Y011429D01*
X010862Y011387D01*
X010884Y011347D01*
X010908Y011309D01*
X010935Y011273D01*
X010965Y011238D01*
X010998Y011207D01*
X011033Y011177D01*
X012001Y011651D02*
X011999Y011697D01*
X011994Y011743D01*
X011985Y011789D01*
X011973Y011834D01*
X011957Y011877D01*
X011938Y011919D01*
X011915Y011960D01*
X011890Y011999D01*
X011862Y012035D01*
X011831Y012070D01*
X011797Y012102D01*
X011761Y012131D01*
X012001Y011651D02*
X011999Y011604D01*
X011993Y011556D01*
X011984Y011510D01*
X011971Y011464D01*
X011955Y011420D01*
X011935Y011376D01*
X011911Y011335D01*
X011885Y011296D01*
X011855Y011259D01*
X011822Y011224D01*
X011787Y011192D01*
X011750Y011163D01*
X011720Y010521D02*
X011549Y010351D01*
X011776Y010351D01*
X011720Y010181D02*
X011720Y010521D01*
X011408Y010465D02*
X011351Y010521D01*
X011238Y010521D01*
X011181Y010465D01*
X011181Y010408D01*
X011238Y010351D01*
X011351Y010351D01*
X011408Y010295D01*
X011408Y010238D01*
X011351Y010181D01*
X011238Y010181D01*
X011181Y010238D01*
X013431Y012581D02*
X013658Y012581D01*
X013799Y012581D02*
X013799Y012921D01*
X014026Y012921D01*
X014168Y012921D02*
X014168Y012581D01*
X014338Y012581D01*
X014395Y012638D01*
X014395Y012865D01*
X014338Y012921D01*
X014168Y012921D01*
X013913Y012751D02*
X013799Y012751D01*
X013799Y012581D02*
X014026Y012581D01*
X014536Y012638D02*
X014593Y012581D01*
X014706Y012581D01*
X014763Y012638D01*
X014763Y012695D01*
X014706Y012751D01*
X014650Y012751D01*
X014706Y012751D02*
X014763Y012808D01*
X014763Y012865D01*
X014706Y012921D01*
X014593Y012921D01*
X014536Y012865D01*
X013533Y012125D02*
X013498Y012095D01*
X013465Y012064D01*
X013435Y012029D01*
X013408Y011993D01*
X013384Y011955D01*
X013362Y011915D01*
X013344Y011873D01*
X013328Y011830D01*
X013316Y011786D01*
X013308Y011742D01*
X013303Y011696D01*
X013301Y011651D01*
X013303Y011606D01*
X013308Y011560D01*
X013316Y011516D01*
X013328Y011472D01*
X013344Y011429D01*
X013362Y011387D01*
X013384Y011347D01*
X013408Y011309D01*
X013435Y011273D01*
X013465Y011238D01*
X013498Y011207D01*
X013533Y011177D01*
X014501Y011651D02*
X014499Y011697D01*
X014494Y011743D01*
X014485Y011789D01*
X014473Y011834D01*
X014457Y011877D01*
X014438Y011919D01*
X014415Y011960D01*
X014390Y011999D01*
X014362Y012035D01*
X014331Y012070D01*
X014297Y012102D01*
X014261Y012131D01*
X014501Y011651D02*
X014499Y011604D01*
X014493Y011556D01*
X014484Y011510D01*
X014471Y011464D01*
X014455Y011420D01*
X014435Y011376D01*
X014411Y011335D01*
X014385Y011296D01*
X014355Y011259D01*
X014322Y011224D01*
X014287Y011192D01*
X014250Y011163D01*
X014220Y010521D02*
X014276Y010465D01*
X014276Y010408D01*
X014220Y010351D01*
X014276Y010295D01*
X014276Y010238D01*
X014220Y010181D01*
X014106Y010181D01*
X014049Y010238D01*
X013908Y010238D02*
X013851Y010181D01*
X013738Y010181D01*
X013681Y010238D01*
X013738Y010351D02*
X013851Y010351D01*
X013908Y010295D01*
X013908Y010238D01*
X013738Y010351D02*
X013681Y010408D01*
X013681Y010465D01*
X013738Y010521D01*
X013851Y010521D01*
X013908Y010465D01*
X014049Y010465D02*
X014106Y010521D01*
X014220Y010521D01*
X014220Y010351D02*
X014163Y010351D01*
X013431Y012581D02*
X013431Y012921D01*
X015931Y012921D02*
X015931Y012581D01*
X016158Y012581D01*
X016299Y012581D02*
X016526Y012581D01*
X016668Y012581D02*
X016668Y012921D01*
X016838Y012921D01*
X016895Y012865D01*
X016895Y012638D01*
X016838Y012581D01*
X016668Y012581D01*
X016413Y012751D02*
X016299Y012751D01*
X016299Y012921D02*
X016299Y012581D01*
X016299Y012921D02*
X016526Y012921D01*
X016801Y013451D02*
X017151Y013451D01*
X018101Y013451D01*
X018501Y013451D01*
X018431Y012921D02*
X018431Y012581D01*
X018658Y012581D01*
X018799Y012581D02*
X018799Y012921D01*
X019026Y012921D01*
X019168Y012921D02*
X019338Y012921D01*
X019395Y012865D01*
X019395Y012638D01*
X019338Y012581D01*
X019168Y012581D01*
X019168Y012921D01*
X018913Y012751D02*
X018799Y012751D01*
X018799Y012581D02*
X019026Y012581D01*
X019536Y012581D02*
X019763Y012581D01*
X019650Y012581D02*
X019650Y012921D01*
X019536Y012808D01*
X018533Y012125D02*
X018498Y012095D01*
X018465Y012064D01*
X018435Y012029D01*
X018408Y011993D01*
X018384Y011955D01*
X018362Y011915D01*
X018344Y011873D01*
X018328Y011830D01*
X018316Y011786D01*
X018308Y011742D01*
X018303Y011696D01*
X018301Y011651D01*
X018303Y011606D01*
X018308Y011560D01*
X018316Y011516D01*
X018328Y011472D01*
X018344Y011429D01*
X018362Y011387D01*
X018384Y011347D01*
X018408Y011309D01*
X018435Y011273D01*
X018465Y011238D01*
X018498Y011207D01*
X018533Y011177D01*
X019501Y011651D02*
X019499Y011697D01*
X019494Y011743D01*
X019485Y011789D01*
X019473Y011834D01*
X019457Y011877D01*
X019438Y011919D01*
X019415Y011960D01*
X019390Y011999D01*
X019362Y012035D01*
X019331Y012070D01*
X019297Y012102D01*
X019261Y012131D01*
X019501Y011651D02*
X019499Y011604D01*
X019493Y011556D01*
X019484Y011510D01*
X019471Y011464D01*
X019455Y011420D01*
X019435Y011376D01*
X019411Y011335D01*
X019385Y011296D01*
X019355Y011259D01*
X019322Y011224D01*
X019287Y011192D01*
X019250Y011163D01*
X019163Y010521D02*
X019163Y010181D01*
X019276Y010181D02*
X019049Y010181D01*
X018908Y010238D02*
X018851Y010181D01*
X018738Y010181D01*
X018681Y010238D01*
X018738Y010351D02*
X018851Y010351D01*
X018908Y010295D01*
X018908Y010238D01*
X018738Y010351D02*
X018681Y010408D01*
X018681Y010465D01*
X018738Y010521D01*
X018851Y010521D01*
X018908Y010465D01*
X019049Y010408D02*
X019163Y010521D01*
X017263Y012581D02*
X017036Y012581D01*
X017263Y012808D01*
X017263Y012865D01*
X017206Y012921D01*
X017093Y012921D01*
X017036Y012865D01*
X016033Y012125D02*
X015998Y012095D01*
X015965Y012064D01*
X015935Y012029D01*
X015908Y011993D01*
X015884Y011955D01*
X015862Y011915D01*
X015844Y011873D01*
X015828Y011830D01*
X015816Y011786D01*
X015808Y011742D01*
X015803Y011696D01*
X015801Y011651D01*
X015803Y011606D01*
X015808Y011560D01*
X015816Y011516D01*
X015828Y011472D01*
X015844Y011429D01*
X015862Y011387D01*
X015884Y011347D01*
X015908Y011309D01*
X015935Y011273D01*
X015965Y011238D01*
X015998Y011207D01*
X016033Y011177D01*
X017001Y011651D02*
X016999Y011697D01*
X016994Y011743D01*
X016985Y011789D01*
X016973Y011834D01*
X016957Y011877D01*
X016938Y011919D01*
X016915Y011960D01*
X016890Y011999D01*
X016862Y012035D01*
X016831Y012070D01*
X016797Y012102D01*
X016761Y012131D01*
X017001Y011651D02*
X016999Y011604D01*
X016993Y011556D01*
X016984Y011510D01*
X016971Y011464D01*
X016955Y011420D01*
X016935Y011376D01*
X016911Y011335D01*
X016885Y011296D01*
X016855Y011259D01*
X016822Y011224D01*
X016787Y011192D01*
X016750Y011163D01*
X016720Y010521D02*
X016606Y010521D01*
X016549Y010465D01*
X016408Y010465D02*
X016351Y010521D01*
X016238Y010521D01*
X016181Y010465D01*
X016181Y010408D01*
X016238Y010351D01*
X016351Y010351D01*
X016408Y010295D01*
X016408Y010238D01*
X016351Y010181D01*
X016238Y010181D01*
X016181Y010238D01*
X016549Y010181D02*
X016776Y010408D01*
X016776Y010465D01*
X016720Y010521D01*
X016776Y010181D02*
X016549Y010181D01*
X016451Y014251D02*
X016451Y014351D01*
X016351Y014351D01*
X016351Y014951D01*
X016451Y014951D01*
X016451Y015051D01*
X016801Y015851D02*
X017151Y015851D01*
X018151Y015851D01*
X018501Y015851D01*
X018738Y016056D02*
X018681Y016113D01*
X018681Y016340D01*
X018738Y016396D01*
X018851Y016396D01*
X018908Y016340D01*
X018908Y016113D01*
X018851Y016056D01*
X018738Y016056D01*
X018795Y016170D02*
X018908Y016056D01*
X019049Y016056D02*
X019276Y016283D01*
X019276Y016340D01*
X019220Y016396D01*
X019106Y016396D01*
X019049Y016340D01*
X019049Y016056D02*
X019276Y016056D01*
X019276Y014971D02*
X019163Y014971D01*
X019106Y014915D01*
X019106Y014858D01*
X019163Y014801D01*
X019276Y014801D01*
X019333Y014745D01*
X019333Y014688D01*
X019276Y014631D01*
X019163Y014631D01*
X019106Y014688D01*
X018951Y014951D02*
X018951Y014351D01*
X018851Y014351D01*
X018851Y014251D01*
X018851Y014951D02*
X018851Y015051D01*
X018851Y014951D02*
X018951Y014951D01*
X019276Y014971D02*
X019333Y014915D01*
X019474Y014858D02*
X019588Y014971D01*
X019588Y014631D01*
X019701Y014631D02*
X019474Y014631D01*
X019843Y014688D02*
X020070Y014915D01*
X020070Y014688D01*
X020013Y014631D01*
X019899Y014631D01*
X019843Y014688D01*
X019843Y014915D01*
X019899Y014971D01*
X020013Y014971D01*
X020070Y014915D01*
X019939Y017806D02*
X019713Y017806D01*
X019656Y017863D01*
X019656Y017976D01*
X019713Y018033D01*
X019939Y018033D01*
X019996Y017976D01*
X019996Y017863D01*
X019939Y017806D01*
X019996Y018174D02*
X019656Y018174D01*
X019656Y018401D01*
X019656Y018543D02*
X019656Y018770D01*
X019826Y018656D02*
X019826Y018543D01*
X019996Y018543D02*
X019656Y018543D01*
X019826Y018288D02*
X019826Y018174D01*
X017551Y014651D02*
X017553Y014671D01*
X017559Y014689D01*
X017568Y014707D01*
X017580Y014722D01*
X017595Y014734D01*
X017613Y014743D01*
X017631Y014749D01*
X017651Y014751D01*
X017671Y014749D01*
X017689Y014743D01*
X017707Y014734D01*
X017722Y014722D01*
X017734Y014707D01*
X017743Y014689D01*
X017749Y014671D01*
X017751Y014651D01*
X017749Y014631D01*
X017743Y014613D01*
X017734Y014595D01*
X017722Y014580D01*
X017707Y014568D01*
X017689Y014559D01*
X017671Y014553D01*
X017651Y014551D01*
X017631Y014553D01*
X017613Y014559D01*
X017595Y014568D01*
X017580Y014580D01*
X017568Y014595D01*
X017559Y014613D01*
X017553Y014631D01*
X017551Y014651D01*
X016951Y014651D02*
X016953Y014703D01*
X016959Y014755D01*
X016969Y014807D01*
X016982Y014857D01*
X016999Y014907D01*
X017020Y014955D01*
X017045Y015001D01*
X017073Y015045D01*
X017104Y015087D01*
X017138Y015127D01*
X017175Y015164D01*
X017215Y015198D01*
X017257Y015229D01*
X017301Y015257D01*
X017347Y015282D01*
X017395Y015303D01*
X017445Y015320D01*
X017495Y015333D01*
X017547Y015343D01*
X017599Y015349D01*
X017651Y015351D01*
X017703Y015349D01*
X017755Y015343D01*
X017807Y015333D01*
X017857Y015320D01*
X017907Y015303D01*
X017955Y015282D01*
X018001Y015257D01*
X018045Y015229D01*
X018087Y015198D01*
X018127Y015164D01*
X018164Y015127D01*
X018198Y015087D01*
X018229Y015045D01*
X018257Y015001D01*
X018282Y014955D01*
X018303Y014907D01*
X018320Y014857D01*
X018333Y014807D01*
X018343Y014755D01*
X018349Y014703D01*
X018351Y014651D01*
X018349Y014599D01*
X018343Y014547D01*
X018333Y014495D01*
X018320Y014445D01*
X018303Y014395D01*
X018282Y014347D01*
X018257Y014301D01*
X018229Y014257D01*
X018198Y014215D01*
X018164Y014175D01*
X018127Y014138D01*
X018087Y014104D01*
X018045Y014073D01*
X018001Y014045D01*
X017955Y014020D01*
X017907Y013999D01*
X017857Y013982D01*
X017807Y013969D01*
X017755Y013959D01*
X017703Y013953D01*
X017651Y013951D01*
X017599Y013953D01*
X017547Y013959D01*
X017495Y013969D01*
X017445Y013982D01*
X017395Y013999D01*
X017347Y014020D01*
X017301Y014045D01*
X017257Y014073D01*
X017215Y014104D01*
X017175Y014138D01*
X017138Y014175D01*
X017104Y014215D01*
X017073Y014257D01*
X017045Y014301D01*
X017020Y014347D01*
X016999Y014395D01*
X016982Y014445D01*
X016969Y014495D01*
X016959Y014547D01*
X016953Y014599D01*
X016951Y014651D01*
X016776Y016056D02*
X016549Y016056D01*
X016663Y016056D02*
X016663Y016396D01*
X016549Y016283D01*
X016408Y016340D02*
X016351Y016396D01*
X016238Y016396D01*
X016181Y016340D01*
X016181Y016113D01*
X016238Y016056D01*
X016351Y016056D01*
X016408Y016113D01*
X016408Y016340D01*
X016295Y016170D02*
X016408Y016056D01*
X016606Y005078D02*
X016606Y005021D01*
X016606Y004908D02*
X016606Y004681D01*
X016549Y004681D02*
X016663Y004681D01*
X016795Y004738D02*
X016852Y004681D01*
X017022Y004681D01*
X017163Y004738D02*
X017163Y004851D01*
X017220Y004908D01*
X017333Y004908D01*
X017390Y004851D01*
X017390Y004795D01*
X017163Y004795D01*
X017163Y004738D02*
X017220Y004681D01*
X017333Y004681D01*
X017532Y004681D02*
X017532Y004908D01*
X017702Y004908D01*
X017758Y004851D01*
X017758Y004681D01*
X017900Y004681D02*
X018070Y004681D01*
X018127Y004738D01*
X018070Y004795D01*
X017957Y004795D01*
X017900Y004851D01*
X017957Y004908D01*
X018127Y004908D01*
X018268Y004851D02*
X018325Y004908D01*
X018438Y004908D01*
X018495Y004851D01*
X018495Y004795D01*
X018268Y004795D01*
X018268Y004851D02*
X018268Y004738D01*
X018325Y004681D01*
X018438Y004681D01*
X018386Y004521D02*
X018330Y004465D01*
X018330Y004238D01*
X018386Y004181D01*
X018500Y004181D01*
X018556Y004238D01*
X018698Y004181D02*
X018698Y004521D01*
X018925Y004521D01*
X019066Y004521D02*
X019066Y004181D01*
X019066Y004295D02*
X019236Y004295D01*
X019293Y004351D01*
X019293Y004465D01*
X019236Y004521D01*
X019066Y004521D01*
X019180Y004295D02*
X019293Y004181D01*
X019435Y004181D02*
X019435Y004521D01*
X019661Y004181D01*
X019661Y004521D01*
X018925Y004181D02*
X018698Y004181D01*
X018745Y004021D02*
X018632Y004021D01*
X018575Y003965D01*
X018745Y004021D02*
X018802Y003965D01*
X018802Y003908D01*
X018575Y003681D01*
X018802Y003681D01*
X018448Y003681D02*
X018391Y003681D01*
X018391Y003738D01*
X018448Y003738D01*
X018448Y003681D01*
X018250Y003681D02*
X018023Y003681D01*
X018136Y003681D02*
X018136Y004021D01*
X018023Y003908D01*
X017881Y003795D02*
X017881Y004021D01*
X017881Y003795D02*
X017768Y003681D01*
X017654Y003795D01*
X017654Y004021D01*
X017654Y004181D02*
X017654Y004408D01*
X017654Y004295D02*
X017768Y004408D01*
X017825Y004408D01*
X017513Y004351D02*
X017513Y004295D01*
X017286Y004295D01*
X017286Y004351D02*
X017343Y004408D01*
X017456Y004408D01*
X017513Y004351D01*
X017456Y004181D02*
X017343Y004181D01*
X017286Y004238D01*
X017286Y004351D01*
X017145Y004408D02*
X016974Y004408D01*
X016918Y004351D01*
X016918Y004238D01*
X016974Y004181D01*
X017145Y004181D01*
X017145Y004521D01*
X016776Y004351D02*
X016776Y004181D01*
X016776Y004021D02*
X016776Y003681D01*
X016918Y003681D02*
X017145Y003681D01*
X016918Y003681D02*
X016918Y004021D01*
X016776Y003851D02*
X016549Y003851D01*
X016549Y003681D02*
X016549Y004021D01*
X016408Y003965D02*
X016408Y003738D01*
X016351Y003681D01*
X016238Y003681D01*
X016181Y003738D01*
X016181Y003965D01*
X016238Y004021D01*
X016351Y004021D01*
X016408Y003965D01*
X016408Y004181D02*
X016408Y004408D01*
X016549Y004408D02*
X016549Y004181D01*
X016408Y004181D02*
X016238Y004181D01*
X016181Y004238D01*
X016181Y004408D01*
X016181Y004681D02*
X016408Y004681D01*
X016181Y004681D02*
X016181Y005021D01*
X016549Y004908D02*
X016606Y004908D01*
X016795Y004851D02*
X016795Y004738D01*
X016795Y004851D02*
X016852Y004908D01*
X017022Y004908D01*
X016720Y004408D02*
X016776Y004351D01*
X016720Y004408D02*
X016549Y004408D01*
X018386Y004521D02*
X018500Y004521D01*
X018556Y004465D01*
X018698Y004351D02*
X018811Y004351D01*
X018863Y004681D02*
X018693Y004681D01*
X018637Y004738D01*
X018637Y004851D01*
X018693Y004908D01*
X018863Y004908D01*
X018863Y005021D02*
X018863Y004681D01*
X017051Y001901D02*
X017053Y001974D01*
X017059Y002047D01*
X017069Y002119D01*
X017083Y002191D01*
X017100Y002262D01*
X017122Y002332D01*
X017147Y002401D01*
X017176Y002468D01*
X017208Y002533D01*
X017244Y002597D01*
X017284Y002659D01*
X017326Y002718D01*
X017372Y002775D01*
X017421Y002829D01*
X017473Y002881D01*
X017527Y002930D01*
X017584Y002976D01*
X017643Y003018D01*
X017705Y003058D01*
X017769Y003094D01*
X017834Y003126D01*
X017901Y003155D01*
X017970Y003180D01*
X018040Y003202D01*
X018111Y003219D01*
X018183Y003233D01*
X018255Y003243D01*
X018328Y003249D01*
X018401Y003251D01*
X018474Y003249D01*
X018547Y003243D01*
X018619Y003233D01*
X018691Y003219D01*
X018762Y003202D01*
X018832Y003180D01*
X018901Y003155D01*
X018968Y003126D01*
X019033Y003094D01*
X019097Y003058D01*
X019159Y003018D01*
X019218Y002976D01*
X019275Y002930D01*
X019329Y002881D01*
X019381Y002829D01*
X019430Y002775D01*
X019476Y002718D01*
X019518Y002659D01*
X019558Y002597D01*
X019594Y002533D01*
X019626Y002468D01*
X019655Y002401D01*
X019680Y002332D01*
X019702Y002262D01*
X019719Y002191D01*
X019733Y002119D01*
X019743Y002047D01*
X019749Y001974D01*
X019751Y001901D01*
X019749Y001828D01*
X019743Y001755D01*
X019733Y001683D01*
X019719Y001611D01*
X019702Y001540D01*
X019680Y001470D01*
X019655Y001401D01*
X019626Y001334D01*
X019594Y001269D01*
X019558Y001205D01*
X019518Y001143D01*
X019476Y001084D01*
X019430Y001027D01*
X019381Y000973D01*
X019329Y000921D01*
X019275Y000872D01*
X019218Y000826D01*
X019159Y000784D01*
X019097Y000744D01*
X019033Y000708D01*
X018968Y000676D01*
X018901Y000647D01*
X018832Y000622D01*
X018762Y000600D01*
X018691Y000583D01*
X018619Y000569D01*
X018547Y000559D01*
X018474Y000553D01*
X018401Y000551D01*
X018328Y000553D01*
X018255Y000559D01*
X018183Y000569D01*
X018111Y000583D01*
X018040Y000600D01*
X017970Y000622D01*
X017901Y000647D01*
X017834Y000676D01*
X017769Y000708D01*
X017705Y000744D01*
X017643Y000784D01*
X017584Y000826D01*
X017527Y000872D01*
X017473Y000921D01*
X017421Y000973D01*
X017372Y001027D01*
X017326Y001084D01*
X017284Y001143D01*
X017244Y001205D01*
X017208Y001269D01*
X017176Y001334D01*
X017147Y001401D01*
X017122Y001470D01*
X017100Y001540D01*
X017083Y001611D01*
X017069Y001683D01*
X017059Y001755D01*
X017053Y001828D01*
X017051Y001901D01*
D12*
X013651Y002001D03*
X012651Y002001D03*
X011651Y002001D03*
X010651Y002001D03*
X009651Y002001D03*
X008651Y002001D03*
X007651Y002001D03*
X006651Y002001D03*
D13*
X006651Y001626D03*
X007651Y001626D03*
X008651Y001626D03*
X009651Y001626D03*
X010651Y001626D03*
X011651Y001626D03*
X012651Y001626D03*
X013651Y001626D03*
X013651Y003676D03*
X012651Y003676D03*
X011651Y003676D03*
X010651Y003676D03*
X009651Y003676D03*
X008651Y003676D03*
X007651Y003676D03*
X006651Y003676D03*
D14*
X007201Y011651D02*
X007199Y011705D01*
X007194Y011759D01*
X007185Y011812D01*
X007172Y011865D01*
X007156Y011916D01*
X007136Y011966D01*
X007113Y012015D01*
X007087Y012063D01*
X007058Y012108D01*
X007025Y012151D01*
X006990Y012192D01*
X006952Y012231D01*
X006912Y012267D01*
X006869Y012300D01*
X006824Y012330D01*
X006777Y012357D01*
X006004Y012346D02*
X005956Y012316D01*
X005911Y012283D01*
X005868Y012247D01*
X005827Y012209D01*
X005790Y012167D01*
X005755Y012123D01*
X005724Y012077D01*
X005695Y012028D01*
X005671Y011978D01*
X005650Y011926D01*
X005632Y011872D01*
X005619Y011818D01*
X005609Y011763D01*
X005603Y011707D01*
X005601Y011651D01*
X005603Y011598D01*
X005608Y011544D01*
X005617Y011492D01*
X005629Y011440D01*
X005645Y011389D01*
X005664Y011339D01*
X005687Y011290D01*
X005713Y011243D01*
X005741Y011198D01*
X005773Y011155D01*
X005807Y011115D01*
X005845Y011076D01*
X005884Y011040D01*
X006913Y011036D02*
X006953Y011072D01*
X006991Y011111D01*
X007026Y011152D01*
X007058Y011195D01*
X007088Y011240D01*
X007114Y011287D01*
X007136Y011336D01*
X007156Y011387D01*
X007172Y011438D01*
X007185Y011490D01*
X007194Y011544D01*
X007199Y011597D01*
X007201Y011651D01*
X008101Y011651D02*
X008103Y011707D01*
X008109Y011763D01*
X008119Y011818D01*
X008132Y011872D01*
X008150Y011926D01*
X008171Y011978D01*
X008195Y012028D01*
X008224Y012077D01*
X008255Y012123D01*
X008290Y012167D01*
X008327Y012209D01*
X008368Y012247D01*
X008411Y012283D01*
X008456Y012316D01*
X008504Y012346D01*
X008101Y011651D02*
X008103Y011598D01*
X008108Y011544D01*
X008117Y011492D01*
X008129Y011440D01*
X008145Y011389D01*
X008164Y011339D01*
X008187Y011290D01*
X008213Y011243D01*
X008241Y011198D01*
X008273Y011155D01*
X008307Y011115D01*
X008345Y011076D01*
X008384Y011040D01*
X009701Y011651D02*
X009699Y011705D01*
X009694Y011759D01*
X009685Y011812D01*
X009672Y011865D01*
X009656Y011916D01*
X009636Y011966D01*
X009613Y012015D01*
X009587Y012063D01*
X009558Y012108D01*
X009525Y012151D01*
X009490Y012192D01*
X009452Y012231D01*
X009412Y012267D01*
X009369Y012300D01*
X009324Y012330D01*
X009277Y012357D01*
X009701Y011651D02*
X009699Y011597D01*
X009694Y011544D01*
X009685Y011490D01*
X009672Y011438D01*
X009656Y011387D01*
X009636Y011336D01*
X009614Y011287D01*
X009588Y011240D01*
X009558Y011195D01*
X009526Y011152D01*
X009491Y011111D01*
X009453Y011072D01*
X009413Y011036D01*
X011777Y012357D02*
X011824Y012330D01*
X011869Y012300D01*
X011912Y012267D01*
X011952Y012231D01*
X011990Y012192D01*
X012025Y012151D01*
X012058Y012108D01*
X012087Y012063D01*
X012113Y012015D01*
X012136Y011966D01*
X012156Y011916D01*
X012172Y011865D01*
X012185Y011812D01*
X012194Y011759D01*
X012199Y011705D01*
X012201Y011651D01*
X011004Y012346D02*
X010956Y012316D01*
X010911Y012283D01*
X010868Y012247D01*
X010827Y012209D01*
X010790Y012167D01*
X010755Y012123D01*
X010724Y012077D01*
X010695Y012028D01*
X010671Y011978D01*
X010650Y011926D01*
X010632Y011872D01*
X010619Y011818D01*
X010609Y011763D01*
X010603Y011707D01*
X010601Y011651D01*
X010603Y011598D01*
X010608Y011544D01*
X010617Y011492D01*
X010629Y011440D01*
X010645Y011389D01*
X010664Y011339D01*
X010687Y011290D01*
X010713Y011243D01*
X010741Y011198D01*
X010773Y011155D01*
X010807Y011115D01*
X010845Y011076D01*
X010884Y011040D01*
X011913Y011036D02*
X011953Y011072D01*
X011991Y011111D01*
X012026Y011152D01*
X012058Y011195D01*
X012088Y011240D01*
X012114Y011287D01*
X012136Y011336D01*
X012156Y011387D01*
X012172Y011438D01*
X012185Y011490D01*
X012194Y011544D01*
X012199Y011597D01*
X012201Y011651D01*
X013101Y011651D02*
X013103Y011707D01*
X013109Y011763D01*
X013119Y011818D01*
X013132Y011872D01*
X013150Y011926D01*
X013171Y011978D01*
X013195Y012028D01*
X013224Y012077D01*
X013255Y012123D01*
X013290Y012167D01*
X013327Y012209D01*
X013368Y012247D01*
X013411Y012283D01*
X013456Y012316D01*
X013504Y012346D01*
X013101Y011651D02*
X013103Y011598D01*
X013108Y011544D01*
X013117Y011492D01*
X013129Y011440D01*
X013145Y011389D01*
X013164Y011339D01*
X013187Y011290D01*
X013213Y011243D01*
X013241Y011198D01*
X013273Y011155D01*
X013307Y011115D01*
X013345Y011076D01*
X013384Y011040D01*
X014701Y011651D02*
X014699Y011705D01*
X014694Y011759D01*
X014685Y011812D01*
X014672Y011865D01*
X014656Y011916D01*
X014636Y011966D01*
X014613Y012015D01*
X014587Y012063D01*
X014558Y012108D01*
X014525Y012151D01*
X014490Y012192D01*
X014452Y012231D01*
X014412Y012267D01*
X014369Y012300D01*
X014324Y012330D01*
X014277Y012357D01*
X014701Y011651D02*
X014699Y011597D01*
X014694Y011544D01*
X014685Y011490D01*
X014672Y011438D01*
X014656Y011387D01*
X014636Y011336D01*
X014614Y011287D01*
X014588Y011240D01*
X014558Y011195D01*
X014526Y011152D01*
X014491Y011111D01*
X014453Y011072D01*
X014413Y011036D01*
X016777Y012357D02*
X016824Y012330D01*
X016869Y012300D01*
X016912Y012267D01*
X016952Y012231D01*
X016990Y012192D01*
X017025Y012151D01*
X017058Y012108D01*
X017087Y012063D01*
X017113Y012015D01*
X017136Y011966D01*
X017156Y011916D01*
X017172Y011865D01*
X017185Y011812D01*
X017194Y011759D01*
X017199Y011705D01*
X017201Y011651D01*
X016004Y012346D02*
X015956Y012316D01*
X015911Y012283D01*
X015868Y012247D01*
X015827Y012209D01*
X015790Y012167D01*
X015755Y012123D01*
X015724Y012077D01*
X015695Y012028D01*
X015671Y011978D01*
X015650Y011926D01*
X015632Y011872D01*
X015619Y011818D01*
X015609Y011763D01*
X015603Y011707D01*
X015601Y011651D01*
X015603Y011598D01*
X015608Y011544D01*
X015617Y011492D01*
X015629Y011440D01*
X015645Y011389D01*
X015664Y011339D01*
X015687Y011290D01*
X015713Y011243D01*
X015741Y011198D01*
X015773Y011155D01*
X015807Y011115D01*
X015845Y011076D01*
X015884Y011040D01*
X016913Y011036D02*
X016953Y011072D01*
X016991Y011111D01*
X017026Y011152D01*
X017058Y011195D01*
X017088Y011240D01*
X017114Y011287D01*
X017136Y011336D01*
X017156Y011387D01*
X017172Y011438D01*
X017185Y011490D01*
X017194Y011544D01*
X017199Y011597D01*
X017201Y011651D01*
X018101Y011651D02*
X018103Y011707D01*
X018109Y011763D01*
X018119Y011818D01*
X018132Y011872D01*
X018150Y011926D01*
X018171Y011978D01*
X018195Y012028D01*
X018224Y012077D01*
X018255Y012123D01*
X018290Y012167D01*
X018327Y012209D01*
X018368Y012247D01*
X018411Y012283D01*
X018456Y012316D01*
X018504Y012346D01*
X018101Y011651D02*
X018103Y011598D01*
X018108Y011544D01*
X018117Y011492D01*
X018129Y011440D01*
X018145Y011389D01*
X018164Y011339D01*
X018187Y011290D01*
X018213Y011243D01*
X018241Y011198D01*
X018273Y011155D01*
X018307Y011115D01*
X018345Y011076D01*
X018384Y011040D01*
X019701Y011651D02*
X019699Y011705D01*
X019694Y011759D01*
X019685Y011812D01*
X019672Y011865D01*
X019656Y011916D01*
X019636Y011966D01*
X019613Y012015D01*
X019587Y012063D01*
X019558Y012108D01*
X019525Y012151D01*
X019490Y012192D01*
X019452Y012231D01*
X019412Y012267D01*
X019369Y012300D01*
X019324Y012330D01*
X019277Y012357D01*
X019701Y011651D02*
X019699Y011597D01*
X019694Y011544D01*
X019685Y011490D01*
X019672Y011438D01*
X019656Y011387D01*
X019636Y011336D01*
X019614Y011287D01*
X019588Y011240D01*
X019558Y011195D01*
X019526Y011152D01*
X019491Y011111D01*
X019453Y011072D01*
X019413Y011036D01*
X016057Y023145D02*
X016057Y028657D01*
X004246Y028657D01*
X004246Y023145D01*
X016057Y023145D01*
X004951Y017251D02*
X004651Y017251D01*
X004351Y017251D01*
X004351Y017051D02*
X004651Y017051D01*
X004951Y017051D01*
X001401Y017951D02*
X001347Y017949D01*
X001293Y017944D01*
X001240Y017935D01*
X001187Y017922D01*
X001136Y017906D01*
X001086Y017886D01*
X001037Y017863D01*
X000989Y017837D01*
X000944Y017808D01*
X000901Y017775D01*
X000860Y017740D01*
X000821Y017702D01*
X000785Y017662D01*
X000752Y017619D01*
X000722Y017574D01*
X000695Y017527D01*
X000706Y016754D02*
X000736Y016706D01*
X000769Y016661D01*
X000805Y016618D01*
X000843Y016577D01*
X000885Y016540D01*
X000929Y016505D01*
X000975Y016474D01*
X001024Y016445D01*
X001074Y016421D01*
X001126Y016400D01*
X001180Y016382D01*
X001234Y016369D01*
X001289Y016359D01*
X001345Y016353D01*
X001401Y016351D01*
X001454Y016353D01*
X001508Y016358D01*
X001560Y016367D01*
X001612Y016379D01*
X001663Y016395D01*
X001713Y016414D01*
X001762Y016437D01*
X001809Y016463D01*
X001854Y016491D01*
X001897Y016523D01*
X001937Y016557D01*
X001976Y016595D01*
X002012Y016634D01*
X002016Y017663D02*
X001980Y017703D01*
X001941Y017741D01*
X001900Y017776D01*
X001857Y017808D01*
X001812Y017838D01*
X001765Y017864D01*
X001716Y017886D01*
X001665Y017906D01*
X001614Y017922D01*
X001562Y017935D01*
X001508Y017944D01*
X001455Y017949D01*
X001401Y017951D01*
X001401Y018351D02*
X001345Y018353D01*
X001289Y018359D01*
X001234Y018369D01*
X001180Y018382D01*
X001126Y018400D01*
X001074Y018421D01*
X001024Y018445D01*
X000975Y018474D01*
X000929Y018505D01*
X000885Y018540D01*
X000843Y018577D01*
X000805Y018618D01*
X000769Y018661D01*
X000736Y018706D01*
X000706Y018754D01*
X001401Y018351D02*
X001454Y018353D01*
X001508Y018358D01*
X001560Y018367D01*
X001612Y018379D01*
X001663Y018395D01*
X001713Y018414D01*
X001762Y018437D01*
X001809Y018463D01*
X001854Y018491D01*
X001897Y018523D01*
X001937Y018557D01*
X001976Y018595D01*
X002012Y018634D01*
X001401Y019951D02*
X001347Y019949D01*
X001293Y019944D01*
X001240Y019935D01*
X001187Y019922D01*
X001136Y019906D01*
X001086Y019886D01*
X001037Y019863D01*
X000989Y019837D01*
X000944Y019808D01*
X000901Y019775D01*
X000860Y019740D01*
X000821Y019702D01*
X000785Y019662D01*
X000752Y019619D01*
X000722Y019574D01*
X000695Y019527D01*
X001401Y019951D02*
X001455Y019949D01*
X001508Y019944D01*
X001562Y019935D01*
X001614Y019922D01*
X001665Y019906D01*
X001716Y019886D01*
X001765Y019864D01*
X001812Y019838D01*
X001857Y019808D01*
X001900Y019776D01*
X001941Y019741D01*
X001980Y019703D01*
X002016Y019663D01*
X001401Y020351D02*
X001454Y020353D01*
X001508Y020358D01*
X001560Y020367D01*
X001612Y020379D01*
X001663Y020395D01*
X001713Y020414D01*
X001762Y020437D01*
X001809Y020463D01*
X001854Y020491D01*
X001897Y020523D01*
X001937Y020557D01*
X001976Y020595D01*
X002012Y020634D01*
X001401Y021951D02*
X001347Y021949D01*
X001293Y021944D01*
X001240Y021935D01*
X001187Y021922D01*
X001136Y021906D01*
X001086Y021886D01*
X001037Y021863D01*
X000989Y021837D01*
X000944Y021808D01*
X000901Y021775D01*
X000860Y021740D01*
X000821Y021702D01*
X000785Y021662D01*
X000752Y021619D01*
X000722Y021574D01*
X000695Y021527D01*
X000706Y020754D02*
X000736Y020706D01*
X000769Y020661D01*
X000805Y020618D01*
X000843Y020577D01*
X000885Y020540D01*
X000929Y020505D01*
X000975Y020474D01*
X001024Y020445D01*
X001074Y020421D01*
X001126Y020400D01*
X001180Y020382D01*
X001234Y020369D01*
X001289Y020359D01*
X001345Y020353D01*
X001401Y020351D01*
X002016Y021663D02*
X001980Y021703D01*
X001941Y021741D01*
X001900Y021776D01*
X001857Y021808D01*
X001812Y021838D01*
X001765Y021864D01*
X001716Y021886D01*
X001665Y021906D01*
X001614Y021922D01*
X001562Y021935D01*
X001508Y021944D01*
X001455Y021949D01*
X001401Y021951D01*
X001401Y022351D02*
X001345Y022353D01*
X001289Y022359D01*
X001234Y022369D01*
X001180Y022382D01*
X001126Y022400D01*
X001074Y022421D01*
X001024Y022445D01*
X000975Y022474D01*
X000929Y022505D01*
X000885Y022540D01*
X000843Y022577D01*
X000805Y022618D01*
X000769Y022661D01*
X000736Y022706D01*
X000706Y022754D01*
X001401Y022351D02*
X001454Y022353D01*
X001508Y022358D01*
X001560Y022367D01*
X001612Y022379D01*
X001663Y022395D01*
X001713Y022414D01*
X001762Y022437D01*
X001809Y022463D01*
X001854Y022491D01*
X001897Y022523D01*
X001937Y022557D01*
X001976Y022595D01*
X002012Y022634D01*
X001401Y023951D02*
X001347Y023949D01*
X001293Y023944D01*
X001240Y023935D01*
X001187Y023922D01*
X001136Y023906D01*
X001086Y023886D01*
X001037Y023863D01*
X000989Y023837D01*
X000944Y023808D01*
X000901Y023775D01*
X000860Y023740D01*
X000821Y023702D01*
X000785Y023662D01*
X000752Y023619D01*
X000722Y023574D01*
X000695Y023527D01*
X001401Y023951D02*
X001455Y023949D01*
X001508Y023944D01*
X001562Y023935D01*
X001614Y023922D01*
X001665Y023906D01*
X001716Y023886D01*
X001765Y023864D01*
X001812Y023838D01*
X001857Y023808D01*
X001900Y023776D01*
X001941Y023741D01*
X001980Y023703D01*
X002016Y023663D01*
X001004Y012346D02*
X000956Y012316D01*
X000911Y012283D01*
X000868Y012247D01*
X000827Y012209D01*
X000790Y012167D01*
X000755Y012123D01*
X000724Y012077D01*
X000695Y012028D01*
X000671Y011978D01*
X000650Y011926D01*
X000632Y011872D01*
X000619Y011818D01*
X000609Y011763D01*
X000603Y011707D01*
X000601Y011651D01*
X000603Y011598D01*
X000608Y011544D01*
X000617Y011492D01*
X000629Y011440D01*
X000645Y011389D01*
X000664Y011339D01*
X000687Y011290D01*
X000713Y011243D01*
X000741Y011198D01*
X000773Y011155D01*
X000807Y011115D01*
X000845Y011076D01*
X000884Y011040D01*
X002201Y011651D02*
X002199Y011705D01*
X002194Y011759D01*
X002185Y011812D01*
X002172Y011865D01*
X002156Y011916D01*
X002136Y011966D01*
X002113Y012015D01*
X002087Y012063D01*
X002058Y012108D01*
X002025Y012151D01*
X001990Y012192D01*
X001952Y012231D01*
X001912Y012267D01*
X001869Y012300D01*
X001824Y012330D01*
X001777Y012357D01*
X002201Y011651D02*
X002199Y011597D01*
X002194Y011544D01*
X002185Y011490D01*
X002172Y011438D01*
X002156Y011387D01*
X002136Y011336D01*
X002114Y011287D01*
X002088Y011240D01*
X002058Y011195D01*
X002026Y011152D01*
X001991Y011111D01*
X001953Y011072D01*
X001913Y011036D01*
X004277Y012357D02*
X004324Y012330D01*
X004369Y012300D01*
X004412Y012267D01*
X004452Y012231D01*
X004490Y012192D01*
X004525Y012151D01*
X004558Y012108D01*
X004587Y012063D01*
X004613Y012015D01*
X004636Y011966D01*
X004656Y011916D01*
X004672Y011865D01*
X004685Y011812D01*
X004694Y011759D01*
X004699Y011705D01*
X004701Y011651D01*
X003504Y012346D02*
X003456Y012316D01*
X003411Y012283D01*
X003368Y012247D01*
X003327Y012209D01*
X003290Y012167D01*
X003255Y012123D01*
X003224Y012077D01*
X003195Y012028D01*
X003171Y011978D01*
X003150Y011926D01*
X003132Y011872D01*
X003119Y011818D01*
X003109Y011763D01*
X003103Y011707D01*
X003101Y011651D01*
X003103Y011598D01*
X003108Y011544D01*
X003117Y011492D01*
X003129Y011440D01*
X003145Y011389D01*
X003164Y011339D01*
X003187Y011290D01*
X003213Y011243D01*
X003241Y011198D01*
X003273Y011155D01*
X003307Y011115D01*
X003345Y011076D01*
X003384Y011040D01*
X004413Y011036D02*
X004453Y011072D01*
X004491Y011111D01*
X004526Y011152D01*
X004558Y011195D01*
X004588Y011240D01*
X004614Y011287D01*
X004636Y011336D01*
X004656Y011387D01*
X004672Y011438D01*
X004685Y011490D01*
X004694Y011544D01*
X004699Y011597D01*
X004701Y011651D01*
D15*
X005151Y014501D02*
X005151Y015376D01*
X005183Y015378D01*
X005214Y015383D01*
X005245Y015393D01*
X005274Y015405D01*
X005302Y015421D01*
X005328Y015440D01*
X005351Y015462D01*
X005372Y015487D01*
X005389Y015513D01*
X005404Y015542D01*
X005414Y015572D01*
X005422Y015603D01*
X005426Y015635D01*
X005426Y015667D01*
X005422Y015699D01*
X005414Y015730D01*
X005404Y015760D01*
X005389Y015788D01*
X005372Y015815D01*
X005351Y015840D01*
X005328Y015862D01*
X005302Y015881D01*
X005274Y015897D01*
X005245Y015909D01*
X005214Y015919D01*
X005183Y015924D01*
X005151Y015926D01*
X005151Y016801D01*
X015151Y016801D01*
X015151Y014501D01*
X005151Y014501D01*
D16*
X002801Y024606D02*
X002801Y024764D01*
X002251Y024827D02*
X002251Y026476D01*
X002801Y026538D02*
X002801Y026696D01*
X002801Y025764D02*
X002801Y025538D01*
X002251Y026476D02*
X002299Y026511D01*
X002349Y026544D01*
X002401Y026575D01*
X002455Y026602D01*
X002510Y026626D01*
X002567Y026646D01*
X002624Y026664D01*
X002682Y026678D01*
X002741Y026689D01*
X002801Y026696D01*
X003904Y025341D02*
X003884Y025281D01*
X003860Y025222D01*
X003832Y025165D01*
X003801Y025110D01*
X003766Y025056D01*
X003729Y025005D01*
X003688Y024956D01*
X003644Y024910D01*
X003598Y024866D01*
X003549Y024825D01*
X003498Y024787D01*
X003445Y024753D01*
X003389Y024721D01*
X003332Y024694D01*
X003273Y024669D01*
X003213Y024649D01*
X003152Y024631D01*
X003090Y024618D01*
X003027Y024609D01*
X002964Y024603D01*
X002900Y024601D01*
X002836Y024603D01*
X002773Y024609D01*
X002710Y024618D01*
X002648Y024632D01*
X002587Y024649D01*
X002527Y024670D01*
X002468Y024694D01*
X002411Y024722D01*
X002355Y024754D01*
X002302Y024789D01*
X002251Y024826D01*
X002801Y026696D02*
X002863Y026700D01*
X002926Y026701D01*
X002988Y026697D01*
X003050Y026690D01*
X003111Y026680D01*
X003172Y026665D01*
X003232Y026647D01*
X003291Y026626D01*
X003348Y026601D01*
X003403Y026573D01*
X003457Y026542D01*
X003509Y026507D01*
X003559Y026469D01*
X003606Y026429D01*
X003651Y026385D01*
X003694Y026340D01*
X003733Y026291D01*
X003770Y026241D01*
X003803Y026188D01*
X003834Y026134D01*
X003861Y026077D01*
X003884Y026020D01*
X003904Y025961D01*
X001904Y025341D02*
X001884Y025281D01*
X001860Y025222D01*
X001832Y025165D01*
X001801Y025110D01*
X001766Y025056D01*
X001729Y025005D01*
X001688Y024956D01*
X001644Y024910D01*
X001598Y024866D01*
X001549Y024825D01*
X001498Y024787D01*
X001445Y024753D01*
X001389Y024721D01*
X001332Y024694D01*
X001273Y024669D01*
X001213Y024649D01*
X001152Y024631D01*
X001090Y024618D01*
X001027Y024609D01*
X000964Y024603D01*
X000900Y024601D01*
X000836Y024603D01*
X000773Y024609D01*
X000710Y024618D01*
X000648Y024632D01*
X000587Y024649D01*
X000527Y024670D01*
X000468Y024694D01*
X000411Y024722D01*
X000355Y024754D01*
X000302Y024789D01*
X000251Y024826D01*
X000251Y024827D02*
X000251Y026476D01*
X000801Y026538D02*
X000801Y026696D01*
X000801Y025764D02*
X000801Y025538D01*
X000251Y026476D02*
X000299Y026511D01*
X000349Y026544D01*
X000401Y026575D01*
X000455Y026602D01*
X000510Y026626D01*
X000567Y026646D01*
X000624Y026664D01*
X000682Y026678D01*
X000741Y026689D01*
X000801Y026696D01*
X000863Y026700D01*
X000926Y026701D01*
X000988Y026697D01*
X001050Y026690D01*
X001111Y026680D01*
X001172Y026665D01*
X001232Y026647D01*
X001291Y026626D01*
X001348Y026601D01*
X001403Y026573D01*
X001457Y026542D01*
X001509Y026507D01*
X001559Y026469D01*
X001606Y026429D01*
X001651Y026385D01*
X001694Y026340D01*
X001733Y026291D01*
X001770Y026241D01*
X001803Y026188D01*
X001834Y026134D01*
X001861Y026077D01*
X001884Y026020D01*
X001904Y025961D01*
X000801Y024764D02*
X000801Y024606D01*
X015356Y017051D02*
X015514Y017051D01*
X015577Y016501D02*
X017226Y016501D01*
X017288Y017051D02*
X017446Y017051D01*
X017856Y017051D02*
X018014Y017051D01*
X018077Y016501D02*
X019726Y016501D01*
X019788Y017051D02*
X019946Y017051D01*
X019014Y017051D02*
X018788Y017051D01*
X018076Y016501D02*
X018041Y016549D01*
X018008Y016599D01*
X017977Y016651D01*
X017950Y016705D01*
X017926Y016760D01*
X017906Y016817D01*
X017888Y016874D01*
X017874Y016932D01*
X017863Y016991D01*
X017856Y017051D01*
X019211Y018154D02*
X019271Y018134D01*
X019330Y018110D01*
X019387Y018082D01*
X019442Y018051D01*
X019496Y018016D01*
X019547Y017979D01*
X019596Y017938D01*
X019642Y017894D01*
X019686Y017848D01*
X019727Y017799D01*
X019765Y017748D01*
X019799Y017695D01*
X019831Y017639D01*
X019858Y017582D01*
X019883Y017523D01*
X019903Y017463D01*
X019921Y017402D01*
X019934Y017340D01*
X019943Y017277D01*
X019949Y017214D01*
X019951Y017150D01*
X019949Y017086D01*
X019943Y017023D01*
X019934Y016960D01*
X019920Y016898D01*
X019903Y016837D01*
X019882Y016777D01*
X019858Y016718D01*
X019830Y016661D01*
X019798Y016605D01*
X019763Y016552D01*
X019726Y016501D01*
X017856Y017051D02*
X017852Y017113D01*
X017851Y017176D01*
X017855Y017238D01*
X017862Y017300D01*
X017872Y017361D01*
X017887Y017422D01*
X017905Y017482D01*
X017926Y017541D01*
X017951Y017598D01*
X017979Y017653D01*
X018010Y017707D01*
X018045Y017759D01*
X018083Y017809D01*
X018123Y017856D01*
X018167Y017901D01*
X018212Y017944D01*
X018261Y017983D01*
X018311Y018020D01*
X018364Y018053D01*
X018418Y018084D01*
X018475Y018111D01*
X018532Y018134D01*
X018591Y018154D01*
X016514Y017051D02*
X016288Y017051D01*
X015576Y016501D02*
X015541Y016549D01*
X015508Y016599D01*
X015477Y016651D01*
X015450Y016705D01*
X015426Y016760D01*
X015406Y016817D01*
X015388Y016874D01*
X015374Y016932D01*
X015363Y016991D01*
X015356Y017051D01*
X016711Y018154D02*
X016771Y018134D01*
X016830Y018110D01*
X016887Y018082D01*
X016942Y018051D01*
X016996Y018016D01*
X017047Y017979D01*
X017096Y017938D01*
X017142Y017894D01*
X017186Y017848D01*
X017227Y017799D01*
X017265Y017748D01*
X017299Y017695D01*
X017331Y017639D01*
X017358Y017582D01*
X017383Y017523D01*
X017403Y017463D01*
X017421Y017402D01*
X017434Y017340D01*
X017443Y017277D01*
X017449Y017214D01*
X017451Y017150D01*
X017449Y017086D01*
X017443Y017023D01*
X017434Y016960D01*
X017420Y016898D01*
X017403Y016837D01*
X017382Y016777D01*
X017358Y016718D01*
X017330Y016661D01*
X017298Y016605D01*
X017263Y016552D01*
X017226Y016501D01*
X015356Y017051D02*
X015352Y017113D01*
X015351Y017176D01*
X015355Y017238D01*
X015362Y017300D01*
X015372Y017361D01*
X015387Y017422D01*
X015405Y017482D01*
X015426Y017541D01*
X015451Y017598D01*
X015479Y017653D01*
X015510Y017707D01*
X015545Y017759D01*
X015583Y017809D01*
X015623Y017856D01*
X015667Y017901D01*
X015712Y017944D01*
X015761Y017983D01*
X015811Y018020D01*
X015864Y018053D01*
X015918Y018084D01*
X015975Y018111D01*
X016032Y018134D01*
X016091Y018154D01*
X016801Y024606D02*
X016801Y024764D01*
X016251Y024827D02*
X016251Y026476D01*
X016801Y026538D02*
X016801Y026696D01*
X016801Y025764D02*
X016801Y025538D01*
X016251Y026476D02*
X016299Y026511D01*
X016349Y026544D01*
X016401Y026575D01*
X016455Y026602D01*
X016510Y026626D01*
X016567Y026646D01*
X016624Y026664D01*
X016682Y026678D01*
X016741Y026689D01*
X016801Y026696D01*
X017904Y025341D02*
X017884Y025281D01*
X017860Y025222D01*
X017832Y025165D01*
X017801Y025110D01*
X017766Y025056D01*
X017729Y025005D01*
X017688Y024956D01*
X017644Y024910D01*
X017598Y024866D01*
X017549Y024825D01*
X017498Y024787D01*
X017445Y024753D01*
X017389Y024721D01*
X017332Y024694D01*
X017273Y024669D01*
X017213Y024649D01*
X017152Y024631D01*
X017090Y024618D01*
X017027Y024609D01*
X016964Y024603D01*
X016900Y024601D01*
X016836Y024603D01*
X016773Y024609D01*
X016710Y024618D01*
X016648Y024632D01*
X016587Y024649D01*
X016527Y024670D01*
X016468Y024694D01*
X016411Y024722D01*
X016355Y024754D01*
X016302Y024789D01*
X016251Y024826D01*
X016801Y026696D02*
X016863Y026700D01*
X016926Y026701D01*
X016988Y026697D01*
X017050Y026690D01*
X017111Y026680D01*
X017172Y026665D01*
X017232Y026647D01*
X017291Y026626D01*
X017348Y026601D01*
X017403Y026573D01*
X017457Y026542D01*
X017509Y026507D01*
X017559Y026469D01*
X017606Y026429D01*
X017651Y026385D01*
X017694Y026340D01*
X017733Y026291D01*
X017770Y026241D01*
X017803Y026188D01*
X017834Y026134D01*
X017861Y026077D01*
X017884Y026020D01*
X017904Y025961D01*
X018251Y026476D02*
X018251Y024827D01*
X018801Y024764D02*
X018801Y024606D01*
X018801Y025538D02*
X018801Y025764D01*
X018251Y024826D02*
X018302Y024789D01*
X018355Y024754D01*
X018411Y024722D01*
X018468Y024694D01*
X018527Y024670D01*
X018587Y024649D01*
X018648Y024632D01*
X018710Y024618D01*
X018773Y024609D01*
X018836Y024603D01*
X018900Y024601D01*
X018964Y024603D01*
X019027Y024609D01*
X019090Y024618D01*
X019152Y024631D01*
X019213Y024649D01*
X019273Y024669D01*
X019332Y024694D01*
X019389Y024721D01*
X019445Y024753D01*
X019498Y024787D01*
X019549Y024825D01*
X019598Y024866D01*
X019644Y024910D01*
X019688Y024956D01*
X019729Y025005D01*
X019766Y025056D01*
X019801Y025110D01*
X019832Y025165D01*
X019860Y025222D01*
X019884Y025281D01*
X019904Y025341D01*
X019904Y025961D02*
X019884Y026020D01*
X019861Y026077D01*
X019834Y026134D01*
X019803Y026188D01*
X019770Y026241D01*
X019733Y026291D01*
X019694Y026340D01*
X019651Y026385D01*
X019606Y026429D01*
X019559Y026469D01*
X019509Y026507D01*
X019457Y026542D01*
X019403Y026573D01*
X019348Y026601D01*
X019291Y026626D01*
X019232Y026647D01*
X019172Y026665D01*
X019111Y026680D01*
X019050Y026690D01*
X018988Y026697D01*
X018926Y026701D01*
X018863Y026700D01*
X018801Y026696D01*
X018801Y026538D01*
X018801Y026696D02*
X018741Y026689D01*
X018682Y026678D01*
X018624Y026664D01*
X018567Y026646D01*
X018510Y026626D01*
X018455Y026602D01*
X018401Y026575D01*
X018349Y026544D01*
X018299Y026511D01*
X018251Y026476D01*
D17*
X017651Y022071D03*
X016651Y022071D03*
X015651Y022071D03*
X014651Y022071D03*
X013651Y022071D03*
X012651Y022071D03*
X011651Y022071D03*
X010651Y022071D03*
X009651Y022071D03*
X008651Y022071D03*
X007651Y022071D03*
X006651Y022071D03*
X005651Y022071D03*
X004651Y022071D03*
X004651Y019231D03*
X005651Y019231D03*
X006651Y019231D03*
X007651Y019231D03*
X008651Y019231D03*
X009651Y019231D03*
X010651Y019231D03*
X011651Y019231D03*
X012651Y019231D03*
X013651Y019231D03*
X014651Y019231D03*
X015651Y019231D03*
X016651Y019231D03*
X017651Y019231D03*
D18*
X018295Y018862D02*
X018295Y023441D01*
X020007Y023441D01*
X020007Y018862D01*
X018295Y018862D01*
X018045Y009941D02*
X018045Y005362D01*
X019757Y005362D01*
X019757Y009941D01*
X018045Y009941D01*
X017257Y009941D02*
X017257Y005362D01*
X015545Y005362D01*
X015545Y009941D01*
X017257Y009941D01*
X014757Y009941D02*
X014757Y005362D01*
X013045Y005362D01*
X013045Y009941D01*
X014757Y009941D01*
X012257Y009941D02*
X012257Y005362D01*
X010545Y005362D01*
X010545Y009941D01*
X012257Y009941D01*
X009757Y009941D02*
X009757Y005362D01*
X008045Y005362D01*
X008045Y009941D01*
X009757Y009941D01*
X007257Y009941D02*
X007257Y005362D01*
X005545Y005362D01*
X005545Y009941D01*
X007257Y009941D01*
X004757Y009941D02*
X004757Y005362D01*
X003045Y005362D01*
X003045Y009941D01*
X004757Y009941D01*
X002257Y009941D02*
X002257Y005362D01*
X000545Y005362D01*
X000545Y009941D01*
X002257Y009941D01*
X001271Y001901D02*
X001273Y001951D01*
X001279Y002001D01*
X001289Y002050D01*
X001303Y002098D01*
X001320Y002145D01*
X001341Y002190D01*
X001366Y002234D01*
X001394Y002275D01*
X001426Y002314D01*
X001460Y002351D01*
X001497Y002385D01*
X001537Y002415D01*
X001579Y002442D01*
X001623Y002466D01*
X001669Y002487D01*
X001716Y002503D01*
X001764Y002516D01*
X001814Y002525D01*
X001863Y002530D01*
X001914Y002531D01*
X001964Y002528D01*
X002013Y002521D01*
X002062Y002510D01*
X002110Y002495D01*
X002156Y002477D01*
X002201Y002455D01*
X002244Y002429D01*
X002285Y002400D01*
X002324Y002368D01*
X002360Y002333D01*
X002392Y002295D01*
X002422Y002255D01*
X002449Y002212D01*
X002472Y002168D01*
X002491Y002122D01*
X002507Y002074D01*
X002519Y002025D01*
X002527Y001976D01*
X002531Y001926D01*
X002531Y001876D01*
X002527Y001826D01*
X002519Y001777D01*
X002507Y001728D01*
X002491Y001680D01*
X002472Y001634D01*
X002449Y001590D01*
X002422Y001547D01*
X002392Y001507D01*
X002360Y001469D01*
X002324Y001434D01*
X002285Y001402D01*
X002244Y001373D01*
X002201Y001347D01*
X002156Y001325D01*
X002110Y001307D01*
X002062Y001292D01*
X002013Y001281D01*
X001964Y001274D01*
X001914Y001271D01*
X001863Y001272D01*
X001814Y001277D01*
X001764Y001286D01*
X001716Y001299D01*
X001669Y001315D01*
X001623Y001336D01*
X001579Y001360D01*
X001537Y001387D01*
X001497Y001417D01*
X001460Y001451D01*
X001426Y001488D01*
X001394Y001527D01*
X001366Y001568D01*
X001341Y001612D01*
X001320Y001657D01*
X001303Y001704D01*
X001289Y001752D01*
X001279Y001801D01*
X001273Y001851D01*
X001271Y001901D01*
X017771Y001901D02*
X017773Y001951D01*
X017779Y002001D01*
X017789Y002050D01*
X017803Y002098D01*
X017820Y002145D01*
X017841Y002190D01*
X017866Y002234D01*
X017894Y002275D01*
X017926Y002314D01*
X017960Y002351D01*
X017997Y002385D01*
X018037Y002415D01*
X018079Y002442D01*
X018123Y002466D01*
X018169Y002487D01*
X018216Y002503D01*
X018264Y002516D01*
X018314Y002525D01*
X018363Y002530D01*
X018414Y002531D01*
X018464Y002528D01*
X018513Y002521D01*
X018562Y002510D01*
X018610Y002495D01*
X018656Y002477D01*
X018701Y002455D01*
X018744Y002429D01*
X018785Y002400D01*
X018824Y002368D01*
X018860Y002333D01*
X018892Y002295D01*
X018922Y002255D01*
X018949Y002212D01*
X018972Y002168D01*
X018991Y002122D01*
X019007Y002074D01*
X019019Y002025D01*
X019027Y001976D01*
X019031Y001926D01*
X019031Y001876D01*
X019027Y001826D01*
X019019Y001777D01*
X019007Y001728D01*
X018991Y001680D01*
X018972Y001634D01*
X018949Y001590D01*
X018922Y001547D01*
X018892Y001507D01*
X018860Y001469D01*
X018824Y001434D01*
X018785Y001402D01*
X018744Y001373D01*
X018701Y001347D01*
X018656Y001325D01*
X018610Y001307D01*
X018562Y001292D01*
X018513Y001281D01*
X018464Y001274D01*
X018414Y001271D01*
X018363Y001272D01*
X018314Y001277D01*
X018264Y001286D01*
X018216Y001299D01*
X018169Y001315D01*
X018123Y001336D01*
X018079Y001360D01*
X018037Y001387D01*
X017997Y001417D01*
X017960Y001451D01*
X017926Y001488D01*
X017894Y001527D01*
X017866Y001568D01*
X017841Y001612D01*
X017820Y001657D01*
X017803Y001704D01*
X017789Y001752D01*
X017779Y001801D01*
X017773Y001851D01*
X017771Y001901D01*
X017771Y028401D02*
X017773Y028451D01*
X017779Y028501D01*
X017789Y028550D01*
X017803Y028598D01*
X017820Y028645D01*
X017841Y028690D01*
X017866Y028734D01*
X017894Y028775D01*
X017926Y028814D01*
X017960Y028851D01*
X017997Y028885D01*
X018037Y028915D01*
X018079Y028942D01*
X018123Y028966D01*
X018169Y028987D01*
X018216Y029003D01*
X018264Y029016D01*
X018314Y029025D01*
X018363Y029030D01*
X018414Y029031D01*
X018464Y029028D01*
X018513Y029021D01*
X018562Y029010D01*
X018610Y028995D01*
X018656Y028977D01*
X018701Y028955D01*
X018744Y028929D01*
X018785Y028900D01*
X018824Y028868D01*
X018860Y028833D01*
X018892Y028795D01*
X018922Y028755D01*
X018949Y028712D01*
X018972Y028668D01*
X018991Y028622D01*
X019007Y028574D01*
X019019Y028525D01*
X019027Y028476D01*
X019031Y028426D01*
X019031Y028376D01*
X019027Y028326D01*
X019019Y028277D01*
X019007Y028228D01*
X018991Y028180D01*
X018972Y028134D01*
X018949Y028090D01*
X018922Y028047D01*
X018892Y028007D01*
X018860Y027969D01*
X018824Y027934D01*
X018785Y027902D01*
X018744Y027873D01*
X018701Y027847D01*
X018656Y027825D01*
X018610Y027807D01*
X018562Y027792D01*
X018513Y027781D01*
X018464Y027774D01*
X018414Y027771D01*
X018363Y027772D01*
X018314Y027777D01*
X018264Y027786D01*
X018216Y027799D01*
X018169Y027815D01*
X018123Y027836D01*
X018079Y027860D01*
X018037Y027887D01*
X017997Y027917D01*
X017960Y027951D01*
X017926Y027988D01*
X017894Y028027D01*
X017866Y028068D01*
X017841Y028112D01*
X017820Y028157D01*
X017803Y028204D01*
X017789Y028252D01*
X017779Y028301D01*
X017773Y028351D01*
X017771Y028401D01*
X001271Y028401D02*
X001273Y028451D01*
X001279Y028501D01*
X001289Y028550D01*
X001303Y028598D01*
X001320Y028645D01*
X001341Y028690D01*
X001366Y028734D01*
X001394Y028775D01*
X001426Y028814D01*
X001460Y028851D01*
X001497Y028885D01*
X001537Y028915D01*
X001579Y028942D01*
X001623Y028966D01*
X001669Y028987D01*
X001716Y029003D01*
X001764Y029016D01*
X001814Y029025D01*
X001863Y029030D01*
X001914Y029031D01*
X001964Y029028D01*
X002013Y029021D01*
X002062Y029010D01*
X002110Y028995D01*
X002156Y028977D01*
X002201Y028955D01*
X002244Y028929D01*
X002285Y028900D01*
X002324Y028868D01*
X002360Y028833D01*
X002392Y028795D01*
X002422Y028755D01*
X002449Y028712D01*
X002472Y028668D01*
X002491Y028622D01*
X002507Y028574D01*
X002519Y028525D01*
X002527Y028476D01*
X002531Y028426D01*
X002531Y028376D01*
X002527Y028326D01*
X002519Y028277D01*
X002507Y028228D01*
X002491Y028180D01*
X002472Y028134D01*
X002449Y028090D01*
X002422Y028047D01*
X002392Y028007D01*
X002360Y027969D01*
X002324Y027934D01*
X002285Y027902D01*
X002244Y027873D01*
X002201Y027847D01*
X002156Y027825D01*
X002110Y027807D01*
X002062Y027792D01*
X002013Y027781D01*
X001964Y027774D01*
X001914Y027771D01*
X001863Y027772D01*
X001814Y027777D01*
X001764Y027786D01*
X001716Y027799D01*
X001669Y027815D01*
X001623Y027836D01*
X001579Y027860D01*
X001537Y027887D01*
X001497Y027917D01*
X001460Y027951D01*
X001426Y027988D01*
X001394Y028027D01*
X001366Y028068D01*
X001341Y028112D01*
X001320Y028157D01*
X001303Y028204D01*
X001289Y028252D01*
X001279Y028301D01*
X001273Y028351D01*
X001271Y028401D01*
D19*
X002151Y015851D02*
X002151Y015751D01*
X003151Y015751D01*
X003151Y015851D01*
X003101Y013551D02*
X002151Y013551D01*
X002151Y013451D01*
X003101Y013451D02*
X003101Y013551D01*
X017151Y013551D02*
X017151Y013451D01*
X017151Y013551D02*
X018101Y013551D01*
X018101Y013451D01*
X018151Y015751D02*
X017151Y015751D01*
X017151Y015851D01*
X018151Y015851D02*
X018151Y015751D01*
M02*
