%
M48
M72
T01C0.0197
T02C0.0276
T03C0.0315
T04C0.0320
T05C0.0400
T06C0.0472
T07C0.1260
%
T01
X7651Y26651
X9651Y25151
X9651Y22151
X8651Y21651
X7651Y21151
X11651Y26651
X12651Y25151
X12151Y24401
X14901Y22026
X15401Y22026
X17651Y20776
X5151Y11651
X1401Y12901
T02
X7651Y23901
X8651Y23901
X9651Y23901
X10651Y23901
X11651Y23901
X12651Y23901
X12651Y27901
X11651Y27901
X10651Y27901
X9651Y27901
X8651Y27901
X7651Y27901
T03
X9757Y28776
X10545Y28776
X14651Y15651
X5651Y15651
T04
X18901Y26151
X19651Y25651
X18901Y25151
X17651Y25651
X16901Y25151
X16901Y26151
X901Y26151
X1651Y25651
X901Y25151
X901Y23151
X1901Y23151
X2901Y25151
X3651Y25651
X2901Y26151
X4651Y22651
X5651Y22651
X6651Y22651
X7651Y22651
X8651Y22651
X9651Y22651
X10651Y22651
X11651Y22651
X12651Y22651
X13651Y22651
X14651Y22651
X15651Y22651
X16651Y22651
X17651Y22651
X17651Y18651
X16651Y18651
X16401Y17901
X15901Y17151
X16901Y17151
X15651Y18651
X14651Y18651
X13651Y18651
X12651Y18651
X11651Y18651
X10651Y18651
X9651Y18651
X8651Y18651
X7651Y18651
X6651Y18651
X5651Y18651
X4651Y18651
X4651Y17651
X4651Y16651
X5651Y17151
X6651Y17151
X7651Y17151
X8651Y17151
X9651Y17151
X10651Y17151
X11651Y17151
X12651Y17151
X13651Y17151
X14651Y17151
X14651Y14151
X13651Y14151
X12651Y14151
X11651Y14151
X10651Y14151
X9651Y14151
X8651Y14151
X7651Y14151
X6651Y14151
X5651Y14151
X6401Y12151
X6401Y11151
X3901Y11151
X3901Y12151
X1401Y12151
X1401Y11151
X901Y17151
X1901Y17151
X1901Y19151
X901Y19151
X901Y21151
X1901Y21151
X8901Y12151
X8901Y11151
X11401Y11151
X11401Y12151
X13901Y12151
X13901Y11151
X16401Y11151
X16401Y12151
X18901Y12151
X18901Y11151
X18401Y17151
X18901Y17901
X19401Y17151
X13651Y4901
X12651Y4901
X11651Y4901
X10651Y4901
X9651Y4901
X8651Y4901
X7651Y4901
X6651Y4901
X6651Y901
X7651Y901
X8651Y901
X9651Y901
X10651Y901
X11651Y901
X12651Y901
X13651Y901
T05
X1401Y6651
X1401Y7651
X1401Y8651
X3901Y8651
X3901Y7651
X3901Y6651
X6401Y6651
X6401Y7651
X6401Y8651
X8901Y8651
X8901Y7651
X8901Y6651
X11401Y6651
X11401Y7651
X11401Y8651
X13901Y8651
X13901Y7651
X13901Y6651
X16401Y6651
X16401Y7651
X16401Y8651
X18901Y8651
X18901Y7651
X18901Y6651
X18931Y13761
X18931Y15541
X16371Y15541
X16371Y13761
X19151Y20151
X19151Y21151
X19151Y22151
X3931Y15541
X3931Y13761
X1371Y13761
X1371Y15541
T06
X7911Y29006
X12391Y29006
T07
X1901Y1901
X18401Y1901
X18401Y28401
X1901Y28401
M30
