G75*
G70*
%OFA0B0*%
%FSLAX24Y24*%
%IPPOS*%
%LPD*%
%AMOC8*
5,1,8,0,0,1.08239X$1,22.5*
%
%ADD10C,0.0000*%
%ADD11C,0.0050*%
%ADD12C,0.0080*%
%ADD13C,0.0060*%
%ADD14C,0.0040*%
D10*
X000151Y001901D02*
X000151Y028401D01*
X001271Y028401D02*
X001273Y028451D01*
X001279Y028501D01*
X001289Y028550D01*
X001303Y028598D01*
X001320Y028645D01*
X001341Y028690D01*
X001366Y028734D01*
X001394Y028775D01*
X001426Y028814D01*
X001460Y028851D01*
X001497Y028885D01*
X001537Y028915D01*
X001579Y028942D01*
X001623Y028966D01*
X001669Y028987D01*
X001716Y029003D01*
X001764Y029016D01*
X001814Y029025D01*
X001863Y029030D01*
X001914Y029031D01*
X001964Y029028D01*
X002013Y029021D01*
X002062Y029010D01*
X002110Y028995D01*
X002156Y028977D01*
X002201Y028955D01*
X002244Y028929D01*
X002285Y028900D01*
X002324Y028868D01*
X002360Y028833D01*
X002392Y028795D01*
X002422Y028755D01*
X002449Y028712D01*
X002472Y028668D01*
X002491Y028622D01*
X002507Y028574D01*
X002519Y028525D01*
X002527Y028476D01*
X002531Y028426D01*
X002531Y028376D01*
X002527Y028326D01*
X002519Y028277D01*
X002507Y028228D01*
X002491Y028180D01*
X002472Y028134D01*
X002449Y028090D01*
X002422Y028047D01*
X002392Y028007D01*
X002360Y027969D01*
X002324Y027934D01*
X002285Y027902D01*
X002244Y027873D01*
X002201Y027847D01*
X002156Y027825D01*
X002110Y027807D01*
X002062Y027792D01*
X002013Y027781D01*
X001964Y027774D01*
X001914Y027771D01*
X001863Y027772D01*
X001814Y027777D01*
X001764Y027786D01*
X001716Y027799D01*
X001669Y027815D01*
X001623Y027836D01*
X001579Y027860D01*
X001537Y027887D01*
X001497Y027917D01*
X001460Y027951D01*
X001426Y027988D01*
X001394Y028027D01*
X001366Y028068D01*
X001341Y028112D01*
X001320Y028157D01*
X001303Y028204D01*
X001289Y028252D01*
X001279Y028301D01*
X001273Y028351D01*
X001271Y028401D01*
X000151Y028401D02*
X000153Y028484D01*
X000159Y028567D01*
X000169Y028650D01*
X000183Y028732D01*
X000200Y028814D01*
X000222Y028894D01*
X000247Y028973D01*
X000276Y029051D01*
X000309Y029128D01*
X000346Y029203D01*
X000385Y029276D01*
X000429Y029347D01*
X000475Y029416D01*
X000525Y029483D01*
X000578Y029547D01*
X000634Y029609D01*
X000693Y029668D01*
X000755Y029724D01*
X000819Y029777D01*
X000886Y029827D01*
X000955Y029873D01*
X001026Y029917D01*
X001099Y029956D01*
X001174Y029993D01*
X001251Y030026D01*
X001329Y030055D01*
X001408Y030080D01*
X001488Y030102D01*
X001570Y030119D01*
X001652Y030133D01*
X001735Y030143D01*
X001818Y030149D01*
X001901Y030151D01*
X018401Y030151D01*
X017771Y028401D02*
X017773Y028451D01*
X017779Y028501D01*
X017789Y028550D01*
X017803Y028598D01*
X017820Y028645D01*
X017841Y028690D01*
X017866Y028734D01*
X017894Y028775D01*
X017926Y028814D01*
X017960Y028851D01*
X017997Y028885D01*
X018037Y028915D01*
X018079Y028942D01*
X018123Y028966D01*
X018169Y028987D01*
X018216Y029003D01*
X018264Y029016D01*
X018314Y029025D01*
X018363Y029030D01*
X018414Y029031D01*
X018464Y029028D01*
X018513Y029021D01*
X018562Y029010D01*
X018610Y028995D01*
X018656Y028977D01*
X018701Y028955D01*
X018744Y028929D01*
X018785Y028900D01*
X018824Y028868D01*
X018860Y028833D01*
X018892Y028795D01*
X018922Y028755D01*
X018949Y028712D01*
X018972Y028668D01*
X018991Y028622D01*
X019007Y028574D01*
X019019Y028525D01*
X019027Y028476D01*
X019031Y028426D01*
X019031Y028376D01*
X019027Y028326D01*
X019019Y028277D01*
X019007Y028228D01*
X018991Y028180D01*
X018972Y028134D01*
X018949Y028090D01*
X018922Y028047D01*
X018892Y028007D01*
X018860Y027969D01*
X018824Y027934D01*
X018785Y027902D01*
X018744Y027873D01*
X018701Y027847D01*
X018656Y027825D01*
X018610Y027807D01*
X018562Y027792D01*
X018513Y027781D01*
X018464Y027774D01*
X018414Y027771D01*
X018363Y027772D01*
X018314Y027777D01*
X018264Y027786D01*
X018216Y027799D01*
X018169Y027815D01*
X018123Y027836D01*
X018079Y027860D01*
X018037Y027887D01*
X017997Y027917D01*
X017960Y027951D01*
X017926Y027988D01*
X017894Y028027D01*
X017866Y028068D01*
X017841Y028112D01*
X017820Y028157D01*
X017803Y028204D01*
X017789Y028252D01*
X017779Y028301D01*
X017773Y028351D01*
X017771Y028401D01*
X018401Y030151D02*
X018484Y030149D01*
X018567Y030143D01*
X018650Y030133D01*
X018732Y030119D01*
X018814Y030102D01*
X018894Y030080D01*
X018973Y030055D01*
X019051Y030026D01*
X019128Y029993D01*
X019203Y029956D01*
X019276Y029917D01*
X019347Y029873D01*
X019416Y029827D01*
X019483Y029777D01*
X019547Y029724D01*
X019609Y029668D01*
X019668Y029609D01*
X019724Y029547D01*
X019777Y029483D01*
X019827Y029416D01*
X019873Y029347D01*
X019917Y029276D01*
X019956Y029203D01*
X019993Y029128D01*
X020026Y029051D01*
X020055Y028973D01*
X020080Y028894D01*
X020102Y028814D01*
X020119Y028732D01*
X020133Y028650D01*
X020143Y028567D01*
X020149Y028484D01*
X020151Y028401D01*
X020151Y001901D01*
X017771Y001901D02*
X017773Y001951D01*
X017779Y002001D01*
X017789Y002050D01*
X017803Y002098D01*
X017820Y002145D01*
X017841Y002190D01*
X017866Y002234D01*
X017894Y002275D01*
X017926Y002314D01*
X017960Y002351D01*
X017997Y002385D01*
X018037Y002415D01*
X018079Y002442D01*
X018123Y002466D01*
X018169Y002487D01*
X018216Y002503D01*
X018264Y002516D01*
X018314Y002525D01*
X018363Y002530D01*
X018414Y002531D01*
X018464Y002528D01*
X018513Y002521D01*
X018562Y002510D01*
X018610Y002495D01*
X018656Y002477D01*
X018701Y002455D01*
X018744Y002429D01*
X018785Y002400D01*
X018824Y002368D01*
X018860Y002333D01*
X018892Y002295D01*
X018922Y002255D01*
X018949Y002212D01*
X018972Y002168D01*
X018991Y002122D01*
X019007Y002074D01*
X019019Y002025D01*
X019027Y001976D01*
X019031Y001926D01*
X019031Y001876D01*
X019027Y001826D01*
X019019Y001777D01*
X019007Y001728D01*
X018991Y001680D01*
X018972Y001634D01*
X018949Y001590D01*
X018922Y001547D01*
X018892Y001507D01*
X018860Y001469D01*
X018824Y001434D01*
X018785Y001402D01*
X018744Y001373D01*
X018701Y001347D01*
X018656Y001325D01*
X018610Y001307D01*
X018562Y001292D01*
X018513Y001281D01*
X018464Y001274D01*
X018414Y001271D01*
X018363Y001272D01*
X018314Y001277D01*
X018264Y001286D01*
X018216Y001299D01*
X018169Y001315D01*
X018123Y001336D01*
X018079Y001360D01*
X018037Y001387D01*
X017997Y001417D01*
X017960Y001451D01*
X017926Y001488D01*
X017894Y001527D01*
X017866Y001568D01*
X017841Y001612D01*
X017820Y001657D01*
X017803Y001704D01*
X017789Y001752D01*
X017779Y001801D01*
X017773Y001851D01*
X017771Y001901D01*
X018401Y000151D02*
X018484Y000153D01*
X018567Y000159D01*
X018650Y000169D01*
X018732Y000183D01*
X018814Y000200D01*
X018894Y000222D01*
X018973Y000247D01*
X019051Y000276D01*
X019128Y000309D01*
X019203Y000346D01*
X019276Y000385D01*
X019347Y000429D01*
X019416Y000475D01*
X019483Y000525D01*
X019547Y000578D01*
X019609Y000634D01*
X019668Y000693D01*
X019724Y000755D01*
X019777Y000819D01*
X019827Y000886D01*
X019873Y000955D01*
X019917Y001026D01*
X019956Y001099D01*
X019993Y001174D01*
X020026Y001251D01*
X020055Y001329D01*
X020080Y001408D01*
X020102Y001488D01*
X020119Y001570D01*
X020133Y001652D01*
X020143Y001735D01*
X020149Y001818D01*
X020151Y001901D01*
X018401Y000151D02*
X001901Y000151D01*
X001271Y001901D02*
X001273Y001951D01*
X001279Y002001D01*
X001289Y002050D01*
X001303Y002098D01*
X001320Y002145D01*
X001341Y002190D01*
X001366Y002234D01*
X001394Y002275D01*
X001426Y002314D01*
X001460Y002351D01*
X001497Y002385D01*
X001537Y002415D01*
X001579Y002442D01*
X001623Y002466D01*
X001669Y002487D01*
X001716Y002503D01*
X001764Y002516D01*
X001814Y002525D01*
X001863Y002530D01*
X001914Y002531D01*
X001964Y002528D01*
X002013Y002521D01*
X002062Y002510D01*
X002110Y002495D01*
X002156Y002477D01*
X002201Y002455D01*
X002244Y002429D01*
X002285Y002400D01*
X002324Y002368D01*
X002360Y002333D01*
X002392Y002295D01*
X002422Y002255D01*
X002449Y002212D01*
X002472Y002168D01*
X002491Y002122D01*
X002507Y002074D01*
X002519Y002025D01*
X002527Y001976D01*
X002531Y001926D01*
X002531Y001876D01*
X002527Y001826D01*
X002519Y001777D01*
X002507Y001728D01*
X002491Y001680D01*
X002472Y001634D01*
X002449Y001590D01*
X002422Y001547D01*
X002392Y001507D01*
X002360Y001469D01*
X002324Y001434D01*
X002285Y001402D01*
X002244Y001373D01*
X002201Y001347D01*
X002156Y001325D01*
X002110Y001307D01*
X002062Y001292D01*
X002013Y001281D01*
X001964Y001274D01*
X001914Y001271D01*
X001863Y001272D01*
X001814Y001277D01*
X001764Y001286D01*
X001716Y001299D01*
X001669Y001315D01*
X001623Y001336D01*
X001579Y001360D01*
X001537Y001387D01*
X001497Y001417D01*
X001460Y001451D01*
X001426Y001488D01*
X001394Y001527D01*
X001366Y001568D01*
X001341Y001612D01*
X001320Y001657D01*
X001303Y001704D01*
X001289Y001752D01*
X001279Y001801D01*
X001273Y001851D01*
X001271Y001901D01*
X000151Y001901D02*
X000153Y001818D01*
X000159Y001735D01*
X000169Y001652D01*
X000183Y001570D01*
X000200Y001488D01*
X000222Y001408D01*
X000247Y001329D01*
X000276Y001251D01*
X000309Y001174D01*
X000346Y001099D01*
X000385Y001026D01*
X000429Y000955D01*
X000475Y000886D01*
X000525Y000819D01*
X000578Y000755D01*
X000634Y000693D01*
X000693Y000634D01*
X000755Y000578D01*
X000819Y000525D01*
X000886Y000475D01*
X000955Y000429D01*
X001026Y000385D01*
X001099Y000346D01*
X001174Y000309D01*
X001251Y000276D01*
X001329Y000247D01*
X001408Y000222D01*
X001488Y000200D01*
X001570Y000183D01*
X001652Y000169D01*
X001735Y000159D01*
X001818Y000153D01*
X001901Y000151D01*
D11*
X005348Y010309D02*
X005348Y029994D01*
X014954Y029994D01*
X014954Y010309D01*
X005348Y010309D01*
X008970Y027674D02*
X011332Y027674D01*
X011332Y029445D01*
X010348Y029445D01*
X010348Y029642D01*
X009954Y029642D01*
X009954Y029445D01*
X008970Y029445D01*
X008970Y027674D01*
D12*
X007111Y028901D02*
X006831Y028901D01*
X013331Y028901D02*
X013611Y028901D01*
X013471Y029041D02*
X013471Y028761D01*
D13*
X010985Y027499D02*
X010985Y027159D01*
X010815Y027159D01*
X010759Y027216D01*
X010759Y027273D01*
X010815Y027329D01*
X010985Y027329D01*
X010815Y027329D02*
X010759Y027386D01*
X010759Y027443D01*
X010815Y027499D01*
X010985Y027499D01*
X010617Y027386D02*
X010617Y027159D01*
X010617Y027329D02*
X010390Y027329D01*
X010390Y027386D02*
X010390Y027159D01*
X010390Y027386D02*
X010504Y027499D01*
X010617Y027386D01*
X010249Y027499D02*
X010022Y027499D01*
X010135Y027499D02*
X010135Y027159D01*
X009880Y027499D02*
X009654Y027499D01*
X009767Y027499D02*
X009767Y027159D01*
X009512Y027159D02*
X009285Y027386D01*
X009285Y027443D01*
X009342Y027499D01*
X009455Y027499D01*
X009512Y027443D01*
X009512Y027159D02*
X009285Y027159D01*
X005121Y028215D02*
X005121Y028385D01*
X005065Y028441D01*
X005008Y028441D01*
X004951Y028385D01*
X004951Y028215D01*
X004951Y028385D02*
X004895Y028441D01*
X004838Y028441D01*
X004781Y028385D01*
X004781Y028215D01*
X005121Y028215D01*
X005008Y028583D02*
X005121Y028696D01*
X005008Y028810D01*
X004781Y028810D01*
X004951Y028810D02*
X004951Y028583D01*
X005008Y028583D02*
X004781Y028583D01*
X004781Y029065D02*
X005121Y029065D01*
X005121Y029178D02*
X005121Y028951D01*
X005121Y029320D02*
X005121Y029546D01*
X005121Y029433D02*
X004781Y029433D01*
X004781Y029688D02*
X004781Y029915D01*
X004781Y029801D02*
X005121Y029801D01*
X005008Y029688D01*
D14*
X008524Y028726D02*
X008831Y028726D01*
X011424Y028726D02*
X011731Y028726D01*
X011578Y028573D02*
X011578Y028880D01*
M02*
