G75*
G70*
%OFA0B0*%
%FSLAX24Y24*%
%IPPOS*%
%LPD*%
%AMOC8*
5,1,8,0,0,1.08239X$1,22.5*
%
%ADD10C,0.0000*%
%ADD11OC8,0.0520*%
%ADD12C,0.0520*%
%ADD13R,0.0476X0.0476*%
%ADD14C,0.0476*%
%ADD15C,0.0709*%
%ADD16C,0.0740*%
%ADD17C,0.0600*%
%ADD18R,0.1575X0.0787*%
%ADD19C,0.0560*%
%ADD20C,0.0100*%
%ADD21C,0.0357*%
%ADD22C,0.0475*%
%ADD23C,0.0160*%
D10*
X000151Y001901D02*
X000151Y028401D01*
X001271Y028401D02*
X001273Y028451D01*
X001279Y028501D01*
X001289Y028550D01*
X001303Y028598D01*
X001320Y028645D01*
X001341Y028690D01*
X001366Y028734D01*
X001394Y028775D01*
X001426Y028814D01*
X001460Y028851D01*
X001497Y028885D01*
X001537Y028915D01*
X001579Y028942D01*
X001623Y028966D01*
X001669Y028987D01*
X001716Y029003D01*
X001764Y029016D01*
X001814Y029025D01*
X001863Y029030D01*
X001914Y029031D01*
X001964Y029028D01*
X002013Y029021D01*
X002062Y029010D01*
X002110Y028995D01*
X002156Y028977D01*
X002201Y028955D01*
X002244Y028929D01*
X002285Y028900D01*
X002324Y028868D01*
X002360Y028833D01*
X002392Y028795D01*
X002422Y028755D01*
X002449Y028712D01*
X002472Y028668D01*
X002491Y028622D01*
X002507Y028574D01*
X002519Y028525D01*
X002527Y028476D01*
X002531Y028426D01*
X002531Y028376D01*
X002527Y028326D01*
X002519Y028277D01*
X002507Y028228D01*
X002491Y028180D01*
X002472Y028134D01*
X002449Y028090D01*
X002422Y028047D01*
X002392Y028007D01*
X002360Y027969D01*
X002324Y027934D01*
X002285Y027902D01*
X002244Y027873D01*
X002201Y027847D01*
X002156Y027825D01*
X002110Y027807D01*
X002062Y027792D01*
X002013Y027781D01*
X001964Y027774D01*
X001914Y027771D01*
X001863Y027772D01*
X001814Y027777D01*
X001764Y027786D01*
X001716Y027799D01*
X001669Y027815D01*
X001623Y027836D01*
X001579Y027860D01*
X001537Y027887D01*
X001497Y027917D01*
X001460Y027951D01*
X001426Y027988D01*
X001394Y028027D01*
X001366Y028068D01*
X001341Y028112D01*
X001320Y028157D01*
X001303Y028204D01*
X001289Y028252D01*
X001279Y028301D01*
X001273Y028351D01*
X001271Y028401D01*
X000151Y028401D02*
X000153Y028484D01*
X000159Y028567D01*
X000169Y028650D01*
X000183Y028732D01*
X000200Y028814D01*
X000222Y028894D01*
X000247Y028973D01*
X000276Y029051D01*
X000309Y029128D01*
X000346Y029203D01*
X000385Y029276D01*
X000429Y029347D01*
X000475Y029416D01*
X000525Y029483D01*
X000578Y029547D01*
X000634Y029609D01*
X000693Y029668D01*
X000755Y029724D01*
X000819Y029777D01*
X000886Y029827D01*
X000955Y029873D01*
X001026Y029917D01*
X001099Y029956D01*
X001174Y029993D01*
X001251Y030026D01*
X001329Y030055D01*
X001408Y030080D01*
X001488Y030102D01*
X001570Y030119D01*
X001652Y030133D01*
X001735Y030143D01*
X001818Y030149D01*
X001901Y030151D01*
X018401Y030151D01*
X017771Y028401D02*
X017773Y028451D01*
X017779Y028501D01*
X017789Y028550D01*
X017803Y028598D01*
X017820Y028645D01*
X017841Y028690D01*
X017866Y028734D01*
X017894Y028775D01*
X017926Y028814D01*
X017960Y028851D01*
X017997Y028885D01*
X018037Y028915D01*
X018079Y028942D01*
X018123Y028966D01*
X018169Y028987D01*
X018216Y029003D01*
X018264Y029016D01*
X018314Y029025D01*
X018363Y029030D01*
X018414Y029031D01*
X018464Y029028D01*
X018513Y029021D01*
X018562Y029010D01*
X018610Y028995D01*
X018656Y028977D01*
X018701Y028955D01*
X018744Y028929D01*
X018785Y028900D01*
X018824Y028868D01*
X018860Y028833D01*
X018892Y028795D01*
X018922Y028755D01*
X018949Y028712D01*
X018972Y028668D01*
X018991Y028622D01*
X019007Y028574D01*
X019019Y028525D01*
X019027Y028476D01*
X019031Y028426D01*
X019031Y028376D01*
X019027Y028326D01*
X019019Y028277D01*
X019007Y028228D01*
X018991Y028180D01*
X018972Y028134D01*
X018949Y028090D01*
X018922Y028047D01*
X018892Y028007D01*
X018860Y027969D01*
X018824Y027934D01*
X018785Y027902D01*
X018744Y027873D01*
X018701Y027847D01*
X018656Y027825D01*
X018610Y027807D01*
X018562Y027792D01*
X018513Y027781D01*
X018464Y027774D01*
X018414Y027771D01*
X018363Y027772D01*
X018314Y027777D01*
X018264Y027786D01*
X018216Y027799D01*
X018169Y027815D01*
X018123Y027836D01*
X018079Y027860D01*
X018037Y027887D01*
X017997Y027917D01*
X017960Y027951D01*
X017926Y027988D01*
X017894Y028027D01*
X017866Y028068D01*
X017841Y028112D01*
X017820Y028157D01*
X017803Y028204D01*
X017789Y028252D01*
X017779Y028301D01*
X017773Y028351D01*
X017771Y028401D01*
X018401Y030151D02*
X018484Y030149D01*
X018567Y030143D01*
X018650Y030133D01*
X018732Y030119D01*
X018814Y030102D01*
X018894Y030080D01*
X018973Y030055D01*
X019051Y030026D01*
X019128Y029993D01*
X019203Y029956D01*
X019276Y029917D01*
X019347Y029873D01*
X019416Y029827D01*
X019483Y029777D01*
X019547Y029724D01*
X019609Y029668D01*
X019668Y029609D01*
X019724Y029547D01*
X019777Y029483D01*
X019827Y029416D01*
X019873Y029347D01*
X019917Y029276D01*
X019956Y029203D01*
X019993Y029128D01*
X020026Y029051D01*
X020055Y028973D01*
X020080Y028894D01*
X020102Y028814D01*
X020119Y028732D01*
X020133Y028650D01*
X020143Y028567D01*
X020149Y028484D01*
X020151Y028401D01*
X020151Y001901D01*
X017771Y001901D02*
X017773Y001951D01*
X017779Y002001D01*
X017789Y002050D01*
X017803Y002098D01*
X017820Y002145D01*
X017841Y002190D01*
X017866Y002234D01*
X017894Y002275D01*
X017926Y002314D01*
X017960Y002351D01*
X017997Y002385D01*
X018037Y002415D01*
X018079Y002442D01*
X018123Y002466D01*
X018169Y002487D01*
X018216Y002503D01*
X018264Y002516D01*
X018314Y002525D01*
X018363Y002530D01*
X018414Y002531D01*
X018464Y002528D01*
X018513Y002521D01*
X018562Y002510D01*
X018610Y002495D01*
X018656Y002477D01*
X018701Y002455D01*
X018744Y002429D01*
X018785Y002400D01*
X018824Y002368D01*
X018860Y002333D01*
X018892Y002295D01*
X018922Y002255D01*
X018949Y002212D01*
X018972Y002168D01*
X018991Y002122D01*
X019007Y002074D01*
X019019Y002025D01*
X019027Y001976D01*
X019031Y001926D01*
X019031Y001876D01*
X019027Y001826D01*
X019019Y001777D01*
X019007Y001728D01*
X018991Y001680D01*
X018972Y001634D01*
X018949Y001590D01*
X018922Y001547D01*
X018892Y001507D01*
X018860Y001469D01*
X018824Y001434D01*
X018785Y001402D01*
X018744Y001373D01*
X018701Y001347D01*
X018656Y001325D01*
X018610Y001307D01*
X018562Y001292D01*
X018513Y001281D01*
X018464Y001274D01*
X018414Y001271D01*
X018363Y001272D01*
X018314Y001277D01*
X018264Y001286D01*
X018216Y001299D01*
X018169Y001315D01*
X018123Y001336D01*
X018079Y001360D01*
X018037Y001387D01*
X017997Y001417D01*
X017960Y001451D01*
X017926Y001488D01*
X017894Y001527D01*
X017866Y001568D01*
X017841Y001612D01*
X017820Y001657D01*
X017803Y001704D01*
X017789Y001752D01*
X017779Y001801D01*
X017773Y001851D01*
X017771Y001901D01*
X018401Y000151D02*
X018484Y000153D01*
X018567Y000159D01*
X018650Y000169D01*
X018732Y000183D01*
X018814Y000200D01*
X018894Y000222D01*
X018973Y000247D01*
X019051Y000276D01*
X019128Y000309D01*
X019203Y000346D01*
X019276Y000385D01*
X019347Y000429D01*
X019416Y000475D01*
X019483Y000525D01*
X019547Y000578D01*
X019609Y000634D01*
X019668Y000693D01*
X019724Y000755D01*
X019777Y000819D01*
X019827Y000886D01*
X019873Y000955D01*
X019917Y001026D01*
X019956Y001099D01*
X019993Y001174D01*
X020026Y001251D01*
X020055Y001329D01*
X020080Y001408D01*
X020102Y001488D01*
X020119Y001570D01*
X020133Y001652D01*
X020143Y001735D01*
X020149Y001818D01*
X020151Y001901D01*
X018401Y000151D02*
X001901Y000151D01*
X001271Y001901D02*
X001273Y001951D01*
X001279Y002001D01*
X001289Y002050D01*
X001303Y002098D01*
X001320Y002145D01*
X001341Y002190D01*
X001366Y002234D01*
X001394Y002275D01*
X001426Y002314D01*
X001460Y002351D01*
X001497Y002385D01*
X001537Y002415D01*
X001579Y002442D01*
X001623Y002466D01*
X001669Y002487D01*
X001716Y002503D01*
X001764Y002516D01*
X001814Y002525D01*
X001863Y002530D01*
X001914Y002531D01*
X001964Y002528D01*
X002013Y002521D01*
X002062Y002510D01*
X002110Y002495D01*
X002156Y002477D01*
X002201Y002455D01*
X002244Y002429D01*
X002285Y002400D01*
X002324Y002368D01*
X002360Y002333D01*
X002392Y002295D01*
X002422Y002255D01*
X002449Y002212D01*
X002472Y002168D01*
X002491Y002122D01*
X002507Y002074D01*
X002519Y002025D01*
X002527Y001976D01*
X002531Y001926D01*
X002531Y001876D01*
X002527Y001826D01*
X002519Y001777D01*
X002507Y001728D01*
X002491Y001680D01*
X002472Y001634D01*
X002449Y001590D01*
X002422Y001547D01*
X002392Y001507D01*
X002360Y001469D01*
X002324Y001434D01*
X002285Y001402D01*
X002244Y001373D01*
X002201Y001347D01*
X002156Y001325D01*
X002110Y001307D01*
X002062Y001292D01*
X002013Y001281D01*
X001964Y001274D01*
X001914Y001271D01*
X001863Y001272D01*
X001814Y001277D01*
X001764Y001286D01*
X001716Y001299D01*
X001669Y001315D01*
X001623Y001336D01*
X001579Y001360D01*
X001537Y001387D01*
X001497Y001417D01*
X001460Y001451D01*
X001426Y001488D01*
X001394Y001527D01*
X001366Y001568D01*
X001341Y001612D01*
X001320Y001657D01*
X001303Y001704D01*
X001289Y001752D01*
X001279Y001801D01*
X001273Y001851D01*
X001271Y001901D01*
X000151Y001901D02*
X000153Y001818D01*
X000159Y001735D01*
X000169Y001652D01*
X000183Y001570D01*
X000200Y001488D01*
X000222Y001408D01*
X000247Y001329D01*
X000276Y001251D01*
X000309Y001174D01*
X000346Y001099D01*
X000385Y001026D01*
X000429Y000955D01*
X000475Y000886D01*
X000525Y000819D01*
X000578Y000755D01*
X000634Y000693D01*
X000693Y000634D01*
X000755Y000578D01*
X000819Y000525D01*
X000886Y000475D01*
X000955Y000429D01*
X001026Y000385D01*
X001099Y000346D01*
X001174Y000309D01*
X001251Y000276D01*
X001329Y000247D01*
X001408Y000222D01*
X001488Y000200D01*
X001570Y000183D01*
X001652Y000169D01*
X001735Y000159D01*
X001818Y000153D01*
X001901Y000151D01*
D11*
X006651Y000901D03*
X007651Y000901D03*
X008651Y000901D03*
X009651Y000901D03*
X010651Y000901D03*
X011651Y000901D03*
X012651Y000901D03*
X013651Y000901D03*
X013651Y004901D03*
X012651Y004901D03*
X011651Y004901D03*
X010651Y004901D03*
X009651Y004901D03*
X008651Y004901D03*
X007651Y004901D03*
X006651Y004901D03*
X006401Y011151D03*
X006401Y012151D03*
X003901Y012151D03*
X003901Y011151D03*
X001401Y011151D03*
X001401Y012151D03*
X000901Y017151D03*
X001901Y017151D03*
X001901Y019151D03*
X000901Y019151D03*
X000901Y021151D03*
X001901Y021151D03*
X001901Y023151D03*
X000901Y023151D03*
X000901Y025151D03*
X001651Y025651D03*
X000901Y026151D03*
X002901Y026151D03*
X003651Y025651D03*
X002901Y025151D03*
X004651Y022651D03*
X005651Y022651D03*
X006651Y022651D03*
X007651Y022651D03*
X008651Y022651D03*
X009651Y022651D03*
X010651Y022651D03*
X011651Y022651D03*
X012651Y022651D03*
X013651Y022651D03*
X014651Y022651D03*
X015651Y022651D03*
X016651Y022651D03*
X017651Y022651D03*
X016901Y025151D03*
X017651Y025651D03*
X016901Y026151D03*
X018901Y026151D03*
X019651Y025651D03*
X018901Y025151D03*
X017651Y018651D03*
X016651Y018651D03*
X016401Y017901D03*
X015901Y017151D03*
X016901Y017151D03*
X015651Y018651D03*
X014651Y018651D03*
X013651Y018651D03*
X012651Y018651D03*
X011651Y018651D03*
X010651Y018651D03*
X009651Y018651D03*
X008651Y018651D03*
X007651Y018651D03*
X006651Y018651D03*
X005651Y018651D03*
X004651Y018651D03*
X004651Y017651D03*
X004651Y016651D03*
X008901Y012151D03*
X008901Y011151D03*
X011401Y011151D03*
X011401Y012151D03*
X013901Y012151D03*
X013901Y011151D03*
X016401Y011151D03*
X016401Y012151D03*
X018901Y012151D03*
X018901Y011151D03*
X018401Y017151D03*
X018901Y017901D03*
X019401Y017151D03*
D12*
X014651Y016891D02*
X014651Y017411D01*
X013651Y017411D02*
X013651Y016891D01*
X012651Y016891D02*
X012651Y017411D01*
X011651Y017411D02*
X011651Y016891D01*
X010651Y016891D02*
X010651Y017411D01*
X009651Y017411D02*
X009651Y016891D01*
X008651Y016891D02*
X008651Y017411D01*
X007651Y017411D02*
X007651Y016891D01*
X006651Y016891D02*
X006651Y017411D01*
X005651Y017411D02*
X005651Y016891D01*
X005651Y014411D02*
X005651Y013891D01*
X006651Y013891D02*
X006651Y014411D01*
X007651Y014411D02*
X007651Y013891D01*
X008651Y013891D02*
X008651Y014411D01*
X009651Y014411D02*
X009651Y013891D01*
X010651Y013891D02*
X010651Y014411D01*
X011651Y014411D02*
X011651Y013891D01*
X012651Y013891D02*
X012651Y014411D01*
X013651Y014411D02*
X013651Y013891D01*
X014651Y013891D02*
X014651Y014411D01*
D13*
X007651Y023901D03*
D14*
X008651Y023901D03*
X009651Y023901D03*
X010651Y023901D03*
X011651Y023901D03*
X012651Y023901D03*
X012651Y027901D03*
X011651Y027901D03*
X010651Y027901D03*
X009651Y027901D03*
X008651Y027901D03*
X007651Y027901D03*
D15*
X007911Y029006D03*
X012391Y029006D03*
D16*
X019151Y022151D03*
X019151Y021151D03*
X019151Y020151D03*
X018901Y008651D03*
X018901Y007651D03*
X018901Y006651D03*
X016401Y006651D03*
X016401Y007651D03*
X016401Y008651D03*
X013901Y008651D03*
X013901Y007651D03*
X013901Y006651D03*
X011401Y006651D03*
X011401Y007651D03*
X011401Y008651D03*
X008901Y008651D03*
X008901Y007651D03*
X008901Y006651D03*
X006401Y006651D03*
X006401Y007651D03*
X006401Y008651D03*
X003901Y008651D03*
X003901Y007651D03*
X003901Y006651D03*
X001401Y006651D03*
X001401Y007651D03*
X001401Y008651D03*
D17*
X001671Y013761D02*
X001071Y013761D01*
X001071Y015541D02*
X001671Y015541D01*
X003631Y015541D02*
X004231Y015541D01*
X004231Y013761D02*
X003631Y013761D01*
X016071Y013761D02*
X016671Y013761D01*
X016671Y015541D02*
X016071Y015541D01*
X018631Y015541D02*
X019231Y015541D01*
X019231Y013761D02*
X018631Y013761D01*
D18*
X011151Y029651D03*
X009151Y029651D03*
D19*
X009757Y028776D03*
X010545Y028776D03*
D20*
X010810Y028433D02*
X010921Y028433D01*
X010921Y028335D02*
X003541Y028335D01*
X003551Y028401D02*
X003478Y028887D01*
X003478Y028888D01*
X003264Y029331D01*
X002930Y029691D01*
X002504Y029937D01*
X002223Y030001D01*
X008214Y030001D01*
X008214Y029701D01*
X009101Y029701D01*
X009101Y029601D01*
X009201Y029601D01*
X009201Y029107D01*
X009482Y029107D01*
X009477Y029104D01*
X009429Y029056D01*
X009390Y029002D01*
X009359Y028941D01*
X009338Y028877D01*
X009327Y028810D01*
X009327Y028805D01*
X009728Y028805D01*
X009728Y028747D01*
X009327Y028747D01*
X009327Y028742D01*
X009338Y028675D01*
X009359Y028611D01*
X009390Y028551D01*
X009429Y028496D01*
X009477Y028448D01*
X009532Y028408D01*
X009592Y028378D01*
X009657Y028357D01*
X009724Y028346D01*
X009729Y028346D01*
X009729Y028747D01*
X009786Y028747D01*
X009786Y028346D01*
X009791Y028346D01*
X009858Y028357D01*
X009923Y028378D01*
X009983Y028408D01*
X010038Y028448D01*
X010085Y028496D01*
X010125Y028551D01*
X010151Y028602D01*
X010180Y028533D01*
X010301Y028412D01*
X010459Y028346D01*
X010630Y028346D01*
X010788Y028412D01*
X010909Y028533D01*
X010921Y028561D01*
X010921Y028180D01*
X010871Y028230D01*
X010728Y028289D01*
X010574Y028289D01*
X010431Y028230D01*
X010322Y028121D01*
X010263Y027978D01*
X010263Y027824D01*
X010322Y027681D01*
X010431Y027572D01*
X010574Y027513D01*
X010728Y027513D01*
X010871Y027572D01*
X010921Y027623D01*
X010921Y024180D01*
X010871Y024230D01*
X010728Y024289D01*
X010574Y024289D01*
X010431Y024230D01*
X010322Y024121D01*
X010263Y023978D01*
X010263Y023824D01*
X010322Y023681D01*
X010431Y023572D01*
X010574Y023513D01*
X010728Y023513D01*
X010871Y023572D01*
X010921Y023623D01*
X010921Y023556D01*
X011056Y023421D01*
X011306Y023171D01*
X011496Y023171D01*
X013556Y023171D01*
X013666Y023061D01*
X013481Y023061D01*
X013241Y022821D01*
X013241Y022481D01*
X013421Y022301D01*
X013421Y020746D01*
X013056Y020381D01*
X012921Y020246D01*
X012921Y018961D01*
X012821Y019061D01*
X012481Y019061D01*
X012381Y018961D01*
X012381Y020056D01*
X012881Y020556D01*
X012881Y020746D01*
X012881Y022301D01*
X013061Y022481D01*
X013061Y022821D01*
X012821Y023061D01*
X012481Y023061D01*
X012241Y022821D01*
X012241Y022481D01*
X012421Y022301D01*
X012421Y020746D01*
X012056Y020381D01*
X011921Y020246D01*
X011921Y018961D01*
X011821Y019061D01*
X011481Y019061D01*
X011381Y018961D01*
X011381Y020056D01*
X011881Y020556D01*
X011881Y020746D01*
X011881Y022301D01*
X012061Y022481D01*
X012061Y022821D01*
X011821Y023061D01*
X011481Y023061D01*
X011241Y022821D01*
X011241Y022481D01*
X011421Y022301D01*
X011421Y020746D01*
X011056Y020381D01*
X010921Y020246D01*
X010921Y018961D01*
X010821Y019061D01*
X010481Y019061D01*
X010381Y018961D01*
X010381Y020056D01*
X010881Y020556D01*
X010881Y020746D01*
X010881Y022301D01*
X011061Y022481D01*
X011061Y022821D01*
X010821Y023061D01*
X010481Y023061D01*
X010241Y022821D01*
X010241Y022481D01*
X010421Y022301D01*
X010421Y020746D01*
X010056Y020381D01*
X009921Y020246D01*
X009921Y018961D01*
X009821Y019061D01*
X009481Y019061D01*
X009381Y018961D01*
X009381Y020056D01*
X009881Y020556D01*
X009881Y020746D01*
X009881Y021917D01*
X009930Y021965D01*
X009980Y022086D01*
X009980Y022216D01*
X009930Y022337D01*
X009923Y022343D01*
X010061Y022481D01*
X010061Y022821D01*
X009821Y023061D01*
X009481Y023061D01*
X009241Y022821D01*
X009241Y022481D01*
X009379Y022343D01*
X009373Y022337D01*
X009323Y022216D01*
X009323Y022086D01*
X009373Y021965D01*
X009421Y021917D01*
X009421Y020746D01*
X009056Y020381D01*
X008921Y020246D01*
X008921Y018961D01*
X008821Y019061D01*
X008481Y019061D01*
X008381Y018961D01*
X008381Y020056D01*
X008881Y020556D01*
X008881Y020746D01*
X008881Y021417D01*
X008930Y021465D01*
X008980Y021586D01*
X008980Y021716D01*
X008930Y021837D01*
X008881Y021886D01*
X008881Y022301D01*
X009061Y022481D01*
X009061Y022821D01*
X008821Y023061D01*
X008481Y023061D01*
X008241Y022821D01*
X008241Y022481D01*
X008421Y022301D01*
X008421Y021886D01*
X008373Y021837D01*
X008323Y021716D01*
X008323Y021586D01*
X008373Y021465D01*
X008421Y021417D01*
X008421Y020746D01*
X008056Y020381D01*
X007921Y020246D01*
X007921Y018961D01*
X007821Y019061D01*
X007481Y019061D01*
X007381Y018961D01*
X007381Y020056D01*
X007746Y020421D01*
X007881Y020556D01*
X007881Y020917D01*
X007930Y020965D01*
X007980Y021086D01*
X007980Y021216D01*
X007930Y021337D01*
X007881Y021386D01*
X007881Y022301D01*
X008061Y022481D01*
X008061Y022821D01*
X007821Y023061D01*
X007481Y023061D01*
X007241Y022821D01*
X007241Y022481D01*
X007421Y022301D01*
X007421Y021386D01*
X007373Y021337D01*
X007323Y021216D01*
X007323Y021086D01*
X007373Y020965D01*
X007421Y020917D01*
X007421Y020746D01*
X007056Y020381D01*
X006921Y020246D01*
X006921Y018961D01*
X006821Y019061D01*
X006481Y019061D01*
X006381Y018961D01*
X006381Y020056D01*
X006881Y020556D01*
X006881Y020746D01*
X006881Y022301D01*
X007061Y022481D01*
X007061Y022821D01*
X006821Y023061D01*
X006481Y023061D01*
X006241Y022821D01*
X006241Y022481D01*
X006421Y022301D01*
X006421Y020746D01*
X006056Y020381D01*
X005921Y020246D01*
X005921Y018961D01*
X005821Y019061D01*
X005481Y019061D01*
X005241Y018821D01*
X005241Y018481D01*
X005481Y018241D01*
X005821Y018241D01*
X005921Y018341D01*
X005921Y017721D01*
X005883Y017759D01*
X005733Y017821D01*
X005570Y017821D01*
X005419Y017759D01*
X005304Y017643D01*
X005241Y017493D01*
X005241Y016810D01*
X005304Y016659D01*
X005419Y016544D01*
X005570Y016481D01*
X005733Y016481D01*
X005883Y016544D01*
X005921Y016581D01*
X005921Y014721D01*
X005883Y014759D01*
X005733Y014821D01*
X005570Y014821D01*
X005419Y014759D01*
X005304Y014643D01*
X005241Y014493D01*
X005241Y013810D01*
X005304Y013659D01*
X005419Y013544D01*
X005570Y013481D01*
X005656Y013481D01*
X005556Y013381D01*
X004474Y013381D01*
X004524Y013418D01*
X004574Y013468D01*
X004616Y013525D01*
X004648Y013588D01*
X004670Y013656D01*
X004679Y013711D01*
X003981Y013711D01*
X003981Y013811D01*
X003881Y013811D01*
X003881Y013711D01*
X003183Y013711D01*
X003192Y013656D01*
X003214Y013588D01*
X003246Y013525D01*
X003288Y013468D01*
X003338Y013418D01*
X003389Y013381D01*
X002631Y013381D01*
X002631Y016246D01*
X002496Y016381D01*
X002246Y016631D01*
X002056Y016631D01*
X001246Y016631D01*
X001131Y016746D01*
X001131Y016801D01*
X001311Y016981D01*
X001311Y017321D01*
X001071Y017561D01*
X000731Y017561D01*
X000491Y017321D01*
X000491Y016981D01*
X000671Y016801D01*
X000671Y016746D01*
X000671Y016556D01*
X000921Y016306D01*
X001056Y016171D01*
X002056Y016171D01*
X002171Y016056D01*
X002171Y013246D01*
X001708Y012783D01*
X001730Y012836D01*
X001730Y012966D01*
X001680Y013087D01*
X001587Y013180D01*
X001466Y013230D01*
X001336Y013230D01*
X001215Y013180D01*
X001167Y013131D01*
X000996Y013131D01*
X000806Y013131D01*
X000556Y012881D01*
X000421Y012746D01*
X000421Y010996D01*
X000421Y010806D01*
X001056Y010171D01*
X001246Y010171D01*
X019246Y010171D01*
X019381Y010306D01*
X019881Y010806D01*
X019881Y010996D01*
X019881Y012496D01*
X019746Y012631D01*
X019246Y013131D01*
X019056Y013131D01*
X018746Y013131D01*
X018561Y013317D01*
X018596Y013311D01*
X018881Y013311D01*
X018881Y013711D01*
X018183Y013711D01*
X018187Y013691D01*
X017881Y013996D01*
X017881Y016306D01*
X017881Y016496D01*
X017311Y017066D01*
X017311Y017321D01*
X017071Y017561D01*
X016731Y017561D01*
X016491Y017321D01*
X016491Y016981D01*
X016731Y016741D01*
X016986Y016741D01*
X017421Y016306D01*
X017421Y013806D01*
X017556Y013671D01*
X017846Y013381D01*
X017806Y013381D01*
X016914Y013381D01*
X016964Y013418D01*
X017014Y013468D01*
X017056Y013525D01*
X017088Y013588D01*
X017110Y013656D01*
X017119Y013711D01*
X016421Y013711D01*
X016421Y013811D01*
X016321Y013811D01*
X016321Y013711D01*
X015623Y013711D01*
X015632Y013656D01*
X015654Y013588D01*
X015686Y013525D01*
X015728Y013468D01*
X015778Y013418D01*
X015829Y013381D01*
X013746Y013381D01*
X013646Y013481D01*
X013733Y013481D01*
X013883Y013544D01*
X013999Y013659D01*
X014061Y013810D01*
X014061Y014493D01*
X013999Y014643D01*
X013883Y014759D01*
X013881Y014760D01*
X013881Y015556D01*
X014246Y015921D01*
X014381Y016056D01*
X014381Y016581D01*
X014419Y016544D01*
X014570Y016481D01*
X014733Y016481D01*
X014883Y016544D01*
X014999Y016659D01*
X015061Y016810D01*
X015061Y017493D01*
X014999Y017643D01*
X014883Y017759D01*
X014733Y017821D01*
X014570Y017821D01*
X014419Y017759D01*
X014381Y017721D01*
X014381Y018341D01*
X014481Y018241D01*
X014821Y018241D01*
X015061Y018481D01*
X015061Y018821D01*
X014821Y019061D01*
X014481Y019061D01*
X014381Y018961D01*
X014381Y022341D01*
X014481Y022241D01*
X014821Y022241D01*
X015061Y022481D01*
X015061Y022821D01*
X014821Y023061D01*
X014481Y023061D01*
X014381Y022961D01*
X014381Y022996D01*
X013881Y023496D01*
X013746Y023631D01*
X012930Y023631D01*
X012980Y023681D01*
X013039Y023824D01*
X013039Y023978D01*
X012980Y024121D01*
X012930Y024171D01*
X013556Y024171D01*
X013921Y023806D01*
X014056Y023671D01*
X018056Y023671D01*
X018921Y022806D01*
X018921Y022619D01*
X018061Y022619D01*
X018061Y022521D02*
X018785Y022521D01*
X018857Y022592D02*
X018710Y022446D01*
X018631Y022255D01*
X018631Y022048D01*
X018710Y021857D01*
X018857Y021710D01*
X019000Y021651D01*
X018857Y021592D01*
X018710Y021446D01*
X018631Y021255D01*
X018631Y021048D01*
X018710Y020857D01*
X018857Y020710D01*
X019000Y020651D01*
X018857Y020592D01*
X018710Y020446D01*
X018631Y020255D01*
X018631Y020048D01*
X018710Y019857D01*
X018857Y019710D01*
X019048Y019631D01*
X019255Y019631D01*
X019446Y019710D01*
X019592Y019857D01*
X019671Y020048D01*
X019671Y020255D01*
X019592Y020446D01*
X019446Y020592D01*
X019303Y020651D01*
X019446Y020710D01*
X019592Y020857D01*
X019671Y021048D01*
X019671Y021255D01*
X019592Y021446D01*
X019446Y021592D01*
X019303Y021651D01*
X019446Y021710D01*
X019592Y021857D01*
X019671Y022048D01*
X019671Y022255D01*
X019592Y022446D01*
X019446Y022592D01*
X019381Y022619D01*
X020001Y022619D01*
X020001Y022521D02*
X019517Y022521D01*
X019602Y022422D02*
X020001Y022422D01*
X020001Y022323D02*
X019643Y022323D01*
X019671Y022225D02*
X020001Y022225D01*
X020001Y022126D02*
X019671Y022126D01*
X019663Y022028D02*
X020001Y022028D01*
X020001Y021929D02*
X019622Y021929D01*
X019566Y021831D02*
X020001Y021831D01*
X020001Y021732D02*
X019468Y021732D01*
X019345Y021634D02*
X020001Y021634D01*
X020001Y021535D02*
X019503Y021535D01*
X019596Y021437D02*
X020001Y021437D01*
X020001Y021338D02*
X019637Y021338D01*
X019671Y021239D02*
X020001Y021239D01*
X020001Y021141D02*
X019671Y021141D01*
X019669Y021042D02*
X020001Y021042D01*
X020001Y020944D02*
X019628Y020944D01*
X019581Y020845D02*
X020001Y020845D01*
X020001Y020747D02*
X019482Y020747D01*
X019488Y020550D02*
X020001Y020550D01*
X020001Y020648D02*
X019310Y020648D01*
X018992Y020648D02*
X017954Y020648D01*
X017930Y020590D02*
X017980Y020711D01*
X017980Y020841D01*
X017930Y020962D01*
X017881Y021011D01*
X017881Y022301D01*
X018061Y022481D01*
X018061Y022821D01*
X017821Y023061D01*
X017481Y023061D01*
X017241Y022821D01*
X017241Y022481D01*
X017421Y022301D01*
X017421Y021011D01*
X017373Y020962D01*
X017323Y020841D01*
X017323Y020711D01*
X017373Y020590D01*
X017465Y020498D01*
X017586Y020448D01*
X017716Y020448D01*
X017837Y020498D01*
X017930Y020590D01*
X017889Y020550D02*
X018814Y020550D01*
X018716Y020451D02*
X017725Y020451D01*
X017578Y020451D02*
X016381Y020451D01*
X016381Y020353D02*
X018672Y020353D01*
X018631Y020254D02*
X016381Y020254D01*
X016381Y020155D02*
X018631Y020155D01*
X018631Y020057D02*
X016381Y020057D01*
X016381Y019958D02*
X018668Y019958D01*
X018709Y019860D02*
X016381Y019860D01*
X016381Y019761D02*
X018806Y019761D01*
X018971Y019663D02*
X016381Y019663D01*
X016381Y019564D02*
X020001Y019564D01*
X020001Y019466D02*
X016381Y019466D01*
X016381Y019367D02*
X020001Y019367D01*
X020001Y019269D02*
X016381Y019269D01*
X016381Y019170D02*
X020001Y019170D01*
X020001Y019071D02*
X016381Y019071D01*
X016381Y018973D02*
X016393Y018973D01*
X016381Y018961D02*
X016381Y022056D01*
X016566Y022241D01*
X016821Y022241D01*
X017061Y022481D01*
X017061Y022821D01*
X016821Y023061D01*
X016481Y023061D01*
X016241Y022821D01*
X016241Y022566D01*
X016056Y022381D01*
X015921Y022246D01*
X015921Y018961D01*
X015821Y019061D01*
X015481Y019061D01*
X015241Y018821D01*
X015241Y018481D01*
X015481Y018241D01*
X015821Y018241D01*
X015921Y018341D01*
X015921Y018056D01*
X015991Y017986D01*
X015991Y017731D01*
X016231Y017491D01*
X016571Y017491D01*
X016811Y017731D01*
X016811Y018071D01*
X016641Y018241D01*
X016821Y018241D01*
X017061Y018481D01*
X017061Y018821D01*
X016821Y019061D01*
X016481Y019061D01*
X016381Y018961D01*
X016909Y018973D02*
X017393Y018973D01*
X017481Y019061D02*
X017241Y018821D01*
X017241Y018481D01*
X017481Y018241D01*
X017821Y018241D01*
X018001Y018421D01*
X018056Y018421D01*
X018491Y017986D01*
X018491Y017731D01*
X018731Y017491D01*
X019071Y017491D01*
X019311Y017731D01*
X019311Y018071D01*
X019071Y018311D01*
X018816Y018311D01*
X018246Y018881D01*
X018056Y018881D01*
X018001Y018881D01*
X017821Y019061D01*
X017481Y019061D01*
X017295Y018874D02*
X017008Y018874D01*
X017061Y018776D02*
X017241Y018776D01*
X017241Y018677D02*
X017061Y018677D01*
X017061Y018579D02*
X017241Y018579D01*
X017242Y018480D02*
X017060Y018480D01*
X016961Y018382D02*
X017341Y018382D01*
X017439Y018283D02*
X016863Y018283D01*
X016698Y018185D02*
X018292Y018185D01*
X018194Y018283D02*
X017863Y018283D01*
X017961Y018382D02*
X018095Y018382D01*
X018352Y018776D02*
X020001Y018776D01*
X020001Y018874D02*
X018253Y018874D01*
X018450Y018677D02*
X020001Y018677D01*
X020001Y018579D02*
X018549Y018579D01*
X018647Y018480D02*
X020001Y018480D01*
X020001Y018382D02*
X018746Y018382D01*
X018391Y018086D02*
X016796Y018086D01*
X016811Y017988D02*
X018490Y017988D01*
X018491Y017889D02*
X016811Y017889D01*
X016811Y017790D02*
X018491Y017790D01*
X018531Y017692D02*
X016772Y017692D01*
X016673Y017593D02*
X018629Y017593D01*
X018571Y017561D02*
X018431Y017561D01*
X018431Y017181D01*
X018811Y017181D01*
X018811Y017321D01*
X018571Y017561D01*
X018637Y017495D02*
X018728Y017495D01*
X018736Y017396D02*
X019066Y017396D01*
X019075Y017495D02*
X019165Y017495D01*
X019231Y017561D02*
X018991Y017321D01*
X018991Y016981D01*
X019231Y016741D01*
X019571Y016741D01*
X019811Y016981D01*
X019811Y017321D01*
X019571Y017561D01*
X019231Y017561D01*
X019173Y017593D02*
X020001Y017593D01*
X020001Y017495D02*
X019637Y017495D01*
X019736Y017396D02*
X020001Y017396D01*
X020001Y017298D02*
X019811Y017298D01*
X019811Y017199D02*
X020001Y017199D01*
X020001Y017101D02*
X019811Y017101D01*
X019811Y017002D02*
X020001Y017002D01*
X020001Y016904D02*
X019733Y016904D01*
X019635Y016805D02*
X020001Y016805D01*
X020001Y016706D02*
X017671Y016706D01*
X017770Y016608D02*
X020001Y016608D01*
X020001Y016509D02*
X017868Y016509D01*
X017881Y016411D02*
X020001Y016411D01*
X020001Y016312D02*
X017881Y016312D01*
X017881Y016214D02*
X020001Y016214D01*
X020001Y016115D02*
X017881Y016115D01*
X017881Y016017D02*
X020001Y016017D01*
X020001Y015918D02*
X019491Y015918D01*
X019486Y015923D02*
X019321Y015991D01*
X018542Y015991D01*
X018376Y015923D01*
X018250Y015796D01*
X018181Y015631D01*
X018181Y015452D01*
X018250Y015286D01*
X018376Y015160D01*
X018542Y015091D01*
X019321Y015091D01*
X019486Y015160D01*
X019613Y015286D01*
X019681Y015452D01*
X019681Y015631D01*
X019613Y015796D01*
X019486Y015923D01*
X019589Y015820D02*
X020001Y015820D01*
X020001Y015721D02*
X019644Y015721D01*
X019681Y015622D02*
X020001Y015622D01*
X020001Y015524D02*
X019681Y015524D01*
X019670Y015425D02*
X020001Y015425D01*
X020001Y015327D02*
X019629Y015327D01*
X019555Y015228D02*
X020001Y015228D01*
X020001Y015130D02*
X019414Y015130D01*
X020001Y015031D02*
X017881Y015031D01*
X017881Y014933D02*
X020001Y014933D01*
X020001Y014834D02*
X017881Y014834D01*
X017881Y014736D02*
X020001Y014736D01*
X020001Y014637D02*
X017881Y014637D01*
X017881Y014539D02*
X020001Y014539D01*
X020001Y014440D02*
X017881Y014440D01*
X017881Y014341D02*
X020001Y014341D01*
X020001Y014243D02*
X017881Y014243D01*
X017881Y014144D02*
X018393Y014144D01*
X018395Y014146D02*
X018338Y014104D01*
X018288Y014054D01*
X018246Y013997D01*
X018214Y013934D01*
X018192Y013867D01*
X018183Y013811D01*
X018881Y013811D01*
X018881Y013711D01*
X018981Y013711D01*
X018981Y013311D01*
X019267Y013311D01*
X019337Y013322D01*
X019404Y013344D01*
X019467Y013376D01*
X019524Y013418D01*
X019574Y013468D01*
X019616Y013525D01*
X019648Y013588D01*
X019670Y013656D01*
X019679Y013711D01*
X018981Y013711D01*
X018981Y013811D01*
X018881Y013811D01*
X018881Y014211D01*
X018596Y014211D01*
X018526Y014200D01*
X018458Y014178D01*
X018395Y014146D01*
X018282Y014046D02*
X017881Y014046D01*
X017930Y013947D02*
X018221Y013947D01*
X018189Y013849D02*
X018029Y013849D01*
X018127Y013750D02*
X018881Y013750D01*
X018881Y013652D02*
X018981Y013652D01*
X018981Y013750D02*
X020001Y013750D01*
X020001Y013652D02*
X019669Y013652D01*
X019630Y013553D02*
X020001Y013553D01*
X020001Y013455D02*
X019561Y013455D01*
X019427Y013356D02*
X020001Y013356D01*
X020001Y013257D02*
X018620Y013257D01*
X018719Y013159D02*
X020001Y013159D01*
X020001Y013060D02*
X019317Y013060D01*
X019416Y012962D02*
X020001Y012962D01*
X020001Y012863D02*
X019514Y012863D01*
X019613Y012765D02*
X020001Y012765D01*
X020001Y012666D02*
X019711Y012666D01*
X019810Y012568D02*
X020001Y012568D01*
X020001Y012469D02*
X019881Y012469D01*
X019881Y012371D02*
X020001Y012371D01*
X020001Y012272D02*
X019881Y012272D01*
X019881Y012173D02*
X020001Y012173D01*
X020001Y012075D02*
X019881Y012075D01*
X019881Y011976D02*
X020001Y011976D01*
X020001Y011878D02*
X019881Y011878D01*
X019881Y011779D02*
X020001Y011779D01*
X020001Y011681D02*
X019881Y011681D01*
X019881Y011582D02*
X020001Y011582D01*
X020001Y011484D02*
X019881Y011484D01*
X019881Y011385D02*
X020001Y011385D01*
X020001Y011287D02*
X019881Y011287D01*
X019881Y011188D02*
X020001Y011188D01*
X020001Y011089D02*
X019881Y011089D01*
X019881Y010991D02*
X020001Y010991D01*
X020001Y010892D02*
X019881Y010892D01*
X019869Y010794D02*
X020001Y010794D01*
X020001Y010695D02*
X019771Y010695D01*
X019672Y010597D02*
X020001Y010597D01*
X020001Y010498D02*
X019573Y010498D01*
X019475Y010400D02*
X020001Y010400D01*
X020001Y010301D02*
X019376Y010301D01*
X019278Y010203D02*
X020001Y010203D01*
X020001Y010104D02*
X000301Y010104D01*
X000301Y010006D02*
X020001Y010006D01*
X020001Y009907D02*
X000301Y009907D01*
X000301Y009808D02*
X020001Y009808D01*
X020001Y009710D02*
X000301Y009710D01*
X000301Y009611D02*
X020001Y009611D01*
X020001Y009513D02*
X000301Y009513D01*
X000301Y009414D02*
X020001Y009414D01*
X020001Y009316D02*
X000301Y009316D01*
X000301Y009217D02*
X020001Y009217D01*
X020001Y009119D02*
X019129Y009119D01*
X019101Y009133D02*
X019023Y009158D01*
X018951Y009170D01*
X018951Y008701D01*
X018851Y008701D01*
X018851Y008601D01*
X018383Y008601D01*
X018394Y008529D01*
X018419Y008452D01*
X018456Y008379D01*
X018505Y008312D01*
X018562Y008255D01*
X018629Y008206D01*
X018702Y008169D01*
X018753Y008153D01*
X018607Y008092D01*
X018460Y007946D01*
X018381Y007755D01*
X018381Y007548D01*
X018408Y007483D01*
X016306Y005381D01*
X014556Y005381D01*
X014421Y005246D01*
X014061Y004886D01*
X014061Y005071D01*
X013821Y005311D01*
X013636Y005311D01*
X013746Y005421D01*
X014306Y005421D01*
X014496Y005421D01*
X015918Y006842D01*
X015881Y006755D01*
X015881Y006548D01*
X015960Y006357D01*
X016107Y006210D01*
X016298Y006131D01*
X016505Y006131D01*
X016696Y006210D01*
X016842Y006357D01*
X016921Y006548D01*
X016921Y006755D01*
X016842Y006946D01*
X016696Y007092D01*
X016553Y007151D01*
X016696Y007210D01*
X016842Y007357D01*
X016921Y007548D01*
X016921Y007755D01*
X016842Y007946D01*
X016696Y008092D01*
X016549Y008153D01*
X016601Y008169D01*
X016674Y008206D01*
X016740Y008255D01*
X016798Y008312D01*
X016846Y008379D01*
X016883Y008452D01*
X016908Y008529D01*
X016920Y008601D01*
X016451Y008601D01*
X016451Y008701D01*
X016351Y008701D01*
X016351Y008601D01*
X015883Y008601D01*
X015894Y008529D01*
X015919Y008452D01*
X015956Y008379D01*
X016005Y008312D01*
X016062Y008255D01*
X016129Y008206D01*
X016202Y008169D01*
X016253Y008153D01*
X016107Y008092D01*
X015960Y007946D01*
X015881Y007755D01*
X015881Y007548D01*
X015908Y007483D01*
X014306Y005881D01*
X013556Y005881D01*
X013421Y005746D01*
X012921Y005246D01*
X012921Y005211D01*
X012821Y005311D01*
X012481Y005311D01*
X012381Y005211D01*
X012381Y005806D01*
X013418Y006842D01*
X013381Y006755D01*
X013381Y006548D01*
X013460Y006357D01*
X013607Y006210D01*
X013798Y006131D01*
X014005Y006131D01*
X014196Y006210D01*
X014342Y006357D01*
X014421Y006548D01*
X014421Y006755D01*
X014342Y006946D01*
X014196Y007092D01*
X014053Y007151D01*
X014196Y007210D01*
X014342Y007357D01*
X014421Y007548D01*
X014421Y007755D01*
X014342Y007946D01*
X014196Y008092D01*
X014049Y008153D01*
X014101Y008169D01*
X014174Y008206D01*
X014240Y008255D01*
X014298Y008312D01*
X014346Y008379D01*
X014383Y008452D01*
X014408Y008529D01*
X014420Y008601D01*
X013951Y008601D01*
X013951Y008701D01*
X013851Y008701D01*
X013851Y008601D01*
X013383Y008601D01*
X013394Y008529D01*
X013419Y008452D01*
X013456Y008379D01*
X013505Y008312D01*
X013562Y008255D01*
X013629Y008206D01*
X013702Y008169D01*
X013753Y008153D01*
X013607Y008092D01*
X013460Y007946D01*
X013381Y007755D01*
X013381Y007548D01*
X013408Y007483D01*
X011921Y005996D01*
X011921Y005806D01*
X011921Y005211D01*
X011821Y005311D01*
X011481Y005311D01*
X011381Y005211D01*
X011381Y005246D01*
X010881Y005746D01*
X010881Y006806D01*
X010918Y006842D01*
X010881Y006755D01*
X010881Y006548D01*
X010960Y006357D01*
X011107Y006210D01*
X011298Y006131D01*
X011505Y006131D01*
X011696Y006210D01*
X011842Y006357D01*
X011921Y006548D01*
X011921Y006755D01*
X011842Y006946D01*
X011696Y007092D01*
X011553Y007151D01*
X011696Y007210D01*
X011842Y007357D01*
X011921Y007548D01*
X011921Y007755D01*
X011842Y007946D01*
X011696Y008092D01*
X011549Y008153D01*
X011601Y008169D01*
X011674Y008206D01*
X011740Y008255D01*
X011798Y008312D01*
X011846Y008379D01*
X011883Y008452D01*
X011908Y008529D01*
X011920Y008601D01*
X011451Y008601D01*
X011451Y008701D01*
X011920Y008701D01*
X011908Y008773D01*
X011883Y008851D01*
X011846Y008924D01*
X011798Y008990D01*
X011740Y009048D01*
X011674Y009096D01*
X011601Y009133D01*
X011523Y009158D01*
X011451Y009170D01*
X011451Y008701D01*
X011351Y008701D01*
X011351Y008601D01*
X010883Y008601D01*
X010894Y008529D01*
X010919Y008452D01*
X010956Y008379D01*
X011005Y008312D01*
X011062Y008255D01*
X011129Y008206D01*
X011202Y008169D01*
X011253Y008153D01*
X011107Y008092D01*
X010960Y007946D01*
X010881Y007755D01*
X010881Y007548D01*
X010908Y007483D01*
X010421Y006996D01*
X010421Y006806D01*
X010421Y005556D01*
X010556Y005421D01*
X010666Y005311D01*
X010481Y005311D01*
X010241Y005071D01*
X010241Y004731D01*
X010481Y004491D01*
X010821Y004491D01*
X010921Y004591D01*
X010921Y002746D01*
X010556Y002381D01*
X010421Y002246D01*
X010421Y001251D01*
X010241Y001071D01*
X010241Y000731D01*
X010481Y000491D01*
X010821Y000491D01*
X011061Y000731D01*
X011061Y001071D01*
X010881Y001251D01*
X010881Y002056D01*
X011246Y002421D01*
X011246Y002421D01*
X011381Y002556D01*
X011381Y004591D01*
X011481Y004491D01*
X011821Y004491D01*
X011921Y004591D01*
X011921Y002746D01*
X011556Y002381D01*
X011421Y002246D01*
X011421Y001251D01*
X011241Y001071D01*
X011241Y000731D01*
X011481Y000491D01*
X011821Y000491D01*
X012061Y000731D01*
X012061Y001071D01*
X011881Y001251D01*
X011881Y002056D01*
X012246Y002421D01*
X012381Y002556D01*
X012381Y004591D01*
X012481Y004491D01*
X012821Y004491D01*
X012921Y004591D01*
X012921Y002746D01*
X012556Y002381D01*
X012421Y002246D01*
X012421Y001251D01*
X012241Y001071D01*
X012241Y000731D01*
X012481Y000491D01*
X012821Y000491D01*
X013061Y000731D01*
X013061Y001071D01*
X012881Y001251D01*
X012881Y002056D01*
X013246Y002421D01*
X013381Y002556D01*
X013381Y004591D01*
X013481Y004491D01*
X013821Y004491D01*
X013921Y004591D01*
X013921Y004556D01*
X013921Y002746D01*
X013556Y002381D01*
X013421Y002246D01*
X013421Y001251D01*
X013241Y001071D01*
X013241Y000731D01*
X013481Y000491D01*
X013821Y000491D01*
X014061Y000731D01*
X014061Y001071D01*
X013881Y001251D01*
X013881Y002056D01*
X014246Y002421D01*
X014381Y002556D01*
X014381Y004556D01*
X014746Y004921D01*
X016306Y004921D01*
X016496Y004921D01*
X018418Y006842D01*
X018381Y006755D01*
X018381Y006548D01*
X018460Y006357D01*
X018607Y006210D01*
X018798Y006131D01*
X019005Y006131D01*
X019196Y006210D01*
X019342Y006357D01*
X019421Y006548D01*
X019421Y006755D01*
X019342Y006946D01*
X019196Y007092D01*
X019053Y007151D01*
X019196Y007210D01*
X019342Y007357D01*
X019421Y007548D01*
X019421Y007755D01*
X019342Y007946D01*
X019196Y008092D01*
X019049Y008153D01*
X019101Y008169D01*
X019174Y008206D01*
X019240Y008255D01*
X019298Y008312D01*
X019346Y008379D01*
X019383Y008452D01*
X019408Y008529D01*
X019420Y008601D01*
X018951Y008601D01*
X018951Y008701D01*
X019420Y008701D01*
X019408Y008773D01*
X019383Y008851D01*
X019346Y008924D01*
X019298Y008990D01*
X019240Y009048D01*
X019174Y009096D01*
X019101Y009133D01*
X018951Y009119D02*
X018851Y009119D01*
X018851Y009170D02*
X018779Y009158D01*
X018702Y009133D01*
X018629Y009096D01*
X018562Y009048D01*
X018505Y008990D01*
X018456Y008924D01*
X018419Y008851D01*
X018394Y008773D01*
X018383Y008701D01*
X018851Y008701D01*
X018851Y009170D01*
X018851Y009020D02*
X018951Y009020D01*
X018951Y008922D02*
X018851Y008922D01*
X018851Y008823D02*
X018951Y008823D01*
X018951Y008724D02*
X018851Y008724D01*
X018851Y008626D02*
X016451Y008626D01*
X016451Y008701D02*
X016920Y008701D01*
X016908Y008773D01*
X016883Y008851D01*
X016846Y008924D01*
X016798Y008990D01*
X016740Y009048D01*
X016674Y009096D01*
X016601Y009133D01*
X016523Y009158D01*
X016451Y009170D01*
X016451Y008701D01*
X016451Y008724D02*
X016351Y008724D01*
X016351Y008701D02*
X016351Y009170D01*
X016279Y009158D01*
X016202Y009133D01*
X016129Y009096D01*
X016062Y009048D01*
X016005Y008990D01*
X015956Y008924D01*
X015919Y008851D01*
X015894Y008773D01*
X015883Y008701D01*
X016351Y008701D01*
X016351Y008626D02*
X013951Y008626D01*
X013951Y008701D02*
X014420Y008701D01*
X014408Y008773D01*
X014383Y008851D01*
X014346Y008924D01*
X014298Y008990D01*
X014240Y009048D01*
X014174Y009096D01*
X014101Y009133D01*
X014023Y009158D01*
X013951Y009170D01*
X013951Y008701D01*
X013951Y008724D02*
X013851Y008724D01*
X013851Y008701D02*
X013851Y009170D01*
X013779Y009158D01*
X013702Y009133D01*
X013629Y009096D01*
X013562Y009048D01*
X013505Y008990D01*
X013456Y008924D01*
X013419Y008851D01*
X013394Y008773D01*
X013383Y008701D01*
X013851Y008701D01*
X013851Y008626D02*
X011451Y008626D01*
X011451Y008724D02*
X011351Y008724D01*
X011351Y008701D02*
X011351Y009170D01*
X011279Y009158D01*
X011202Y009133D01*
X011129Y009096D01*
X011062Y009048D01*
X011005Y008990D01*
X010956Y008924D01*
X010919Y008851D01*
X010894Y008773D01*
X010883Y008701D01*
X011351Y008701D01*
X011351Y008626D02*
X008951Y008626D01*
X008951Y008601D02*
X008951Y008701D01*
X008851Y008701D01*
X008851Y008601D01*
X008383Y008601D01*
X008394Y008529D01*
X008419Y008452D01*
X008456Y008379D01*
X008505Y008312D01*
X008562Y008255D01*
X008629Y008206D01*
X008702Y008169D01*
X008753Y008153D01*
X008607Y008092D01*
X008460Y007946D01*
X008381Y007755D01*
X008381Y007548D01*
X008460Y007357D01*
X008607Y007210D01*
X008750Y007151D01*
X008607Y007092D01*
X008460Y006946D01*
X008381Y006755D01*
X008381Y006548D01*
X008460Y006357D01*
X008607Y006210D01*
X008798Y006131D01*
X009005Y006131D01*
X009196Y006210D01*
X009342Y006357D01*
X009421Y006548D01*
X009421Y006755D01*
X009385Y006842D01*
X009421Y006806D01*
X009421Y005746D01*
X008921Y005246D01*
X008921Y005211D01*
X008821Y005311D01*
X008481Y005311D01*
X008381Y005211D01*
X008381Y005806D01*
X008381Y005996D01*
X006894Y007483D01*
X006921Y007548D01*
X006921Y007755D01*
X006842Y007946D01*
X006696Y008092D01*
X006549Y008153D01*
X006601Y008169D01*
X006674Y008206D01*
X006740Y008255D01*
X006798Y008312D01*
X006846Y008379D01*
X006883Y008452D01*
X006908Y008529D01*
X006920Y008601D01*
X006451Y008601D01*
X006451Y008701D01*
X006351Y008701D01*
X006351Y008601D01*
X005883Y008601D01*
X005894Y008529D01*
X005919Y008452D01*
X005956Y008379D01*
X006005Y008312D01*
X006062Y008255D01*
X006129Y008206D01*
X006202Y008169D01*
X006253Y008153D01*
X006107Y008092D01*
X005960Y007946D01*
X005881Y007755D01*
X005881Y007548D01*
X005960Y007357D01*
X006107Y007210D01*
X006250Y007151D01*
X006107Y007092D01*
X005960Y006946D01*
X005881Y006755D01*
X005881Y006548D01*
X005960Y006357D01*
X006107Y006210D01*
X006298Y006131D01*
X006505Y006131D01*
X006696Y006210D01*
X006842Y006357D01*
X006921Y006548D01*
X006921Y006755D01*
X006885Y006842D01*
X007921Y005806D01*
X007921Y005211D01*
X007821Y005311D01*
X007481Y005311D01*
X007381Y005211D01*
X007381Y005246D01*
X006881Y005746D01*
X006746Y005881D01*
X005996Y005881D01*
X004394Y007483D01*
X004421Y007548D01*
X004421Y007755D01*
X004342Y007946D01*
X004196Y008092D01*
X004049Y008153D01*
X004101Y008169D01*
X004174Y008206D01*
X004240Y008255D01*
X004298Y008312D01*
X004346Y008379D01*
X004383Y008452D01*
X004408Y008529D01*
X004420Y008601D01*
X003951Y008601D01*
X003951Y008701D01*
X003851Y008701D01*
X003851Y008601D01*
X003383Y008601D01*
X003394Y008529D01*
X003419Y008452D01*
X003456Y008379D01*
X003505Y008312D01*
X003562Y008255D01*
X003629Y008206D01*
X003702Y008169D01*
X003753Y008153D01*
X003607Y008092D01*
X003460Y007946D01*
X003381Y007755D01*
X003381Y007548D01*
X003460Y007357D01*
X003607Y007210D01*
X003750Y007151D01*
X003607Y007092D01*
X003460Y006946D01*
X003381Y006755D01*
X003381Y006548D01*
X003460Y006357D01*
X003607Y006210D01*
X003798Y006131D01*
X004005Y006131D01*
X004196Y006210D01*
X004342Y006357D01*
X004421Y006548D01*
X004421Y006755D01*
X004385Y006842D01*
X005671Y005556D01*
X005806Y005421D01*
X006556Y005421D01*
X006666Y005311D01*
X006481Y005311D01*
X006241Y005071D01*
X006241Y004886D01*
X005881Y005246D01*
X005746Y005381D01*
X003996Y005381D01*
X001894Y007483D01*
X001921Y007548D01*
X001921Y007755D01*
X001842Y007946D01*
X001696Y008092D01*
X001549Y008153D01*
X001601Y008169D01*
X001674Y008206D01*
X001740Y008255D01*
X001798Y008312D01*
X001846Y008379D01*
X001883Y008452D01*
X001908Y008529D01*
X001920Y008601D01*
X001451Y008601D01*
X001451Y008701D01*
X001920Y008701D01*
X001908Y008773D01*
X001883Y008851D01*
X001846Y008924D01*
X001798Y008990D01*
X001740Y009048D01*
X001674Y009096D01*
X001601Y009133D01*
X001523Y009158D01*
X001451Y009170D01*
X001451Y008701D01*
X001351Y008701D01*
X001351Y008601D01*
X000883Y008601D01*
X000894Y008529D01*
X000919Y008452D01*
X000956Y008379D01*
X001005Y008312D01*
X001062Y008255D01*
X001129Y008206D01*
X001202Y008169D01*
X001253Y008153D01*
X001107Y008092D01*
X000960Y007946D01*
X000881Y007755D01*
X000881Y007548D01*
X000960Y007357D01*
X001107Y007210D01*
X001250Y007151D01*
X001107Y007092D01*
X000960Y006946D01*
X000881Y006755D01*
X000881Y006548D01*
X000960Y006357D01*
X001107Y006210D01*
X001298Y006131D01*
X001505Y006131D01*
X001696Y006210D01*
X001842Y006357D01*
X001921Y006548D01*
X001921Y006755D01*
X001885Y006842D01*
X003806Y004921D01*
X003996Y004921D01*
X005556Y004921D01*
X005921Y004556D01*
X005921Y002556D01*
X006056Y002421D01*
X006421Y002056D01*
X006421Y001251D01*
X006241Y001071D01*
X006241Y000731D01*
X006481Y000491D01*
X006821Y000491D01*
X007061Y000731D01*
X007061Y001071D01*
X006881Y001251D01*
X006881Y002246D01*
X006746Y002381D01*
X006381Y002746D01*
X006381Y004556D01*
X006381Y004591D01*
X006481Y004491D01*
X006821Y004491D01*
X006921Y004591D01*
X006921Y002556D01*
X007056Y002421D01*
X007421Y002056D01*
X007421Y001251D01*
X007241Y001071D01*
X007241Y000731D01*
X007481Y000491D01*
X007821Y000491D01*
X008061Y000731D01*
X008061Y001071D01*
X007881Y001251D01*
X007881Y002246D01*
X007746Y002381D01*
X007381Y002746D01*
X007381Y004591D01*
X007481Y004491D01*
X007821Y004491D01*
X007921Y004591D01*
X007921Y002556D01*
X008056Y002421D01*
X008421Y002056D01*
X008421Y001251D01*
X008241Y001071D01*
X008241Y000731D01*
X008481Y000491D01*
X008821Y000491D01*
X009061Y000731D01*
X009061Y001071D01*
X008881Y001251D01*
X008881Y002246D01*
X008746Y002381D01*
X008381Y002746D01*
X008381Y004591D01*
X008481Y004491D01*
X008821Y004491D01*
X008921Y004591D01*
X008921Y002556D01*
X009056Y002421D01*
X009421Y002056D01*
X009421Y001251D01*
X009241Y001071D01*
X009241Y000731D01*
X009481Y000491D01*
X009821Y000491D01*
X010061Y000731D01*
X010061Y001071D01*
X009881Y001251D01*
X009881Y002246D01*
X009746Y002381D01*
X009381Y002746D01*
X009381Y004591D01*
X009481Y004491D01*
X009821Y004491D01*
X010061Y004731D01*
X010061Y005071D01*
X009821Y005311D01*
X009636Y005311D01*
X009746Y005421D01*
X009881Y005556D01*
X009881Y006806D01*
X009881Y006996D01*
X009394Y007483D01*
X009421Y007548D01*
X009421Y007755D01*
X009342Y007946D01*
X009196Y008092D01*
X009049Y008153D01*
X009101Y008169D01*
X009174Y008206D01*
X009240Y008255D01*
X009298Y008312D01*
X009346Y008379D01*
X009383Y008452D01*
X009408Y008529D01*
X009420Y008601D01*
X008951Y008601D01*
X008951Y008701D02*
X009420Y008701D01*
X009408Y008773D01*
X009383Y008851D01*
X009346Y008924D01*
X009298Y008990D01*
X009240Y009048D01*
X009174Y009096D01*
X009101Y009133D01*
X009023Y009158D01*
X008951Y009170D01*
X008951Y008701D01*
X008951Y008724D02*
X008851Y008724D01*
X008851Y008701D02*
X008851Y009170D01*
X008779Y009158D01*
X008702Y009133D01*
X008629Y009096D01*
X008562Y009048D01*
X008505Y008990D01*
X008456Y008924D01*
X008419Y008851D01*
X008394Y008773D01*
X008383Y008701D01*
X008851Y008701D01*
X008851Y008626D02*
X006451Y008626D01*
X006451Y008701D02*
X006920Y008701D01*
X006908Y008773D01*
X006883Y008851D01*
X006846Y008924D01*
X006798Y008990D01*
X006740Y009048D01*
X006674Y009096D01*
X006601Y009133D01*
X006523Y009158D01*
X006451Y009170D01*
X006451Y008701D01*
X006451Y008724D02*
X006351Y008724D01*
X006351Y008701D02*
X006351Y009170D01*
X006279Y009158D01*
X006202Y009133D01*
X006129Y009096D01*
X006062Y009048D01*
X006005Y008990D01*
X005956Y008924D01*
X005919Y008851D01*
X005894Y008773D01*
X005883Y008701D01*
X006351Y008701D01*
X006351Y008626D02*
X003951Y008626D01*
X003951Y008701D02*
X004420Y008701D01*
X004408Y008773D01*
X004383Y008851D01*
X004346Y008924D01*
X004298Y008990D01*
X004240Y009048D01*
X004174Y009096D01*
X004101Y009133D01*
X004023Y009158D01*
X003951Y009170D01*
X003951Y008701D01*
X003951Y008724D02*
X003851Y008724D01*
X003851Y008701D02*
X003851Y009170D01*
X003779Y009158D01*
X003702Y009133D01*
X003629Y009096D01*
X003562Y009048D01*
X003505Y008990D01*
X003456Y008924D01*
X003419Y008851D01*
X003394Y008773D01*
X003383Y008701D01*
X003851Y008701D01*
X003851Y008626D02*
X001451Y008626D01*
X001451Y008724D02*
X001351Y008724D01*
X001351Y008701D02*
X001351Y009170D01*
X001279Y009158D01*
X001202Y009133D01*
X001129Y009096D01*
X001062Y009048D01*
X001005Y008990D01*
X000956Y008924D01*
X000919Y008851D01*
X000894Y008773D01*
X000883Y008701D01*
X001351Y008701D01*
X001351Y008626D02*
X000301Y008626D01*
X000301Y008724D02*
X000886Y008724D01*
X000910Y008823D02*
X000301Y008823D01*
X000301Y008922D02*
X000955Y008922D01*
X001035Y009020D02*
X000301Y009020D01*
X000301Y009119D02*
X001173Y009119D01*
X001351Y009119D02*
X001451Y009119D01*
X001451Y009020D02*
X001351Y009020D01*
X001351Y008922D02*
X001451Y008922D01*
X001451Y008823D02*
X001351Y008823D01*
X001629Y009119D02*
X003673Y009119D01*
X003535Y009020D02*
X001768Y009020D01*
X001847Y008922D02*
X003455Y008922D01*
X003410Y008823D02*
X001892Y008823D01*
X001916Y008724D02*
X003386Y008724D01*
X003395Y008527D02*
X001908Y008527D01*
X001871Y008429D02*
X003431Y008429D01*
X003492Y008330D02*
X001811Y008330D01*
X001709Y008232D02*
X003594Y008232D01*
X003706Y008133D02*
X001596Y008133D01*
X001753Y008035D02*
X003549Y008035D01*
X003456Y007936D02*
X001846Y007936D01*
X001887Y007838D02*
X003416Y007838D01*
X003381Y007739D02*
X001921Y007739D01*
X001921Y007640D02*
X003381Y007640D01*
X003384Y007542D02*
X001919Y007542D01*
X001934Y007443D02*
X003424Y007443D01*
X003472Y007345D02*
X002033Y007345D01*
X002131Y007246D02*
X003571Y007246D01*
X003741Y007148D02*
X002230Y007148D01*
X002328Y007049D02*
X003564Y007049D01*
X003465Y006951D02*
X002427Y006951D01*
X002525Y006852D02*
X003422Y006852D01*
X003381Y006754D02*
X002624Y006754D01*
X002723Y006655D02*
X003381Y006655D01*
X003381Y006556D02*
X002821Y006556D01*
X002920Y006458D02*
X003418Y006458D01*
X003459Y006359D02*
X003018Y006359D01*
X003117Y006261D02*
X003556Y006261D01*
X003723Y006162D02*
X003215Y006162D01*
X003314Y006064D02*
X005163Y006064D01*
X005065Y006162D02*
X004080Y006162D01*
X004246Y006261D02*
X004966Y006261D01*
X004868Y006359D02*
X004343Y006359D01*
X004384Y006458D02*
X004769Y006458D01*
X004671Y006556D02*
X004421Y006556D01*
X004421Y006655D02*
X004572Y006655D01*
X004474Y006754D02*
X004421Y006754D01*
X004631Y007246D02*
X006071Y007246D01*
X005972Y007345D02*
X004533Y007345D01*
X004434Y007443D02*
X005924Y007443D01*
X005884Y007542D02*
X004419Y007542D01*
X004421Y007640D02*
X005881Y007640D01*
X005881Y007739D02*
X004421Y007739D01*
X004387Y007838D02*
X005916Y007838D01*
X005956Y007936D02*
X004346Y007936D01*
X004253Y008035D02*
X006049Y008035D01*
X006206Y008133D02*
X004096Y008133D01*
X004209Y008232D02*
X006094Y008232D01*
X005992Y008330D02*
X004311Y008330D01*
X004371Y008429D02*
X005931Y008429D01*
X005895Y008527D02*
X004408Y008527D01*
X004416Y008724D02*
X005886Y008724D01*
X005910Y008823D02*
X004392Y008823D01*
X004347Y008922D02*
X005955Y008922D01*
X006035Y009020D02*
X004268Y009020D01*
X004129Y009119D02*
X006173Y009119D01*
X006351Y009119D02*
X006451Y009119D01*
X006451Y009020D02*
X006351Y009020D01*
X006351Y008922D02*
X006451Y008922D01*
X006451Y008823D02*
X006351Y008823D01*
X006629Y009119D02*
X008673Y009119D01*
X008535Y009020D02*
X006768Y009020D01*
X006847Y008922D02*
X008455Y008922D01*
X008410Y008823D02*
X006892Y008823D01*
X006916Y008724D02*
X008386Y008724D01*
X008395Y008527D02*
X006908Y008527D01*
X006871Y008429D02*
X008431Y008429D01*
X008492Y008330D02*
X006811Y008330D01*
X006709Y008232D02*
X008594Y008232D01*
X008706Y008133D02*
X006596Y008133D01*
X006753Y008035D02*
X008549Y008035D01*
X008456Y007936D02*
X006846Y007936D01*
X006887Y007838D02*
X008416Y007838D01*
X008381Y007739D02*
X006921Y007739D01*
X006921Y007640D02*
X008381Y007640D01*
X008384Y007542D02*
X006919Y007542D01*
X006934Y007443D02*
X008424Y007443D01*
X008472Y007345D02*
X007033Y007345D01*
X007131Y007246D02*
X008571Y007246D01*
X008741Y007148D02*
X007230Y007148D01*
X007328Y007049D02*
X008564Y007049D01*
X008465Y006951D02*
X007427Y006951D01*
X007525Y006852D02*
X008422Y006852D01*
X008381Y006754D02*
X007624Y006754D01*
X007723Y006655D02*
X008381Y006655D01*
X008381Y006556D02*
X007821Y006556D01*
X007920Y006458D02*
X008418Y006458D01*
X008459Y006359D02*
X008018Y006359D01*
X008117Y006261D02*
X008556Y006261D01*
X008723Y006162D02*
X008215Y006162D01*
X008314Y006064D02*
X009421Y006064D01*
X009421Y006162D02*
X009080Y006162D01*
X009246Y006261D02*
X009421Y006261D01*
X009421Y006359D02*
X009343Y006359D01*
X009384Y006458D02*
X009421Y006458D01*
X009421Y006556D02*
X009421Y006556D01*
X009421Y006655D02*
X009421Y006655D01*
X009421Y006754D02*
X009421Y006754D01*
X009730Y007148D02*
X010573Y007148D01*
X010671Y007246D02*
X009631Y007246D01*
X009533Y007345D02*
X010770Y007345D01*
X010868Y007443D02*
X009434Y007443D01*
X009419Y007542D02*
X010884Y007542D01*
X010881Y007640D02*
X009421Y007640D01*
X009421Y007739D02*
X010881Y007739D01*
X010916Y007838D02*
X009387Y007838D01*
X009346Y007936D02*
X010956Y007936D01*
X011049Y008035D02*
X009253Y008035D01*
X009096Y008133D02*
X011206Y008133D01*
X011094Y008232D02*
X009209Y008232D01*
X009311Y008330D02*
X010992Y008330D01*
X010931Y008429D02*
X009371Y008429D01*
X009408Y008527D02*
X010895Y008527D01*
X010886Y008724D02*
X009416Y008724D01*
X009392Y008823D02*
X010910Y008823D01*
X010955Y008922D02*
X009347Y008922D01*
X009268Y009020D02*
X011035Y009020D01*
X011173Y009119D02*
X009129Y009119D01*
X008951Y009119D02*
X008851Y009119D01*
X008851Y009020D02*
X008951Y009020D01*
X008951Y008922D02*
X008851Y008922D01*
X008851Y008823D02*
X008951Y008823D01*
X009828Y007049D02*
X010474Y007049D01*
X010421Y006951D02*
X009881Y006951D01*
X009881Y006852D02*
X010421Y006852D01*
X010421Y006754D02*
X009881Y006754D01*
X009881Y006655D02*
X010421Y006655D01*
X010421Y006556D02*
X009881Y006556D01*
X009881Y006458D02*
X010421Y006458D01*
X010421Y006359D02*
X009881Y006359D01*
X009881Y006261D02*
X010421Y006261D01*
X010421Y006162D02*
X009881Y006162D01*
X009881Y006064D02*
X010421Y006064D01*
X010421Y005965D02*
X009881Y005965D01*
X009881Y005867D02*
X010421Y005867D01*
X010421Y005768D02*
X009881Y005768D01*
X009881Y005670D02*
X010421Y005670D01*
X010421Y005571D02*
X009881Y005571D01*
X009798Y005473D02*
X010505Y005473D01*
X010603Y005374D02*
X009699Y005374D01*
X009857Y005275D02*
X010446Y005275D01*
X010347Y005177D02*
X009955Y005177D01*
X010054Y005078D02*
X010249Y005078D01*
X010241Y004980D02*
X010061Y004980D01*
X010061Y004881D02*
X010241Y004881D01*
X010241Y004783D02*
X010061Y004783D01*
X010014Y004684D02*
X010288Y004684D01*
X010387Y004586D02*
X009915Y004586D01*
X009387Y004586D02*
X009381Y004586D01*
X009381Y004487D02*
X010921Y004487D01*
X010921Y004389D02*
X009381Y004389D01*
X009381Y004290D02*
X010921Y004290D01*
X010921Y004191D02*
X009381Y004191D01*
X009381Y004093D02*
X010921Y004093D01*
X010921Y003994D02*
X009381Y003994D01*
X009381Y003896D02*
X010921Y003896D01*
X010921Y003797D02*
X009381Y003797D01*
X009381Y003699D02*
X010921Y003699D01*
X010921Y003600D02*
X009381Y003600D01*
X009381Y003502D02*
X010921Y003502D01*
X010921Y003403D02*
X009381Y003403D01*
X009381Y003305D02*
X010921Y003305D01*
X010921Y003206D02*
X009381Y003206D01*
X009381Y003107D02*
X010921Y003107D01*
X010921Y003009D02*
X009381Y003009D01*
X009381Y002910D02*
X010921Y002910D01*
X010921Y002812D02*
X009381Y002812D01*
X009414Y002713D02*
X010888Y002713D01*
X010790Y002615D02*
X009513Y002615D01*
X009611Y002516D02*
X010691Y002516D01*
X010592Y002418D02*
X009710Y002418D01*
X009746Y002381D02*
X009746Y002381D01*
X009808Y002319D02*
X010494Y002319D01*
X010556Y002381D02*
X010556Y002381D01*
X010421Y002221D02*
X009881Y002221D01*
X009881Y002122D02*
X010421Y002122D01*
X010421Y002024D02*
X009881Y002024D01*
X009881Y001925D02*
X010421Y001925D01*
X010421Y001826D02*
X009881Y001826D01*
X009881Y001728D02*
X010421Y001728D01*
X010421Y001629D02*
X009881Y001629D01*
X009881Y001531D02*
X010421Y001531D01*
X010421Y001432D02*
X009881Y001432D01*
X009881Y001334D02*
X010421Y001334D01*
X010405Y001235D02*
X009897Y001235D01*
X009996Y001137D02*
X010307Y001137D01*
X010241Y001038D02*
X010061Y001038D01*
X010061Y000940D02*
X010241Y000940D01*
X010241Y000841D02*
X010061Y000841D01*
X010061Y000742D02*
X010241Y000742D01*
X010329Y000644D02*
X009974Y000644D01*
X009875Y000545D02*
X010427Y000545D01*
X010875Y000545D02*
X011427Y000545D01*
X011329Y000644D02*
X010974Y000644D01*
X011061Y000742D02*
X011241Y000742D01*
X011241Y000841D02*
X011061Y000841D01*
X011061Y000940D02*
X011241Y000940D01*
X011241Y001038D02*
X011061Y001038D01*
X010996Y001137D02*
X011307Y001137D01*
X011405Y001235D02*
X010897Y001235D01*
X010881Y001334D02*
X011421Y001334D01*
X011421Y001432D02*
X010881Y001432D01*
X010881Y001531D02*
X011421Y001531D01*
X011421Y001629D02*
X010881Y001629D01*
X010881Y001728D02*
X011421Y001728D01*
X011421Y001826D02*
X010881Y001826D01*
X010881Y001925D02*
X011421Y001925D01*
X011421Y002024D02*
X010881Y002024D01*
X010947Y002122D02*
X011421Y002122D01*
X011421Y002221D02*
X011046Y002221D01*
X011144Y002319D02*
X011494Y002319D01*
X011592Y002418D02*
X011243Y002418D01*
X011341Y002516D02*
X011691Y002516D01*
X011790Y002615D02*
X011381Y002615D01*
X011381Y002713D02*
X011888Y002713D01*
X011921Y002812D02*
X011381Y002812D01*
X011381Y002910D02*
X011921Y002910D01*
X011921Y003009D02*
X011381Y003009D01*
X011381Y003107D02*
X011921Y003107D01*
X011921Y003206D02*
X011381Y003206D01*
X011381Y003305D02*
X011921Y003305D01*
X011921Y003403D02*
X011381Y003403D01*
X011381Y003502D02*
X011921Y003502D01*
X011921Y003600D02*
X011381Y003600D01*
X011381Y003699D02*
X011921Y003699D01*
X011921Y003797D02*
X011381Y003797D01*
X011381Y003896D02*
X011921Y003896D01*
X011921Y003994D02*
X011381Y003994D01*
X011381Y004093D02*
X011921Y004093D01*
X011921Y004191D02*
X011381Y004191D01*
X011381Y004290D02*
X011921Y004290D01*
X011921Y004389D02*
X011381Y004389D01*
X011381Y004487D02*
X011921Y004487D01*
X011915Y004586D02*
X011921Y004586D01*
X012381Y004586D02*
X012387Y004586D01*
X012381Y004487D02*
X012921Y004487D01*
X012921Y004389D02*
X012381Y004389D01*
X012381Y004290D02*
X012921Y004290D01*
X012921Y004191D02*
X012381Y004191D01*
X012381Y004093D02*
X012921Y004093D01*
X012921Y003994D02*
X012381Y003994D01*
X012381Y003896D02*
X012921Y003896D01*
X012921Y003797D02*
X012381Y003797D01*
X012381Y003699D02*
X012921Y003699D01*
X012921Y003600D02*
X012381Y003600D01*
X012381Y003502D02*
X012921Y003502D01*
X012921Y003403D02*
X012381Y003403D01*
X012381Y003305D02*
X012921Y003305D01*
X012921Y003206D02*
X012381Y003206D01*
X012381Y003107D02*
X012921Y003107D01*
X012921Y003009D02*
X012381Y003009D01*
X012381Y002910D02*
X012921Y002910D01*
X012921Y002812D02*
X012381Y002812D01*
X012381Y002713D02*
X012888Y002713D01*
X012790Y002615D02*
X012381Y002615D01*
X012341Y002516D02*
X012691Y002516D01*
X012592Y002418D02*
X012243Y002418D01*
X012144Y002319D02*
X012494Y002319D01*
X012421Y002221D02*
X012046Y002221D01*
X011947Y002122D02*
X012421Y002122D01*
X012421Y002024D02*
X011881Y002024D01*
X011881Y001925D02*
X012421Y001925D01*
X012421Y001826D02*
X011881Y001826D01*
X011881Y001728D02*
X012421Y001728D01*
X012421Y001629D02*
X011881Y001629D01*
X011881Y001531D02*
X012421Y001531D01*
X012421Y001432D02*
X011881Y001432D01*
X011881Y001334D02*
X012421Y001334D01*
X012405Y001235D02*
X011897Y001235D01*
X011996Y001137D02*
X012307Y001137D01*
X012241Y001038D02*
X012061Y001038D01*
X012061Y000940D02*
X012241Y000940D01*
X012241Y000841D02*
X012061Y000841D01*
X012061Y000742D02*
X012241Y000742D01*
X012329Y000644D02*
X011974Y000644D01*
X011875Y000545D02*
X012427Y000545D01*
X012875Y000545D02*
X013427Y000545D01*
X013329Y000644D02*
X012974Y000644D01*
X013061Y000742D02*
X013241Y000742D01*
X013241Y000841D02*
X013061Y000841D01*
X013061Y000940D02*
X013241Y000940D01*
X013241Y001038D02*
X013061Y001038D01*
X012996Y001137D02*
X013307Y001137D01*
X013405Y001235D02*
X012897Y001235D01*
X012881Y001334D02*
X013421Y001334D01*
X013421Y001432D02*
X012881Y001432D01*
X012881Y001531D02*
X013421Y001531D01*
X013421Y001629D02*
X012881Y001629D01*
X012881Y001728D02*
X013421Y001728D01*
X013421Y001826D02*
X012881Y001826D01*
X012881Y001925D02*
X013421Y001925D01*
X013421Y002024D02*
X012881Y002024D01*
X012947Y002122D02*
X013421Y002122D01*
X013421Y002221D02*
X013046Y002221D01*
X013144Y002319D02*
X013494Y002319D01*
X013592Y002418D02*
X013243Y002418D01*
X013341Y002516D02*
X013691Y002516D01*
X013790Y002615D02*
X013381Y002615D01*
X013381Y002713D02*
X013888Y002713D01*
X013921Y002812D02*
X013381Y002812D01*
X013381Y002910D02*
X013921Y002910D01*
X013921Y003009D02*
X013381Y003009D01*
X013381Y003107D02*
X013921Y003107D01*
X013921Y003206D02*
X013381Y003206D01*
X013381Y003305D02*
X013921Y003305D01*
X013921Y003403D02*
X013381Y003403D01*
X013381Y003502D02*
X013921Y003502D01*
X013921Y003600D02*
X013381Y003600D01*
X013381Y003699D02*
X013921Y003699D01*
X013921Y003797D02*
X013381Y003797D01*
X013381Y003896D02*
X013921Y003896D01*
X013921Y003994D02*
X013381Y003994D01*
X013381Y004093D02*
X013921Y004093D01*
X013921Y004191D02*
X013381Y004191D01*
X013381Y004290D02*
X013921Y004290D01*
X013921Y004389D02*
X013381Y004389D01*
X013381Y004487D02*
X013921Y004487D01*
X013915Y004586D02*
X013921Y004586D01*
X014061Y004980D02*
X014155Y004980D01*
X014253Y005078D02*
X014054Y005078D01*
X013955Y005177D02*
X014352Y005177D01*
X014450Y005275D02*
X013857Y005275D01*
X013699Y005374D02*
X014549Y005374D01*
X014548Y005473D02*
X016397Y005473D01*
X016496Y005571D02*
X014646Y005571D01*
X014745Y005670D02*
X016594Y005670D01*
X016693Y005768D02*
X014843Y005768D01*
X014942Y005867D02*
X016791Y005867D01*
X016890Y005965D02*
X015040Y005965D01*
X015139Y006064D02*
X016989Y006064D01*
X017087Y006162D02*
X016580Y006162D01*
X016746Y006261D02*
X017186Y006261D01*
X017284Y006359D02*
X016843Y006359D01*
X016884Y006458D02*
X017383Y006458D01*
X017481Y006556D02*
X016921Y006556D01*
X016921Y006655D02*
X017580Y006655D01*
X017678Y006754D02*
X016921Y006754D01*
X016881Y006852D02*
X017777Y006852D01*
X017875Y006951D02*
X016837Y006951D01*
X016738Y007049D02*
X017974Y007049D01*
X018073Y007148D02*
X016561Y007148D01*
X016732Y007246D02*
X018171Y007246D01*
X018270Y007345D02*
X016830Y007345D01*
X016878Y007443D02*
X018368Y007443D01*
X018384Y007542D02*
X016919Y007542D01*
X016921Y007640D02*
X018381Y007640D01*
X018381Y007739D02*
X016921Y007739D01*
X016887Y007838D02*
X018416Y007838D01*
X018456Y007936D02*
X016846Y007936D01*
X016753Y008035D02*
X018549Y008035D01*
X018706Y008133D02*
X016596Y008133D01*
X016709Y008232D02*
X018594Y008232D01*
X018492Y008330D02*
X016811Y008330D01*
X016871Y008429D02*
X018431Y008429D01*
X018395Y008527D02*
X016908Y008527D01*
X016916Y008724D02*
X018386Y008724D01*
X018410Y008823D02*
X016892Y008823D01*
X016847Y008922D02*
X018455Y008922D01*
X018535Y009020D02*
X016768Y009020D01*
X016629Y009119D02*
X018673Y009119D01*
X018951Y008626D02*
X020001Y008626D01*
X020001Y008724D02*
X019416Y008724D01*
X019392Y008823D02*
X020001Y008823D01*
X020001Y008922D02*
X019347Y008922D01*
X019268Y009020D02*
X020001Y009020D01*
X020001Y008527D02*
X019408Y008527D01*
X019371Y008429D02*
X020001Y008429D01*
X020001Y008330D02*
X019311Y008330D01*
X019209Y008232D02*
X020001Y008232D01*
X020001Y008133D02*
X019096Y008133D01*
X019253Y008035D02*
X020001Y008035D01*
X020001Y007936D02*
X019346Y007936D01*
X019387Y007838D02*
X020001Y007838D01*
X020001Y007739D02*
X019421Y007739D01*
X019421Y007640D02*
X020001Y007640D01*
X020001Y007542D02*
X019419Y007542D01*
X019378Y007443D02*
X020001Y007443D01*
X020001Y007345D02*
X019330Y007345D01*
X019232Y007246D02*
X020001Y007246D01*
X020001Y007148D02*
X019061Y007148D01*
X019238Y007049D02*
X020001Y007049D01*
X020001Y006951D02*
X019337Y006951D01*
X019381Y006852D02*
X020001Y006852D01*
X020001Y006754D02*
X019421Y006754D01*
X019421Y006655D02*
X020001Y006655D01*
X020001Y006556D02*
X019421Y006556D01*
X019384Y006458D02*
X020001Y006458D01*
X020001Y006359D02*
X019343Y006359D01*
X019246Y006261D02*
X020001Y006261D01*
X020001Y006162D02*
X019080Y006162D01*
X018723Y006162D02*
X017738Y006162D01*
X017836Y006261D02*
X018556Y006261D01*
X018459Y006359D02*
X017935Y006359D01*
X018033Y006458D02*
X018418Y006458D01*
X018381Y006556D02*
X018132Y006556D01*
X018230Y006655D02*
X018381Y006655D01*
X018381Y006754D02*
X018329Y006754D01*
X017639Y006064D02*
X020001Y006064D01*
X020001Y005965D02*
X017540Y005965D01*
X017442Y005867D02*
X020001Y005867D01*
X020001Y005768D02*
X017343Y005768D01*
X017245Y005670D02*
X020001Y005670D01*
X020001Y005571D02*
X017146Y005571D01*
X017048Y005473D02*
X020001Y005473D01*
X020001Y005374D02*
X016949Y005374D01*
X016851Y005275D02*
X020001Y005275D01*
X020001Y005177D02*
X016752Y005177D01*
X016654Y005078D02*
X020001Y005078D01*
X020001Y004980D02*
X016555Y004980D01*
X016223Y006162D02*
X015238Y006162D01*
X015336Y006261D02*
X016056Y006261D01*
X015959Y006359D02*
X015435Y006359D01*
X015533Y006458D02*
X015918Y006458D01*
X015881Y006556D02*
X015632Y006556D01*
X015730Y006655D02*
X015881Y006655D01*
X015881Y006754D02*
X015829Y006754D01*
X015573Y007148D02*
X014061Y007148D01*
X014232Y007246D02*
X015671Y007246D01*
X015770Y007345D02*
X014330Y007345D01*
X014378Y007443D02*
X015868Y007443D01*
X015884Y007542D02*
X014419Y007542D01*
X014421Y007640D02*
X015881Y007640D01*
X015881Y007739D02*
X014421Y007739D01*
X014387Y007838D02*
X015916Y007838D01*
X015956Y007936D02*
X014346Y007936D01*
X014253Y008035D02*
X016049Y008035D01*
X016206Y008133D02*
X014096Y008133D01*
X014209Y008232D02*
X016094Y008232D01*
X015992Y008330D02*
X014311Y008330D01*
X014371Y008429D02*
X015931Y008429D01*
X015895Y008527D02*
X014408Y008527D01*
X014416Y008724D02*
X015886Y008724D01*
X015910Y008823D02*
X014392Y008823D01*
X014347Y008922D02*
X015955Y008922D01*
X016035Y009020D02*
X014268Y009020D01*
X014129Y009119D02*
X016173Y009119D01*
X016351Y009119D02*
X016451Y009119D01*
X016451Y009020D02*
X016351Y009020D01*
X016351Y008922D02*
X016451Y008922D01*
X016451Y008823D02*
X016351Y008823D01*
X015474Y007049D02*
X014238Y007049D01*
X014337Y006951D02*
X015375Y006951D01*
X015277Y006852D02*
X014381Y006852D01*
X014421Y006754D02*
X015178Y006754D01*
X015080Y006655D02*
X014421Y006655D01*
X014421Y006556D02*
X014981Y006556D01*
X014883Y006458D02*
X014384Y006458D01*
X014343Y006359D02*
X014784Y006359D01*
X014686Y006261D02*
X014246Y006261D01*
X014080Y006162D02*
X014587Y006162D01*
X014489Y006064D02*
X012639Y006064D01*
X012738Y006162D02*
X013723Y006162D01*
X013556Y006261D02*
X012836Y006261D01*
X012935Y006359D02*
X013459Y006359D01*
X013418Y006458D02*
X013033Y006458D01*
X013132Y006556D02*
X013381Y006556D01*
X013381Y006655D02*
X013230Y006655D01*
X013329Y006754D02*
X013381Y006754D01*
X013073Y007148D02*
X011561Y007148D01*
X011732Y007246D02*
X013171Y007246D01*
X013270Y007345D02*
X011830Y007345D01*
X011878Y007443D02*
X013368Y007443D01*
X013384Y007542D02*
X011919Y007542D01*
X011921Y007640D02*
X013381Y007640D01*
X013381Y007739D02*
X011921Y007739D01*
X011887Y007838D02*
X013416Y007838D01*
X013456Y007936D02*
X011846Y007936D01*
X011753Y008035D02*
X013549Y008035D01*
X013706Y008133D02*
X011596Y008133D01*
X011709Y008232D02*
X013594Y008232D01*
X013492Y008330D02*
X011811Y008330D01*
X011871Y008429D02*
X013431Y008429D01*
X013395Y008527D02*
X011908Y008527D01*
X011916Y008724D02*
X013386Y008724D01*
X013410Y008823D02*
X011892Y008823D01*
X011847Y008922D02*
X013455Y008922D01*
X013535Y009020D02*
X011768Y009020D01*
X011629Y009119D02*
X013673Y009119D01*
X013851Y009119D02*
X013951Y009119D01*
X013951Y009020D02*
X013851Y009020D01*
X013851Y008922D02*
X013951Y008922D01*
X013951Y008823D02*
X013851Y008823D01*
X012974Y007049D02*
X011738Y007049D01*
X011837Y006951D02*
X012875Y006951D01*
X012777Y006852D02*
X011881Y006852D01*
X011921Y006754D02*
X012678Y006754D01*
X012580Y006655D02*
X011921Y006655D01*
X011921Y006556D02*
X012481Y006556D01*
X012383Y006458D02*
X011884Y006458D01*
X011843Y006359D02*
X012284Y006359D01*
X012186Y006261D02*
X011746Y006261D01*
X011580Y006162D02*
X012087Y006162D01*
X011989Y006064D02*
X010881Y006064D01*
X010881Y006162D02*
X011223Y006162D01*
X011056Y006261D02*
X010881Y006261D01*
X010881Y006359D02*
X010959Y006359D01*
X010918Y006458D02*
X010881Y006458D01*
X010881Y006556D02*
X010881Y006556D01*
X010881Y006655D02*
X010881Y006655D01*
X010881Y006754D02*
X010881Y006754D01*
X010881Y005965D02*
X011921Y005965D01*
X011921Y005867D02*
X010881Y005867D01*
X010881Y005768D02*
X011921Y005768D01*
X011921Y005670D02*
X010958Y005670D01*
X011056Y005571D02*
X011921Y005571D01*
X011921Y005473D02*
X011155Y005473D01*
X011254Y005374D02*
X011921Y005374D01*
X011921Y005275D02*
X011857Y005275D01*
X011446Y005275D02*
X011352Y005275D01*
X011381Y004586D02*
X011387Y004586D01*
X010921Y004586D02*
X010915Y004586D01*
X012381Y005275D02*
X012446Y005275D01*
X012381Y005374D02*
X013049Y005374D01*
X013147Y005473D02*
X012381Y005473D01*
X012381Y005571D02*
X013246Y005571D01*
X013344Y005670D02*
X012381Y005670D01*
X012381Y005768D02*
X013443Y005768D01*
X013541Y005867D02*
X012442Y005867D01*
X012540Y005965D02*
X014390Y005965D01*
X014706Y004881D02*
X020001Y004881D01*
X020001Y004783D02*
X014608Y004783D01*
X014509Y004684D02*
X020001Y004684D01*
X020001Y004586D02*
X014411Y004586D01*
X014381Y004487D02*
X020001Y004487D01*
X020001Y004389D02*
X014381Y004389D01*
X014381Y004290D02*
X020001Y004290D01*
X020001Y004191D02*
X014381Y004191D01*
X014381Y004093D02*
X020001Y004093D01*
X020001Y003994D02*
X014381Y003994D01*
X014381Y003896D02*
X020001Y003896D01*
X020001Y003797D02*
X014381Y003797D01*
X014381Y003699D02*
X020001Y003699D01*
X020001Y003600D02*
X014381Y003600D01*
X014381Y003502D02*
X018013Y003502D01*
X018034Y003510D02*
X017576Y003330D01*
X017192Y003023D01*
X016915Y002617D01*
X016770Y002147D01*
X016770Y001655D01*
X016915Y001185D01*
X017192Y000779D01*
X017576Y000472D01*
X018012Y000301D01*
X002223Y000301D01*
X002504Y000365D01*
X002930Y000611D01*
X003264Y000972D01*
X003478Y001415D01*
X003551Y001901D01*
X003478Y002387D01*
X003478Y002388D01*
X003264Y002831D01*
X002930Y003191D01*
X002504Y003437D01*
X002024Y003547D01*
X001534Y003510D01*
X001076Y003330D01*
X000692Y003023D01*
X000415Y002617D01*
X000301Y002249D01*
X000301Y028053D01*
X000415Y027685D01*
X000692Y027279D01*
X001076Y026972D01*
X001534Y026793D01*
X002024Y026756D01*
X002024Y026756D01*
X002504Y026865D01*
X002930Y027111D01*
X002930Y027111D01*
X002930Y027111D01*
X003264Y027472D01*
X003478Y027915D01*
X003551Y028401D01*
X003546Y028433D02*
X009498Y028433D01*
X009404Y028532D02*
X008085Y028532D01*
X008105Y028538D02*
X008175Y028574D01*
X008240Y028621D01*
X008296Y028677D01*
X008342Y028741D01*
X008378Y028812D01*
X008403Y028887D01*
X008414Y028956D01*
X007961Y028956D01*
X007961Y029055D01*
X008414Y029055D01*
X008405Y029107D01*
X009101Y029107D01*
X009101Y029601D01*
X008214Y029601D01*
X008214Y029409D01*
X008175Y029437D01*
X008105Y029473D01*
X008029Y029497D01*
X007961Y029508D01*
X007961Y029056D01*
X007861Y029056D01*
X007861Y029508D01*
X007793Y029497D01*
X007717Y029473D01*
X007647Y029437D01*
X007582Y029390D01*
X007526Y029334D01*
X007480Y029270D01*
X007444Y029199D01*
X007419Y029124D01*
X007408Y029055D01*
X007861Y029055D01*
X007861Y028956D01*
X007408Y028956D01*
X007419Y028887D01*
X007444Y028812D01*
X007480Y028741D01*
X007526Y028677D01*
X007582Y028621D01*
X007647Y028574D01*
X007717Y028538D01*
X007793Y028514D01*
X007861Y028503D01*
X007861Y028955D01*
X007961Y028955D01*
X007961Y028503D01*
X008029Y028514D01*
X008105Y028538D01*
X007961Y028532D02*
X007861Y028532D01*
X007861Y028630D02*
X007961Y028630D01*
X007961Y028729D02*
X007861Y028729D01*
X007861Y028827D02*
X007961Y028827D01*
X007961Y028926D02*
X007861Y028926D01*
X007861Y029024D02*
X003412Y029024D01*
X003459Y028926D02*
X007413Y028926D01*
X007439Y028827D02*
X003487Y028827D01*
X003502Y028729D02*
X007489Y028729D01*
X007573Y028630D02*
X003517Y028630D01*
X003531Y028532D02*
X007737Y028532D01*
X007728Y028289D02*
X007574Y028289D01*
X007431Y028230D01*
X007322Y028121D01*
X007263Y027978D01*
X007263Y027824D01*
X007322Y027681D01*
X007431Y027572D01*
X007574Y027513D01*
X007728Y027513D01*
X007871Y027572D01*
X007980Y027681D01*
X008039Y027824D01*
X008039Y027978D01*
X007980Y028121D01*
X007871Y028230D01*
X007728Y028289D01*
X007856Y028236D02*
X008446Y028236D01*
X008431Y028230D02*
X008322Y028121D01*
X008263Y027978D01*
X008263Y027824D01*
X008322Y027681D01*
X008431Y027572D01*
X008574Y027513D01*
X008728Y027513D01*
X008871Y027572D01*
X008980Y027681D01*
X009039Y027824D01*
X009039Y027978D01*
X008980Y028121D01*
X008871Y028230D01*
X008728Y028289D01*
X008574Y028289D01*
X008431Y028230D01*
X008339Y028137D02*
X007963Y028137D01*
X008014Y028039D02*
X008289Y028039D01*
X008263Y027940D02*
X008039Y027940D01*
X008039Y027842D02*
X008263Y027842D01*
X008297Y027743D02*
X008006Y027743D01*
X007943Y027645D02*
X008359Y027645D01*
X008495Y027546D02*
X007808Y027546D01*
X007495Y027546D02*
X003300Y027546D01*
X003264Y027472D02*
X003264Y027472D01*
X003242Y027448D02*
X010921Y027448D01*
X010921Y027546D02*
X010808Y027546D01*
X010921Y027349D02*
X003151Y027349D01*
X003059Y027251D02*
X010921Y027251D01*
X010921Y027152D02*
X002968Y027152D01*
X002830Y027054D02*
X010921Y027054D01*
X010921Y026955D02*
X007776Y026955D01*
X007837Y026930D02*
X007716Y026980D01*
X007586Y026980D01*
X007465Y026930D01*
X007417Y026881D01*
X002556Y026881D01*
X002421Y026746D01*
X001921Y026246D01*
X001921Y026056D01*
X001921Y025961D01*
X001821Y026061D01*
X001481Y026061D01*
X001241Y025821D01*
X001241Y025481D01*
X001341Y025381D01*
X001251Y025381D01*
X001071Y025561D01*
X000731Y025561D01*
X000491Y025321D01*
X000491Y024981D01*
X000731Y024741D01*
X001071Y024741D01*
X001251Y024921D01*
X001996Y024921D01*
X002131Y025056D01*
X002246Y025171D01*
X002246Y025171D01*
X002381Y025306D01*
X002381Y026056D01*
X002506Y026181D01*
X002871Y026181D01*
X002871Y026121D01*
X002931Y026121D01*
X002931Y025741D01*
X003071Y025741D01*
X003311Y025981D01*
X003311Y026121D01*
X002931Y026121D01*
X002931Y026181D01*
X003311Y026181D01*
X003311Y026321D01*
X003211Y026421D01*
X007417Y026421D01*
X007465Y026373D01*
X007586Y026323D01*
X007716Y026323D01*
X007837Y026373D01*
X007930Y026465D01*
X007980Y026586D01*
X007980Y026716D01*
X007930Y026837D01*
X007837Y026930D01*
X007910Y026856D02*
X010921Y026856D01*
X010921Y026758D02*
X007962Y026758D01*
X007980Y026659D02*
X010921Y026659D01*
X010921Y026561D02*
X007969Y026561D01*
X007927Y026462D02*
X010921Y026462D01*
X010921Y026364D02*
X007815Y026364D01*
X007487Y026364D02*
X003268Y026364D01*
X003311Y026265D02*
X010921Y026265D01*
X010921Y026167D02*
X002931Y026167D01*
X002871Y026167D02*
X002492Y026167D01*
X002491Y026121D02*
X002491Y025981D01*
X002731Y025741D01*
X002871Y025741D01*
X002871Y026121D01*
X002491Y026121D01*
X002491Y026068D02*
X002393Y026068D01*
X002381Y025970D02*
X002503Y025970D01*
X002602Y025871D02*
X002381Y025871D01*
X002381Y025772D02*
X002700Y025772D01*
X002871Y025772D02*
X002931Y025772D01*
X002931Y025871D02*
X002871Y025871D01*
X002871Y025970D02*
X002931Y025970D01*
X002931Y026068D02*
X002871Y026068D01*
X003102Y025772D02*
X003241Y025772D01*
X003241Y025821D02*
X003241Y025481D01*
X003341Y025381D01*
X003251Y025381D01*
X003071Y025561D01*
X002731Y025561D01*
X002491Y025321D01*
X002491Y024981D01*
X002731Y024741D01*
X003071Y024741D01*
X003251Y024921D01*
X009417Y024921D01*
X009465Y024873D01*
X009586Y024823D01*
X009716Y024823D01*
X009837Y024873D01*
X009930Y024965D01*
X009980Y025086D01*
X009980Y025216D01*
X009930Y025337D01*
X009837Y025430D01*
X009716Y025480D01*
X009586Y025480D01*
X009465Y025430D01*
X009417Y025381D01*
X003961Y025381D01*
X004061Y025481D01*
X004061Y025821D01*
X003821Y026061D01*
X003481Y026061D01*
X003241Y025821D01*
X003201Y025871D02*
X003291Y025871D01*
X003299Y025970D02*
X003390Y025970D01*
X003311Y026068D02*
X010921Y026068D01*
X010921Y025970D02*
X003913Y025970D01*
X004011Y025871D02*
X010921Y025871D01*
X010921Y025772D02*
X004061Y025772D01*
X004061Y025674D02*
X010921Y025674D01*
X010921Y025575D02*
X004061Y025575D01*
X004057Y025477D02*
X009579Y025477D01*
X009723Y025477D02*
X010921Y025477D01*
X010921Y025378D02*
X009889Y025378D01*
X009953Y025280D02*
X010921Y025280D01*
X010921Y025181D02*
X009980Y025181D01*
X009978Y025083D02*
X010921Y025083D01*
X010921Y024984D02*
X009937Y024984D01*
X009850Y024886D02*
X010921Y024886D01*
X010921Y024787D02*
X003117Y024787D01*
X003215Y024886D02*
X009452Y024886D01*
X009574Y024289D02*
X009431Y024230D01*
X009322Y024121D01*
X009263Y023978D01*
X009263Y023824D01*
X009322Y023681D01*
X009431Y023572D01*
X009574Y023513D01*
X009728Y023513D01*
X009871Y023572D01*
X009980Y023681D01*
X010039Y023824D01*
X010039Y023978D01*
X009980Y024121D01*
X009871Y024230D01*
X009728Y024289D01*
X009574Y024289D01*
X009397Y024196D02*
X008905Y024196D01*
X008871Y024230D02*
X008728Y024289D01*
X008574Y024289D01*
X008431Y024230D01*
X008322Y024121D01*
X008263Y023978D01*
X008263Y023824D01*
X008322Y023681D01*
X008431Y023572D01*
X008574Y023513D01*
X008728Y023513D01*
X008871Y023572D01*
X008980Y023681D01*
X009039Y023824D01*
X009039Y023978D01*
X008980Y024121D01*
X008871Y024230D01*
X008990Y024097D02*
X009313Y024097D01*
X009272Y023999D02*
X009031Y023999D01*
X009039Y023900D02*
X009263Y023900D01*
X009273Y023802D02*
X009030Y023802D01*
X008989Y023703D02*
X009313Y023703D01*
X009399Y023604D02*
X008903Y023604D01*
X008399Y023604D02*
X008039Y023604D01*
X008039Y023601D02*
X007951Y023513D01*
X007351Y023513D01*
X007263Y023601D01*
X007263Y024201D01*
X007351Y024289D01*
X007951Y024289D01*
X008039Y024201D01*
X008039Y023601D01*
X008039Y023703D02*
X008313Y023703D01*
X008273Y023802D02*
X008039Y023802D01*
X008039Y023900D02*
X008263Y023900D01*
X008272Y023999D02*
X008039Y023999D01*
X008039Y024097D02*
X008313Y024097D01*
X008397Y024196D02*
X008039Y024196D01*
X007263Y024196D02*
X000301Y024196D01*
X000301Y024294D02*
X010921Y024294D01*
X010921Y024196D02*
X010905Y024196D01*
X010921Y024393D02*
X000301Y024393D01*
X000301Y024491D02*
X010921Y024491D01*
X010921Y024590D02*
X000301Y024590D01*
X000301Y024688D02*
X010921Y024688D01*
X011381Y024688D02*
X011987Y024688D01*
X011965Y024680D02*
X011873Y024587D01*
X011823Y024466D01*
X011823Y024336D01*
X011866Y024232D01*
X011728Y024289D01*
X011574Y024289D01*
X011431Y024230D01*
X011381Y024180D01*
X011381Y026457D01*
X011465Y026373D01*
X011586Y026323D01*
X011716Y026323D01*
X011837Y026373D01*
X011886Y026421D01*
X016591Y026421D01*
X016491Y026321D01*
X016491Y026181D01*
X016871Y026181D01*
X016871Y026121D01*
X016931Y026121D01*
X016931Y025741D01*
X017071Y025741D01*
X017311Y025981D01*
X017311Y026121D01*
X016931Y026121D01*
X016931Y026181D01*
X017311Y026181D01*
X017311Y026321D01*
X017211Y026421D01*
X017556Y026421D01*
X017921Y026056D01*
X017921Y025961D01*
X017821Y026061D01*
X017481Y026061D01*
X017241Y025821D01*
X017241Y025481D01*
X017481Y025241D01*
X017821Y025241D01*
X018028Y025449D01*
X018056Y025421D01*
X018491Y024986D01*
X018491Y024981D01*
X018731Y024741D01*
X019071Y024741D01*
X019311Y024981D01*
X019311Y025321D01*
X019071Y025561D01*
X018731Y025561D01*
X018649Y025479D01*
X018381Y025746D01*
X018381Y026056D01*
X018381Y026246D01*
X017881Y026746D01*
X017746Y026881D01*
X011886Y026881D01*
X011837Y026930D01*
X011716Y026980D01*
X011586Y026980D01*
X011465Y026930D01*
X011381Y026846D01*
X011381Y027623D01*
X011431Y027572D01*
X011574Y027513D01*
X011728Y027513D01*
X011871Y027572D01*
X011980Y027681D01*
X012039Y027824D01*
X012039Y027978D01*
X011980Y028121D01*
X011871Y028230D01*
X011728Y028289D01*
X011574Y028289D01*
X011431Y028230D01*
X011381Y028180D01*
X011381Y029107D01*
X011888Y029107D01*
X011887Y029106D01*
X011887Y028905D01*
X011964Y028720D01*
X012106Y028578D01*
X012291Y028501D01*
X012492Y028501D01*
X012677Y028578D01*
X012819Y028720D01*
X012896Y028905D01*
X012896Y029106D01*
X012819Y029291D01*
X012677Y029433D01*
X012492Y029510D01*
X012291Y029510D01*
X012106Y029433D01*
X012089Y029416D01*
X012089Y030001D01*
X018012Y030001D01*
X017576Y029830D01*
X017192Y029523D01*
X016915Y029117D01*
X016770Y028647D01*
X016770Y028155D01*
X016915Y027685D01*
X017192Y027279D01*
X017576Y026972D01*
X018034Y026793D01*
X018524Y026756D01*
X019004Y026865D01*
X019430Y027111D01*
X019430Y027111D01*
X019764Y027472D01*
X019764Y027472D01*
X019978Y027915D01*
X020001Y028070D01*
X020001Y025881D01*
X019821Y026061D01*
X019481Y026061D01*
X019241Y025821D01*
X019241Y025481D01*
X019481Y025241D01*
X019821Y025241D01*
X020001Y025421D01*
X020001Y002232D01*
X019978Y002387D01*
X019978Y002388D01*
X019764Y002831D01*
X019430Y003191D01*
X019004Y003437D01*
X018524Y003547D01*
X018034Y003510D01*
X018034Y003510D01*
X017762Y003403D02*
X014381Y003403D01*
X014381Y003305D02*
X017544Y003305D01*
X017576Y003330D02*
X017576Y003330D01*
X017421Y003206D02*
X014381Y003206D01*
X014381Y003107D02*
X017297Y003107D01*
X017192Y003023D02*
X017192Y003023D01*
X017192Y003023D01*
X017182Y003009D02*
X014381Y003009D01*
X014381Y002910D02*
X017115Y002910D01*
X017047Y002812D02*
X014381Y002812D01*
X014381Y002713D02*
X016980Y002713D01*
X016915Y002617D02*
X016915Y002617D01*
X016914Y002615D02*
X014381Y002615D01*
X014341Y002516D02*
X016884Y002516D01*
X016853Y002418D02*
X014243Y002418D01*
X014144Y002319D02*
X016823Y002319D01*
X016792Y002221D02*
X014046Y002221D01*
X013947Y002122D02*
X016770Y002122D01*
X016770Y002147D02*
X016770Y002147D01*
X016770Y002024D02*
X013881Y002024D01*
X013881Y001925D02*
X016770Y001925D01*
X016770Y001826D02*
X013881Y001826D01*
X013881Y001728D02*
X016770Y001728D01*
X016770Y001655D02*
X016770Y001655D01*
X016778Y001629D02*
X013881Y001629D01*
X013881Y001531D02*
X016808Y001531D01*
X016838Y001432D02*
X013881Y001432D01*
X013881Y001334D02*
X016869Y001334D01*
X016899Y001235D02*
X013897Y001235D01*
X013996Y001137D02*
X016948Y001137D01*
X016915Y001185D02*
X016915Y001185D01*
X017015Y001038D02*
X014061Y001038D01*
X014061Y000940D02*
X017082Y000940D01*
X017149Y000841D02*
X014061Y000841D01*
X014061Y000742D02*
X017237Y000742D01*
X017192Y000779D02*
X017192Y000779D01*
X017192Y000779D01*
X017361Y000644D02*
X013974Y000644D01*
X013875Y000545D02*
X017484Y000545D01*
X017576Y000472D02*
X017576Y000472D01*
X017641Y000447D02*
X002645Y000447D01*
X002504Y000365D02*
X002504Y000365D01*
X002430Y000348D02*
X017892Y000348D01*
X019599Y003009D02*
X020001Y003009D01*
X020001Y003107D02*
X019508Y003107D01*
X019430Y003191D02*
X019430Y003191D01*
X019404Y003206D02*
X020001Y003206D01*
X020001Y003305D02*
X019234Y003305D01*
X019063Y003403D02*
X020001Y003403D01*
X020001Y003502D02*
X018721Y003502D01*
X018524Y003547D02*
X018524Y003547D01*
X019004Y003437D02*
X019004Y003437D01*
X019690Y002910D02*
X020001Y002910D01*
X020001Y002812D02*
X019774Y002812D01*
X019764Y002831D02*
X019764Y002831D01*
X019821Y002713D02*
X020001Y002713D01*
X020001Y002615D02*
X019868Y002615D01*
X019916Y002516D02*
X020001Y002516D01*
X020001Y002418D02*
X019963Y002418D01*
X019988Y002319D02*
X020001Y002319D01*
X013387Y004586D02*
X013381Y004586D01*
X012921Y004586D02*
X012915Y004586D01*
X012950Y005275D02*
X012857Y005275D01*
X011451Y008823D02*
X011351Y008823D01*
X011351Y008922D02*
X011451Y008922D01*
X011451Y009020D02*
X011351Y009020D01*
X011351Y009119D02*
X011451Y009119D01*
X009421Y005965D02*
X008381Y005965D01*
X008381Y005867D02*
X009421Y005867D01*
X009421Y005768D02*
X008381Y005768D01*
X008381Y005670D02*
X009344Y005670D01*
X009246Y005571D02*
X008381Y005571D01*
X008381Y005473D02*
X009147Y005473D01*
X009049Y005374D02*
X008381Y005374D01*
X008381Y005275D02*
X008446Y005275D01*
X008857Y005275D02*
X008950Y005275D01*
X008915Y004586D02*
X008921Y004586D01*
X008921Y004487D02*
X008381Y004487D01*
X008381Y004389D02*
X008921Y004389D01*
X008921Y004290D02*
X008381Y004290D01*
X008381Y004191D02*
X008921Y004191D01*
X008921Y004093D02*
X008381Y004093D01*
X008381Y003994D02*
X008921Y003994D01*
X008921Y003896D02*
X008381Y003896D01*
X008381Y003797D02*
X008921Y003797D01*
X008921Y003699D02*
X008381Y003699D01*
X008381Y003600D02*
X008921Y003600D01*
X008921Y003502D02*
X008381Y003502D01*
X008381Y003403D02*
X008921Y003403D01*
X008921Y003305D02*
X008381Y003305D01*
X008381Y003206D02*
X008921Y003206D01*
X008921Y003107D02*
X008381Y003107D01*
X008381Y003009D02*
X008921Y003009D01*
X008921Y002910D02*
X008381Y002910D01*
X008381Y002812D02*
X008921Y002812D01*
X008921Y002713D02*
X008414Y002713D01*
X008513Y002615D02*
X008921Y002615D01*
X008961Y002516D02*
X008611Y002516D01*
X008710Y002418D02*
X009059Y002418D01*
X009158Y002319D02*
X008808Y002319D01*
X008881Y002221D02*
X009256Y002221D01*
X009355Y002122D02*
X008881Y002122D01*
X008881Y002024D02*
X009421Y002024D01*
X009421Y001925D02*
X008881Y001925D01*
X008881Y001826D02*
X009421Y001826D01*
X009421Y001728D02*
X008881Y001728D01*
X008881Y001629D02*
X009421Y001629D01*
X009421Y001531D02*
X008881Y001531D01*
X008881Y001432D02*
X009421Y001432D01*
X009421Y001334D02*
X008881Y001334D01*
X008897Y001235D02*
X009405Y001235D01*
X009307Y001137D02*
X008996Y001137D01*
X009061Y001038D02*
X009241Y001038D01*
X009241Y000940D02*
X009061Y000940D01*
X009061Y000841D02*
X009241Y000841D01*
X009241Y000742D02*
X009061Y000742D01*
X008974Y000644D02*
X009329Y000644D01*
X009427Y000545D02*
X008875Y000545D01*
X008427Y000545D02*
X007875Y000545D01*
X007974Y000644D02*
X008329Y000644D01*
X008241Y000742D02*
X008061Y000742D01*
X008061Y000841D02*
X008241Y000841D01*
X008241Y000940D02*
X008061Y000940D01*
X008061Y001038D02*
X008241Y001038D01*
X008307Y001137D02*
X007996Y001137D01*
X007897Y001235D02*
X008405Y001235D01*
X008421Y001334D02*
X007881Y001334D01*
X007881Y001432D02*
X008421Y001432D01*
X008421Y001531D02*
X007881Y001531D01*
X007881Y001629D02*
X008421Y001629D01*
X008421Y001728D02*
X007881Y001728D01*
X007881Y001826D02*
X008421Y001826D01*
X008421Y001925D02*
X007881Y001925D01*
X007881Y002024D02*
X008421Y002024D01*
X008355Y002122D02*
X007881Y002122D01*
X007881Y002221D02*
X008256Y002221D01*
X008158Y002319D02*
X007808Y002319D01*
X007710Y002418D02*
X008059Y002418D01*
X007961Y002516D02*
X007611Y002516D01*
X007513Y002615D02*
X007921Y002615D01*
X007921Y002713D02*
X007414Y002713D01*
X007381Y002812D02*
X007921Y002812D01*
X007921Y002910D02*
X007381Y002910D01*
X007381Y003009D02*
X007921Y003009D01*
X007921Y003107D02*
X007381Y003107D01*
X007381Y003206D02*
X007921Y003206D01*
X007921Y003305D02*
X007381Y003305D01*
X007381Y003403D02*
X007921Y003403D01*
X007921Y003502D02*
X007381Y003502D01*
X007381Y003600D02*
X007921Y003600D01*
X007921Y003699D02*
X007381Y003699D01*
X007381Y003797D02*
X007921Y003797D01*
X007921Y003896D02*
X007381Y003896D01*
X007381Y003994D02*
X007921Y003994D01*
X007921Y004093D02*
X007381Y004093D01*
X007381Y004191D02*
X007921Y004191D01*
X007921Y004290D02*
X007381Y004290D01*
X007381Y004389D02*
X007921Y004389D01*
X007921Y004487D02*
X007381Y004487D01*
X007381Y004586D02*
X007387Y004586D01*
X007915Y004586D02*
X007921Y004586D01*
X007921Y005275D02*
X007857Y005275D01*
X007921Y005374D02*
X007254Y005374D01*
X007352Y005275D02*
X007446Y005275D01*
X007155Y005473D02*
X007921Y005473D01*
X007921Y005571D02*
X007056Y005571D01*
X006958Y005670D02*
X007921Y005670D01*
X007921Y005768D02*
X006859Y005768D01*
X006761Y005867D02*
X007860Y005867D01*
X007762Y005965D02*
X005912Y005965D01*
X005814Y006064D02*
X007663Y006064D01*
X007565Y006162D02*
X006580Y006162D01*
X006746Y006261D02*
X007466Y006261D01*
X007368Y006359D02*
X006843Y006359D01*
X006884Y006458D02*
X007269Y006458D01*
X007171Y006556D02*
X006921Y006556D01*
X006921Y006655D02*
X007072Y006655D01*
X006974Y006754D02*
X006921Y006754D01*
X006241Y007148D02*
X004730Y007148D01*
X004828Y007049D02*
X006064Y007049D01*
X005965Y006951D02*
X004927Y006951D01*
X005025Y006852D02*
X005922Y006852D01*
X005881Y006754D02*
X005124Y006754D01*
X005223Y006655D02*
X005881Y006655D01*
X005881Y006556D02*
X005321Y006556D01*
X005420Y006458D02*
X005918Y006458D01*
X005959Y006359D02*
X005518Y006359D01*
X005617Y006261D02*
X006056Y006261D01*
X006223Y006162D02*
X005715Y006162D01*
X005360Y005867D02*
X003511Y005867D01*
X003412Y005965D02*
X005262Y005965D01*
X005459Y005768D02*
X003609Y005768D01*
X003708Y005670D02*
X005557Y005670D01*
X005656Y005571D02*
X003806Y005571D01*
X003905Y005473D02*
X005755Y005473D01*
X005754Y005374D02*
X006603Y005374D01*
X006446Y005275D02*
X005852Y005275D01*
X005951Y005177D02*
X006347Y005177D01*
X006249Y005078D02*
X006049Y005078D01*
X006148Y004980D02*
X006241Y004980D01*
X006381Y004586D02*
X006387Y004586D01*
X006381Y004487D02*
X006921Y004487D01*
X006921Y004389D02*
X006381Y004389D01*
X006381Y004290D02*
X006921Y004290D01*
X006921Y004191D02*
X006381Y004191D01*
X006381Y004093D02*
X006921Y004093D01*
X006921Y003994D02*
X006381Y003994D01*
X006381Y003896D02*
X006921Y003896D01*
X006921Y003797D02*
X006381Y003797D01*
X006381Y003699D02*
X006921Y003699D01*
X006921Y003600D02*
X006381Y003600D01*
X006381Y003502D02*
X006921Y003502D01*
X006921Y003403D02*
X006381Y003403D01*
X006381Y003305D02*
X006921Y003305D01*
X006921Y003206D02*
X006381Y003206D01*
X006381Y003107D02*
X006921Y003107D01*
X006921Y003009D02*
X006381Y003009D01*
X006381Y002910D02*
X006921Y002910D01*
X006921Y002812D02*
X006381Y002812D01*
X006414Y002713D02*
X006921Y002713D01*
X006921Y002615D02*
X006513Y002615D01*
X006611Y002516D02*
X006961Y002516D01*
X007059Y002418D02*
X006710Y002418D01*
X006808Y002319D02*
X007158Y002319D01*
X007256Y002221D02*
X006881Y002221D01*
X006881Y002122D02*
X007355Y002122D01*
X007421Y002024D02*
X006881Y002024D01*
X006881Y001925D02*
X007421Y001925D01*
X007421Y001826D02*
X006881Y001826D01*
X006881Y001728D02*
X007421Y001728D01*
X007421Y001629D02*
X006881Y001629D01*
X006881Y001531D02*
X007421Y001531D01*
X007421Y001432D02*
X006881Y001432D01*
X006881Y001334D02*
X007421Y001334D01*
X007405Y001235D02*
X006897Y001235D01*
X006996Y001137D02*
X007307Y001137D01*
X007241Y001038D02*
X007061Y001038D01*
X007061Y000940D02*
X007241Y000940D01*
X007241Y000841D02*
X007061Y000841D01*
X007061Y000742D02*
X007241Y000742D01*
X007329Y000644D02*
X006974Y000644D01*
X006875Y000545D02*
X007427Y000545D01*
X006427Y000545D02*
X002816Y000545D01*
X002930Y000611D02*
X002930Y000611D01*
X002960Y000644D02*
X006329Y000644D01*
X006241Y000742D02*
X003052Y000742D01*
X003143Y000841D02*
X006241Y000841D01*
X006241Y000940D02*
X003235Y000940D01*
X003264Y000972D02*
X003264Y000972D01*
X003296Y001038D02*
X006241Y001038D01*
X006307Y001137D02*
X003344Y001137D01*
X003391Y001235D02*
X006405Y001235D01*
X006421Y001334D02*
X003439Y001334D01*
X003478Y001415D02*
X003478Y001415D01*
X003480Y001432D02*
X006421Y001432D01*
X006421Y001531D02*
X003495Y001531D01*
X003510Y001629D02*
X006421Y001629D01*
X006421Y001728D02*
X003525Y001728D01*
X003540Y001826D02*
X006421Y001826D01*
X006421Y001925D02*
X003548Y001925D01*
X003533Y002024D02*
X006421Y002024D01*
X006355Y002122D02*
X003518Y002122D01*
X003503Y002221D02*
X006256Y002221D01*
X006158Y002319D02*
X003488Y002319D01*
X003463Y002418D02*
X006059Y002418D01*
X005961Y002516D02*
X003416Y002516D01*
X003368Y002615D02*
X005921Y002615D01*
X005921Y002713D02*
X003321Y002713D01*
X003274Y002812D02*
X005921Y002812D01*
X005921Y002910D02*
X003190Y002910D01*
X003264Y002831D02*
X003264Y002831D01*
X003099Y003009D02*
X005921Y003009D01*
X005921Y003107D02*
X003008Y003107D01*
X002930Y003191D02*
X002930Y003191D01*
X002904Y003206D02*
X005921Y003206D01*
X005921Y003305D02*
X002734Y003305D01*
X002563Y003403D02*
X005921Y003403D01*
X005921Y003502D02*
X002221Y003502D01*
X002024Y003547D02*
X002024Y003547D01*
X001534Y003510D02*
X001534Y003510D01*
X001513Y003502D02*
X000301Y003502D01*
X000301Y003600D02*
X005921Y003600D01*
X005921Y003699D02*
X000301Y003699D01*
X000301Y003797D02*
X005921Y003797D01*
X005921Y003896D02*
X000301Y003896D01*
X000301Y003994D02*
X005921Y003994D01*
X005921Y004093D02*
X000301Y004093D01*
X000301Y004191D02*
X005921Y004191D01*
X005921Y004290D02*
X000301Y004290D01*
X000301Y004389D02*
X005921Y004389D01*
X005921Y004487D02*
X000301Y004487D01*
X000301Y004586D02*
X005891Y004586D01*
X005793Y004684D02*
X000301Y004684D01*
X000301Y004783D02*
X005694Y004783D01*
X005596Y004881D02*
X000301Y004881D01*
X000301Y004980D02*
X003747Y004980D01*
X003649Y005078D02*
X000301Y005078D01*
X000301Y005177D02*
X003550Y005177D01*
X003452Y005275D02*
X000301Y005275D01*
X000301Y005374D02*
X003353Y005374D01*
X003255Y005473D02*
X000301Y005473D01*
X000301Y005571D02*
X003156Y005571D01*
X003057Y005670D02*
X000301Y005670D01*
X000301Y005768D02*
X002959Y005768D01*
X002860Y005867D02*
X000301Y005867D01*
X000301Y005965D02*
X002762Y005965D01*
X002663Y006064D02*
X000301Y006064D01*
X000301Y006162D02*
X001223Y006162D01*
X001056Y006261D02*
X000301Y006261D01*
X000301Y006359D02*
X000959Y006359D01*
X000918Y006458D02*
X000301Y006458D01*
X000301Y006556D02*
X000881Y006556D01*
X000881Y006655D02*
X000301Y006655D01*
X000301Y006754D02*
X000881Y006754D01*
X000922Y006852D02*
X000301Y006852D01*
X000301Y006951D02*
X000965Y006951D01*
X001064Y007049D02*
X000301Y007049D01*
X000301Y007148D02*
X001241Y007148D01*
X001071Y007246D02*
X000301Y007246D01*
X000301Y007345D02*
X000972Y007345D01*
X000924Y007443D02*
X000301Y007443D01*
X000301Y007542D02*
X000884Y007542D01*
X000881Y007640D02*
X000301Y007640D01*
X000301Y007739D02*
X000881Y007739D01*
X000916Y007838D02*
X000301Y007838D01*
X000301Y007936D02*
X000956Y007936D01*
X001049Y008035D02*
X000301Y008035D01*
X000301Y008133D02*
X001206Y008133D01*
X001094Y008232D02*
X000301Y008232D01*
X000301Y008330D02*
X000992Y008330D01*
X000931Y008429D02*
X000301Y008429D01*
X000301Y008527D02*
X000895Y008527D01*
X001024Y010203D02*
X000301Y010203D01*
X000301Y010301D02*
X000926Y010301D01*
X000827Y010400D02*
X000301Y010400D01*
X000301Y010498D02*
X000729Y010498D01*
X000630Y010597D02*
X000301Y010597D01*
X000301Y010695D02*
X000532Y010695D01*
X000433Y010794D02*
X000301Y010794D01*
X000301Y010892D02*
X000421Y010892D01*
X000421Y010991D02*
X000301Y010991D01*
X000301Y011089D02*
X000421Y011089D01*
X000421Y011188D02*
X000301Y011188D01*
X000301Y011287D02*
X000421Y011287D01*
X000421Y011385D02*
X000301Y011385D01*
X000301Y011484D02*
X000421Y011484D01*
X000421Y011582D02*
X000301Y011582D01*
X000301Y011681D02*
X000421Y011681D01*
X000421Y011779D02*
X000301Y011779D01*
X000301Y011878D02*
X000421Y011878D01*
X000421Y011976D02*
X000301Y011976D01*
X000301Y012075D02*
X000421Y012075D01*
X000421Y012173D02*
X000301Y012173D01*
X000301Y012272D02*
X000421Y012272D01*
X000421Y012371D02*
X000301Y012371D01*
X000301Y012469D02*
X000421Y012469D01*
X000421Y012568D02*
X000301Y012568D01*
X000301Y012666D02*
X000421Y012666D01*
X000439Y012765D02*
X000301Y012765D01*
X000301Y012863D02*
X000538Y012863D01*
X000637Y012962D02*
X000301Y012962D01*
X000301Y013060D02*
X000735Y013060D01*
X000875Y013356D02*
X000301Y013356D01*
X000301Y013455D02*
X000741Y013455D01*
X000728Y013468D02*
X000778Y013418D01*
X000835Y013376D01*
X000898Y013344D01*
X000966Y013322D01*
X001036Y013311D01*
X001321Y013311D01*
X001321Y013711D01*
X001421Y013711D01*
X001421Y013311D01*
X001707Y013311D01*
X001777Y013322D01*
X001844Y013344D01*
X001907Y013376D01*
X001964Y013418D01*
X002014Y013468D01*
X002056Y013525D01*
X002088Y013588D01*
X002110Y013656D01*
X002119Y013711D01*
X001421Y013711D01*
X001421Y013811D01*
X001321Y013811D01*
X001321Y013711D01*
X000623Y013711D01*
X000632Y013656D01*
X000654Y013588D01*
X000686Y013525D01*
X000728Y013468D01*
X000672Y013553D02*
X000301Y013553D01*
X000301Y013652D02*
X000634Y013652D01*
X000623Y013811D02*
X001321Y013811D01*
X001321Y014211D01*
X001036Y014211D01*
X000966Y014200D01*
X000898Y014178D01*
X000835Y014146D01*
X000778Y014104D01*
X000728Y014054D01*
X000686Y013997D01*
X000654Y013934D01*
X000632Y013867D01*
X000623Y013811D01*
X000629Y013849D02*
X000301Y013849D01*
X000301Y013947D02*
X000661Y013947D01*
X000722Y014046D02*
X000301Y014046D01*
X000301Y014144D02*
X000833Y014144D01*
X001321Y014144D02*
X001421Y014144D01*
X001421Y014211D02*
X001421Y013811D01*
X002119Y013811D01*
X002110Y013867D01*
X002088Y013934D01*
X002056Y013997D01*
X002014Y014054D01*
X001964Y014104D01*
X001907Y014146D01*
X001844Y014178D01*
X001777Y014200D01*
X001707Y014211D01*
X001421Y014211D01*
X001421Y014046D02*
X001321Y014046D01*
X001321Y013947D02*
X001421Y013947D01*
X001421Y013849D02*
X001321Y013849D01*
X001321Y013750D02*
X000301Y013750D01*
X000301Y014243D02*
X002171Y014243D01*
X002171Y014341D02*
X000301Y014341D01*
X000301Y014440D02*
X002171Y014440D01*
X002171Y014539D02*
X000301Y014539D01*
X000301Y014637D02*
X002171Y014637D01*
X002171Y014736D02*
X000301Y014736D01*
X000301Y014834D02*
X002171Y014834D01*
X002171Y014933D02*
X000301Y014933D01*
X000301Y015031D02*
X002171Y015031D01*
X002171Y015130D02*
X001854Y015130D01*
X001926Y015160D02*
X002053Y015286D01*
X002121Y015452D01*
X002121Y015631D01*
X002053Y015796D01*
X001926Y015923D01*
X001761Y015991D01*
X000982Y015991D01*
X000816Y015923D01*
X000690Y015796D01*
X000621Y015631D01*
X000621Y015452D01*
X000690Y015286D01*
X000816Y015160D01*
X000982Y015091D01*
X001761Y015091D01*
X001926Y015160D01*
X001995Y015228D02*
X002171Y015228D01*
X002171Y015327D02*
X002069Y015327D01*
X002110Y015425D02*
X002171Y015425D01*
X002171Y015524D02*
X002121Y015524D01*
X002121Y015622D02*
X002171Y015622D01*
X002171Y015721D02*
X002084Y015721D01*
X002029Y015820D02*
X002171Y015820D01*
X002171Y015918D02*
X001931Y015918D01*
X002171Y016017D02*
X000301Y016017D01*
X000301Y016115D02*
X002112Y016115D01*
X002368Y016509D02*
X004241Y016509D01*
X004241Y016481D02*
X004481Y016241D01*
X004621Y016241D01*
X004621Y016621D01*
X004241Y016621D01*
X004241Y016481D01*
X004312Y016411D02*
X002467Y016411D01*
X002565Y016312D02*
X004410Y016312D01*
X004621Y016312D02*
X004681Y016312D01*
X004681Y016241D02*
X004821Y016241D01*
X005061Y016481D01*
X005061Y016621D01*
X004681Y016621D01*
X004681Y016241D01*
X004681Y016411D02*
X004621Y016411D01*
X004621Y016509D02*
X004681Y016509D01*
X004681Y016608D02*
X004621Y016608D01*
X004621Y016621D02*
X004681Y016621D01*
X004681Y016681D01*
X004621Y016681D01*
X004621Y016621D01*
X004621Y016681D02*
X004241Y016681D01*
X004241Y016821D01*
X004481Y017061D01*
X004621Y017061D01*
X004621Y016681D01*
X004621Y016706D02*
X004681Y016706D01*
X004681Y016681D02*
X004681Y017061D01*
X004821Y017061D01*
X005061Y016821D01*
X005061Y016681D01*
X004681Y016681D01*
X004681Y016805D02*
X004621Y016805D01*
X004621Y016904D02*
X004681Y016904D01*
X004681Y017002D02*
X004621Y017002D01*
X004422Y017002D02*
X002311Y017002D01*
X002311Y016981D02*
X002071Y016741D01*
X001731Y016741D01*
X001491Y016981D01*
X001491Y017321D01*
X001671Y017501D01*
X001671Y018801D01*
X001491Y018981D01*
X001491Y019321D01*
X001671Y019501D01*
X001671Y020801D01*
X001491Y020981D01*
X001491Y021321D01*
X001671Y021501D01*
X001671Y022801D01*
X001491Y022981D01*
X001491Y023321D01*
X001731Y023561D01*
X002071Y023561D01*
X002311Y023321D01*
X002311Y022981D01*
X002131Y022801D01*
X002131Y021501D01*
X002311Y021321D01*
X002311Y020981D01*
X002131Y020801D01*
X002131Y019501D01*
X002311Y019321D01*
X002311Y018981D01*
X002131Y018801D01*
X002131Y017501D01*
X002311Y017321D01*
X002311Y016981D01*
X002233Y016904D02*
X004324Y016904D01*
X004241Y016805D02*
X002135Y016805D01*
X002270Y016608D02*
X004241Y016608D01*
X004241Y016706D02*
X001171Y016706D01*
X001135Y016805D02*
X001668Y016805D01*
X001569Y016904D02*
X001233Y016904D01*
X001311Y017002D02*
X001491Y017002D01*
X001491Y017101D02*
X001311Y017101D01*
X001311Y017199D02*
X001491Y017199D01*
X001491Y017298D02*
X001311Y017298D01*
X001236Y017396D02*
X001566Y017396D01*
X001665Y017495D02*
X001137Y017495D01*
X000665Y017495D02*
X000301Y017495D01*
X000301Y017593D02*
X001671Y017593D01*
X001671Y017692D02*
X000301Y017692D01*
X000301Y017790D02*
X001671Y017790D01*
X001671Y017889D02*
X000301Y017889D01*
X000301Y017988D02*
X001671Y017988D01*
X001671Y018086D02*
X000301Y018086D01*
X000301Y018185D02*
X001671Y018185D01*
X001671Y018283D02*
X000301Y018283D01*
X000301Y018382D02*
X001671Y018382D01*
X001671Y018480D02*
X000301Y018480D01*
X000301Y018579D02*
X001671Y018579D01*
X001671Y018677D02*
X000301Y018677D01*
X000301Y018776D02*
X000697Y018776D01*
X000731Y018741D02*
X001071Y018741D01*
X001311Y018981D01*
X001311Y019321D01*
X001071Y019561D01*
X000731Y019561D01*
X000491Y019321D01*
X000491Y018981D01*
X000731Y018741D01*
X000598Y018874D02*
X000301Y018874D01*
X000301Y018973D02*
X000500Y018973D01*
X000491Y019071D02*
X000301Y019071D01*
X000301Y019170D02*
X000491Y019170D01*
X000491Y019269D02*
X000301Y019269D01*
X000301Y019367D02*
X000537Y019367D01*
X000636Y019466D02*
X000301Y019466D01*
X000301Y019564D02*
X001671Y019564D01*
X001671Y019663D02*
X000301Y019663D01*
X000301Y019761D02*
X001671Y019761D01*
X001671Y019860D02*
X000301Y019860D01*
X000301Y019958D02*
X001671Y019958D01*
X001671Y020057D02*
X000301Y020057D01*
X000301Y020155D02*
X001671Y020155D01*
X001671Y020254D02*
X000301Y020254D01*
X000301Y020353D02*
X001671Y020353D01*
X001671Y020451D02*
X000301Y020451D01*
X000301Y020550D02*
X001671Y020550D01*
X001671Y020648D02*
X000301Y020648D01*
X000301Y020747D02*
X000726Y020747D01*
X000731Y020741D02*
X001071Y020741D01*
X001311Y020981D01*
X001311Y021321D01*
X001071Y021561D01*
X000731Y021561D01*
X000491Y021321D01*
X000491Y020981D01*
X000731Y020741D01*
X000627Y020845D02*
X000301Y020845D01*
X000301Y020944D02*
X000529Y020944D01*
X000491Y021042D02*
X000301Y021042D01*
X000301Y021141D02*
X000491Y021141D01*
X000491Y021239D02*
X000301Y021239D01*
X000301Y021338D02*
X000508Y021338D01*
X000607Y021437D02*
X000301Y021437D01*
X000301Y021535D02*
X000705Y021535D01*
X001097Y021535D02*
X001671Y021535D01*
X001671Y021634D02*
X000301Y021634D01*
X000301Y021732D02*
X001671Y021732D01*
X001671Y021831D02*
X000301Y021831D01*
X000301Y021929D02*
X001671Y021929D01*
X001671Y022028D02*
X000301Y022028D01*
X000301Y022126D02*
X001671Y022126D01*
X001671Y022225D02*
X000301Y022225D01*
X000301Y022323D02*
X001671Y022323D01*
X001671Y022422D02*
X000301Y022422D01*
X000301Y022521D02*
X001671Y022521D01*
X001671Y022619D02*
X000301Y022619D01*
X000301Y022718D02*
X001671Y022718D01*
X001656Y022816D02*
X001146Y022816D01*
X001071Y022741D02*
X001311Y022981D01*
X001311Y023321D01*
X001071Y023561D01*
X000731Y023561D01*
X000491Y023321D01*
X000491Y022981D01*
X000731Y022741D01*
X001071Y022741D01*
X001244Y022915D02*
X001558Y022915D01*
X001491Y023013D02*
X001311Y023013D01*
X001311Y023112D02*
X001491Y023112D01*
X001491Y023210D02*
X001311Y023210D01*
X001311Y023309D02*
X001491Y023309D01*
X001578Y023407D02*
X001225Y023407D01*
X001126Y023506D02*
X001676Y023506D01*
X002126Y023506D02*
X010971Y023506D01*
X010921Y023604D02*
X010903Y023604D01*
X011070Y023407D02*
X002225Y023407D01*
X002311Y023309D02*
X011168Y023309D01*
X011267Y023210D02*
X002311Y023210D01*
X002311Y023112D02*
X013615Y023112D01*
X013433Y023013D02*
X012869Y023013D01*
X012967Y022915D02*
X013335Y022915D01*
X013241Y022816D02*
X013061Y022816D01*
X013061Y022718D02*
X013241Y022718D01*
X013241Y022619D02*
X013061Y022619D01*
X013061Y022521D02*
X013241Y022521D01*
X013301Y022422D02*
X013002Y022422D01*
X012903Y022323D02*
X013399Y022323D01*
X013421Y022225D02*
X012881Y022225D01*
X012881Y022126D02*
X013421Y022126D01*
X013421Y022028D02*
X012881Y022028D01*
X012881Y021929D02*
X013421Y021929D01*
X013421Y021831D02*
X012881Y021831D01*
X012881Y021732D02*
X013421Y021732D01*
X013421Y021634D02*
X012881Y021634D01*
X012881Y021535D02*
X013421Y021535D01*
X013421Y021437D02*
X012881Y021437D01*
X012881Y021338D02*
X013421Y021338D01*
X013421Y021239D02*
X012881Y021239D01*
X012881Y021141D02*
X013421Y021141D01*
X013421Y021042D02*
X012881Y021042D01*
X012881Y020944D02*
X013421Y020944D01*
X013421Y020845D02*
X012881Y020845D01*
X012881Y020747D02*
X013421Y020747D01*
X013323Y020648D02*
X012881Y020648D01*
X012875Y020550D02*
X013224Y020550D01*
X013126Y020451D02*
X012776Y020451D01*
X012678Y020353D02*
X013027Y020353D01*
X012929Y020254D02*
X012579Y020254D01*
X012481Y020155D02*
X012921Y020155D01*
X012921Y020057D02*
X012382Y020057D01*
X012381Y019958D02*
X012921Y019958D01*
X012921Y019860D02*
X012381Y019860D01*
X012381Y019761D02*
X012921Y019761D01*
X012921Y019663D02*
X012381Y019663D01*
X012381Y019564D02*
X012921Y019564D01*
X012921Y019466D02*
X012381Y019466D01*
X012381Y019367D02*
X012921Y019367D01*
X012921Y019269D02*
X012381Y019269D01*
X012381Y019170D02*
X012921Y019170D01*
X012921Y019071D02*
X012381Y019071D01*
X012381Y018973D02*
X012393Y018973D01*
X011921Y018973D02*
X011909Y018973D01*
X011921Y019071D02*
X011381Y019071D01*
X011381Y018973D02*
X011393Y018973D01*
X011381Y019170D02*
X011921Y019170D01*
X011921Y019269D02*
X011381Y019269D01*
X011381Y019367D02*
X011921Y019367D01*
X011921Y019466D02*
X011381Y019466D01*
X011381Y019564D02*
X011921Y019564D01*
X011921Y019663D02*
X011381Y019663D01*
X011381Y019761D02*
X011921Y019761D01*
X011921Y019860D02*
X011381Y019860D01*
X011381Y019958D02*
X011921Y019958D01*
X011921Y020057D02*
X011382Y020057D01*
X011481Y020155D02*
X011921Y020155D01*
X011929Y020254D02*
X011579Y020254D01*
X011678Y020353D02*
X012027Y020353D01*
X012126Y020451D02*
X011776Y020451D01*
X011875Y020550D02*
X012224Y020550D01*
X012323Y020648D02*
X011881Y020648D01*
X011881Y020747D02*
X012421Y020747D01*
X012421Y020845D02*
X011881Y020845D01*
X011881Y020944D02*
X012421Y020944D01*
X012421Y021042D02*
X011881Y021042D01*
X011881Y021141D02*
X012421Y021141D01*
X012421Y021239D02*
X011881Y021239D01*
X011881Y021338D02*
X012421Y021338D01*
X012421Y021437D02*
X011881Y021437D01*
X011881Y021535D02*
X012421Y021535D01*
X012421Y021634D02*
X011881Y021634D01*
X011881Y021732D02*
X012421Y021732D01*
X012421Y021831D02*
X011881Y021831D01*
X011881Y021929D02*
X012421Y021929D01*
X012421Y022028D02*
X011881Y022028D01*
X011881Y022126D02*
X012421Y022126D01*
X012421Y022225D02*
X011881Y022225D01*
X011903Y022323D02*
X012399Y022323D01*
X012301Y022422D02*
X012002Y022422D01*
X012061Y022521D02*
X012241Y022521D01*
X012241Y022619D02*
X012061Y022619D01*
X012061Y022718D02*
X012241Y022718D01*
X012241Y022816D02*
X012061Y022816D01*
X011967Y022915D02*
X012335Y022915D01*
X012433Y023013D02*
X011869Y023013D01*
X011433Y023013D02*
X010869Y023013D01*
X010967Y022915D02*
X011335Y022915D01*
X011241Y022816D02*
X011061Y022816D01*
X011061Y022718D02*
X011241Y022718D01*
X011241Y022619D02*
X011061Y022619D01*
X011061Y022521D02*
X011241Y022521D01*
X011301Y022422D02*
X011002Y022422D01*
X010903Y022323D02*
X011399Y022323D01*
X011421Y022225D02*
X010881Y022225D01*
X010881Y022126D02*
X011421Y022126D01*
X011421Y022028D02*
X010881Y022028D01*
X010881Y021929D02*
X011421Y021929D01*
X011421Y021831D02*
X010881Y021831D01*
X010881Y021732D02*
X011421Y021732D01*
X011421Y021634D02*
X010881Y021634D01*
X010881Y021535D02*
X011421Y021535D01*
X011421Y021437D02*
X010881Y021437D01*
X010881Y021338D02*
X011421Y021338D01*
X011421Y021239D02*
X010881Y021239D01*
X010881Y021141D02*
X011421Y021141D01*
X011421Y021042D02*
X010881Y021042D01*
X010881Y020944D02*
X011421Y020944D01*
X011421Y020845D02*
X010881Y020845D01*
X010881Y020747D02*
X011421Y020747D01*
X011323Y020648D02*
X010881Y020648D01*
X010875Y020550D02*
X011224Y020550D01*
X011126Y020451D02*
X010776Y020451D01*
X010678Y020353D02*
X011027Y020353D01*
X010929Y020254D02*
X010579Y020254D01*
X010481Y020155D02*
X010921Y020155D01*
X010921Y020057D02*
X010382Y020057D01*
X010381Y019958D02*
X010921Y019958D01*
X010921Y019860D02*
X010381Y019860D01*
X010381Y019761D02*
X010921Y019761D01*
X010921Y019663D02*
X010381Y019663D01*
X010381Y019564D02*
X010921Y019564D01*
X010921Y019466D02*
X010381Y019466D01*
X010381Y019367D02*
X010921Y019367D01*
X010921Y019269D02*
X010381Y019269D01*
X010381Y019170D02*
X010921Y019170D01*
X010921Y019071D02*
X010381Y019071D01*
X010381Y018973D02*
X010393Y018973D01*
X009921Y018973D02*
X009909Y018973D01*
X009921Y019071D02*
X009381Y019071D01*
X009381Y018973D02*
X009393Y018973D01*
X009381Y019170D02*
X009921Y019170D01*
X009921Y019269D02*
X009381Y019269D01*
X009381Y019367D02*
X009921Y019367D01*
X009921Y019466D02*
X009381Y019466D01*
X009381Y019564D02*
X009921Y019564D01*
X009921Y019663D02*
X009381Y019663D01*
X009381Y019761D02*
X009921Y019761D01*
X009921Y019860D02*
X009381Y019860D01*
X009381Y019958D02*
X009921Y019958D01*
X009921Y020057D02*
X009382Y020057D01*
X009481Y020155D02*
X009921Y020155D01*
X009929Y020254D02*
X009579Y020254D01*
X009678Y020353D02*
X010027Y020353D01*
X010126Y020451D02*
X009776Y020451D01*
X009875Y020550D02*
X010224Y020550D01*
X010323Y020648D02*
X009881Y020648D01*
X009881Y020747D02*
X010421Y020747D01*
X010421Y020845D02*
X009881Y020845D01*
X009881Y020944D02*
X010421Y020944D01*
X010421Y021042D02*
X009881Y021042D01*
X009881Y021141D02*
X010421Y021141D01*
X010421Y021239D02*
X009881Y021239D01*
X009881Y021338D02*
X010421Y021338D01*
X010421Y021437D02*
X009881Y021437D01*
X009881Y021535D02*
X010421Y021535D01*
X010421Y021634D02*
X009881Y021634D01*
X009881Y021732D02*
X010421Y021732D01*
X010421Y021831D02*
X009881Y021831D01*
X009894Y021929D02*
X010421Y021929D01*
X010421Y022028D02*
X009956Y022028D01*
X009980Y022126D02*
X010421Y022126D01*
X010421Y022225D02*
X009976Y022225D01*
X009935Y022323D02*
X010399Y022323D01*
X010301Y022422D02*
X010002Y022422D01*
X010061Y022521D02*
X010241Y022521D01*
X010241Y022619D02*
X010061Y022619D01*
X010061Y022718D02*
X010241Y022718D01*
X010241Y022816D02*
X010061Y022816D01*
X009967Y022915D02*
X010335Y022915D01*
X010433Y023013D02*
X009869Y023013D01*
X009433Y023013D02*
X008869Y023013D01*
X008967Y022915D02*
X009335Y022915D01*
X009241Y022816D02*
X009061Y022816D01*
X009061Y022718D02*
X009241Y022718D01*
X009241Y022619D02*
X009061Y022619D01*
X009061Y022521D02*
X009241Y022521D01*
X009301Y022422D02*
X009002Y022422D01*
X008903Y022323D02*
X009367Y022323D01*
X009326Y022225D02*
X008881Y022225D01*
X008881Y022126D02*
X009323Y022126D01*
X009347Y022028D02*
X008881Y022028D01*
X008881Y021929D02*
X009409Y021929D01*
X009421Y021831D02*
X008932Y021831D01*
X008973Y021732D02*
X009421Y021732D01*
X009421Y021634D02*
X008980Y021634D01*
X008959Y021535D02*
X009421Y021535D01*
X009421Y021437D02*
X008901Y021437D01*
X008881Y021338D02*
X009421Y021338D01*
X009421Y021239D02*
X008881Y021239D01*
X008881Y021141D02*
X009421Y021141D01*
X009421Y021042D02*
X008881Y021042D01*
X008881Y020944D02*
X009421Y020944D01*
X009421Y020845D02*
X008881Y020845D01*
X008881Y020747D02*
X009421Y020747D01*
X009323Y020648D02*
X008881Y020648D01*
X008875Y020550D02*
X009224Y020550D01*
X009126Y020451D02*
X008776Y020451D01*
X008678Y020353D02*
X009027Y020353D01*
X008929Y020254D02*
X008579Y020254D01*
X008481Y020155D02*
X008921Y020155D01*
X008921Y020057D02*
X008382Y020057D01*
X008381Y019958D02*
X008921Y019958D01*
X008921Y019860D02*
X008381Y019860D01*
X008381Y019761D02*
X008921Y019761D01*
X008921Y019663D02*
X008381Y019663D01*
X008381Y019564D02*
X008921Y019564D01*
X008921Y019466D02*
X008381Y019466D01*
X008381Y019367D02*
X008921Y019367D01*
X008921Y019269D02*
X008381Y019269D01*
X008381Y019170D02*
X008921Y019170D01*
X008921Y019071D02*
X008381Y019071D01*
X008381Y018973D02*
X008393Y018973D01*
X008909Y018973D02*
X008921Y018973D01*
X007921Y018973D02*
X007909Y018973D01*
X007921Y019071D02*
X007381Y019071D01*
X007381Y018973D02*
X007393Y018973D01*
X007381Y019170D02*
X007921Y019170D01*
X007921Y019269D02*
X007381Y019269D01*
X007381Y019367D02*
X007921Y019367D01*
X007921Y019466D02*
X007381Y019466D01*
X007381Y019564D02*
X007921Y019564D01*
X007921Y019663D02*
X007381Y019663D01*
X007381Y019761D02*
X007921Y019761D01*
X007921Y019860D02*
X007381Y019860D01*
X007381Y019958D02*
X007921Y019958D01*
X007921Y020057D02*
X007382Y020057D01*
X007481Y020155D02*
X007921Y020155D01*
X007929Y020254D02*
X007579Y020254D01*
X007678Y020353D02*
X008027Y020353D01*
X008126Y020451D02*
X007776Y020451D01*
X007875Y020550D02*
X008224Y020550D01*
X008323Y020648D02*
X007881Y020648D01*
X007881Y020747D02*
X008421Y020747D01*
X008421Y020845D02*
X007881Y020845D01*
X007908Y020944D02*
X008421Y020944D01*
X008421Y021042D02*
X007962Y021042D01*
X007980Y021141D02*
X008421Y021141D01*
X008421Y021239D02*
X007970Y021239D01*
X007929Y021338D02*
X008421Y021338D01*
X008401Y021437D02*
X007881Y021437D01*
X007881Y021535D02*
X008344Y021535D01*
X008323Y021634D02*
X007881Y021634D01*
X007881Y021732D02*
X008329Y021732D01*
X008370Y021831D02*
X007881Y021831D01*
X007881Y021929D02*
X008421Y021929D01*
X008421Y022028D02*
X007881Y022028D01*
X007881Y022126D02*
X008421Y022126D01*
X008421Y022225D02*
X007881Y022225D01*
X007903Y022323D02*
X008399Y022323D01*
X008301Y022422D02*
X008002Y022422D01*
X008061Y022521D02*
X008241Y022521D01*
X008241Y022619D02*
X008061Y022619D01*
X008061Y022718D02*
X008241Y022718D01*
X008241Y022816D02*
X008061Y022816D01*
X007967Y022915D02*
X008335Y022915D01*
X008433Y023013D02*
X007869Y023013D01*
X007433Y023013D02*
X006869Y023013D01*
X006967Y022915D02*
X007335Y022915D01*
X007241Y022816D02*
X007061Y022816D01*
X007061Y022718D02*
X007241Y022718D01*
X007241Y022619D02*
X007061Y022619D01*
X007061Y022521D02*
X007241Y022521D01*
X007301Y022422D02*
X007002Y022422D01*
X006903Y022323D02*
X007399Y022323D01*
X007421Y022225D02*
X006881Y022225D01*
X006881Y022126D02*
X007421Y022126D01*
X007421Y022028D02*
X006881Y022028D01*
X006881Y021929D02*
X007421Y021929D01*
X007421Y021831D02*
X006881Y021831D01*
X006881Y021732D02*
X007421Y021732D01*
X007421Y021634D02*
X006881Y021634D01*
X006881Y021535D02*
X007421Y021535D01*
X007421Y021437D02*
X006881Y021437D01*
X006881Y021338D02*
X007374Y021338D01*
X007332Y021239D02*
X006881Y021239D01*
X006881Y021141D02*
X007323Y021141D01*
X007341Y021042D02*
X006881Y021042D01*
X006881Y020944D02*
X007394Y020944D01*
X007421Y020845D02*
X006881Y020845D01*
X006881Y020747D02*
X007421Y020747D01*
X007323Y020648D02*
X006881Y020648D01*
X006875Y020550D02*
X007224Y020550D01*
X007126Y020451D02*
X006776Y020451D01*
X006678Y020353D02*
X007027Y020353D01*
X007056Y020381D02*
X007056Y020381D01*
X006929Y020254D02*
X006579Y020254D01*
X006481Y020155D02*
X006921Y020155D01*
X006921Y020057D02*
X006382Y020057D01*
X006381Y019958D02*
X006921Y019958D01*
X006921Y019860D02*
X006381Y019860D01*
X006381Y019761D02*
X006921Y019761D01*
X006921Y019663D02*
X006381Y019663D01*
X006381Y019564D02*
X006921Y019564D01*
X006921Y019466D02*
X006381Y019466D01*
X006381Y019367D02*
X006921Y019367D01*
X006921Y019269D02*
X006381Y019269D01*
X006381Y019170D02*
X006921Y019170D01*
X006921Y019071D02*
X006381Y019071D01*
X006381Y018973D02*
X006393Y018973D01*
X005921Y018973D02*
X005909Y018973D01*
X005921Y019071D02*
X002311Y019071D01*
X002303Y018973D02*
X004393Y018973D01*
X004481Y019061D02*
X004241Y018821D01*
X004241Y018481D01*
X004481Y018241D01*
X004821Y018241D01*
X005061Y018481D01*
X005061Y018821D01*
X004821Y019061D01*
X004481Y019061D01*
X004295Y018874D02*
X002204Y018874D01*
X002131Y018776D02*
X004241Y018776D01*
X004241Y018677D02*
X002131Y018677D01*
X002131Y018579D02*
X004241Y018579D01*
X004242Y018480D02*
X002131Y018480D01*
X002131Y018382D02*
X004341Y018382D01*
X004439Y018283D02*
X002131Y018283D01*
X002131Y018185D02*
X005921Y018185D01*
X005921Y018283D02*
X005863Y018283D01*
X005921Y018086D02*
X002131Y018086D01*
X002131Y017988D02*
X004408Y017988D01*
X004481Y018061D02*
X004241Y017821D01*
X004241Y017481D01*
X004481Y017241D01*
X004821Y017241D01*
X005061Y017481D01*
X005061Y017821D01*
X004821Y018061D01*
X004481Y018061D01*
X004309Y017889D02*
X002131Y017889D01*
X002131Y017790D02*
X004241Y017790D01*
X004241Y017692D02*
X002131Y017692D01*
X002131Y017593D02*
X004241Y017593D01*
X004241Y017495D02*
X002137Y017495D01*
X002236Y017396D02*
X004326Y017396D01*
X004425Y017298D02*
X002311Y017298D01*
X002311Y017199D02*
X005241Y017199D01*
X005241Y017101D02*
X002311Y017101D01*
X002631Y016214D02*
X005921Y016214D01*
X005921Y016312D02*
X004892Y016312D01*
X004991Y016411D02*
X005921Y016411D01*
X005921Y016509D02*
X005801Y016509D01*
X005921Y016115D02*
X002631Y016115D01*
X002631Y016017D02*
X005921Y016017D01*
X005921Y015918D02*
X004491Y015918D01*
X004486Y015923D02*
X004321Y015991D01*
X003542Y015991D01*
X003376Y015923D01*
X003250Y015796D01*
X003181Y015631D01*
X003181Y015452D01*
X003250Y015286D01*
X003376Y015160D01*
X003542Y015091D01*
X004321Y015091D01*
X004486Y015160D01*
X004613Y015286D01*
X004681Y015452D01*
X004681Y015631D01*
X004613Y015796D01*
X004486Y015923D01*
X004589Y015820D02*
X005921Y015820D01*
X005921Y015721D02*
X004644Y015721D01*
X004681Y015622D02*
X005921Y015622D01*
X005921Y015524D02*
X004681Y015524D01*
X004670Y015425D02*
X005921Y015425D01*
X005921Y015327D02*
X004629Y015327D01*
X004555Y015228D02*
X005921Y015228D01*
X005921Y015130D02*
X004414Y015130D01*
X004267Y014211D02*
X003981Y014211D01*
X003981Y013811D01*
X004679Y013811D01*
X004670Y013867D01*
X004648Y013934D01*
X004616Y013997D01*
X004574Y014054D01*
X004524Y014104D01*
X004467Y014146D01*
X004404Y014178D01*
X004337Y014200D01*
X004267Y014211D01*
X004469Y014144D02*
X005241Y014144D01*
X005241Y014046D02*
X004581Y014046D01*
X004641Y013947D02*
X005241Y013947D01*
X005241Y013849D02*
X004673Y013849D01*
X004669Y013652D02*
X005311Y013652D01*
X005266Y013750D02*
X003981Y013750D01*
X003981Y013849D02*
X003881Y013849D01*
X003881Y013811D02*
X003881Y014211D01*
X003596Y014211D01*
X003526Y014200D01*
X003458Y014178D01*
X003395Y014146D01*
X003338Y014104D01*
X003288Y014054D01*
X003246Y013997D01*
X003214Y013934D01*
X003192Y013867D01*
X003183Y013811D01*
X003881Y013811D01*
X003881Y013750D02*
X002631Y013750D01*
X002631Y013652D02*
X003194Y013652D01*
X003232Y013553D02*
X002631Y013553D01*
X002631Y013455D02*
X003301Y013455D01*
X003189Y013849D02*
X002631Y013849D01*
X002631Y013947D02*
X003221Y013947D01*
X003282Y014046D02*
X002631Y014046D01*
X002631Y014144D02*
X003393Y014144D01*
X003881Y014144D02*
X003981Y014144D01*
X003981Y014046D02*
X003881Y014046D01*
X003881Y013947D02*
X003981Y013947D01*
X004630Y013553D02*
X005409Y013553D01*
X005629Y013455D02*
X004561Y013455D01*
X005241Y014243D02*
X002631Y014243D01*
X002631Y014341D02*
X005241Y014341D01*
X005241Y014440D02*
X002631Y014440D01*
X002631Y014539D02*
X005260Y014539D01*
X005301Y014637D02*
X002631Y014637D01*
X002631Y014736D02*
X005396Y014736D01*
X005907Y014736D02*
X005921Y014736D01*
X005921Y014834D02*
X002631Y014834D01*
X002631Y014933D02*
X005921Y014933D01*
X005921Y015031D02*
X002631Y015031D01*
X002631Y015130D02*
X003448Y015130D01*
X003308Y015228D02*
X002631Y015228D01*
X002631Y015327D02*
X003233Y015327D01*
X003192Y015425D02*
X002631Y015425D01*
X002631Y015524D02*
X003181Y015524D01*
X003181Y015622D02*
X002631Y015622D01*
X002631Y015721D02*
X003219Y015721D01*
X003273Y015820D02*
X002631Y015820D01*
X002631Y015918D02*
X003372Y015918D01*
X002171Y014144D02*
X001909Y014144D01*
X002021Y014046D02*
X002171Y014046D01*
X002171Y013947D02*
X002081Y013947D01*
X002113Y013849D02*
X002171Y013849D01*
X002171Y013750D02*
X001421Y013750D01*
X001421Y013652D02*
X001321Y013652D01*
X001321Y013553D02*
X001421Y013553D01*
X001421Y013455D02*
X001321Y013455D01*
X001321Y013356D02*
X001421Y013356D01*
X001608Y013159D02*
X002084Y013159D01*
X002171Y013257D02*
X000301Y013257D01*
X000301Y013159D02*
X001194Y013159D01*
X001691Y013060D02*
X001985Y013060D01*
X001887Y012962D02*
X001730Y012962D01*
X001730Y012863D02*
X001788Y012863D01*
X001867Y013356D02*
X002171Y013356D01*
X002171Y013455D02*
X002001Y013455D01*
X002070Y013553D02*
X002171Y013553D01*
X002171Y013652D02*
X002109Y013652D01*
X000888Y015130D02*
X000301Y015130D01*
X000301Y015228D02*
X000748Y015228D01*
X000673Y015327D02*
X000301Y015327D01*
X000301Y015425D02*
X000632Y015425D01*
X000621Y015524D02*
X000301Y015524D01*
X000301Y015622D02*
X000621Y015622D01*
X000659Y015721D02*
X000301Y015721D01*
X000301Y015820D02*
X000713Y015820D01*
X000812Y015918D02*
X000301Y015918D01*
X000301Y016214D02*
X001013Y016214D01*
X000915Y016312D02*
X000301Y016312D01*
X000301Y016411D02*
X000816Y016411D01*
X000718Y016509D02*
X000301Y016509D01*
X000301Y016608D02*
X000671Y016608D01*
X000671Y016706D02*
X000301Y016706D01*
X000301Y016805D02*
X000668Y016805D01*
X000569Y016904D02*
X000301Y016904D01*
X000301Y017002D02*
X000491Y017002D01*
X000491Y017101D02*
X000301Y017101D01*
X000301Y017199D02*
X000491Y017199D01*
X000491Y017298D02*
X000301Y017298D01*
X000301Y017396D02*
X000566Y017396D01*
X001106Y018776D02*
X001671Y018776D01*
X001598Y018874D02*
X001204Y018874D01*
X001303Y018973D02*
X001500Y018973D01*
X001491Y019071D02*
X001311Y019071D01*
X001311Y019170D02*
X001491Y019170D01*
X001491Y019269D02*
X001311Y019269D01*
X001265Y019367D02*
X001537Y019367D01*
X001636Y019466D02*
X001166Y019466D01*
X001077Y020747D02*
X001671Y020747D01*
X001627Y020845D02*
X001175Y020845D01*
X001274Y020944D02*
X001529Y020944D01*
X001491Y021042D02*
X001311Y021042D01*
X001311Y021141D02*
X001491Y021141D01*
X001491Y021239D02*
X001311Y021239D01*
X001294Y021338D02*
X001508Y021338D01*
X001607Y021437D02*
X001196Y021437D01*
X002131Y021535D02*
X006421Y021535D01*
X006421Y021437D02*
X002196Y021437D01*
X002294Y021338D02*
X006421Y021338D01*
X006421Y021239D02*
X002311Y021239D01*
X002311Y021141D02*
X006421Y021141D01*
X006421Y021042D02*
X002311Y021042D01*
X002274Y020944D02*
X006421Y020944D01*
X006421Y020845D02*
X002175Y020845D01*
X002131Y020747D02*
X006421Y020747D01*
X006323Y020648D02*
X002131Y020648D01*
X002131Y020550D02*
X006224Y020550D01*
X006126Y020451D02*
X002131Y020451D01*
X002131Y020353D02*
X006027Y020353D01*
X005929Y020254D02*
X002131Y020254D01*
X002131Y020155D02*
X005921Y020155D01*
X005921Y020057D02*
X002131Y020057D01*
X002131Y019958D02*
X005921Y019958D01*
X005921Y019860D02*
X002131Y019860D01*
X002131Y019761D02*
X005921Y019761D01*
X005921Y019663D02*
X002131Y019663D01*
X002131Y019564D02*
X005921Y019564D01*
X005921Y019466D02*
X002166Y019466D01*
X002265Y019367D02*
X005921Y019367D01*
X005921Y019269D02*
X002311Y019269D01*
X002311Y019170D02*
X005921Y019170D01*
X005393Y018973D02*
X004909Y018973D01*
X005008Y018874D02*
X005295Y018874D01*
X005241Y018776D02*
X005061Y018776D01*
X005061Y018677D02*
X005241Y018677D01*
X005241Y018579D02*
X005061Y018579D01*
X005060Y018480D02*
X005242Y018480D01*
X005341Y018382D02*
X004961Y018382D01*
X004863Y018283D02*
X005439Y018283D01*
X005495Y017790D02*
X005061Y017790D01*
X005061Y017692D02*
X005352Y017692D01*
X005283Y017593D02*
X005061Y017593D01*
X005061Y017495D02*
X005242Y017495D01*
X005241Y017396D02*
X004976Y017396D01*
X004878Y017298D02*
X005241Y017298D01*
X005241Y017002D02*
X004880Y017002D01*
X004979Y016904D02*
X005241Y016904D01*
X005243Y016805D02*
X005061Y016805D01*
X005061Y016706D02*
X005284Y016706D01*
X005355Y016608D02*
X005061Y016608D01*
X005061Y016509D02*
X005502Y016509D01*
X005807Y017790D02*
X005921Y017790D01*
X005921Y017889D02*
X004993Y017889D01*
X004895Y017988D02*
X005921Y017988D01*
X006909Y018973D02*
X006921Y018973D01*
X006421Y021634D02*
X002131Y021634D01*
X002131Y021732D02*
X006421Y021732D01*
X006421Y021831D02*
X002131Y021831D01*
X002131Y021929D02*
X006421Y021929D01*
X006421Y022028D02*
X002131Y022028D01*
X002131Y022126D02*
X006421Y022126D01*
X006421Y022225D02*
X002131Y022225D01*
X002131Y022323D02*
X004399Y022323D01*
X004481Y022241D02*
X004821Y022241D01*
X005061Y022481D01*
X005061Y022821D01*
X004821Y023061D01*
X004481Y023061D01*
X004241Y022821D01*
X004241Y022481D01*
X004481Y022241D01*
X004301Y022422D02*
X002131Y022422D01*
X002131Y022521D02*
X004241Y022521D01*
X004241Y022619D02*
X002131Y022619D01*
X002131Y022718D02*
X004241Y022718D01*
X004241Y022816D02*
X002146Y022816D01*
X002244Y022915D02*
X004335Y022915D01*
X004433Y023013D02*
X002311Y023013D01*
X002686Y024787D02*
X001117Y024787D01*
X001215Y024886D02*
X002587Y024886D01*
X002491Y024984D02*
X002059Y024984D01*
X002131Y025056D02*
X002131Y025056D01*
X002158Y025083D02*
X002491Y025083D01*
X002491Y025181D02*
X002256Y025181D01*
X002355Y025280D02*
X002491Y025280D01*
X002548Y025378D02*
X002381Y025378D01*
X002381Y025477D02*
X002647Y025477D01*
X002381Y025575D02*
X003241Y025575D01*
X003246Y025477D02*
X003155Y025477D01*
X003241Y025674D02*
X002381Y025674D01*
X001921Y025970D02*
X001913Y025970D01*
X001921Y026068D02*
X001311Y026068D01*
X001311Y026121D02*
X001311Y025981D01*
X001071Y025741D01*
X000931Y025741D01*
X000931Y026121D01*
X000871Y026121D01*
X000491Y026121D01*
X000491Y025981D01*
X000731Y025741D01*
X000871Y025741D01*
X000871Y026121D01*
X000871Y026181D01*
X000491Y026181D01*
X000491Y026321D01*
X000731Y026561D01*
X000301Y026561D01*
X000301Y026659D02*
X002334Y026659D01*
X002236Y026561D02*
X001071Y026561D01*
X000931Y026561D01*
X000931Y026181D01*
X000871Y026181D01*
X000871Y026561D01*
X000931Y026561D01*
X000871Y026561D02*
X000731Y026561D01*
X000632Y026462D02*
X000301Y026462D01*
X000301Y026364D02*
X000534Y026364D01*
X000491Y026265D02*
X000301Y026265D01*
X000301Y026167D02*
X000871Y026167D01*
X000931Y026167D02*
X001921Y026167D01*
X001940Y026265D02*
X001311Y026265D01*
X001311Y026321D02*
X001071Y026561D01*
X001170Y026462D02*
X002137Y026462D01*
X002038Y026364D02*
X001268Y026364D01*
X001311Y026321D02*
X001311Y026181D01*
X000931Y026181D01*
X000931Y026121D01*
X001311Y026121D01*
X001299Y025970D02*
X001390Y025970D01*
X001291Y025871D02*
X001201Y025871D01*
X001241Y025772D02*
X001102Y025772D01*
X001241Y025674D02*
X000301Y025674D01*
X000301Y025772D02*
X000700Y025772D01*
X000602Y025871D02*
X000301Y025871D01*
X000301Y025970D02*
X000503Y025970D01*
X000491Y026068D02*
X000301Y026068D01*
X000301Y025575D02*
X001241Y025575D01*
X001246Y025477D02*
X001155Y025477D01*
X000931Y025772D02*
X000871Y025772D01*
X000871Y025871D02*
X000931Y025871D01*
X000931Y025970D02*
X000871Y025970D01*
X000871Y026068D02*
X000931Y026068D01*
X000931Y026265D02*
X000871Y026265D01*
X000871Y026364D02*
X000931Y026364D01*
X000931Y026462D02*
X000871Y026462D01*
X001076Y026972D02*
X001076Y026972D01*
X001120Y026955D02*
X000301Y026955D01*
X000301Y027054D02*
X000974Y027054D01*
X000851Y027152D02*
X000301Y027152D01*
X000301Y027251D02*
X000727Y027251D01*
X000692Y027279D02*
X000692Y027279D01*
X000692Y027279D01*
X000644Y027349D02*
X000301Y027349D01*
X000301Y027448D02*
X000577Y027448D01*
X000509Y027546D02*
X000301Y027546D01*
X000301Y027645D02*
X000442Y027645D01*
X000415Y027685D02*
X000415Y027685D01*
X000397Y027743D02*
X000301Y027743D01*
X000301Y027842D02*
X000366Y027842D01*
X000336Y027940D02*
X000301Y027940D01*
X000301Y028039D02*
X000306Y028039D01*
X000301Y026856D02*
X001371Y026856D01*
X001534Y026793D02*
X001534Y026793D01*
X001997Y026758D02*
X000301Y026758D01*
X000301Y025477D02*
X000647Y025477D01*
X000548Y025378D02*
X000301Y025378D01*
X000301Y025280D02*
X000491Y025280D01*
X000491Y025181D02*
X000301Y025181D01*
X000301Y025083D02*
X000491Y025083D01*
X000491Y024984D02*
X000301Y024984D01*
X000301Y024886D02*
X000587Y024886D01*
X000686Y024787D02*
X000301Y024787D01*
X000301Y024097D02*
X007263Y024097D01*
X007263Y023999D02*
X000301Y023999D01*
X000301Y023900D02*
X007263Y023900D01*
X007263Y023802D02*
X000301Y023802D01*
X000301Y023703D02*
X007263Y023703D01*
X007263Y023604D02*
X000301Y023604D01*
X000301Y023506D02*
X000676Y023506D01*
X000578Y023407D02*
X000301Y023407D01*
X000301Y023309D02*
X000491Y023309D01*
X000491Y023210D02*
X000301Y023210D01*
X000301Y023112D02*
X000491Y023112D01*
X000491Y023013D02*
X000301Y023013D01*
X000301Y022915D02*
X000558Y022915D01*
X000656Y022816D02*
X000301Y022816D01*
X002034Y026758D02*
X002433Y026758D01*
X002465Y026856D02*
X002531Y026856D01*
X002504Y026865D02*
X002504Y026865D01*
X002659Y026955D02*
X007526Y026955D01*
X007359Y027645D02*
X003348Y027645D01*
X003395Y027743D02*
X007297Y027743D01*
X007263Y027842D02*
X003443Y027842D01*
X003478Y027915D02*
X003478Y027915D01*
X003482Y027940D02*
X007263Y027940D01*
X007289Y028039D02*
X003497Y028039D01*
X003511Y028137D02*
X007339Y028137D01*
X007446Y028236D02*
X003526Y028236D01*
X003364Y029123D02*
X007419Y029123D01*
X007455Y029221D02*
X003317Y029221D01*
X003270Y029320D02*
X007516Y029320D01*
X007622Y029419D02*
X003183Y029419D01*
X003264Y029331D02*
X003264Y029331D01*
X003091Y029517D02*
X008214Y029517D01*
X008200Y029419D02*
X008214Y029419D01*
X008214Y029714D02*
X002890Y029714D01*
X002930Y029691D02*
X002930Y029691D01*
X003000Y029616D02*
X009101Y029616D01*
X009101Y029517D02*
X009201Y029517D01*
X009201Y029601D02*
X009201Y029701D01*
X010089Y029701D01*
X010089Y030001D01*
X010214Y030001D01*
X010214Y029195D01*
X010285Y029124D01*
X010180Y029020D01*
X010151Y028950D01*
X010125Y029002D01*
X010085Y029056D01*
X010038Y029104D01*
X010009Y029125D01*
X010031Y029137D01*
X010059Y029165D01*
X010078Y029200D01*
X010089Y029238D01*
X010089Y029601D01*
X009201Y029601D01*
X009201Y029616D02*
X010214Y029616D01*
X010214Y029714D02*
X010089Y029714D01*
X010089Y029813D02*
X010214Y029813D01*
X010214Y029911D02*
X010089Y029911D01*
X010089Y029517D02*
X010214Y029517D01*
X010214Y029419D02*
X010089Y029419D01*
X010089Y029320D02*
X010214Y029320D01*
X010214Y029221D02*
X010084Y029221D01*
X010012Y029123D02*
X010284Y029123D01*
X010185Y029024D02*
X010109Y029024D01*
X010111Y028532D02*
X010181Y028532D01*
X010280Y028433D02*
X010017Y028433D01*
X009871Y028230D02*
X009980Y028121D01*
X010039Y027978D01*
X010039Y027824D01*
X009980Y027681D01*
X009871Y027572D01*
X009728Y027513D01*
X009574Y027513D01*
X009431Y027572D01*
X009322Y027681D01*
X009263Y027824D01*
X009263Y027978D01*
X009322Y028121D01*
X009431Y028230D01*
X009574Y028289D01*
X009728Y028289D01*
X009871Y028230D01*
X009856Y028236D02*
X010446Y028236D01*
X010339Y028137D02*
X009963Y028137D01*
X010014Y028039D02*
X010289Y028039D01*
X010263Y027940D02*
X010039Y027940D01*
X010039Y027842D02*
X010263Y027842D01*
X010297Y027743D02*
X010006Y027743D01*
X009943Y027645D02*
X010359Y027645D01*
X010495Y027546D02*
X009808Y027546D01*
X009495Y027546D02*
X008808Y027546D01*
X008943Y027645D02*
X009359Y027645D01*
X009297Y027743D02*
X009006Y027743D01*
X009039Y027842D02*
X009263Y027842D01*
X009263Y027940D02*
X009039Y027940D01*
X009014Y028039D02*
X009289Y028039D01*
X009339Y028137D02*
X008963Y028137D01*
X008856Y028236D02*
X009446Y028236D01*
X009729Y028433D02*
X009786Y028433D01*
X009786Y028532D02*
X009729Y028532D01*
X009729Y028630D02*
X009786Y028630D01*
X009786Y028729D02*
X009729Y028729D01*
X009406Y029024D02*
X007961Y029024D01*
X007961Y029123D02*
X007861Y029123D01*
X007861Y029221D02*
X007961Y029221D01*
X007961Y029320D02*
X007861Y029320D01*
X007861Y029419D02*
X007961Y029419D01*
X008214Y029813D02*
X002719Y029813D01*
X002549Y029911D02*
X008214Y029911D01*
X008409Y028926D02*
X009354Y028926D01*
X009330Y028827D02*
X008383Y028827D01*
X008333Y028729D02*
X009330Y028729D01*
X009353Y028630D02*
X008249Y028630D01*
X009101Y029123D02*
X009201Y029123D01*
X009201Y029221D02*
X009101Y029221D01*
X009101Y029320D02*
X009201Y029320D01*
X009201Y029419D02*
X009101Y029419D01*
X010908Y028532D02*
X010921Y028532D01*
X010921Y028236D02*
X010856Y028236D01*
X011381Y028236D02*
X011446Y028236D01*
X011381Y028335D02*
X016770Y028335D01*
X016770Y028433D02*
X011381Y028433D01*
X011381Y028532D02*
X012217Y028532D01*
X012053Y028630D02*
X011381Y028630D01*
X011381Y028729D02*
X011960Y028729D01*
X011919Y028827D02*
X011381Y028827D01*
X011381Y028926D02*
X011887Y028926D01*
X011887Y029024D02*
X011381Y029024D01*
X011856Y028236D02*
X012446Y028236D01*
X012431Y028230D02*
X012322Y028121D01*
X012263Y027978D01*
X012263Y027824D01*
X012322Y027681D01*
X012431Y027572D01*
X012574Y027513D01*
X012728Y027513D01*
X012871Y027572D01*
X012980Y027681D01*
X013039Y027824D01*
X013039Y027978D01*
X012980Y028121D01*
X012871Y028230D01*
X012728Y028289D01*
X012574Y028289D01*
X012431Y028230D01*
X012339Y028137D02*
X011963Y028137D01*
X012014Y028039D02*
X012289Y028039D01*
X012263Y027940D02*
X012039Y027940D01*
X012039Y027842D02*
X012263Y027842D01*
X012297Y027743D02*
X012006Y027743D01*
X011943Y027645D02*
X012359Y027645D01*
X012495Y027546D02*
X011808Y027546D01*
X011495Y027546D02*
X011381Y027546D01*
X011381Y027448D02*
X017077Y027448D01*
X017009Y027546D02*
X012808Y027546D01*
X012943Y027645D02*
X016942Y027645D01*
X016915Y027685D02*
X016915Y027685D01*
X016897Y027743D02*
X013006Y027743D01*
X013039Y027842D02*
X016866Y027842D01*
X016836Y027940D02*
X013039Y027940D01*
X013014Y028039D02*
X016805Y028039D01*
X016775Y028137D02*
X012963Y028137D01*
X012856Y028236D02*
X016770Y028236D01*
X016770Y028155D02*
X016770Y028155D01*
X016770Y028532D02*
X012565Y028532D01*
X012729Y028630D02*
X016770Y028630D01*
X016770Y028647D02*
X016770Y028647D01*
X016795Y028729D02*
X012823Y028729D01*
X012863Y028827D02*
X016825Y028827D01*
X016856Y028926D02*
X012896Y028926D01*
X012896Y029024D02*
X016886Y029024D01*
X016915Y029117D02*
X016915Y029117D01*
X016919Y029123D02*
X012889Y029123D01*
X012848Y029221D02*
X016986Y029221D01*
X017053Y029320D02*
X012790Y029320D01*
X012691Y029419D02*
X017120Y029419D01*
X017187Y029517D02*
X012089Y029517D01*
X012089Y029419D02*
X012091Y029419D01*
X012089Y029616D02*
X017307Y029616D01*
X017192Y029523D02*
X017192Y029523D01*
X017431Y029714D02*
X012089Y029714D01*
X012089Y029813D02*
X017554Y029813D01*
X017576Y029830D02*
X017576Y029830D01*
X017783Y029911D02*
X012089Y029911D01*
X011381Y027349D02*
X017144Y027349D01*
X017192Y027279D02*
X017192Y027279D01*
X017192Y027279D01*
X017227Y027251D02*
X011381Y027251D01*
X011381Y027152D02*
X017351Y027152D01*
X017474Y027054D02*
X011381Y027054D01*
X011381Y026955D02*
X011526Y026955D01*
X011392Y026856D02*
X011381Y026856D01*
X011776Y026955D02*
X017620Y026955D01*
X017576Y026972D02*
X017576Y026972D01*
X017771Y026856D02*
X017871Y026856D01*
X017870Y026758D02*
X018497Y026758D01*
X018534Y026758D02*
X020001Y026758D01*
X020001Y026856D02*
X018965Y026856D01*
X019159Y026955D02*
X020001Y026955D01*
X020001Y027054D02*
X019330Y027054D01*
X019468Y027152D02*
X020001Y027152D01*
X020001Y027251D02*
X019559Y027251D01*
X019651Y027349D02*
X020001Y027349D01*
X020001Y027448D02*
X019742Y027448D01*
X019800Y027546D02*
X020001Y027546D01*
X020001Y027645D02*
X019848Y027645D01*
X019895Y027743D02*
X020001Y027743D01*
X020001Y027842D02*
X019943Y027842D01*
X019978Y027915D02*
X019978Y027915D01*
X019982Y027940D02*
X020001Y027940D01*
X019996Y028039D02*
X020001Y028039D01*
X020001Y026659D02*
X017968Y026659D01*
X018067Y026561D02*
X018731Y026561D01*
X018491Y026321D01*
X018491Y026181D01*
X018871Y026181D01*
X018871Y026121D01*
X018491Y026121D01*
X018491Y025981D01*
X018731Y025741D01*
X018871Y025741D01*
X018871Y026121D01*
X018931Y026121D01*
X018931Y025741D01*
X019071Y025741D01*
X019311Y025981D01*
X019311Y026121D01*
X018931Y026121D01*
X018931Y026181D01*
X018871Y026181D01*
X018871Y026561D01*
X018931Y026561D01*
X018931Y026181D01*
X019311Y026181D01*
X019311Y026321D01*
X019071Y026561D01*
X018931Y026561D01*
X018871Y026561D02*
X018731Y026561D01*
X018632Y026462D02*
X018165Y026462D01*
X018264Y026364D02*
X018534Y026364D01*
X018491Y026265D02*
X018362Y026265D01*
X018381Y026167D02*
X018871Y026167D01*
X018931Y026167D02*
X020001Y026167D01*
X020001Y026265D02*
X019311Y026265D01*
X019268Y026364D02*
X020001Y026364D01*
X020001Y026462D02*
X019170Y026462D01*
X019071Y026561D02*
X020001Y026561D01*
X020001Y026068D02*
X019311Y026068D01*
X019299Y025970D02*
X019390Y025970D01*
X019291Y025871D02*
X019201Y025871D01*
X019241Y025772D02*
X019102Y025772D01*
X019241Y025674D02*
X018454Y025674D01*
X018381Y025772D02*
X018700Y025772D01*
X018602Y025871D02*
X018381Y025871D01*
X018381Y025970D02*
X018503Y025970D01*
X018491Y026068D02*
X018381Y026068D01*
X018552Y025575D02*
X019241Y025575D01*
X019246Y025477D02*
X019155Y025477D01*
X019254Y025378D02*
X019344Y025378D01*
X019311Y025280D02*
X019443Y025280D01*
X019311Y025181D02*
X020001Y025181D01*
X020001Y025083D02*
X019311Y025083D01*
X019311Y024984D02*
X020001Y024984D01*
X020001Y024886D02*
X019215Y024886D01*
X019117Y024787D02*
X020001Y024787D01*
X020001Y024688D02*
X012316Y024688D01*
X012337Y024680D02*
X012216Y024730D01*
X012086Y024730D01*
X011965Y024680D01*
X011875Y024590D02*
X011381Y024590D01*
X011381Y024491D02*
X011833Y024491D01*
X011823Y024393D02*
X011381Y024393D01*
X011381Y024294D02*
X011840Y024294D01*
X011397Y024196D02*
X011381Y024196D01*
X011381Y024787D02*
X016686Y024787D01*
X016731Y024741D02*
X017071Y024741D01*
X017311Y024981D01*
X017311Y025321D01*
X017071Y025561D01*
X016731Y025561D01*
X016551Y025381D01*
X012886Y025381D01*
X012837Y025430D01*
X012716Y025480D01*
X012586Y025480D01*
X012465Y025430D01*
X012373Y025337D01*
X012323Y025216D01*
X012323Y025086D01*
X012373Y024965D01*
X012465Y024873D01*
X012586Y024823D01*
X012716Y024823D01*
X012837Y024873D01*
X012886Y024921D01*
X016551Y024921D01*
X016731Y024741D01*
X016587Y024886D02*
X012850Y024886D01*
X012723Y025477D02*
X016647Y025477D01*
X016731Y025741D02*
X016871Y025741D01*
X016871Y026121D01*
X016491Y026121D01*
X016491Y025981D01*
X016731Y025741D01*
X016700Y025772D02*
X011381Y025772D01*
X011381Y025674D02*
X017241Y025674D01*
X017241Y025772D02*
X017102Y025772D01*
X017201Y025871D02*
X017291Y025871D01*
X017299Y025970D02*
X017390Y025970D01*
X017311Y026068D02*
X017909Y026068D01*
X017913Y025970D02*
X017921Y025970D01*
X017810Y026167D02*
X016931Y026167D01*
X016871Y026167D02*
X011381Y026167D01*
X011381Y026265D02*
X016491Y026265D01*
X016534Y026364D02*
X011815Y026364D01*
X011487Y026364D02*
X011381Y026364D01*
X011381Y026068D02*
X016491Y026068D01*
X016503Y025970D02*
X011381Y025970D01*
X011381Y025871D02*
X016602Y025871D01*
X016871Y025871D02*
X016931Y025871D01*
X016931Y025970D02*
X016871Y025970D01*
X016871Y026068D02*
X016931Y026068D01*
X016931Y025772D02*
X016871Y025772D01*
X017155Y025477D02*
X017246Y025477D01*
X017241Y025575D02*
X011381Y025575D01*
X011381Y025477D02*
X012579Y025477D01*
X012414Y025378D02*
X011381Y025378D01*
X011381Y025280D02*
X012349Y025280D01*
X012323Y025181D02*
X011381Y025181D01*
X011381Y025083D02*
X012324Y025083D01*
X012365Y024984D02*
X011381Y024984D01*
X011381Y024886D02*
X012452Y024886D01*
X012337Y024680D02*
X012386Y024631D01*
X013556Y024631D01*
X013746Y024631D01*
X014246Y024131D01*
X018056Y024131D01*
X018246Y024131D01*
X019381Y022996D01*
X019381Y022806D01*
X019381Y022619D01*
X019381Y022718D02*
X020001Y022718D01*
X020001Y022816D02*
X019381Y022816D01*
X019381Y022915D02*
X020001Y022915D01*
X020001Y023013D02*
X019364Y023013D01*
X019266Y023112D02*
X020001Y023112D01*
X020001Y023210D02*
X019167Y023210D01*
X019069Y023309D02*
X020001Y023309D01*
X020001Y023407D02*
X018970Y023407D01*
X018872Y023506D02*
X020001Y023506D01*
X020001Y023604D02*
X018773Y023604D01*
X018675Y023703D02*
X020001Y023703D01*
X020001Y023802D02*
X018576Y023802D01*
X018477Y023900D02*
X020001Y023900D01*
X020001Y023999D02*
X018379Y023999D01*
X018280Y024097D02*
X020001Y024097D01*
X020001Y024196D02*
X014182Y024196D01*
X014083Y024294D02*
X020001Y024294D01*
X020001Y024393D02*
X013985Y024393D01*
X013886Y024491D02*
X020001Y024491D01*
X020001Y024590D02*
X013788Y024590D01*
X013630Y024097D02*
X012990Y024097D01*
X013031Y023999D02*
X013728Y023999D01*
X013827Y023900D02*
X013039Y023900D01*
X013030Y023802D02*
X013926Y023802D01*
X014024Y023703D02*
X012989Y023703D01*
X013773Y023604D02*
X018123Y023604D01*
X018221Y023506D02*
X013872Y023506D01*
X013970Y023407D02*
X018320Y023407D01*
X018418Y023309D02*
X014069Y023309D01*
X014167Y023210D02*
X018517Y023210D01*
X018615Y023112D02*
X014266Y023112D01*
X014364Y023013D02*
X014433Y023013D01*
X014869Y023013D02*
X015433Y023013D01*
X015481Y023061D02*
X015241Y022821D01*
X015241Y022481D01*
X015481Y022241D01*
X015821Y022241D01*
X016061Y022481D01*
X016061Y022821D01*
X015821Y023061D01*
X015481Y023061D01*
X015335Y022915D02*
X014967Y022915D01*
X015061Y022816D02*
X015241Y022816D01*
X015241Y022718D02*
X015061Y022718D01*
X015061Y022619D02*
X015241Y022619D01*
X015241Y022521D02*
X015061Y022521D01*
X015002Y022422D02*
X015301Y022422D01*
X015399Y022323D02*
X014903Y022323D01*
X014399Y022323D02*
X014381Y022323D01*
X014381Y022225D02*
X015921Y022225D01*
X015921Y022126D02*
X014381Y022126D01*
X014381Y022028D02*
X015921Y022028D01*
X015921Y021929D02*
X014381Y021929D01*
X014381Y021831D02*
X015921Y021831D01*
X015921Y021732D02*
X014381Y021732D01*
X014381Y021634D02*
X015921Y021634D01*
X015921Y021535D02*
X014381Y021535D01*
X014381Y021437D02*
X015921Y021437D01*
X015921Y021338D02*
X014381Y021338D01*
X014381Y021239D02*
X015921Y021239D01*
X015921Y021141D02*
X014381Y021141D01*
X014381Y021042D02*
X015921Y021042D01*
X015921Y020944D02*
X014381Y020944D01*
X014381Y020845D02*
X015921Y020845D01*
X015921Y020747D02*
X014381Y020747D01*
X014381Y020648D02*
X015921Y020648D01*
X015921Y020550D02*
X014381Y020550D01*
X014381Y020451D02*
X015921Y020451D01*
X015921Y020353D02*
X014381Y020353D01*
X014381Y020254D02*
X015921Y020254D01*
X015921Y020155D02*
X014381Y020155D01*
X014381Y020057D02*
X015921Y020057D01*
X015921Y019958D02*
X014381Y019958D01*
X014381Y019860D02*
X015921Y019860D01*
X015921Y019761D02*
X014381Y019761D01*
X014381Y019663D02*
X015921Y019663D01*
X015921Y019564D02*
X014381Y019564D01*
X014381Y019466D02*
X015921Y019466D01*
X015921Y019367D02*
X014381Y019367D01*
X014381Y019269D02*
X015921Y019269D01*
X015921Y019170D02*
X014381Y019170D01*
X014381Y019071D02*
X015921Y019071D01*
X015909Y018973D02*
X015921Y018973D01*
X015393Y018973D02*
X014909Y018973D01*
X015008Y018874D02*
X015295Y018874D01*
X015241Y018776D02*
X015061Y018776D01*
X015061Y018677D02*
X015241Y018677D01*
X015241Y018579D02*
X015061Y018579D01*
X015060Y018480D02*
X015242Y018480D01*
X015341Y018382D02*
X014961Y018382D01*
X014863Y018283D02*
X015439Y018283D01*
X015863Y018283D02*
X015921Y018283D01*
X015921Y018185D02*
X014381Y018185D01*
X014381Y018283D02*
X014439Y018283D01*
X014381Y018086D02*
X015921Y018086D01*
X015990Y017988D02*
X014381Y017988D01*
X014381Y017889D02*
X015991Y017889D01*
X015991Y017790D02*
X014807Y017790D01*
X014950Y017692D02*
X016031Y017692D01*
X016071Y017561D02*
X015931Y017561D01*
X015931Y017181D01*
X016311Y017181D01*
X016311Y017321D01*
X016071Y017561D01*
X016129Y017593D02*
X015019Y017593D01*
X015060Y017495D02*
X015665Y017495D01*
X015731Y017561D02*
X015491Y017321D01*
X015491Y017181D01*
X015871Y017181D01*
X015871Y017121D01*
X015931Y017121D01*
X015931Y016741D01*
X016071Y016741D01*
X016311Y016981D01*
X016311Y017121D01*
X015931Y017121D01*
X015931Y017181D01*
X015871Y017181D01*
X015871Y017561D01*
X015731Y017561D01*
X015871Y017495D02*
X015931Y017495D01*
X015931Y017396D02*
X015871Y017396D01*
X015871Y017298D02*
X015931Y017298D01*
X015931Y017199D02*
X015871Y017199D01*
X015871Y017121D02*
X015491Y017121D01*
X015491Y016981D01*
X015731Y016741D01*
X015871Y016741D01*
X015871Y017121D01*
X015871Y017101D02*
X015931Y017101D01*
X015931Y017002D02*
X015871Y017002D01*
X015871Y016904D02*
X015931Y016904D01*
X015931Y016805D02*
X015871Y016805D01*
X015668Y016805D02*
X015059Y016805D01*
X015061Y016904D02*
X015569Y016904D01*
X015491Y017002D02*
X015061Y017002D01*
X015061Y017101D02*
X015491Y017101D01*
X015491Y017199D02*
X015061Y017199D01*
X015061Y017298D02*
X015491Y017298D01*
X015566Y017396D02*
X015061Y017396D01*
X015018Y016706D02*
X017021Y016706D01*
X017119Y016608D02*
X014948Y016608D01*
X014801Y016509D02*
X017218Y016509D01*
X017316Y016411D02*
X014381Y016411D01*
X014381Y016509D02*
X014502Y016509D01*
X014381Y016312D02*
X017415Y016312D01*
X017421Y016214D02*
X014381Y016214D01*
X014381Y016115D02*
X017421Y016115D01*
X017421Y016017D02*
X014342Y016017D01*
X014243Y015918D02*
X015812Y015918D01*
X015816Y015923D02*
X015690Y015796D01*
X015621Y015631D01*
X015621Y015452D01*
X015690Y015286D01*
X015816Y015160D01*
X015982Y015091D01*
X016761Y015091D01*
X016926Y015160D01*
X017053Y015286D01*
X017121Y015452D01*
X017121Y015631D01*
X017053Y015796D01*
X016926Y015923D01*
X016761Y015991D01*
X015982Y015991D01*
X015816Y015923D01*
X015713Y015820D02*
X014145Y015820D01*
X014046Y015721D02*
X015659Y015721D01*
X015621Y015622D02*
X013948Y015622D01*
X013881Y015524D02*
X015621Y015524D01*
X015632Y015425D02*
X013881Y015425D01*
X013881Y015327D02*
X015673Y015327D01*
X015748Y015228D02*
X013881Y015228D01*
X013881Y015130D02*
X015888Y015130D01*
X016036Y014211D02*
X015966Y014200D01*
X015898Y014178D01*
X015835Y014146D01*
X015778Y014104D01*
X015728Y014054D01*
X015686Y013997D01*
X015654Y013934D01*
X015632Y013867D01*
X015623Y013811D01*
X016321Y013811D01*
X016321Y014211D01*
X016036Y014211D01*
X015833Y014144D02*
X014681Y014144D01*
X014681Y014121D02*
X014681Y014181D01*
X015061Y014181D01*
X015061Y014443D01*
X015051Y014507D01*
X015031Y014569D01*
X015002Y014626D01*
X014964Y014678D01*
X014918Y014724D01*
X014866Y014762D01*
X014809Y014791D01*
X014747Y014811D01*
X014683Y014821D01*
X014681Y014821D01*
X014681Y014181D01*
X014621Y014181D01*
X014621Y014121D01*
X014681Y014121D01*
X014681Y013481D01*
X014683Y013481D01*
X014747Y013491D01*
X014809Y013511D01*
X014866Y013541D01*
X014918Y013578D01*
X014964Y013624D01*
X015002Y013676D01*
X015031Y013734D01*
X015051Y013795D01*
X015061Y013859D01*
X015061Y014121D01*
X014681Y014121D01*
X014621Y014121D02*
X014621Y013481D01*
X014619Y013481D01*
X014555Y013491D01*
X014494Y013511D01*
X014436Y013541D01*
X014384Y013578D01*
X014338Y013624D01*
X014301Y013676D01*
X014271Y013734D01*
X014251Y013795D01*
X014241Y013859D01*
X014241Y014121D01*
X014621Y014121D01*
X014621Y014144D02*
X014061Y014144D01*
X014061Y014046D02*
X014241Y014046D01*
X014241Y013947D02*
X014061Y013947D01*
X014061Y013849D02*
X014243Y013849D01*
X014266Y013750D02*
X014036Y013750D01*
X013991Y013652D02*
X014318Y013652D01*
X014419Y013553D02*
X013893Y013553D01*
X013673Y013455D02*
X015741Y013455D01*
X015672Y013553D02*
X014883Y013553D01*
X014984Y013652D02*
X015634Y013652D01*
X015629Y013849D02*
X015060Y013849D01*
X015061Y013947D02*
X015661Y013947D01*
X015722Y014046D02*
X015061Y014046D01*
X015061Y014243D02*
X017421Y014243D01*
X017421Y014341D02*
X015061Y014341D01*
X015061Y014440D02*
X017421Y014440D01*
X017421Y014539D02*
X015041Y014539D01*
X014994Y014637D02*
X017421Y014637D01*
X017421Y014736D02*
X014902Y014736D01*
X014681Y014736D02*
X014621Y014736D01*
X014619Y014821D02*
X014555Y014811D01*
X014494Y014791D01*
X014436Y014762D01*
X014384Y014724D01*
X014338Y014678D01*
X014301Y014626D01*
X014271Y014569D01*
X014251Y014507D01*
X014241Y014443D01*
X014241Y014181D01*
X014621Y014181D01*
X014621Y014821D01*
X014619Y014821D01*
X014621Y014637D02*
X014681Y014637D01*
X014681Y014539D02*
X014621Y014539D01*
X014621Y014440D02*
X014681Y014440D01*
X014681Y014341D02*
X014621Y014341D01*
X014621Y014243D02*
X014681Y014243D01*
X014681Y014046D02*
X014621Y014046D01*
X014621Y013947D02*
X014681Y013947D01*
X014681Y013849D02*
X014621Y013849D01*
X014621Y013750D02*
X014681Y013750D01*
X014681Y013652D02*
X014621Y013652D01*
X014621Y013553D02*
X014681Y013553D01*
X015036Y013750D02*
X016321Y013750D01*
X016321Y013849D02*
X016421Y013849D01*
X016421Y013811D02*
X016421Y014211D01*
X016707Y014211D01*
X016777Y014200D01*
X016844Y014178D01*
X016907Y014146D01*
X016964Y014104D01*
X017014Y014054D01*
X017056Y013997D01*
X017088Y013934D01*
X017110Y013867D01*
X017119Y013811D01*
X016421Y013811D01*
X016421Y013750D02*
X017477Y013750D01*
X017556Y013671D02*
X017556Y013671D01*
X017576Y013652D02*
X017109Y013652D01*
X017070Y013553D02*
X017674Y013553D01*
X017773Y013455D02*
X017001Y013455D01*
X017113Y013849D02*
X017421Y013849D01*
X017421Y013947D02*
X017081Y013947D01*
X017021Y014046D02*
X017421Y014046D01*
X017421Y014144D02*
X016909Y014144D01*
X016421Y014144D02*
X016321Y014144D01*
X016321Y014046D02*
X016421Y014046D01*
X016421Y013947D02*
X016321Y013947D01*
X016854Y015130D02*
X017421Y015130D01*
X017421Y015228D02*
X016995Y015228D01*
X017069Y015327D02*
X017421Y015327D01*
X017421Y015425D02*
X017110Y015425D01*
X017121Y015524D02*
X017421Y015524D01*
X017421Y015622D02*
X017121Y015622D01*
X017084Y015721D02*
X017421Y015721D01*
X017421Y015820D02*
X017029Y015820D01*
X016931Y015918D02*
X017421Y015918D01*
X017881Y015918D02*
X018372Y015918D01*
X018273Y015820D02*
X017881Y015820D01*
X017881Y015721D02*
X018219Y015721D01*
X018181Y015622D02*
X017881Y015622D01*
X017881Y015524D02*
X018181Y015524D01*
X018192Y015425D02*
X017881Y015425D01*
X017881Y015327D02*
X018233Y015327D01*
X018308Y015228D02*
X017881Y015228D01*
X017881Y015130D02*
X018448Y015130D01*
X018981Y014211D02*
X018981Y013811D01*
X019679Y013811D01*
X019670Y013867D01*
X019648Y013934D01*
X019616Y013997D01*
X019574Y014054D01*
X019524Y014104D01*
X019467Y014146D01*
X019404Y014178D01*
X019337Y014200D01*
X019267Y014211D01*
X018981Y014211D01*
X018981Y014144D02*
X018881Y014144D01*
X018881Y014046D02*
X018981Y014046D01*
X018981Y013947D02*
X018881Y013947D01*
X018881Y013849D02*
X018981Y013849D01*
X018981Y013553D02*
X018881Y013553D01*
X018881Y013455D02*
X018981Y013455D01*
X018981Y013356D02*
X018881Y013356D01*
X019581Y014046D02*
X020001Y014046D01*
X020001Y014144D02*
X019469Y014144D01*
X019641Y013947D02*
X020001Y013947D01*
X020001Y013849D02*
X019673Y013849D01*
X019168Y016805D02*
X018635Y016805D01*
X018571Y016741D02*
X018811Y016981D01*
X018811Y017121D01*
X018431Y017121D01*
X018431Y016741D01*
X018571Y016741D01*
X018431Y016805D02*
X018371Y016805D01*
X018371Y016741D02*
X018371Y017121D01*
X018431Y017121D01*
X018431Y017181D01*
X018371Y017181D01*
X018371Y017121D01*
X017991Y017121D01*
X017991Y016981D01*
X018231Y016741D01*
X018371Y016741D01*
X018371Y016904D02*
X018431Y016904D01*
X018431Y017002D02*
X018371Y017002D01*
X018371Y017101D02*
X018431Y017101D01*
X018431Y017199D02*
X018371Y017199D01*
X018371Y017181D02*
X018371Y017561D01*
X018231Y017561D01*
X017991Y017321D01*
X017991Y017181D01*
X018371Y017181D01*
X018371Y017298D02*
X018431Y017298D01*
X018431Y017396D02*
X018371Y017396D01*
X018371Y017495D02*
X018431Y017495D01*
X018165Y017495D02*
X017137Y017495D01*
X017236Y017396D02*
X018066Y017396D01*
X017991Y017298D02*
X017311Y017298D01*
X017311Y017199D02*
X017991Y017199D01*
X017991Y017101D02*
X017311Y017101D01*
X017375Y017002D02*
X017991Y017002D01*
X018069Y016904D02*
X017474Y016904D01*
X017573Y016805D02*
X018168Y016805D01*
X018733Y016904D02*
X019069Y016904D01*
X018991Y017002D02*
X018811Y017002D01*
X018811Y017101D02*
X018991Y017101D01*
X018991Y017199D02*
X018811Y017199D01*
X018811Y017298D02*
X018991Y017298D01*
X019272Y017692D02*
X020001Y017692D01*
X020001Y017790D02*
X019311Y017790D01*
X019311Y017889D02*
X020001Y017889D01*
X020001Y017988D02*
X019311Y017988D01*
X019296Y018086D02*
X020001Y018086D01*
X020001Y018185D02*
X019198Y018185D01*
X019099Y018283D02*
X020001Y018283D01*
X020001Y018973D02*
X017909Y018973D01*
X017413Y020550D02*
X016381Y020550D01*
X016381Y020648D02*
X017349Y020648D01*
X017323Y020747D02*
X016381Y020747D01*
X016381Y020845D02*
X017324Y020845D01*
X017365Y020944D02*
X016381Y020944D01*
X016381Y021042D02*
X017421Y021042D01*
X017421Y021141D02*
X016381Y021141D01*
X016381Y021239D02*
X017421Y021239D01*
X017421Y021338D02*
X016381Y021338D01*
X016381Y021437D02*
X017421Y021437D01*
X017421Y021535D02*
X016381Y021535D01*
X016381Y021634D02*
X017421Y021634D01*
X017421Y021732D02*
X016381Y021732D01*
X016381Y021831D02*
X017421Y021831D01*
X017421Y021929D02*
X016381Y021929D01*
X016381Y022028D02*
X017421Y022028D01*
X017421Y022126D02*
X016452Y022126D01*
X016550Y022225D02*
X017421Y022225D01*
X017399Y022323D02*
X016903Y022323D01*
X017002Y022422D02*
X017301Y022422D01*
X017241Y022521D02*
X017061Y022521D01*
X017061Y022619D02*
X017241Y022619D01*
X017241Y022718D02*
X017061Y022718D01*
X017061Y022816D02*
X017241Y022816D01*
X017335Y022915D02*
X016967Y022915D01*
X016869Y023013D02*
X017433Y023013D01*
X017869Y023013D02*
X018714Y023013D01*
X018812Y022915D02*
X017967Y022915D01*
X018061Y022816D02*
X018911Y022816D01*
X018921Y022718D02*
X018061Y022718D01*
X018002Y022422D02*
X018701Y022422D01*
X018660Y022323D02*
X017903Y022323D01*
X017881Y022225D02*
X018631Y022225D01*
X018631Y022126D02*
X017881Y022126D01*
X017881Y022028D02*
X018639Y022028D01*
X018680Y021929D02*
X017881Y021929D01*
X017881Y021831D02*
X018736Y021831D01*
X018835Y021732D02*
X017881Y021732D01*
X017881Y021634D02*
X018957Y021634D01*
X018800Y021535D02*
X017881Y021535D01*
X017881Y021437D02*
X018707Y021437D01*
X018666Y021338D02*
X017881Y021338D01*
X017881Y021239D02*
X018631Y021239D01*
X018631Y021141D02*
X017881Y021141D01*
X017881Y021042D02*
X018633Y021042D01*
X018674Y020944D02*
X017937Y020944D01*
X017978Y020845D02*
X018722Y020845D01*
X018820Y020747D02*
X017980Y020747D01*
X019331Y019663D02*
X020001Y019663D01*
X020001Y019761D02*
X019497Y019761D01*
X019593Y019860D02*
X020001Y019860D01*
X020001Y019958D02*
X019634Y019958D01*
X019671Y020057D02*
X020001Y020057D01*
X020001Y020155D02*
X019671Y020155D01*
X019671Y020254D02*
X020001Y020254D01*
X020001Y020353D02*
X019631Y020353D01*
X019587Y020451D02*
X020001Y020451D01*
X018921Y022619D02*
X018857Y022592D01*
X018686Y024787D02*
X017117Y024787D01*
X017215Y024886D02*
X018587Y024886D01*
X018491Y024984D02*
X017311Y024984D01*
X017311Y025083D02*
X018394Y025083D01*
X018296Y025181D02*
X017311Y025181D01*
X017311Y025280D02*
X017443Y025280D01*
X017344Y025378D02*
X017254Y025378D01*
X017859Y025280D02*
X018197Y025280D01*
X018099Y025378D02*
X017958Y025378D01*
X017712Y026265D02*
X017311Y026265D01*
X017268Y026364D02*
X017613Y026364D01*
X018034Y026793D02*
X018034Y026793D01*
X018871Y026462D02*
X018931Y026462D01*
X018931Y026364D02*
X018871Y026364D01*
X018871Y026265D02*
X018931Y026265D01*
X018931Y026068D02*
X018871Y026068D01*
X018871Y025970D02*
X018931Y025970D01*
X018931Y025871D02*
X018871Y025871D01*
X018871Y025772D02*
X018931Y025772D01*
X019913Y025970D02*
X020001Y025970D01*
X020001Y025378D02*
X019958Y025378D01*
X020001Y025280D02*
X019859Y025280D01*
X016433Y023013D02*
X015869Y023013D01*
X015967Y022915D02*
X016335Y022915D01*
X016241Y022816D02*
X016061Y022816D01*
X016061Y022718D02*
X016241Y022718D01*
X016241Y022619D02*
X016061Y022619D01*
X016061Y022521D02*
X016195Y022521D01*
X016097Y022422D02*
X016002Y022422D01*
X015998Y022323D02*
X015903Y022323D01*
X014393Y018973D02*
X014381Y018973D01*
X014381Y017790D02*
X014495Y017790D01*
X012921Y018973D02*
X012909Y018973D01*
X010921Y018973D02*
X010909Y018973D01*
X013881Y015031D02*
X017421Y015031D01*
X017421Y014933D02*
X013881Y014933D01*
X013881Y014834D02*
X017421Y014834D01*
X016668Y016805D02*
X016135Y016805D01*
X016233Y016904D02*
X016569Y016904D01*
X016491Y017002D02*
X016311Y017002D01*
X016311Y017101D02*
X016491Y017101D01*
X016491Y017199D02*
X016311Y017199D01*
X016311Y017298D02*
X016491Y017298D01*
X016566Y017396D02*
X016236Y017396D01*
X016228Y017495D02*
X016137Y017495D01*
X016575Y017495D02*
X016665Y017495D01*
X014400Y014736D02*
X013907Y014736D01*
X014001Y014637D02*
X014309Y014637D01*
X014261Y014539D02*
X014042Y014539D01*
X014061Y014440D02*
X014241Y014440D01*
X014241Y014341D02*
X014061Y014341D01*
X014061Y014243D02*
X014241Y014243D01*
X010399Y023604D02*
X009903Y023604D01*
X009989Y023703D02*
X010313Y023703D01*
X010273Y023802D02*
X010030Y023802D01*
X010039Y023900D02*
X010263Y023900D01*
X010272Y023999D02*
X010031Y023999D01*
X009990Y024097D02*
X010313Y024097D01*
X010397Y024196D02*
X009905Y024196D01*
X006433Y023013D02*
X005869Y023013D01*
X005821Y023061D02*
X005481Y023061D01*
X005241Y022821D01*
X005241Y022481D01*
X005481Y022241D01*
X005821Y022241D01*
X006061Y022481D01*
X006061Y022821D01*
X005821Y023061D01*
X005967Y022915D02*
X006335Y022915D01*
X006241Y022816D02*
X006061Y022816D01*
X006061Y022718D02*
X006241Y022718D01*
X006241Y022619D02*
X006061Y022619D01*
X006061Y022521D02*
X006241Y022521D01*
X006301Y022422D02*
X006002Y022422D01*
X005903Y022323D02*
X006399Y022323D01*
X005399Y022323D02*
X004903Y022323D01*
X005002Y022422D02*
X005301Y022422D01*
X005241Y022521D02*
X005061Y022521D01*
X005061Y022619D02*
X005241Y022619D01*
X005241Y022718D02*
X005061Y022718D01*
X005061Y022816D02*
X005241Y022816D01*
X005335Y022915D02*
X004967Y022915D01*
X004869Y023013D02*
X005433Y023013D01*
X002504Y029937D02*
X002504Y029937D01*
X003851Y009119D02*
X003951Y009119D01*
X003951Y009020D02*
X003851Y009020D01*
X003851Y008922D02*
X003951Y008922D01*
X003951Y008823D02*
X003851Y008823D01*
X002072Y006655D02*
X001921Y006655D01*
X001921Y006556D02*
X002171Y006556D01*
X002269Y006458D02*
X001884Y006458D01*
X001843Y006359D02*
X002368Y006359D01*
X002466Y006261D02*
X001746Y006261D01*
X001580Y006162D02*
X002565Y006162D01*
X001974Y006754D02*
X001921Y006754D01*
X002504Y003437D02*
X002504Y003437D01*
X001262Y003403D02*
X000301Y003403D01*
X000301Y003305D02*
X001044Y003305D01*
X001076Y003330D02*
X001076Y003330D01*
X000921Y003206D02*
X000301Y003206D01*
X000301Y003107D02*
X000797Y003107D01*
X000692Y003023D02*
X000692Y003023D01*
X000682Y003009D02*
X000301Y003009D01*
X000301Y002910D02*
X000615Y002910D01*
X000547Y002812D02*
X000301Y002812D01*
X000301Y002713D02*
X000480Y002713D01*
X000414Y002615D02*
X000301Y002615D01*
X000301Y002516D02*
X000384Y002516D01*
X000353Y002418D02*
X000301Y002418D01*
X000301Y002319D02*
X000323Y002319D01*
X006915Y004586D02*
X006921Y004586D01*
X008381Y004586D02*
X008387Y004586D01*
D21*
X005151Y011651D03*
X001401Y012901D03*
X007651Y021151D03*
X008651Y021651D03*
X009651Y022151D03*
X009651Y025151D03*
X007651Y026651D03*
X011651Y026651D03*
X012651Y025151D03*
X012151Y024401D03*
X014901Y022026D03*
X015401Y022026D03*
X017651Y020776D03*
D22*
X014651Y015651D03*
X005651Y015651D03*
D23*
X006151Y013651D02*
X005651Y013151D01*
X002401Y013151D01*
X002401Y016151D01*
X002151Y016401D01*
X001151Y016401D01*
X000901Y016651D01*
X000901Y017151D01*
X001901Y017151D02*
X001901Y019151D01*
X001901Y021151D01*
X001901Y023151D01*
X001901Y025151D02*
X000901Y025151D01*
X001901Y025151D02*
X002151Y025401D01*
X002151Y026151D01*
X002651Y026651D01*
X007651Y026651D01*
X009651Y025151D02*
X002901Y025151D01*
X006651Y020651D02*
X006151Y020151D01*
X006151Y013651D01*
X006151Y012651D02*
X004401Y012651D01*
X003901Y012151D01*
X003901Y011151D02*
X006401Y011151D01*
X008901Y011151D01*
X011401Y011151D01*
X013901Y011151D01*
X016401Y011151D01*
X018901Y011151D01*
X019151Y010401D02*
X001151Y010401D01*
X000651Y010901D01*
X000651Y012651D01*
X000901Y012901D01*
X001401Y012901D01*
X001401Y012151D02*
X002401Y013151D01*
X001401Y011151D02*
X003901Y011151D01*
X005151Y011651D02*
X007151Y011651D01*
X008651Y013151D01*
X008651Y014151D01*
X008151Y013651D02*
X006651Y012151D01*
X006401Y012151D01*
X006151Y012651D02*
X007151Y013651D01*
X007151Y020151D01*
X007651Y020651D01*
X007651Y021151D01*
X007651Y022651D01*
X006651Y022651D02*
X006651Y020651D01*
X008151Y020151D02*
X008151Y013651D01*
X009151Y012401D02*
X008901Y012151D01*
X009151Y012401D02*
X009151Y020151D01*
X009651Y020651D01*
X009651Y022151D01*
X009651Y022651D01*
X008651Y022651D02*
X008651Y021651D01*
X008651Y020651D01*
X008151Y020151D01*
X010151Y020151D02*
X010151Y013401D01*
X011401Y012151D01*
X012651Y012151D02*
X011151Y013651D01*
X011151Y020151D01*
X011651Y020651D01*
X011651Y022651D01*
X011401Y023401D02*
X011151Y023651D01*
X011151Y029651D01*
X011651Y026651D02*
X017651Y026651D01*
X018151Y026151D01*
X018151Y025651D01*
X018651Y025151D01*
X018901Y025151D01*
X018151Y023901D02*
X019151Y022901D01*
X019151Y022151D01*
X018151Y023901D02*
X014151Y023901D01*
X013651Y024401D01*
X012151Y024401D01*
X012651Y025151D02*
X016901Y025151D01*
X016651Y022651D02*
X016151Y022151D01*
X016151Y018151D01*
X016401Y017901D01*
X016901Y017151D02*
X017651Y016401D01*
X017651Y013901D01*
X018651Y012901D01*
X019151Y012901D01*
X019651Y012401D01*
X019651Y010901D01*
X019151Y010401D01*
X018901Y008651D02*
X016401Y008651D01*
X013901Y008651D01*
X011401Y008651D01*
X008901Y008651D01*
X006401Y008651D01*
X003901Y008651D01*
X001401Y008651D01*
X001401Y007651D02*
X003901Y005151D01*
X005651Y005151D01*
X006151Y004651D01*
X006151Y002651D01*
X006651Y002151D01*
X006651Y000901D01*
X007651Y000901D02*
X007651Y002151D01*
X007151Y002651D01*
X007151Y005151D01*
X006651Y005651D01*
X005901Y005651D01*
X003901Y007651D01*
X006401Y007651D02*
X008151Y005901D01*
X008151Y002651D01*
X008651Y002151D01*
X008651Y000901D01*
X009651Y000901D02*
X009651Y002151D01*
X009151Y002651D01*
X009151Y005151D01*
X009651Y005651D01*
X009651Y006901D01*
X008901Y007651D01*
X010651Y006901D02*
X010651Y005651D01*
X011151Y005151D01*
X011151Y002651D01*
X010651Y002151D01*
X010651Y000901D01*
X011651Y000901D02*
X011651Y002151D01*
X012151Y002651D01*
X012151Y005901D01*
X013901Y007651D01*
X013651Y005651D02*
X014401Y005651D01*
X016401Y007651D01*
X016401Y005151D02*
X014651Y005151D01*
X014151Y004651D01*
X014151Y002651D01*
X013651Y002151D01*
X013651Y000901D01*
X012651Y000901D02*
X012651Y002151D01*
X013151Y002651D01*
X013151Y005151D01*
X013651Y005651D01*
X011401Y007651D02*
X010651Y006901D01*
X012651Y012151D02*
X013901Y012151D01*
X013651Y013151D02*
X017901Y013151D01*
X018901Y012151D01*
X016401Y012151D02*
X015901Y012651D01*
X013151Y012651D01*
X012151Y013651D01*
X012151Y020151D01*
X012651Y020651D01*
X012651Y022651D01*
X013651Y022651D02*
X013651Y020651D01*
X013151Y020151D01*
X013151Y013651D01*
X013651Y013151D01*
X013651Y014151D02*
X013651Y015651D01*
X014151Y016151D01*
X014151Y022901D01*
X013651Y023401D01*
X011401Y023401D01*
X010651Y022651D02*
X010651Y020651D01*
X010151Y020151D01*
X017651Y020776D02*
X017651Y022651D01*
X017651Y018651D02*
X018151Y018651D01*
X018901Y017901D01*
X018901Y007651D02*
X016401Y005151D01*
M02*
