G75*
G70*
%OFA0B0*%
%FSLAX24Y24*%
%IPPOS*%
%LPD*%
%AMOC8*
5,1,8,0,0,1.08239X$1,22.5*
%
%ADD10C,0.0000*%
%ADD11C,0.0600*%
%ADD12OC8,0.0600*%
%ADD13R,0.0556X0.0556*%
%ADD14C,0.0556*%
%ADD15C,0.0789*%
%ADD16C,0.0820*%
%ADD17C,0.1261*%
%ADD18C,0.0680*%
%ADD19R,0.1655X0.0867*%
%ADD20C,0.0060*%
%ADD21C,0.0640*%
%ADD22C,0.0555*%
D10*
X000151Y001901D02*
X000151Y028401D01*
X001310Y028401D02*
X001312Y028449D01*
X001318Y028497D01*
X001328Y028544D01*
X001341Y028590D01*
X001359Y028635D01*
X001379Y028679D01*
X001404Y028721D01*
X001432Y028760D01*
X001462Y028797D01*
X001496Y028831D01*
X001533Y028863D01*
X001571Y028892D01*
X001612Y028917D01*
X001655Y028939D01*
X001700Y028957D01*
X001746Y028971D01*
X001793Y028982D01*
X001841Y028989D01*
X001889Y028992D01*
X001937Y028991D01*
X001985Y028986D01*
X002033Y028977D01*
X002079Y028965D01*
X002124Y028948D01*
X002168Y028928D01*
X002210Y028905D01*
X002250Y028878D01*
X002288Y028848D01*
X002323Y028815D01*
X002355Y028779D01*
X002385Y028741D01*
X002411Y028700D01*
X002433Y028657D01*
X002453Y028613D01*
X002468Y028568D01*
X002480Y028521D01*
X002488Y028473D01*
X002492Y028425D01*
X002492Y028377D01*
X002488Y028329D01*
X002480Y028281D01*
X002468Y028234D01*
X002453Y028189D01*
X002433Y028145D01*
X002411Y028102D01*
X002385Y028061D01*
X002355Y028023D01*
X002323Y027987D01*
X002288Y027954D01*
X002250Y027924D01*
X002210Y027897D01*
X002168Y027874D01*
X002124Y027854D01*
X002079Y027837D01*
X002033Y027825D01*
X001985Y027816D01*
X001937Y027811D01*
X001889Y027810D01*
X001841Y027813D01*
X001793Y027820D01*
X001746Y027831D01*
X001700Y027845D01*
X001655Y027863D01*
X001612Y027885D01*
X001571Y027910D01*
X001533Y027939D01*
X001496Y027971D01*
X001462Y028005D01*
X001432Y028042D01*
X001404Y028081D01*
X001379Y028123D01*
X001359Y028167D01*
X001341Y028212D01*
X001328Y028258D01*
X001318Y028305D01*
X001312Y028353D01*
X001310Y028401D01*
X000151Y028401D02*
X000153Y028484D01*
X000159Y028567D01*
X000169Y028650D01*
X000183Y028732D01*
X000200Y028814D01*
X000222Y028894D01*
X000247Y028973D01*
X000276Y029051D01*
X000309Y029128D01*
X000346Y029203D01*
X000385Y029276D01*
X000429Y029347D01*
X000475Y029416D01*
X000525Y029483D01*
X000578Y029547D01*
X000634Y029609D01*
X000693Y029668D01*
X000755Y029724D01*
X000819Y029777D01*
X000886Y029827D01*
X000955Y029873D01*
X001026Y029917D01*
X001099Y029956D01*
X001174Y029993D01*
X001251Y030026D01*
X001329Y030055D01*
X001408Y030080D01*
X001488Y030102D01*
X001570Y030119D01*
X001652Y030133D01*
X001735Y030143D01*
X001818Y030149D01*
X001901Y030151D01*
X018401Y030151D01*
X017810Y028401D02*
X017812Y028449D01*
X017818Y028497D01*
X017828Y028544D01*
X017841Y028590D01*
X017859Y028635D01*
X017879Y028679D01*
X017904Y028721D01*
X017932Y028760D01*
X017962Y028797D01*
X017996Y028831D01*
X018033Y028863D01*
X018071Y028892D01*
X018112Y028917D01*
X018155Y028939D01*
X018200Y028957D01*
X018246Y028971D01*
X018293Y028982D01*
X018341Y028989D01*
X018389Y028992D01*
X018437Y028991D01*
X018485Y028986D01*
X018533Y028977D01*
X018579Y028965D01*
X018624Y028948D01*
X018668Y028928D01*
X018710Y028905D01*
X018750Y028878D01*
X018788Y028848D01*
X018823Y028815D01*
X018855Y028779D01*
X018885Y028741D01*
X018911Y028700D01*
X018933Y028657D01*
X018953Y028613D01*
X018968Y028568D01*
X018980Y028521D01*
X018988Y028473D01*
X018992Y028425D01*
X018992Y028377D01*
X018988Y028329D01*
X018980Y028281D01*
X018968Y028234D01*
X018953Y028189D01*
X018933Y028145D01*
X018911Y028102D01*
X018885Y028061D01*
X018855Y028023D01*
X018823Y027987D01*
X018788Y027954D01*
X018750Y027924D01*
X018710Y027897D01*
X018668Y027874D01*
X018624Y027854D01*
X018579Y027837D01*
X018533Y027825D01*
X018485Y027816D01*
X018437Y027811D01*
X018389Y027810D01*
X018341Y027813D01*
X018293Y027820D01*
X018246Y027831D01*
X018200Y027845D01*
X018155Y027863D01*
X018112Y027885D01*
X018071Y027910D01*
X018033Y027939D01*
X017996Y027971D01*
X017962Y028005D01*
X017932Y028042D01*
X017904Y028081D01*
X017879Y028123D01*
X017859Y028167D01*
X017841Y028212D01*
X017828Y028258D01*
X017818Y028305D01*
X017812Y028353D01*
X017810Y028401D01*
X018401Y030151D02*
X018484Y030149D01*
X018567Y030143D01*
X018650Y030133D01*
X018732Y030119D01*
X018814Y030102D01*
X018894Y030080D01*
X018973Y030055D01*
X019051Y030026D01*
X019128Y029993D01*
X019203Y029956D01*
X019276Y029917D01*
X019347Y029873D01*
X019416Y029827D01*
X019483Y029777D01*
X019547Y029724D01*
X019609Y029668D01*
X019668Y029609D01*
X019724Y029547D01*
X019777Y029483D01*
X019827Y029416D01*
X019873Y029347D01*
X019917Y029276D01*
X019956Y029203D01*
X019993Y029128D01*
X020026Y029051D01*
X020055Y028973D01*
X020080Y028894D01*
X020102Y028814D01*
X020119Y028732D01*
X020133Y028650D01*
X020143Y028567D01*
X020149Y028484D01*
X020151Y028401D01*
X020151Y001901D01*
X017810Y001901D02*
X017812Y001949D01*
X017818Y001997D01*
X017828Y002044D01*
X017841Y002090D01*
X017859Y002135D01*
X017879Y002179D01*
X017904Y002221D01*
X017932Y002260D01*
X017962Y002297D01*
X017996Y002331D01*
X018033Y002363D01*
X018071Y002392D01*
X018112Y002417D01*
X018155Y002439D01*
X018200Y002457D01*
X018246Y002471D01*
X018293Y002482D01*
X018341Y002489D01*
X018389Y002492D01*
X018437Y002491D01*
X018485Y002486D01*
X018533Y002477D01*
X018579Y002465D01*
X018624Y002448D01*
X018668Y002428D01*
X018710Y002405D01*
X018750Y002378D01*
X018788Y002348D01*
X018823Y002315D01*
X018855Y002279D01*
X018885Y002241D01*
X018911Y002200D01*
X018933Y002157D01*
X018953Y002113D01*
X018968Y002068D01*
X018980Y002021D01*
X018988Y001973D01*
X018992Y001925D01*
X018992Y001877D01*
X018988Y001829D01*
X018980Y001781D01*
X018968Y001734D01*
X018953Y001689D01*
X018933Y001645D01*
X018911Y001602D01*
X018885Y001561D01*
X018855Y001523D01*
X018823Y001487D01*
X018788Y001454D01*
X018750Y001424D01*
X018710Y001397D01*
X018668Y001374D01*
X018624Y001354D01*
X018579Y001337D01*
X018533Y001325D01*
X018485Y001316D01*
X018437Y001311D01*
X018389Y001310D01*
X018341Y001313D01*
X018293Y001320D01*
X018246Y001331D01*
X018200Y001345D01*
X018155Y001363D01*
X018112Y001385D01*
X018071Y001410D01*
X018033Y001439D01*
X017996Y001471D01*
X017962Y001505D01*
X017932Y001542D01*
X017904Y001581D01*
X017879Y001623D01*
X017859Y001667D01*
X017841Y001712D01*
X017828Y001758D01*
X017818Y001805D01*
X017812Y001853D01*
X017810Y001901D01*
X018401Y000151D02*
X018484Y000153D01*
X018567Y000159D01*
X018650Y000169D01*
X018732Y000183D01*
X018814Y000200D01*
X018894Y000222D01*
X018973Y000247D01*
X019051Y000276D01*
X019128Y000309D01*
X019203Y000346D01*
X019276Y000385D01*
X019347Y000429D01*
X019416Y000475D01*
X019483Y000525D01*
X019547Y000578D01*
X019609Y000634D01*
X019668Y000693D01*
X019724Y000755D01*
X019777Y000819D01*
X019827Y000886D01*
X019873Y000955D01*
X019917Y001026D01*
X019956Y001099D01*
X019993Y001174D01*
X020026Y001251D01*
X020055Y001329D01*
X020080Y001408D01*
X020102Y001488D01*
X020119Y001570D01*
X020133Y001652D01*
X020143Y001735D01*
X020149Y001818D01*
X020151Y001901D01*
X018401Y000151D02*
X001901Y000151D01*
X001310Y001901D02*
X001312Y001949D01*
X001318Y001997D01*
X001328Y002044D01*
X001341Y002090D01*
X001359Y002135D01*
X001379Y002179D01*
X001404Y002221D01*
X001432Y002260D01*
X001462Y002297D01*
X001496Y002331D01*
X001533Y002363D01*
X001571Y002392D01*
X001612Y002417D01*
X001655Y002439D01*
X001700Y002457D01*
X001746Y002471D01*
X001793Y002482D01*
X001841Y002489D01*
X001889Y002492D01*
X001937Y002491D01*
X001985Y002486D01*
X002033Y002477D01*
X002079Y002465D01*
X002124Y002448D01*
X002168Y002428D01*
X002210Y002405D01*
X002250Y002378D01*
X002288Y002348D01*
X002323Y002315D01*
X002355Y002279D01*
X002385Y002241D01*
X002411Y002200D01*
X002433Y002157D01*
X002453Y002113D01*
X002468Y002068D01*
X002480Y002021D01*
X002488Y001973D01*
X002492Y001925D01*
X002492Y001877D01*
X002488Y001829D01*
X002480Y001781D01*
X002468Y001734D01*
X002453Y001689D01*
X002433Y001645D01*
X002411Y001602D01*
X002385Y001561D01*
X002355Y001523D01*
X002323Y001487D01*
X002288Y001454D01*
X002250Y001424D01*
X002210Y001397D01*
X002168Y001374D01*
X002124Y001354D01*
X002079Y001337D01*
X002033Y001325D01*
X001985Y001316D01*
X001937Y001311D01*
X001889Y001310D01*
X001841Y001313D01*
X001793Y001320D01*
X001746Y001331D01*
X001700Y001345D01*
X001655Y001363D01*
X001612Y001385D01*
X001571Y001410D01*
X001533Y001439D01*
X001496Y001471D01*
X001462Y001505D01*
X001432Y001542D01*
X001404Y001581D01*
X001379Y001623D01*
X001359Y001667D01*
X001341Y001712D01*
X001328Y001758D01*
X001318Y001805D01*
X001312Y001853D01*
X001310Y001901D01*
X000151Y001901D02*
X000153Y001818D01*
X000159Y001735D01*
X000169Y001652D01*
X000183Y001570D01*
X000200Y001488D01*
X000222Y001408D01*
X000247Y001329D01*
X000276Y001251D01*
X000309Y001174D01*
X000346Y001099D01*
X000385Y001026D01*
X000429Y000955D01*
X000475Y000886D01*
X000525Y000819D01*
X000578Y000755D01*
X000634Y000693D01*
X000693Y000634D01*
X000755Y000578D01*
X000819Y000525D01*
X000886Y000475D01*
X000955Y000429D01*
X001026Y000385D01*
X001099Y000346D01*
X001174Y000309D01*
X001251Y000276D01*
X001329Y000247D01*
X001408Y000222D01*
X001488Y000200D01*
X001570Y000183D01*
X001652Y000169D01*
X001735Y000159D01*
X001818Y000153D01*
X001901Y000151D01*
D11*
X006651Y000891D02*
X006651Y001411D01*
X007651Y001411D02*
X007651Y000891D01*
X008651Y000891D02*
X008651Y001411D01*
X009651Y001411D02*
X009651Y000891D01*
X010651Y000891D02*
X010651Y001411D01*
X011651Y001411D02*
X011651Y000891D01*
X012651Y000891D02*
X012651Y001411D01*
X013651Y001411D02*
X013651Y000891D01*
X013651Y003891D02*
X013651Y004411D01*
X012651Y004411D02*
X012651Y003891D01*
X011651Y003891D02*
X011651Y004411D01*
X010651Y004411D02*
X010651Y003891D01*
X009651Y003891D02*
X009651Y004411D01*
X008651Y004411D02*
X008651Y003891D01*
X007651Y003891D02*
X007651Y004411D01*
X006651Y004411D02*
X006651Y003891D01*
X006651Y013891D02*
X006651Y014411D01*
X005651Y014411D02*
X005651Y013891D01*
X007651Y013891D02*
X007651Y014411D01*
X008651Y014411D02*
X008651Y013891D01*
X009651Y013891D02*
X009651Y014411D01*
X010651Y014411D02*
X010651Y013891D01*
X011651Y013891D02*
X011651Y014411D01*
X012651Y014411D02*
X012651Y013891D01*
X013651Y013891D02*
X013651Y014411D01*
X014651Y014411D02*
X014651Y013891D01*
X014651Y016891D02*
X014651Y017411D01*
X013651Y017411D02*
X013651Y016891D01*
X012651Y016891D02*
X012651Y017411D01*
X011651Y017411D02*
X011651Y016891D01*
X010651Y016891D02*
X010651Y017411D01*
X009651Y017411D02*
X009651Y016891D01*
X008651Y016891D02*
X008651Y017411D01*
X007651Y017411D02*
X007651Y016891D01*
X006651Y016891D02*
X006651Y017411D01*
X005651Y017411D02*
X005651Y016891D01*
D12*
X004651Y016651D03*
X004651Y017651D03*
X004651Y018651D03*
X005651Y018651D03*
X006651Y018651D03*
X007651Y018651D03*
X008651Y018651D03*
X009651Y018651D03*
X010651Y018651D03*
X011651Y018651D03*
X012651Y018651D03*
X013651Y018651D03*
X014651Y018651D03*
X015651Y018651D03*
X016401Y017901D03*
X016651Y018651D03*
X017651Y018651D03*
X016901Y017151D03*
X015901Y017151D03*
X018401Y017151D03*
X018901Y017901D03*
X019401Y017151D03*
X018901Y012151D03*
X018901Y011151D03*
X016401Y011151D03*
X016401Y012151D03*
X013901Y012151D03*
X013901Y011151D03*
X011401Y011151D03*
X011401Y012151D03*
X008901Y012151D03*
X008901Y011151D03*
X006401Y011151D03*
X006401Y012151D03*
X003901Y012151D03*
X003901Y011151D03*
X001401Y011151D03*
X001401Y012151D03*
X000901Y017151D03*
X001901Y017151D03*
X001901Y019151D03*
X000901Y019151D03*
X000901Y021151D03*
X001901Y021151D03*
X001901Y023151D03*
X000901Y023151D03*
X000901Y025151D03*
X001651Y025651D03*
X000901Y026151D03*
X002901Y026151D03*
X003651Y025651D03*
X002901Y025151D03*
X004651Y022651D03*
X005651Y022651D03*
X006651Y022651D03*
X007651Y022651D03*
X008651Y022651D03*
X009651Y022651D03*
X010651Y022651D03*
X011651Y022651D03*
X012651Y022651D03*
X013651Y022651D03*
X014651Y022651D03*
X015651Y022651D03*
X016651Y022651D03*
X017651Y022651D03*
X016901Y025151D03*
X017651Y025651D03*
X016901Y026151D03*
X018901Y026151D03*
X019651Y025651D03*
X018901Y025151D03*
D13*
X007651Y023901D03*
D14*
X008651Y023901D03*
X009651Y023901D03*
X010651Y023901D03*
X011651Y023901D03*
X012651Y023901D03*
X012651Y027901D03*
X011651Y027901D03*
X010651Y027901D03*
X009651Y027901D03*
X008651Y027901D03*
X007651Y027901D03*
D15*
X007911Y029006D03*
X012391Y029006D03*
D16*
X019151Y022151D03*
X019151Y021151D03*
X019151Y020151D03*
X018901Y008651D03*
X018901Y007651D03*
X018901Y006651D03*
X016401Y006651D03*
X016401Y007651D03*
X016401Y008651D03*
X013901Y008651D03*
X013901Y007651D03*
X013901Y006651D03*
X011401Y006651D03*
X011401Y007651D03*
X011401Y008651D03*
X008901Y008651D03*
X008901Y007651D03*
X008901Y006651D03*
X006401Y006651D03*
X006401Y007651D03*
X006401Y008651D03*
X003901Y008651D03*
X003901Y007651D03*
X003901Y006651D03*
X001401Y006651D03*
X001401Y007651D03*
X001401Y008651D03*
D17*
X001901Y001901D03*
X018401Y001901D03*
X018401Y028401D03*
X001901Y028401D03*
D18*
X001671Y015541D02*
X001071Y015541D01*
X001071Y013761D02*
X001671Y013761D01*
X003631Y013761D02*
X004231Y013761D01*
X004231Y015541D02*
X003631Y015541D01*
X016071Y015541D02*
X016671Y015541D01*
X016671Y013761D02*
X016071Y013761D01*
X018631Y013761D02*
X019231Y013761D01*
X019231Y015541D02*
X018631Y015541D01*
D19*
X011151Y029651D03*
X009151Y029651D03*
D20*
X015016Y005026D02*
X015206Y005026D01*
X015256Y004786D01*
X015226Y004776D02*
X014976Y004776D01*
X015026Y004976D01*
X015176Y004976D01*
X015226Y004776D01*
X015426Y004676D01*
X015626Y004826D01*
X015726Y004726D01*
X015626Y004526D01*
X015726Y004276D01*
X015926Y004276D01*
X015926Y004126D01*
X015676Y004076D01*
X015626Y003826D01*
X015726Y003676D01*
X015626Y003576D01*
X015476Y003676D01*
X015376Y003626D01*
X015276Y003926D01*
X015426Y004126D01*
X015376Y004376D01*
X015176Y004476D01*
X014976Y004476D01*
X014826Y004326D01*
X014826Y004026D01*
X014976Y003926D01*
X014826Y003676D01*
X014776Y003676D01*
X014626Y003576D01*
X014526Y003676D01*
X014626Y003826D01*
X014526Y004076D01*
X014326Y004126D01*
X014326Y004276D01*
X014526Y004276D01*
X014626Y004526D01*
X014476Y004726D01*
X014626Y004826D01*
X014776Y004676D01*
X014976Y004776D01*
X014966Y004786D02*
X015016Y005026D01*
X015020Y004952D02*
X015182Y004952D01*
X015197Y004893D02*
X015005Y004893D01*
X014991Y004835D02*
X015212Y004835D01*
X015343Y004718D02*
X014859Y004718D01*
X014786Y004716D02*
X014596Y004846D01*
X014456Y004706D01*
X014586Y004516D01*
X014614Y004542D02*
X015634Y004542D01*
X015636Y004516D02*
X015776Y004706D01*
X015636Y004846D01*
X015436Y004716D01*
X015481Y004718D02*
X015722Y004718D01*
X015693Y004659D02*
X014527Y004659D01*
X014570Y004600D02*
X015663Y004600D01*
X015643Y004483D02*
X014609Y004483D01*
X014586Y004425D02*
X014925Y004425D01*
X014866Y004366D02*
X014562Y004366D01*
X014539Y004308D02*
X014826Y004308D01*
X014826Y004249D02*
X014326Y004249D01*
X014326Y004191D02*
X014826Y004191D01*
X014826Y004132D02*
X014326Y004132D01*
X014276Y004086D02*
X014496Y004046D01*
X014527Y004074D02*
X014826Y004074D01*
X014843Y004015D02*
X014551Y004015D01*
X014574Y003956D02*
X014931Y003956D01*
X014959Y003898D02*
X014597Y003898D01*
X014576Y003846D02*
X014456Y003666D01*
X014596Y003526D01*
X014776Y003646D01*
X014846Y003606D01*
X014996Y003946D01*
X014924Y003839D02*
X014621Y003839D01*
X014596Y003781D02*
X014889Y003781D01*
X014854Y003722D02*
X014557Y003722D01*
X014539Y003664D02*
X014758Y003664D01*
X014670Y003605D02*
X014597Y003605D01*
X014276Y004086D02*
X014276Y004286D01*
X014506Y004326D01*
X014483Y004718D02*
X014735Y004718D01*
X014676Y004776D02*
X014551Y004776D01*
X014498Y004030D02*
X014513Y003983D01*
X014531Y003937D01*
X014553Y003893D01*
X014578Y003851D01*
X014789Y004712D02*
X014831Y004735D01*
X014874Y004754D01*
X014919Y004771D01*
X014965Y004783D01*
X015279Y004425D02*
X015667Y004425D01*
X015690Y004366D02*
X015378Y004366D01*
X015390Y004308D02*
X015714Y004308D01*
X015726Y004326D02*
X015946Y004286D01*
X015946Y004086D01*
X015726Y004046D01*
X015676Y004074D02*
X015387Y004074D01*
X015425Y004132D02*
X015926Y004132D01*
X015926Y004191D02*
X015413Y004191D01*
X015402Y004249D02*
X015926Y004249D01*
X015664Y004015D02*
X015343Y004015D01*
X015299Y003956D02*
X015652Y003956D01*
X015641Y003898D02*
X015286Y003898D01*
X015305Y003839D02*
X015629Y003839D01*
X015646Y003846D02*
X015776Y003666D01*
X015636Y003526D01*
X015456Y003646D01*
X015376Y003606D01*
X015236Y003946D01*
X015325Y003781D02*
X015656Y003781D01*
X015695Y003722D02*
X015344Y003722D01*
X015364Y003664D02*
X015451Y003664D01*
X015495Y003664D02*
X015714Y003664D01*
X015655Y003605D02*
X015583Y003605D01*
X015728Y004327D02*
X015716Y004367D01*
X015701Y004406D01*
X015683Y004444D01*
X015663Y004480D01*
X015641Y004515D01*
X015676Y004776D02*
X015559Y004776D01*
X015236Y003946D02*
X015264Y003962D01*
X015291Y003981D01*
X015314Y004003D01*
X015335Y004028D01*
X015353Y004056D01*
X015368Y004085D01*
X015378Y004116D01*
X015386Y004147D01*
X015389Y004180D01*
X015388Y004212D01*
X015384Y004245D01*
X015375Y004276D01*
X015363Y004306D01*
X015348Y004335D01*
X015329Y004362D01*
X015307Y004386D01*
X015283Y004407D01*
X015256Y004426D01*
X015227Y004441D01*
X015196Y004452D01*
X015165Y004460D01*
X015132Y004464D01*
X015100Y004464D01*
X015067Y004460D01*
X015036Y004452D01*
X015005Y004441D01*
X014976Y004426D01*
X014949Y004407D01*
X014925Y004386D01*
X014903Y004362D01*
X014884Y004335D01*
X014869Y004306D01*
X014857Y004276D01*
X014848Y004245D01*
X014844Y004212D01*
X014843Y004180D01*
X014846Y004147D01*
X014854Y004116D01*
X014864Y004085D01*
X014879Y004056D01*
X014897Y004028D01*
X014918Y004003D01*
X014941Y003981D01*
X014968Y003962D01*
X014996Y003946D01*
X014504Y004328D02*
X014515Y004368D01*
X014529Y004407D01*
X014545Y004444D01*
X014564Y004481D01*
X014585Y004516D01*
X015725Y004047D02*
X015715Y004005D01*
X015702Y003964D01*
X015686Y003924D01*
X015667Y003885D01*
X015645Y003848D01*
X015436Y004716D02*
X015393Y004739D01*
X015349Y004759D01*
X015303Y004775D01*
X015257Y004787D01*
D21*
X010545Y028776D03*
X009757Y028776D03*
D22*
X005651Y015651D03*
X014651Y015651D03*
M02*
